<?xml version="1.0" encoding="UTF-8" standalone="no"?>
<!DOCTYPE svg  PUBLIC '-//W3C//DTD SVG 1.1//EN'  'http://www.w3.org/Graphics/SVG/1.1/DTD/svg11.dtd'>
<svg xmlns="http://www.w3.org/2000/svg">
<defs>
<font id="HelveticaInseratLT-Roman" horiz-adv-x="1024">
<font-face underline-position="-154" font-weight="400" descent="-410" panose-1="2 11 5 0 0 0 0 0 0 0" units-per-em="2048" unicode-range="U+0020-2122" bbox="-84 -512 2048 2028" x-height="1309" underline-thickness="102" font-family="HelveticaInseratLT" ascent="1638" cap-height="1636"/>
<missing-glyph horiz-adv-x="2048"/>
<glyph glyph-name=".notdef" horiz-adv-x="2048"/>
<glyph glyph-name=".null" horiz-adv-x="0"/>
<glyph glyph-name="nonmarkingreturn" horiz-adv-x="2048"/>
<glyph glyph-name="space" horiz-adv-x="512" unicode=" "/>
<glyph glyph-name="exclam" horiz-adv-x="684" unicode="!" d="M512 0h-340v377h340v-377zM172 1636h340v-639l-78 -524h-184l-78 524v639z"/>
<glyph glyph-name="quotedbl" d="M156 1059v577h290v-577h-290zM577 1059v577h291v-577h-291z" unicode='&quot;'/>
<glyph glyph-name="numbersign" d="M614 956h-166l-34 -268h168zM59 956v242h183l49 412h235l-49 -412h166l49 412h234l-52 -412h152v-242h-182l-31 -268h152v-242h-183l-51 -446h-231l53 446h-168l-53 -446h-236l53 446h-151v242h182l31 268h-152z" unicode="#"/>
<glyph glyph-name="dollar" d="M59 358v185h340v-129v-14q0 -59 15 -99q16 -49 92 -49q96 2 96 153q-2 101 -84 181q-80 78 -186 161q-105 84 -187 197q-86 113 -88 277q2 188 105 296q98 107 264 119v148h168v-148q352 -36 352 -404v-16v-104h-340v109q0 55 -18 96q-23 39 -86 41q-41 0 -66 -33 q-26 -35 -26 -86q0 -41 26 -78q23 -39 62 -78q82 -75 190 -166q109 -88 193 -208q84 -125 86 -301q-2 -375 -373 -435v-147h-168v147q-152 0 -256 95q-109 94 -111 290z" unicode="$"/>
<glyph glyph-name="percent" horiz-adv-x="1821" unicode="%" d="M1057 223v363q0 139 82 196q75 54 206 54q129 0 207 -54q76 -57 78 -196v-363q-2 -135 -78 -192q-78 -58 -207 -58q-131 0 -206 58q-82 57 -82 192zM598 -53l434 1716h191l-428 -1716h-197zM420 1386v-362q0 -29 10 -47q10 -23 49 -23q37 0 47 23q8 18 8 47v362 q0 33 -8 52q-10 18 -47 18q-39 0 -49 -18q-10 -19 -10 -52zM190 1024v362q0 140 82 197q76 53 207 53q129 0 207 -53q76 -57 78 -197v-362q-2 -135 -78 -193q-75 -57 -199 -57h-8h-9q-125 0 -198 57q-82 58 -82 193zM1286 586v-363q0 -28 10 -47q11 -22 49 -22q37 0 48 22 q8 19 8 47v363q0 32 -8 51q-11 18 -48 18q-38 0 -49 -18q-10 -19 -10 -51z"/>
<glyph glyph-name="ampersand" horiz-adv-x="1366" unicode="&amp;" d="M647 1395q-86 -2 -86 -80q0 -43 31 -97q28 -51 43 -77q33 30 63 69q31 44 31 96q0 84 -82 89zM532 688q-51 -55 -79 -108q-31 -56 -31 -136q0 -67 41 -120q41 -58 112 -60q43 0 82 21q37 16 68 43zM983 909h289q-13 -143 -58 -295q-47 -151 -141 -266l193 -348h-363 l-51 100q-143 -127 -336 -127q-149 2 -233 62q-88 57 -129 139q-39 82 -50 162q-10 80 -10 127q0 112 78 254q76 139 223 221q-47 78 -90 170q-45 90 -47 186q2 166 109 256q106 86 266 86q157 0 266 -71q106 -76 109 -244q-3 -127 -70 -236q-68 -108 -168 -184l143 -258 q11 4 39 102q29 97 31 164z"/>
<glyph glyph-name="quotesingle" horiz-adv-x="569" unicode="&apos;" d="M139 1059v577h291v-577h-291z"/>
<glyph glyph-name="parenleft" horiz-adv-x="682" unicode="(" d="M602 1636v-180q-100 -2 -123 -74q-12 -35 -14 -78q-4 -43 -4 -92v-1038v-14q0 -69 18 -131q15 -31 45 -52q27 -22 78 -22v-180q-197 33 -321 149q-125 117 -136 324v891q11 215 127 350q117 133 330 147z"/>
<glyph glyph-name="parenright" horiz-adv-x="682" unicode=")" d="M80 -225v180q102 2 125 74q16 62 16 130v15v1038v20q0 87 -16 150q-10 35 -41 56q-29 18 -84 18v180q217 -14 334 -147q114 -135 123 -350v-891q-11 -207 -134 -324q-122 -116 -323 -149z"/>
<glyph glyph-name="asterisk" horiz-adv-x="797" unicode="*" d="M473 1173l16 -213h-167l6 213l-162 -118l-86 131l186 112l-182 115l76 139l168 -123l-13 207h172l-14 -205l172 119l72 -137l-191 -113l191 -112l-82 -129z"/>
<glyph glyph-name="plus" horiz-adv-x="1229" unicode="+" d="M469 811v373h291v-373h372v-291h-372v-373h-291v373h-373v291h373z"/>
<glyph glyph-name="comma" horiz-adv-x="512" unicode="," d="M86 0v377h340v-352q0 -37 -14 -78q-17 -43 -41 -84q-52 -82 -95 -96h-190q55 47 102 104q43 59 66 129h-168z"/>
<glyph glyph-name="hyphenminus" horiz-adv-x="682" unicode="-" d="M72 541v303h538v-303h-538z"/>
<glyph glyph-name="period" horiz-adv-x="512" unicode="." d="M426 0h-340v377h340v-377z"/>
<glyph glyph-name="slash" horiz-adv-x="569" unicode="/" d="M-84 -27l446 1690h291l-446 -1690h-291z"/>
<glyph glyph-name="zero" d="M426 1253v-897q0 -61 27 -82q24 -22 59 -22t61 22q23 21 25 82v897q-2 64 -25 86q-26 19 -61 19t-59 -19q-27 -22 -27 -86zM61 383v844q2 401 451 409q446 -8 450 -409v-844q-4 -399 -450 -410q-446 11 -451 410z" unicode="0"/>
<glyph glyph-name="one" d="M104 1208v230q91 4 181 45q45 20 75 53q31 31 48 74h307v-1610h-353v1208h-258z" unicode="1"/>
<glyph glyph-name="two" d="M76 1044v127q2 465 459 465h4q436 0 442 -428q-2 -157 -55 -262q-54 -104 -140 -186q-82 -82 -170 -166q-92 -86 -161 -201q-13 -20 -21 -45q-10 -20 -16 -45h551v-303h-926v100q16 258 102 410q45 80 95 139q49 62 102 113t102 100q52 47 88 98q82 97 84 246 q0 62 -14 107q-20 43 -86 45q-65 -2 -82 -45q-18 -41 -18 -96v-11v-162h-340z" unicode="2"/>
<glyph glyph-name="three" d="M49 389v154h352v-168q0 -47 23 -84q20 -39 76 -39q57 0 80 39q18 37 18 84v114v12q0 128 -41 175q-45 47 -179 47h-11v266h63q61 0 109 33q45 31 47 92v133q0 45 -15 78q-16 33 -71 33h-3q-89 0 -89 -119v-102h-351q-2 32 -2 63q0 190 86 303q99 131 365 133h9 q197 0 314 -88q119 -92 121 -319v-15q0 -108 -28 -192q-19 -45 -56 -82q-35 -39 -96 -68q63 -18 102 -57q39 -37 58 -88q32 -94 32 -211v-20v-16q0 -239 -90 -369q-98 -136 -366 -138h-4q-445 0 -453 416z" unicode="3"/>
<glyph glyph-name="four" d="M39 305v338q203 467 235 967h379q-80 -555 -407 -1014h264v221q149 213 215 469h137v-690h123v-291h-123v-305h-352v305h-471z" unicode="4"/>
<glyph glyph-name="five" d="M86 727v883h825v-303h-522v-242h4q51 37 107 51q53 12 86 12q200 -2 290 -106q86 -107 86 -287v-227v-15q0 -240 -96 -376q-100 -142 -360 -144h-4q-445 0 -453 416v141h352v-155q0 -47 23 -84q20 -39 76 -39q57 0 80 39q18 37 18 84v352q0 51 -18 86q-23 35 -80 37 q-56 -2 -76 -37q-23 -35 -23 -86h-315z" unicode="5"/>
<glyph glyph-name="six" d="M426 745v-389q0 -61 27 -82q24 -22 59 -22t61 22q23 21 25 82v389q-2 64 -25 86q-26 19 -61 19t-59 -19q-27 -22 -27 -86zM61 383v844q2 401 451 409h15q403 0 411 -413h-328v5q0 128 -98 130q-98 -2 -98 -125v-10v-183l4 -4q43 58 90 78q45 14 115 14q198 -2 270 -120 q69 -114 69 -293v-15v-317q-4 -399 -450 -410q-446 11 -451 410z" unicode="6"/>
<glyph glyph-name="seven" d="M25 1307v303h937v-273q-47 -78 -88 -157q-227 -473 -266 -1000q-8 -88 -12 -180h-389q4 90 14 172q72 520 313 983l76 152h-585z" unicode="7"/>
<glyph glyph-name="eight" d="M426 1253v-149q0 -62 27 -82q24 -23 59 -23t61 23q23 20 25 82v149q-2 64 -25 86q-26 19 -61 19t-59 -19q-27 -22 -27 -86zM426 616v-260q0 -61 27 -82q24 -22 59 -22t61 22q23 21 25 82v260q-2 64 -25 86q-26 19 -61 19t-59 -19q-27 -22 -27 -86zM61 383v135q0 25 2 49 q0 23 3 47q2 50 20 97q16 47 55 88q37 41 105 65q-49 23 -80 53q-33 29 -53 64q-37 74 -39 135v111v16q0 41 8 98q8 68 47 133q41 70 131 115t252 47q164 -2 256 -47q90 -45 129 -115q39 -65 47 -133q6 -69 6 -114v-111v-6q0 -59 -37 -127q-41 -74 -141 -119q68 -20 107 -55 q38 -35 57 -78q26 -82 26 -190v-23v-135q-4 -399 -450 -410q-446 11 -451 410z" unicode="8"/>
<glyph glyph-name="nine" d="M598 864v389q0 64 -23 86q-24 19 -63 19q-35 0 -59 -19q-27 -22 -27 -86v-389q0 -61 27 -82q24 -22 59 -22q39 0 63 22q23 21 23 82zM962 1227v-844q-4 -399 -450 -410h-15q-405 0 -411 414h328v-10q0 -123 98 -125q98 2 98 130v5v182l-4 4q-41 -57 -86 -73 q-43 -19 -107 -19h-12q-196 2 -266 125q-35 60 -53 135q-19 78 -21 168v318q2 401 451 409q446 -8 450 -409z" unicode="9"/>
<glyph glyph-name="colon" horiz-adv-x="512" unicode=":" d="M86 0v377h340v-377h-340zM86 813v377h340v-377h-340z"/>
<glyph glyph-name="semicolon" horiz-adv-x="512" unicode=";" d="M86 813v377h340v-377h-340zM86 0v377h340v-352q0 -37 -14 -78q-17 -43 -41 -84q-52 -82 -95 -96h-190q55 47 102 104q43 59 66 129h-168z"/>
<glyph glyph-name="less" horiz-adv-x="1229" unicode="&lt;" d="M1132 131l-1036 389v291l1036 389v-315l-626 -217v-4l626 -218v-315z"/>
<glyph glyph-name="equal" horiz-adv-x="1229" unicode="=" d="M1132 557v-291h-1036v291h1036zM1132 1065v-291h-1036v291h1036z"/>
<glyph glyph-name="greater" horiz-adv-x="1229" unicode="&gt;" d="M96 131v315l627 218v4l-627 217v315l1036 -389v-291z"/>
<glyph glyph-name="question" d="M250 0v377h340v-377h-340zM555 473h-266v92q2 129 55 219q49 90 113 162q67 72 114 143q49 74 52 164q0 70 -21 119q-22 47 -94 49q-62 -2 -88 -55q-27 -53 -27 -135v-113h-315v137q0 185 121 295q116 111 323 113q209 0 330 -92q121 -99 123 -303q-2 -133 -64 -226 q-61 -92 -145 -170q-37 -39 -76 -79q-37 -41 -67 -91q-66 -92 -68 -229z" unicode="?"/>
<glyph glyph-name="at" horiz-adv-x="1802" unicode="@" d="M1165 1116l21 109h213l-99 -541q-12 -31 -14 -76q0 -45 55 -47q29 0 62 16q30 15 59 52q29 39 47 106q17 68 17 170q-2 275 -166 414q-160 139 -426 139q-287 -4 -451 -180q-168 -178 -170 -463q2 -299 187 -465q178 -170 471 -172q258 2 428 137h223 q-248 -338 -670 -342q-370 4 -620 238q-256 229 -260 604q4 373 256 608q243 236 612 240q313 -2 547 -184q237 -183 243 -502q-2 -193 -67 -322q-68 -127 -162 -200q-45 -37 -92 -62q-49 -24 -92 -41q-92 -33 -148 -33q-133 0 -141 113h-6q-33 -47 -86 -78 q-55 -35 -131 -35q-150 3 -260 121q-113 115 -115 289q0 209 125 360q123 156 332 160q174 0 278 -133zM868 573q109 2 174 74q64 72 64 170q0 86 -51 139q-52 52 -136 52q-100 -3 -159 -76q-64 -72 -64 -166q0 -78 45 -133q43 -60 127 -60z"/>
<glyph glyph-name="A" horiz-adv-x="1139" unicode="A" d="M565 1382l-96 -800h188l-88 800h-4zM14 0l303 1636h500l307 -1636h-395l-35 291h-264l-39 -291h-377z"/>
<glyph glyph-name="B" horiz-adv-x="1139" unicode="B" d="M461 1358v-369h69q86 0 111 57q20 50 20 116v18q0 86 -22 133q-25 45 -94 45h-84zM461 723v-444h78q92 0 118 53q21 47 21 151v19v14q0 81 -21 139q-24 66 -110 68h-86zM84 0v1636h522h16q392 0 392 -385v-13q0 -123 -35 -220q-39 -103 -172 -152v-4q248 -56 248 -362 v-15v-9q0 -205 -90 -335q-99 -139 -347 -141h-534z"/>
<glyph glyph-name="C" horiz-adv-x="1139" unicode="C" d="M84 446v744q2 239 139 358q133 115 346 115q215 0 348 -115q136 -119 138 -358v-152h-377v185v12q0 41 -12 84q-9 24 -31 41q-23 12 -66 12q-75 -2 -94 -53q-14 -44 -14 -86v-10v-809q0 -17 2 -39q4 -25 12 -51q19 -58 94 -60q43 0 66 19q22 16 31 41q12 48 12 81v9v239 h377v-207q-11 -462 -486 -473q-477 11 -485 473z"/>
<glyph glyph-name="D" horiz-adv-x="1139" unicode="D" d="M84 0v1636h561q238 -2 328 -123q82 -117 82 -306v-9v-778q-4 -221 -129 -322q-123 -98 -281 -98h-561zM461 1358v-1079h59h6q150 0 152 139v800q-2 140 -158 140h-59z"/>
<glyph glyph-name="E" d="M84 0v1636h838v-315h-461v-326h403v-315h-403v-365h479v-315h-856z" unicode="E"/>
<glyph glyph-name="F" horiz-adv-x="909" unicode="F" d="M84 0v1636h786v-315h-409v-326h366v-315h-366v-680h-377z"/>
<glyph glyph-name="G" horiz-adv-x="1139" unicode="G" d="M84 446v744q2 239 139 358q133 115 346 115h9q193 0 331 -84q70 -45 107 -123q39 -78 39 -195v-182h-359v164q2 127 -119 129q-71 -2 -94 -55q-22 -45 -22 -87v-7v-809q0 -17 2 -39q4 -25 12 -51q19 -58 94 -60h4q117 0 117 123v211h-133v303h498v-901h-330v133h-4 q-96 -160 -291 -160q-100 0 -166 41q-67 39 -106 105q-74 133 -74 317v10z"/>
<glyph glyph-name="H" horiz-adv-x="1139" unicode="H" d="M84 0v1636h377v-612h217v612h377v-1636h-377v696h-217v-696h-377z"/>
<glyph glyph-name="I" horiz-adv-x="569" unicode="I" d="M96 0v1636h377v-1636h-377z"/>
<glyph glyph-name="J" d="M940 1636v-1228q-2 -435 -447 -435h-8q-71 0 -145 17q-76 16 -141 61q-66 45 -107 133q-43 86 -43 224v239h365v-278v-10q0 -33 12 -60q12 -35 59 -35q33 0 56 23q22 24 22 84v1265h377z" unicode="J"/>
<glyph glyph-name="K" horiz-adv-x="1139" unicode="K" d="M84 0v1636h364v-669h7l249 669h400l-314 -678l316 -958h-402l-167 586l-89 -135v-451h-364z"/>
<glyph glyph-name="L" horiz-adv-x="909" unicode="L" d="M84 0v1636h377v-1321h409v-315h-786z"/>
<glyph glyph-name="M" horiz-adv-x="1593" unicode="M" d="M94 0v1636h594l107 -811h4l106 811h594v-1636h-364v1272h-5l-211 -1272h-245l-211 1272h-4v-1272h-365z"/>
<glyph glyph-name="N" horiz-adv-x="1251" unicode="N" d="M84 0v1636h412l303 -964h4v964h364v-1636h-409l-305 1012h-5v-1012h-364z"/>
<glyph glyph-name="O" horiz-adv-x="1139" unicode="O" d="M84 446v744q2 239 139 358q133 115 346 115q215 0 348 -115q136 -119 138 -358v-744q-11 -462 -486 -473q-477 11 -485 473zM461 1223v-809q0 -17 2 -39q4 -25 12 -51q19 -58 94 -60q43 0 66 19q22 16 31 41q12 48 12 81v9v809v12q0 41 -12 84q-9 24 -31 41 q-23 12 -66 12q-75 -2 -94 -53q-14 -44 -14 -86v-10z"/>
<glyph glyph-name="P" horiz-adv-x="1139" unicode="P" d="M84 0v1636h403h26q290 0 423 -86q135 -97 135 -402v-9q0 -90 -12 -177q-15 -86 -58 -157q-41 -70 -120 -111q-78 -45 -207 -45h-213v-649h-377zM461 1345v-405h94q90 0 117 49q14 25 20 66q2 37 2 92q0 143 -45 174q-24 18 -59 22q-37 2 -86 2h-43z"/>
<glyph glyph-name="Q" horiz-adv-x="1139" unicode="Q" d="M84 446v744q2 239 139 358q133 115 346 115q215 0 348 -115q136 -119 138 -358v-744q0 -268 -213 -405l145 -236l-305 -30q-51 104 -111 198q-479 11 -487 473zM461 1223v-809q0 -17 2 -39q4 -25 12 -51q19 -58 94 -60q43 0 66 19q22 16 31 41q12 48 12 81v9v809v12 q0 41 -12 84q-9 24 -31 41q-23 12 -66 12q-75 -2 -94 -53q-14 -44 -14 -86v-10z"/>
<glyph glyph-name="R" horiz-adv-x="1139" unicode="R" d="M461 1358v-373h92q94 0 115 57q14 48 14 118v18q0 43 -2 77q-2 35 -16 56q-13 24 -44 36q-30 11 -86 11h-73zM84 0v1636h498h29q448 0 448 -385v-10v-14q0 -134 -37 -224q-45 -94 -191 -141v-4q213 -47 220 -260v-289q0 -84 4 -174q6 -90 34 -135h-372q-29 45 -37 135 q-6 72 -6 140v34v262q0 72 -31 105q-33 31 -113 31h-69v-707h-377z"/>
<glyph glyph-name="S" horiz-adv-x="1139" unicode="S" d="M70 555h364v-121v-9q0 -61 25 -108q24 -53 102 -53q66 0 98 39q33 35 33 88q-2 107 -92 189q-88 81 -207 159q-55 47 -108 92q-56 43 -99 95q-43 51 -67 120q-29 68 -29 158q6 459 469 459h12q471 -8 471 -405v-7v-147h-352v88v12q0 58 -18 109q-23 57 -101 59 q-127 -2 -129 -123q0 -37 29 -74q29 -38 72 -81q94 -84 213 -170q53 -45 110 -86q53 -43 101 -101q47 -57 75 -139q27 -82 27 -207q0 -59 -23 -129q-26 -72 -84 -137q-57 -66 -157 -107q-101 -43 -248 -45q-137 2 -231 41q-95 39 -152 101q-55 61 -80 133q-24 69 -24 131 v176z"/>
<glyph glyph-name="T" horiz-adv-x="909" unicode="T" d="M23 1321v315h864v-315h-244v-1321h-377v1321h-243z"/>
<glyph glyph-name="U" horiz-adv-x="1139" unicode="U" d="M84 446v1190h377v-1194v-14q0 -56 14 -100q19 -52 94 -52q43 0 66 17q22 12 31 35q12 43 12 98v16v1194h377v-1190q-11 -462 -486 -473q-477 11 -485 473z"/>
<glyph glyph-name="V" d="M264 0l-250 1636h385l103 -1163h4l125 1163h379l-279 -1636h-467z" unicode="V"/>
<glyph glyph-name="W" horiz-adv-x="1706" unicode="W" d="M309 0l-278 1636h387l133 -1163h4l121 1163h366l115 -1163h4l135 1163h379l-287 -1636h-419l-111 1008h-4l-125 -1008h-420z"/>
<glyph glyph-name="X" horiz-adv-x="1139" unicode="X" d="M20 0l318 883l-299 753h405l129 -465h4l132 465h391l-301 -766l319 -870h-395l-160 528h-4l-147 -528h-392z"/>
<glyph glyph-name="Y" d="M324 647l-308 989h389l105 -553h4l111 553h383l-308 -962v-674h-376v647z" unicode="Y"/>
<glyph glyph-name="Z" d="M59 1321v315h928v-305l-534 -1016h534v-315h-950v305l530 1016h-508z" unicode="Z"/>
<glyph glyph-name="bracketleft" horiz-adv-x="682" unicode="[" d="M160 -225v1861h458v-205h-143v-1451h143v-205h-458z"/>
<glyph glyph-name="backslash" horiz-adv-x="569" unicode="\" d="M207 1663l446 -1690h-291l-446 1690h291z"/>
<glyph glyph-name="bracketright" horiz-adv-x="682" unicode="]" d="M522 -225h-459v205h144v1451h-144v205h459v-1861z"/>
<glyph glyph-name="asciicircum" horiz-adv-x="1229" unicode="^" d="M422 862h-326l332 748h373l331 -748h-327l-191 488z"/>
<glyph glyph-name="underscore" d="M1024 -256h-1024v102h1024v-102z" unicode="_"/>
<glyph glyph-name="grave" horiz-adv-x="569" unicode="`" d="M6 1704h324l90 -279h-191z"/>
<glyph glyph-name="a" d="M604 657l-98 -71q-62 -43 -62 -117v-174q0 -105 75 -105h3q43 0 64 35q18 33 18 80v352zM944 926v-926h-324v100h-4q-90 -125 -249 -127q-95 0 -152 35q-57 31 -88 86q-27 58 -37 129q-10 72 -10 150q0 92 26 157q23 64 60 107q41 43 86 74q47 26 94 47q49 22 96 43 q47 18 84 41q76 43 78 143v9q0 98 -82 100q-92 -2 -90 -91v-106h-328v119q2 145 117 233q113 84 297 86q236 0 334 -98q92 -98 92 -302v-9z" unicode="a"/>
<glyph glyph-name="b" d="M432 903v-450v-18q0 -63 12 -122q13 -71 78 -73q29 0 49 20q21 19 21 66v663q0 41 -21 62q-22 18 -49 18q-53 -2 -71 -51q-19 -47 -19 -104v-11zM80 0v1636h352v-446h4q72 145 252 145q256 -4 256 -332v-638q-4 -385 -262 -392q-176 2 -246 158h-4v-131h-352z" unicode="b"/>
<glyph glyph-name="c" d="M80 346v616q0 60 20 125q19 66 66 121q49 58 133 92q82 35 213 35t217 -35q86 -34 133 -92q25 -26 41 -57t25 -64q16 -65 16 -125v-139h-352v164q0 37 -8 72q-7 16 -23 26q-18 9 -49 9q-55 -2 -70 -35q-10 -30 -10 -61v-11v-665v-10q0 -31 10 -60q15 -35 70 -37 q59 2 72 37q8 33 8 70v235h352v-211q0 -55 -16 -119q-9 -30 -25 -61q-16 -33 -41 -62q-47 -57 -133 -92q-86 -37 -217 -39q-131 2 -213 39q-84 35 -133 92q-47 58 -66 123q-20 64 -20 119z" unicode="c"/>
<glyph glyph-name="d" d="M592 453v450q0 64 -17 115q-20 49 -73 51q-25 0 -45 -18q-25 -21 -25 -62v-663q0 -47 25 -66q20 -20 45 -20q65 2 80 73q10 68 10 140zM944 1636v-1636h-352v131h-4q-70 -156 -246 -158q-260 7 -262 392v638q0 328 256 332q94 0 155 -33q58 -36 97 -112h4v446h352z" unicode="d"/>
<glyph glyph-name="e" d="M432 987v-143h160v143q0 37 -8 72q-7 16 -23 26q-18 9 -49 9q-55 -2 -70 -35q-10 -30 -10 -61v-11zM80 346v616q0 60 20 125q19 66 66 121q49 58 133 92q82 35 213 35t217 -35q86 -34 133 -92q25 -26 41 -57t25 -64q16 -65 16 -125v-360h-512v-280v-10q0 -31 10 -60 q15 -35 70 -37q59 2 72 37q8 33 8 70v163h352v-139q0 -55 -16 -119q-9 -30 -25 -61q-16 -33 -41 -62q-47 -57 -133 -92q-86 -37 -217 -39q-131 2 -213 39q-84 35 -133 92q-47 58 -66 123q-20 64 -20 119z" unicode="e"/>
<glyph glyph-name="f" horiz-adv-x="569" unicode="f" d="M23 1040v254h83v94q0 89 27 140q23 51 66 73q43 25 98 31q55 4 117 4h133v-229h-35q-66 -2 -66 -59v-7v-47h101v-254h-88v-1040h-353v1040h-83z"/>
<glyph glyph-name="g" d="M432 973v-496q4 -96 67 -96h5q35 0 53 24q18 23 25 54q10 67 10 108v340q-2 90 -29 129q-26 33 -59 33q-23 0 -47 -16q-25 -21 -25 -80zM944 1309v-1155q0 -220 -102 -306q-107 -86 -326 -86h-10q-148 0 -262 58q-121 59 -146 221h340q0 -49 21 -68q18 -16 57 -16 q76 2 78 90v232l-4 4q-64 -156 -242 -156q-115 0 -188 84q-78 82 -80 227v486q0 77 12 149q8 72 39 131q29 60 86 96q55 35 143 35q95 0 150 -45q53 -47 88 -127h4v146h342z" unicode="g"/>
<glyph glyph-name="h" d="M80 0v1636h352v-448h4q45 73 105 110q61 37 151 37q127 -2 191 -80q61 -77 61 -200v-1055h-352v895q0 39 -8 82q-7 20 -23 33q-18 10 -49 10q-55 -2 -70 -49q-10 -40 -10 -67v-9v-895h-352z" unicode="h"/>
<glyph glyph-name="i" horiz-adv-x="569" unicode="i" d="M109 1395v241h352v-241h-352zM109 0v1309h352v-1309h-352z"/>
<glyph glyph-name="j" horiz-adv-x="569" unicode="j" d="M109 1395v241h352v-241h-352zM109 94v1215h352v-1174q0 -74 -8 -139q-9 -66 -39 -115q-27 -49 -82 -78q-58 -28 -152 -28h-172v245q15 -4 33 -4h6q59 0 62 78z"/>
<glyph glyph-name="k" d="M80 0v1636h352v-1636h-352zM641 0l-199 719l193 590h360l-205 -574l211 -735h-360z" unicode="k"/>
<glyph glyph-name="l" horiz-adv-x="569" unicode="l" d="M109 0v1636h352v-1636h-352z"/>
<glyph glyph-name="m" horiz-adv-x="1593" unicode="m" d="M96 0v1309h340v-162h4q47 90 109 139q61 49 166 49q88 0 153 -41q68 -45 90 -147q50 90 107 139t174 49q129 -2 194 -78q64 -77 64 -202v-1055h-352v879q0 40 -10 90q-13 49 -76 51q-31 0 -47 -17q-19 -16 -27 -41q-12 -46 -12 -75v-8v-879h-353v879q0 40 -10 90 q-12 49 -76 51q-30 0 -47 -17q-18 -16 -26 -41q-13 -47 -13 -76v-7v-879h-352z"/>
<glyph glyph-name="n" d="M80 0v1309h340v-146h4q47 84 108 129q60 43 160 43q127 -2 191 -80q61 -77 61 -200v-1055h-352v895q0 39 -8 82q-7 20 -23 33q-18 10 -49 10q-55 -2 -70 -49q-10 -40 -10 -67v-9v-895h-352z" unicode="n"/>
<glyph glyph-name="o" d="M432 987v-665v-10q0 -31 10 -60q15 -35 70 -37q59 2 72 37q8 33 8 70v665q0 37 -8 72q-7 16 -23 26q-18 9 -49 9q-55 -2 -70 -35q-10 -30 -10 -61v-11zM80 346v616q0 60 20 125q19 66 66 121q49 58 133 92q82 35 213 35t217 -35q86 -34 133 -92q25 -26 41 -57t25 -64 q16 -65 16 -125v-616q0 -55 -16 -119q-9 -30 -25 -61q-16 -33 -41 -62q-47 -57 -133 -92q-86 -37 -217 -39q-131 2 -213 39q-84 35 -133 92q-47 58 -66 123q-20 64 -20 119z" unicode="o"/>
<glyph glyph-name="p" d="M432 903v-450v-18q0 -63 12 -122q13 -71 78 -73q29 0 49 20q21 19 21 66v663q0 41 -21 62q-22 18 -49 18q-53 -2 -71 -51q-19 -47 -19 -104v-11zM80 -225v1534h352v-119h4q72 145 252 145q256 -4 256 -332v-638q-4 -385 -262 -392q-176 2 -246 158h-4v-356h-352z" unicode="p"/>
<glyph glyph-name="q" d="M592 453v450q0 64 -17 115q-20 49 -73 51q-25 0 -45 -18q-25 -21 -25 -62v-663q0 -47 25 -66q20 -20 45 -20q65 2 80 73q10 68 10 140zM944 1309v-1534h-352v356h-4q-70 -156 -246 -158q-260 7 -262 392v638q0 328 256 332q94 0 155 -33q58 -36 97 -112h4v119h352z" unicode="q"/>
<glyph glyph-name="r" horiz-adv-x="682" unicode="r" d="M80 0v1309h334v-232h4q18 47 39 94q20 45 47 82q28 37 67 60q41 22 99 22v-426h-82q-88 -2 -121 -47q-35 -49 -35 -119v-743h-352z"/>
<glyph glyph-name="s" horiz-adv-x="909" unicode="s" d="M49 326v86h316v-80v-10q0 -34 18 -66q18 -41 72 -41q77 2 77 96q-2 78 -73 137q-72 58 -162 121q-88 66 -160 158q-74 90 -76 231q2 189 111 283t283 94h9q376 0 382 -344v-69h-316v69q0 29 -8 66q-14 35 -67 37q-78 0 -78 -89q0 -36 24 -67q23 -33 60 -64q37 -28 80 -59 q41 -31 77 -68q97 -65 168 -151q72 -90 74 -238q0 -41 -8 -104q-10 -64 -49 -127q-39 -64 -121 -107q-84 -45 -227 -47q-230 2 -318 97q-88 92 -88 249v7z"/>
<glyph glyph-name="t" horiz-adv-x="569" unicode="t" d="M106 209v831h-88v254h88v285h353v-285h88v-254h-88v-700q-2 -27 6 -61q8 -37 41 -39h45v-267h-170q-55 0 -105 11q-49 8 -88 32q-36 25 -59 72q-23 45 -23 121z"/>
<glyph glyph-name="u" d="M944 1309v-1309h-340v145h-4q-43 -84 -106 -127q-62 -43 -162 -45q-125 2 -187 82q-65 80 -65 199v1055h352v-895q0 -15 2 -37q2 -23 8 -41q15 -45 70 -47q31 0 49 16q16 17 23 37q8 45 8 72v895h352z" unicode="u"/>
<glyph glyph-name="v" horiz-adv-x="909" unicode="v" d="M248 0l-238 1309h363l82 -838h4l88 838h352l-240 -1309h-411z"/>
<glyph glyph-name="w" horiz-adv-x="1479" unicode="w" d="M274 0l-256 1309h367l98 -920h4l95 920h329l80 -920h4l113 920h352l-252 -1309h-370l-101 870h-4l-88 -870h-371z"/>
<glyph glyph-name="x" d="M25 0l294 678l-278 631h387l90 -347h4l92 347h375l-272 -631l282 -678h-385l-98 395h-4l-109 -395h-378z" unicode="x"/>
<glyph glyph-name="y" horiz-adv-x="909" unicode="y" d="M109 -238v254h79q27 0 43 11q17 10 17 36q-2 52 -23 148l-215 1098h361l88 -920h4l90 920h346l-229 -1198q-31 -185 -109 -267q-39 -41 -106 -59q-70 -23 -183 -23h-163z"/>
<glyph glyph-name="z" horiz-adv-x="909" unicode="z" d="M63 1030v279h795v-267l-428 -763h428v-279h-807v266l414 764h-402z"/>
<glyph glyph-name="braceleft" horiz-adv-x="682" unicode="{" d="M692 -225h-231q-117 0 -193 71q-82 70 -84 232v373q-4 96 -73 122q-63 23 -113 23h-8v217h7q50 0 114 25q69 26 73 120v373q2 162 84 236q76 69 193 69h231v-205h-84q-71 -2 -90 -45q-18 -39 -18 -80v-8v-391q0 -57 -23 -94q-24 -39 -61 -61q-80 -43 -152 -43v-5 q35 0 76 -6q39 -8 76 -28q37 -21 61 -64q23 -43 23 -117v-376q0 -19 4 -41q2 -25 14 -45q19 -45 90 -47h84v-205z"/>
<glyph glyph-name="bar" horiz-adv-x="455" unicode="|" d="M82 -512v2048h291v-2048h-291z"/>
<glyph glyph-name="braceright" horiz-adv-x="682" unicode="}" d="M-10 -225v205h86q73 2 92 47q16 43 16 86v376q4 74 29 117q23 43 59 64q37 20 78 28q39 6 70 6v5q-31 4 -70 12q-41 10 -78 31q-36 22 -59 61q-25 37 -29 94v391q0 45 -16 88q-19 43 -92 45h-86v205h233q117 0 197 -69q78 -74 80 -236v-373q4 -94 75 -120q63 -25 110 -25 h7v-217h-7q-47 0 -110 -23q-30 -14 -51 -43q-24 -30 -24 -79v-373q-2 -162 -80 -232q-80 -71 -197 -71h-233z"/>
<glyph glyph-name="asciitilde" horiz-adv-x="1229" unicode="~" d="M1014 891l73 -266q-20 -31 -45 -62q-26 -31 -57 -57q-59 -58 -154 -58q-55 0 -106 21q-51 18 -102 47q-50 31 -107 53q-57 23 -129 23q-68 -2 -106 -47q-41 -45 -66 -105l-74 267q33 67 95 120q61 54 161 56q54 0 113 -19q55 -18 115 -47q59 -27 114 -49q54 -29 94 -29 q62 0 105 51q43 46 76 101z"/>
<glyph glyph-name="nonbreakingspace" horiz-adv-x="512" unicode=" "/>
<glyph glyph-name="exclamdown" horiz-adv-x="684" unicode="¡" d="M512 -225h-340v639l78 524h184l78 -524v-639zM512 1411v-377h-340v377h340z"/>
<glyph glyph-name="cent" d="M80 346v616q0 158 94 250q90 97 246 123v160h180v-160q41 -4 100 -22q58 -21 111 -64q57 -39 96 -108q35 -70 37 -179v-139h-352v164q0 37 -8 72q-7 16 -23 26q-18 9 -49 9q-55 -2 -70 -35q-10 -30 -10 -61v-11v-665v-10q0 -31 10 -60q15 -35 70 -37q59 2 72 37 q8 33 8 70v235h352v-211q-2 -106 -37 -174q-39 -70 -96 -113q-53 -39 -111 -57q-59 -20 -100 -29v-159h-180v159q-156 29 -246 123q-94 92 -94 250z" unicode="¢"/>
<glyph glyph-name="sterling" d="M41 676v180h135q-47 94 -76 184q-30 88 -30 197q2 211 141 307q135 92 319 92q432 -6 430 -420v-79h-327v67q0 47 -15 98q-18 54 -88 56q-51 0 -73 -31q-23 -31 -23 -82q0 -98 33 -192q27 -95 51 -197h268v-180h-249q-7 -223 -172 -387q67 0 122 -8q52 -13 97 -13 q57 2 77 56q19 47 19 88h303v-88q-8 -344 -354 -351q-103 2 -201 29q-98 23 -192 25q-99 0 -185 -43l15 311q100 31 135 121q32 88 32 182q0 41 -8 78h-184z" unicode="£"/>
<glyph glyph-name="currency" d="M301 831q0 -104 64 -167q57 -68 147 -68q92 0 152 68q57 63 59 167q-2 107 -59 170q-60 64 -152 64q-90 0 -147 -64q-64 -63 -64 -170zM152 362l-103 103l98 98q-88 113 -88 268q0 146 84 263l-94 94l103 102l94 -94q112 84 266 86q154 -2 266 -86l94 94l103 -102 l-96 -94q83 -113 86 -263q-3 -151 -86 -264l96 -94l-103 -102l-96 94q-110 -84 -264 -86q-147 0 -260 82z" unicode="¤"/>
<glyph glyph-name="yen" d="M49 723v180h205l-213 707h377l92 -553h4l113 553h356l-209 -707h205v-180h-264l-21 -76v-84h285v-180h-285v-383h-364v383h-281v180h281v57l-21 103h-260z" unicode="¥"/>
<glyph glyph-name="brokenbar" horiz-adv-x="455" unicode="¦" d="M82 768v614h291v-614h-291zM82 -358v716h291v-716h-291z"/>
<glyph glyph-name="section" d="M924 1253h-316v62q0 49 -16 84q-21 32 -78 34q-37 -2 -61 -30q-27 -29 -27 -70q2 -82 88 -135q41 -27 90 -55q47 -27 96 -58q107 -57 187 -141q82 -86 84 -231q-2 -183 -135 -308q94 -102 94 -237q-2 -184 -119 -277q-115 -96 -295 -96q-412 0 -416 410h316v-39 q0 -43 20 -94q21 -54 78 -56q98 4 100 107q0 43 -22 76q-23 30 -64 57q-84 51 -192 106q-109 60 -193 154q-88 96 -90 264q4 182 152 295v4q-17 2 -47 68q-33 61 -35 139q2 180 117 279q110 96 280 98h4q402 0 400 -410zM704 637q0 41 -22 67q-25 29 -62 48q-51 30 -135 84 q-84 53 -133 92q-16 -25 -28 -49q-17 -27 -17 -58q0 -35 41 -65q37 -33 90 -68q56 -33 115 -68q57 -32 100 -69q19 10 35 37q16 22 16 49z" unicode="§"/>
<glyph glyph-name="dieresis" horiz-adv-x="569" unicode="¨" d="M233 1438h-229v266h229v-266zM565 1438h-229v266h229v-266z"/>
<glyph glyph-name="copyright" horiz-adv-x="1802" unicode="©" d="M1126 696h213q-61 -348 -403 -356q-213 2 -340 139q-131 133 -133 346q2 219 129 353q123 133 338 135q340 -6 401 -346h-205q-16 77 -67 110q-54 31 -129 31q-97 -2 -154 -78q-59 -76 -59 -201q0 -98 57 -188q27 -41 70 -68q41 -28 92 -28q76 0 131 39q51 36 59 112z M901 215q268 2 436 174q170 168 174 428q-4 264 -174 432q-168 168 -436 172q-268 -2 -436 -170q-172 -168 -174 -434q2 -262 176 -428q168 -172 434 -174zM901 -27q-375 4 -620 236q-252 227 -256 608q4 383 254 612q245 230 622 234q377 -4 623 -234q249 -229 254 -612 q-5 -381 -254 -608q-246 -232 -623 -236z"/>
<glyph glyph-name="ordfeminine" horiz-adv-x="666" unicode="ª" d="M395 1231q-98 -51 -116 -74q-9 -14 -9 -41v-113q0 -34 17 -43q16 -8 37 -6q36 0 55 23q16 18 16 41v213zM625 1390v-554h-222v59h-4q-59 -76 -182 -76q-119 2 -147 74q-17 35 -23 78q-6 41 -6 88q0 55 16 94q17 39 41 65q54 50 117 72q70 23 125 47q53 23 55 78 q-2 66 -61 66h-4q-64 -2 -64 -56v-55h-217v76q0 98 82 145q76 45 199 45q166 0 233 -57q62 -57 62 -181v-8z"/>
<glyph glyph-name="guillemotleft" d="M928 383h-267l-200 297l205 289h268l-213 -289zM557 383h-266l-201 297l207 289h266l-213 -289z" unicode="«"/>
<glyph glyph-name="logicalnot" horiz-adv-x="1229" unicode="¬" d="M842 393v381h-746v291h1036v-672h-290z"/>
<glyph glyph-name="uni00AD" horiz-adv-x="682" unicode="­" d="M72 541v303h538v-303h-538z"/>
<glyph glyph-name="registered" horiz-adv-x="1802" unicode="®" d="M901 215q268 2 436 174q170 168 174 428q-4 264 -174 432q-168 168 -436 172q-268 -2 -436 -170q-172 -168 -174 -434q2 -262 176 -428q168 -172 434 -174zM901 -27q-375 4 -620 236q-252 227 -256 608q4 383 254 612q245 230 622 234q377 -4 623 -234q249 -229 254 -612 q-5 -381 -254 -608q-246 -232 -623 -236zM772 905h131q62 0 94 23q31 22 31 92q-2 65 -45 82q-45 14 -100 14h-111v-211zM772 750v-388h-229v910h344h12q173 0 270 -54q101 -57 101 -221q-2 -125 -62 -178q-63 -57 -157 -61l233 -396h-264l-209 388h-39z"/>
<glyph glyph-name="macron" horiz-adv-x="569" unicode="¯" d="M-16 1454v156h602v-156h-602z"/>
<glyph glyph-name="degree" horiz-adv-x="819" unicode="°" d="M410 1493q-76 -2 -123 -53q-49 -52 -49 -131q0 -76 49 -127q47 -58 123 -58q77 0 124 58q48 51 48 127q0 79 -48 131q-47 51 -124 53zM750 1309q-3 -140 -97 -232q-96 -94 -243 -96q-148 2 -242 96q-96 92 -98 232q2 139 98 231q94 94 242 96q147 -2 243 -96 q94 -92 97 -231z"/>
<glyph glyph-name="plusminus" horiz-adv-x="1229" unicode="±" d="M96 123v291h1036v-291h-1036zM469 999v209h291v-209h372v-290h-372v-209h-291v209h-373v290h373z"/>
<glyph glyph-name="twosuperior" horiz-adv-x="666" unicode="²" d="M41 1284v74q6 143 78 213q71 65 231 65q285 0 291 -256q-2 -92 -37 -155q-35 -64 -92 -113q-53 -47 -111 -98q-59 -54 -106 -123q-4 -8 -12 -25q-9 -16 -13 -30h359v-181h-604v60q12 155 69 247q55 91 127 150q70 59 125 119q51 59 53 147q0 35 -8 64q-14 26 -55 26 t-53 -26q-13 -26 -13 -56v-8v-94h-229z"/>
<glyph glyph-name="threesuperior" horiz-adv-x="666" unicode="³" d="M33 889v90h229v-98q0 -29 14 -50q15 -24 52 -24t51 24q12 21 12 50v67q0 84 -26 115q-29 29 -112 29h-11v155h41q39 0 69 21q29 18 31 55v80q0 28 -6 47q-10 18 -49 18h-3q-60 0 -59 -69v-66h-229q-1 19 -1 37q0 119 58 188q66 78 238 78q135 0 213 -51q78 -55 80 -192 q0 -70 -23 -123q-25 -56 -100 -90q80 -27 108 -86q23 -60 23 -134v-9q0 -144 -62 -226q-67 -86 -239 -86h-5q-288 0 -294 250z"/>
<glyph glyph-name="acute" horiz-adv-x="569" unicode="´" d="M149 1425l97 279h317l-217 -279h-197z"/>
<glyph glyph-name="mu" d="M944 1309v-1309h-340v145h-4q-29 -51 -72 -96q-45 -49 -108 -63v-211h-340v1534h352v-895q0 -15 2 -37q2 -23 8 -41q15 -45 70 -47q31 0 49 16q16 17 23 37q8 45 8 72v895h352z" unicode="µ"/>
<glyph glyph-name="paragraph" horiz-adv-x="1270" unicode="¶" d="M422 -178v1100q-453 4 -457 350q2 217 148 295q135 69 344 69h12h643v-1814h-242v1622h-206v-1622h-242z"/>
<glyph glyph-name="cedilla" horiz-adv-x="569" unicode="¸" d="M223 0h113l-82 -90h4q32 10 69 10h13q78 0 125 -41q47 -43 49 -121q-2 -98 -78 -131q-76 -32 -151 -32q-70 2 -142 20q-73 18 -133 43l39 55q82 -34 168 -37q39 0 72 15q30 14 33 55q0 80 -89 80q-43 0 -81 -16l-46 38z"/>
<glyph glyph-name="onesuperior" horiz-adv-x="666" unicode="¹" d="M55 1378v131q60 0 117 29q59 27 80 82h225v-965h-254v723h-168z"/>
<glyph glyph-name="ordmasculine" horiz-adv-x="666" unicode="º" d="M270 1409v-363q-2 -69 62 -71q65 2 63 71v363q2 70 -63 72q-64 -2 -62 -72zM41 1046v363q0 70 29 115q26 45 69 69q88 43 184 43h9h9q99 0 187 -43q43 -24 72 -69q25 -45 25 -115v-363q0 -67 -25 -110q-29 -45 -72 -70q-43 -24 -94 -35q-53 -12 -102 -12q-47 0 -96 12 q-54 11 -97 35q-43 25 -69 70q-29 43 -29 110z"/>
<glyph glyph-name="guillemotright" d="M465 383l207 297l-211 289h266l207 -289l-203 -297h-266zM94 383l207 297l-211 289h266l207 -289l-203 -297h-266z" unicode="»"/>
<glyph glyph-name="onequarter" horiz-adv-x="1536" unicode="¼" d="M895 178v207q135 276 158 582h254q-19 -189 -93 -320q-75 -131 -172 -289h160v129q55 58 96 138q41 77 56 147h102v-414h80v-180h-80v-178h-254v178h-307zM0 1378v131q59 0 117 29q59 27 80 82h225v-965h-254v723h-168zM186 -53l856 1716h209l-856 -1716h-209z"/>
<glyph glyph-name="onehalf" horiz-adv-x="1536" unicode="½" d="M936 629v73q6 144 78 213q71 66 231 66q285 0 291 -256q-2 -92 -37 -156q-35 -63 -92 -112q-53 -47 -111 -99q-59 -53 -106 -122q-8 -13 -12 -27q-7 -10 -13 -29h359v-180h-605v59q13 156 70 248q55 90 127 150q70 59 125 118q51 60 53 148q0 35 -8 63q-14 27 -55 27 t-53 -27q-13 -25 -13 -55v-8v-94h-229zM0 1378v131q59 0 117 29q59 27 80 82h225v-965h-254v723h-168zM160 -53l856 1716h209l-856 -1716h-209z"/>
<glyph glyph-name="threequarters" horiz-adv-x="1536" unicode="¾" d="M895 184v207q135 277 158 582h254q-19 -189 -93 -320q-75 -131 -172 -288h160v129q55 57 96 137q41 78 56 147h102v-413h80v-181h-80v-178h-254v178h-307zM0 889v90h229v-98q0 -29 15 -50q14 -24 51 -24t51 24q12 21 12 50v67q0 84 -26 115q-29 29 -112 29h-11v155h41 q39 0 69 21q29 18 31 55v80q0 28 -6 47q-10 18 -49 18h-3q-60 0 -59 -69v-66h-229q-1 19 -1 37q0 119 58 188q66 78 238 78q135 0 213 -51q78 -55 80 -192q0 -70 -23 -123q-24 -56 -100 -90q80 -27 108 -86q23 -60 23 -134v-9q0 -144 -61 -226q-68 -86 -240 -86h-5 q-288 0 -294 250zM250 -53l856 1716h209l-856 -1716h-209z"/>
<glyph glyph-name="questiondown" d="M762 1034h-340v377h340v-377zM469 938h266v-92q-2 -127 -51 -215q-47 -90 -115 -164q-63 -72 -112 -143q-54 -72 -56 -166v-10q0 -59 21 -105q22 -51 94 -53q64 2 90 57q25 55 25 133v113h315v-137q-2 -183 -117 -293q-116 -113 -327 -115q-205 0 -328 96 q-125 95 -125 299q2 138 68 230q30 49 67 90q39 41 76 80q84 77 145 170q62 92 64 225z" unicode="¿"/>
<glyph glyph-name="Agrave" horiz-adv-x="1139" unicode="À" d="M565 1382l-96 -800h188l-88 800h-4zM14 0l303 1636h500l307 -1636h-395l-35 291h-264l-39 -291h-377zM298 2013h324l90 -279h-191z"/>
<glyph glyph-name="Aacute" horiz-adv-x="1139" unicode="Á" d="M565 1382l-96 -800h188l-88 800h-4zM14 0l303 1636h500l307 -1636h-395l-35 291h-264l-39 -291h-377zM447 1734l97 279h317l-217 -279h-197z"/>
<glyph glyph-name="Acircumflex" horiz-adv-x="1139" unicode="Â" d="M565 1382l-96 -800h188l-88 800h-4zM14 0l303 1636h500l307 -1636h-395l-35 291h-264l-39 -291h-377zM474 1734h-200l170 279h288l148 -279h-213l-90 156z"/>
<glyph glyph-name="Atilde" horiz-adv-x="1139" unicode="Ã" d="M565 1382l-96 -800h188l-88 800h-4zM14 0l303 1636h500l307 -1636h-395l-35 291h-264l-39 -291h-377zM811 2005l98 -43q-16 -39 -34 -76q-21 -37 -50 -66q-53 -63 -149 -63q-72 2 -121 35q-53 30 -115 32q-30 -2 -57 -24q-26 -23 -43 -49l-98 37q14 34 33 71q18 35 41 66 q47 65 129 67q73 -2 139 -32q65 -35 117 -37q41 0 69 24q29 23 41 58z"/>
<glyph glyph-name="Adieresis" horiz-adv-x="1139" unicode="Ä" d="M565 1382l-96 -800h188l-88 800h-4zM14 0l303 1636h500l307 -1636h-395l-35 291h-264l-39 -291h-377zM525 1747h-229v266h229v-266zM857 1747h-229v266h229v-266z"/>
<glyph glyph-name="Aring" horiz-adv-x="1139" unicode="Å" d="M565 1382l-96 -800h188l-88 800h-4zM14 0l303 1636h500l307 -1636h-395l-35 291h-264l-39 -291h-377zM580 1933q-41 0 -84 -10q-49 -14 -51 -65q2 -52 49 -66q38 -14 76 -14h10q43 0 86 16q43 14 45 64q-2 53 -45 65q-43 10 -86 10zM580 1684h-12q-76 0 -146 36 q-37 23 -59 56q-25 32 -25 82q0 49 25 82q22 32 59 51q76 37 158 37q84 0 159 -37q76 -39 78 -133q-2 -95 -76 -134q-73 -40 -161 -40z"/>
<glyph glyph-name="AE" horiz-adv-x="1593" unicode="Æ" d="M682 1407l-184 -789h194v789h-10zM-29 0l416 1636h1108v-315h-438v-326h401v-315h-401v-365h452v-315h-817v315h-266l-74 -315h-381z"/>
<glyph glyph-name="Ccedilla" horiz-adv-x="1139" unicode="Ç" d="M598 -25l-59 -65h4q32 10 69 10h13q77 0 125 -41q47 -43 49 -121q-2 -98 -78 -131q-76 -32 -152 -32q-69 2 -141 20q-74 18 -133 43l39 55q82 -34 168 -37q39 0 71 15q31 14 33 55q0 80 -88 80q-43 0 -82 -16l-45 38l100 132q-401 57 -407 466v744q2 239 139 358 q133 115 346 115q215 0 348 -115q136 -119 138 -358v-152h-377v185v12q0 41 -12 84q-9 24 -31 41q-23 12 -66 12q-75 -2 -94 -53q-14 -44 -14 -86v-10v-809q0 -17 2 -39q4 -25 12 -51q19 -58 94 -60q43 0 66 19q22 16 31 41q12 48 12 81v9v239h377v-207q-9 -438 -457 -471z "/>
<glyph glyph-name="Egrave" d="M84 0v1636h838v-315h-461v-326h403v-315h-403v-365h479v-315h-856zM237 2013h324l90 -279h-191z" unicode="È"/>
<glyph glyph-name="Eacute" d="M84 0v1636h838v-315h-461v-326h403v-315h-403v-365h479v-315h-856zM386 1734l97 279h317l-217 -279h-197z" unicode="É"/>
<glyph glyph-name="Ecircumflex" d="M84 0v1636h838v-315h-461v-326h403v-315h-403v-365h479v-315h-856zM413 1734h-200l170 279h288l148 -279h-213l-90 156z" unicode="Ê"/>
<glyph glyph-name="Edieresis" d="M84 0v1636h838v-315h-461v-326h403v-315h-403v-365h479v-315h-856zM464 1747h-229v266h229v-266zM796 1747h-229v266h229v-266z" unicode="Ë"/>
<glyph glyph-name="Igrave" horiz-adv-x="569" unicode="Ì" d="M96 0v1636h377v-1636h-377zM4 2013h324l90 -279h-191z"/>
<glyph glyph-name="Iacute" horiz-adv-x="569" unicode="Í" d="M96 0v1636h377v-1636h-377zM150 1734l97 279h317l-217 -279h-197z"/>
<glyph glyph-name="Icircumflex" horiz-adv-x="569" unicode="Î" d="M96 0v1636h377v-1636h-377zM178 1734h-200l170 279h288l148 -279h-213l-90 156z"/>
<glyph glyph-name="Idieresis" horiz-adv-x="569" unicode="Ï" d="M96 0v1636h377v-1636h-377zM231 1747h-229v266h229v-266zM563 1747h-229v266h229v-266z"/>
<glyph glyph-name="Eth" horiz-adv-x="1139" unicode="Ð" d="M461 1358v-355h114v-253h-114v-471h67q72 0 111 36q39 31 39 84v819q-2 140 -158 140h-59zM84 0v750h-78v253h78v633h561q238 -2 328 -123q82 -117 82 -306v-9v-778q-4 -221 -129 -322q-123 -98 -281 -98h-561z"/>
<glyph glyph-name="Ntilde" horiz-adv-x="1251" unicode="Ñ" d="M84 0v1636h412l303 -964h4v964h364v-1636h-409l-305 1012h-5v-1012h-364zM869 2005l98 -43q-16 -39 -34 -76q-21 -37 -50 -66q-53 -63 -149 -63q-72 2 -121 35q-53 30 -115 32q-30 -2 -57 -24q-26 -23 -43 -49l-98 37q14 34 33 71q18 35 41 66q47 65 129 67 q73 -2 139 -32q65 -35 117 -37q41 0 69 24q29 23 41 58z"/>
<glyph glyph-name="Ograve" horiz-adv-x="1139" unicode="Ò" d="M84 446v744q2 239 139 358q133 115 346 115q215 0 348 -115q136 -119 138 -358v-744q-11 -462 -486 -473q-477 11 -485 473zM461 1223v-809q0 -17 2 -39q4 -25 12 -51q19 -58 94 -60q43 0 66 19q22 16 31 41q12 48 12 81v9v809v12q0 41 -12 84q-9 24 -31 41 q-23 12 -66 12q-75 -2 -94 -53q-14 -44 -14 -86v-10zM298 2013h324l90 -279h-191z"/>
<glyph glyph-name="Oacute" horiz-adv-x="1139" unicode="Ó" d="M84 446v744q2 239 139 358q133 115 346 115q215 0 348 -115q136 -119 138 -358v-744q-11 -462 -486 -473q-477 11 -485 473zM461 1223v-809q0 -17 2 -39q4 -25 12 -51q19 -58 94 -60q43 0 66 19q22 16 31 41q12 48 12 81v9v809v12q0 41 -12 84q-9 24 -31 41 q-23 12 -66 12q-75 -2 -94 -53q-14 -44 -14 -86v-10zM445 1734l97 279h317l-217 -279h-197z"/>
<glyph glyph-name="Ocircumflex" horiz-adv-x="1139" unicode="Ô" d="M84 446v744q2 239 139 358q133 115 346 115q215 0 348 -115q136 -119 138 -358v-744q-11 -462 -486 -473q-477 11 -485 473zM461 1223v-809q0 -17 2 -39q4 -25 12 -51q19 -58 94 -60q43 0 66 19q22 16 31 41q12 48 12 81v9v809v12q0 41 -12 84q-9 24 -31 41 q-23 12 -66 12q-75 -2 -94 -53q-14 -44 -14 -86v-10zM471 1734h-200l170 279h288l148 -279h-213l-90 156z"/>
<glyph glyph-name="Otilde" horiz-adv-x="1139" unicode="Õ" d="M84 446v744q2 239 139 358q133 115 346 115q215 0 348 -115q136 -119 138 -358v-744q-11 -462 -486 -473q-477 11 -485 473zM461 1223v-809q0 -17 2 -39q4 -25 12 -51q19 -58 94 -60q43 0 66 19q22 16 31 41q12 48 12 81v9v809v12q0 41 -12 84q-9 24 -31 41 q-23 12 -66 12q-75 -2 -94 -53q-14 -44 -14 -86v-10zM810 2005l98 -43q-16 -39 -34 -76q-21 -37 -50 -66q-53 -63 -149 -63q-72 2 -121 35q-53 30 -115 32q-30 -2 -57 -24q-26 -23 -43 -49l-98 37q14 34 33 71q18 35 41 66q47 65 129 67q73 -2 139 -32q65 -35 117 -37 q41 0 69 24q29 23 41 58z"/>
<glyph glyph-name="Odieresis" horiz-adv-x="1139" unicode="Ö" d="M84 446v744q2 239 139 358q133 115 346 115q215 0 348 -115q136 -119 138 -358v-744q-11 -462 -486 -473q-477 11 -485 473zM461 1223v-809q0 -17 2 -39q4 -25 12 -51q19 -58 94 -60q43 0 66 19q22 16 31 41q12 48 12 81v9v809v12q0 41 -12 84q-9 24 -31 41 q-23 12 -66 12q-75 -2 -94 -53q-14 -44 -14 -86v-10zM525 1747h-229v266h229v-266zM857 1747h-229v266h229v-266z"/>
<glyph glyph-name="multiply" horiz-adv-x="1229" unicode="×" d="M405 666l-294 294l208 209l295 -295l295 295l209 -209l-295 -294l295 -295l-209 -209l-295 295l-295 -295l-208 209z"/>
<glyph glyph-name="Oslash" horiz-adv-x="1139" unicode="Ø" d="M47 16l102 174q-65 109 -65 256v744q2 239 139 358q133 115 346 115q236 0 373 -141l80 135l110 -56l-116 -196q39 -92 39 -215v-744q-11 -462 -486 -473q-213 2 -338 113l-73 -125zM674 836l-213 -365v-57q0 -17 2 -39q4 -25 12 -51q19 -58 94 -60q43 0 66 19 q22 16 31 41q12 48 12 81v9v422h-4zM465 713l213 364v146v12q0 41 -12 84q-9 24 -31 41q-23 12 -66 12q-75 -2 -94 -53q-14 -44 -14 -86v-10v-510h4z"/>
<glyph glyph-name="Ugrave" horiz-adv-x="1139" unicode="Ù" d="M84 446v1190h377v-1194v-14q0 -56 14 -100q19 -52 94 -52q43 0 66 17q22 12 31 35q12 43 12 98v16v1194h377v-1190q-11 -462 -486 -473q-477 11 -485 473zM298 2013h324l90 -279h-191z"/>
<glyph glyph-name="Uacute" horiz-adv-x="1139" unicode="Ú" d="M84 446v1190h377v-1194v-14q0 -56 14 -100q19 -52 94 -52q43 0 66 17q22 12 31 35q12 43 12 98v16v1194h377v-1190q-11 -462 -486 -473q-477 11 -485 473zM445 1734l97 279h317l-217 -279h-197z"/>
<glyph glyph-name="Ucircumflex" horiz-adv-x="1139" unicode="Û" d="M84 446v1190h377v-1194v-14q0 -56 14 -100q19 -52 94 -52q43 0 66 17q22 12 31 35q12 43 12 98v16v1194h377v-1190q-11 -462 -486 -473q-477 11 -485 473zM471 1734h-200l170 279h288l148 -279h-213l-90 156z"/>
<glyph glyph-name="Udieresis" horiz-adv-x="1139" unicode="Ü" d="M84 446v1190h377v-1194v-14q0 -56 14 -100q19 -52 94 -52q43 0 66 17q22 12 31 35q12 43 12 98v16v1194h377v-1190q-11 -462 -486 -473q-477 11 -485 473zM525 1747h-229v266h229v-266zM857 1747h-229v266h229v-266z"/>
<glyph glyph-name="Yacute" d="M324 647l-308 989h389l105 -553h4l111 553h383l-308 -962v-674h-376v647zM387 1734l97 279h317l-217 -279h-197z" unicode="Ý"/>
<glyph glyph-name="Thorn" horiz-adv-x="1139" unicode="Þ" d="M84 0v1636h377v-266h121h21q244 0 355 -90q113 -102 113 -408q0 -90 -10 -176q-15 -86 -53 -157q-39 -70 -115 -111q-78 -45 -207 -45h-225v-383h-377zM461 1079v-405h94q90 0 117 49q14 24 20 65q2 37 2 93q0 143 -45 174q-24 18 -59 22q-37 2 -86 2h-43z"/>
<glyph glyph-name="germandbls" d="M80 0v1270q0 110 35 184q34 72 92 111q118 71 288 71h9q192 0 309 -80q113 -84 115 -266v-13q0 -90 -25 -161q-14 -37 -43 -67q-31 -31 -80 -54v-4q58 -10 90 -35q35 -24 49 -61q19 -35 23 -78q2 -45 2 -98v-307v-10q0 -162 -63 -277q-70 -123 -258 -125h-136v291h4 q99 0 101 94v391q0 98 -101 98h-4v254q41 0 70 21q29 18 31 61v66q0 53 -13 80q-16 26 -71 26q-51 -2 -62 -30q-10 -28 -10 -60v-10v-1282h-352z" unicode="ß"/>
<glyph glyph-name="agrave" d="M604 657l-98 -71q-62 -43 -62 -117v-174q0 -105 75 -105h3q43 0 64 35q18 33 18 80v352zM944 926v-926h-324v100h-4q-90 -125 -249 -127q-95 0 -152 35q-57 31 -88 86q-27 58 -37 129q-10 72 -10 150q0 92 26 157q23 64 60 107q41 43 86 74q47 26 94 47q49 22 96 43 q47 18 84 41q76 43 78 143v9q0 98 -82 100q-92 -2 -90 -91v-106h-328v119q2 145 117 233q113 84 297 86q236 0 334 -98q92 -98 92 -302v-9zM239 1687h324l90 -279h-191z" unicode="à"/>
<glyph glyph-name="aacute" d="M604 657l-98 -71q-62 -43 -62 -117v-174q0 -105 75 -105h3q43 0 64 35q18 33 18 80v352zM944 926v-926h-324v100h-4q-90 -125 -249 -127q-95 0 -152 35q-57 31 -88 86q-27 58 -37 129q-10 72 -10 150q0 92 26 157q23 64 60 107q41 43 86 74q47 26 94 47q49 22 96 43 q47 18 84 41q76 43 78 143v9q0 98 -82 100q-92 -2 -90 -91v-106h-328v119q2 145 117 233q113 84 297 86q236 0 334 -98q92 -98 92 -302v-9zM386 1408l97 279h317l-217 -279h-197z" unicode="á"/>
<glyph glyph-name="acircumflex" d="M604 657l-98 -71q-62 -43 -62 -117v-174q0 -105 75 -105h3q43 0 64 35q18 33 18 80v352zM944 926v-926h-324v100h-4q-90 -125 -249 -127q-95 0 -152 35q-57 31 -88 86q-27 58 -37 129q-10 72 -10 150q0 92 26 157q23 64 60 107q41 43 86 74q47 26 94 47q49 22 96 43 q47 18 84 41q76 43 78 143v9q0 98 -82 100q-92 -2 -90 -91v-106h-328v119q2 145 117 233q113 84 297 86q236 0 334 -98q92 -98 92 -302v-9zM413 1408h-200l170 279h288l148 -279h-213l-90 156z" unicode="â"/>
<glyph glyph-name="atilde" d="M604 657l-98 -71q-62 -43 -62 -117v-174q0 -105 75 -105h3q43 0 64 35q18 33 18 80v352zM944 926v-926h-324v100h-4q-90 -125 -249 -127q-95 0 -152 35q-57 31 -88 86q-27 58 -37 129q-10 72 -10 150q0 92 26 157q23 64 60 107q41 43 86 74q47 26 94 47q49 22 96 43 q47 18 84 41q76 43 78 143v9q0 98 -82 100q-92 -2 -90 -91v-106h-328v119q2 145 117 233q113 84 297 86q236 0 334 -98q92 -98 92 -302v-9zM750 1679l98 -43q-16 -39 -34 -76q-21 -37 -50 -66q-53 -63 -149 -63q-72 2 -121 35q-53 30 -115 32q-30 -2 -57 -24 q-26 -23 -43 -49l-98 37q14 34 33 71q18 35 41 66q47 65 129 67q73 -2 139 -32q65 -35 117 -37q41 0 69 24q29 23 41 58z" unicode="ã"/>
<glyph glyph-name="adieresis" d="M604 657l-98 -71q-62 -43 -62 -117v-174q0 -105 75 -105h3q43 0 64 35q18 33 18 80v352zM944 926v-926h-324v100h-4q-90 -125 -249 -127q-95 0 -152 35q-57 31 -88 86q-27 58 -37 129q-10 72 -10 150q0 92 26 157q23 64 60 107q41 43 86 74q47 26 94 47q49 22 96 43 q47 18 84 41q76 43 78 143v9q0 98 -82 100q-92 -2 -90 -91v-106h-328v119q2 145 117 233q113 84 297 86q236 0 334 -98q92 -98 92 -302v-9zM466 1421h-229v266h229v-266zM798 1421h-229v266h229v-266z" unicode="ä"/>
<glyph glyph-name="aring" d="M604 657l-98 -71q-62 -43 -62 -117v-174q0 -105 75 -105h3q43 0 64 35q18 33 18 80v352zM944 926v-926h-324v100h-4q-90 -125 -249 -127q-95 0 -152 35q-57 31 -88 86q-27 58 -37 129q-10 72 -10 150q0 92 26 157q23 64 60 107q41 43 86 74q47 26 94 47q49 22 96 43 q47 18 84 41q76 43 78 143v9q0 98 -82 100q-92 -2 -90 -91v-106h-328v119q2 145 117 233q113 84 297 86q236 0 334 -98q92 -98 92 -302v-9zM519 1606q-41 0 -84 -10q-49 -14 -51 -65q2 -52 49 -66q38 -14 76 -14h10q43 0 86 16q43 14 45 64q-2 53 -45 65q-43 10 -86 10z M519 1357h-12q-76 0 -146 36q-37 23 -59 56q-25 32 -25 82q0 49 25 82q22 32 59 51q76 37 158 37q84 0 159 -37q76 -39 78 -133q-2 -95 -76 -134q-73 -40 -161 -40z" unicode="å"/>
<glyph glyph-name="ae" horiz-adv-x="1479" unicode="æ" d="M582 657l-99 -71q-61 -43 -61 -117v-174q0 -105 75 -105h3q43 0 63 35q19 33 19 80v352zM1409 1018v-416h-487v-295q0 -57 28 -74q25 -20 51 -18q80 0 80 102v168h328v-200q-2 -170 -115 -242q-112 -70 -268 -70q-111 0 -197 25q-90 27 -188 133q-39 -53 -80 -84 q-43 -33 -80 -49q-73 -25 -127 -25q-98 0 -155 35q-58 31 -86 86q-27 58 -35 129q-8 72 -8 150q0 92 22 157q23 64 57 107q37 43 84 74q43 26 91 47q49 22 96 43q47 18 84 41q76 43 78 143v9q0 98 -82 100q-92 -2 -90 -91v-106h-328v119q2 145 117 233q112 84 297 86 q141 0 249 -69q70 43 156 57q86 12 145 12q136 0 246 -74q111 -77 117 -243zM922 987v-143h159v143q0 37 -8 72q-6 16 -22 26q-19 9 -50 9q-55 -2 -69 -35q-11 -28 -11 -58q0 -7 1 -14z"/>
<glyph glyph-name="ccedilla" d="M559 -23l-78 -86h4q32 11 70 11h12q78 0 125 -41q47 -43 49 -121q-2 -98 -77 -131q-76 -33 -152 -33q-70 2 -141 21q-74 18 -133 43l38 55q82 -35 168 -37q39 0 72 14q31 15 33 56q0 80 -88 80q-43 0 -82 -17l-45 39l114 150q-108 10 -182 49t-112 92q-39 53 -56 112 q-18 60 -18 113v616q0 60 20 125q19 66 66 121q49 58 133 92q82 35 213 35t217 -35q86 -34 133 -92q25 -26 41 -57t25 -64q16 -65 16 -125v-139h-352v164q0 37 -8 72q-7 16 -23 26q-18 9 -49 9q-55 -2 -70 -35q-10 -30 -10 -61v-11v-665v-10q0 -31 10 -60q15 -35 70 -37 q59 2 72 37q8 33 8 70v235h352v-211q0 -53 -14 -113q-17 -61 -60 -118q-41 -54 -116 -92q-76 -37 -195 -46z" unicode="ç"/>
<glyph glyph-name="egrave" d="M432 987v-143h160v143q0 37 -8 72q-7 16 -23 26q-18 9 -49 9q-55 -2 -70 -35q-10 -30 -10 -61v-11zM80 346v616q0 60 20 125q19 66 66 121q49 58 133 92q82 35 213 35t217 -35q86 -34 133 -92q25 -26 41 -57t25 -64q16 -65 16 -125v-360h-512v-280v-10q0 -31 10 -60 q15 -35 70 -37q59 2 72 37q8 33 8 70v163h352v-139q0 -55 -16 -119q-9 -30 -25 -61q-16 -33 -41 -62q-47 -57 -133 -92q-86 -37 -217 -39q-131 2 -213 39q-84 35 -133 92q-47 58 -66 123q-20 64 -20 119zM239 1687h324l90 -279h-191z" unicode="è"/>
<glyph glyph-name="eacute" d="M432 987v-143h160v143q0 37 -8 72q-7 16 -23 26q-18 9 -49 9q-55 -2 -70 -35q-10 -30 -10 -61v-11zM80 346v616q0 60 20 125q19 66 66 121q49 58 133 92q82 35 213 35t217 -35q86 -34 133 -92q25 -26 41 -57t25 -64q16 -65 16 -125v-360h-512v-280v-10q0 -31 10 -60 q15 -35 70 -37q59 2 72 37q8 33 8 70v163h352v-139q0 -55 -16 -119q-9 -30 -25 -61q-16 -33 -41 -62q-47 -57 -133 -92q-86 -37 -217 -39q-131 2 -213 39q-84 35 -133 92q-47 58 -66 123q-20 64 -20 119zM386 1408l97 279h317l-217 -279h-197z" unicode="é"/>
<glyph glyph-name="ecircumflex" d="M432 987v-143h160v143q0 37 -8 72q-7 16 -23 26q-18 9 -49 9q-55 -2 -70 -35q-10 -30 -10 -61v-11zM80 346v616q0 60 20 125q19 66 66 121q49 58 133 92q82 35 213 35t217 -35q86 -34 133 -92q25 -26 41 -57t25 -64q16 -65 16 -125v-360h-512v-280v-10q0 -31 10 -60 q15 -35 70 -37q59 2 72 37q8 33 8 70v163h352v-139q0 -55 -16 -119q-9 -30 -25 -61q-16 -33 -41 -62q-47 -57 -133 -92q-86 -37 -217 -39q-131 2 -213 39q-84 35 -133 92q-47 58 -66 123q-20 64 -20 119zM413 1408h-200l170 279h288l148 -279h-213l-90 156z" unicode="ê"/>
<glyph glyph-name="edieresis" d="M432 987v-143h160v143q0 37 -8 72q-7 16 -23 26q-18 9 -49 9q-55 -2 -70 -35q-10 -30 -10 -61v-11zM80 346v616q0 60 20 125q19 66 66 121q49 58 133 92q82 35 213 35t217 -35q86 -34 133 -92q25 -26 41 -57t25 -64q16 -65 16 -125v-360h-512v-280v-10q0 -31 10 -60 q15 -35 70 -37q59 2 72 37q8 33 8 70v163h352v-139q0 -55 -16 -119q-9 -30 -25 -61q-16 -33 -41 -62q-47 -57 -133 -92q-86 -37 -217 -39q-131 2 -213 39q-84 35 -133 92q-47 58 -66 123q-20 64 -20 119zM466 1421h-229v266h229v-266zM798 1421h-229v266h229v-266z" unicode="ë"/>
<glyph glyph-name="igrave" horiz-adv-x="569" unicode="ì" d="M461 0h-352v1309h352v-1309zM5 1687h324l90 -279h-191z"/>
<glyph glyph-name="iacute" horiz-adv-x="569" unicode="í" d="M461 0h-352v1309h352v-1309zM151 1408l97 279h317l-217 -279h-197z"/>
<glyph glyph-name="icircumflex" horiz-adv-x="569" unicode="î" d="M461 0h-352v1309h352v-1309zM179 1408h-200l170 279h288l148 -279h-213l-90 156z"/>
<glyph glyph-name="idieresis" horiz-adv-x="569" unicode="ï" d="M461 0h-352v1309h352v-1309zM232 1421h-229v266h229v-266zM564 1421h-229v266h229v-266z"/>
<glyph glyph-name="eth" d="M432 844v-522v-10q0 -31 10 -60q15 -35 70 -37q59 2 72 37q8 33 8 70v522q0 37 -8 71q-7 17 -23 27q-18 8 -49 8q-55 -2 -70 -35q-10 -29 -10 -60v-11zM80 346v508q4 168 131 254q123 84 280 84q54 0 105 -17q0 25 -23 78q-24 51 -73 103l-191 -80l-110 114l180 74 q-49 41 -170 90l223 109q100 -51 186 -100l228 94l98 -133l-199 -84q115 -121 160 -273q39 -151 39 -319v-502q0 -55 -16 -119q-9 -30 -25 -61q-16 -33 -41 -62q-47 -57 -133 -92q-86 -37 -217 -39q-131 2 -213 39q-84 35 -133 92q-47 58 -66 123q-20 64 -20 119z" unicode="ð"/>
<glyph glyph-name="ntilde" d="M80 0v1309h340v-146h4q47 84 108 129q60 43 160 43q127 -2 191 -80q61 -77 61 -200v-1055h-352v895q0 39 -8 82q-7 20 -23 33q-18 10 -49 10q-55 -2 -70 -49q-10 -40 -10 -67v-9v-895h-352zM750 1679l98 -43q-16 -39 -34 -76q-21 -37 -50 -66q-53 -63 -149 -63 q-72 2 -121 35q-53 30 -115 32q-30 -2 -57 -24q-26 -23 -43 -49l-98 37q14 34 33 71q18 35 41 66q47 65 129 67q73 -2 139 -32q65 -35 117 -37q41 0 69 24q29 23 41 58z" unicode="ñ"/>
<glyph glyph-name="ograve" d="M432 987v-665v-10q0 -31 10 -60q15 -35 70 -37q59 2 72 37q8 33 8 70v665q0 37 -8 72q-7 16 -23 26q-18 9 -49 9q-55 -2 -70 -35q-10 -30 -10 -61v-11zM80 346v616q0 60 20 125q19 66 66 121q49 58 133 92q82 35 213 35t217 -35q86 -34 133 -92q25 -26 41 -57t25 -64 q16 -65 16 -125v-616q0 -55 -16 -119q-9 -30 -25 -61q-16 -33 -41 -62q-47 -57 -133 -92q-86 -37 -217 -39q-131 2 -213 39q-84 35 -133 92q-47 58 -66 123q-20 64 -20 119zM239 1687h324l90 -279h-191z" unicode="ò"/>
<glyph glyph-name="oacute" d="M432 987v-665v-10q0 -31 10 -60q15 -35 70 -37q59 2 72 37q8 33 8 70v665q0 37 -8 72q-7 16 -23 26q-18 9 -49 9q-55 -2 -70 -35q-10 -30 -10 -61v-11zM80 346v616q0 60 20 125q19 66 66 121q49 58 133 92q82 35 213 35t217 -35q86 -34 133 -92q25 -26 41 -57t25 -64 q16 -65 16 -125v-616q0 -55 -16 -119q-9 -30 -25 -61q-16 -33 -41 -62q-47 -57 -133 -92q-86 -37 -217 -39q-131 2 -213 39q-84 35 -133 92q-47 58 -66 123q-20 64 -20 119zM386 1408l97 279h317l-217 -279h-197z" unicode="ó"/>
<glyph glyph-name="ocircumflex" d="M432 987v-665v-10q0 -31 10 -60q15 -35 70 -37q59 2 72 37q8 33 8 70v665q0 37 -8 72q-7 16 -23 26q-18 9 -49 9q-55 -2 -70 -35q-10 -30 -10 -61v-11zM80 346v616q0 60 20 125q19 66 66 121q49 58 133 92q82 35 213 35t217 -35q86 -34 133 -92q25 -26 41 -57t25 -64 q16 -65 16 -125v-616q0 -55 -16 -119q-9 -30 -25 -61q-16 -33 -41 -62q-47 -57 -133 -92q-86 -37 -217 -39q-131 2 -213 39q-84 35 -133 92q-47 58 -66 123q-20 64 -20 119zM413 1408h-200l170 279h288l148 -279h-213l-90 156z" unicode="ô"/>
<glyph glyph-name="otilde" d="M432 987v-665v-10q0 -31 10 -60q15 -35 70 -37q59 2 72 37q8 33 8 70v665q0 37 -8 72q-7 16 -23 26q-18 9 -49 9q-55 -2 -70 -35q-10 -30 -10 -61v-11zM80 346v616q0 60 20 125q19 66 66 121q49 58 133 92q82 35 213 35t217 -35q86 -34 133 -92q25 -26 41 -57t25 -64 q16 -65 16 -125v-616q0 -55 -16 -119q-9 -30 -25 -61q-16 -33 -41 -62q-47 -57 -133 -92q-86 -37 -217 -39q-131 2 -213 39q-84 35 -133 92q-47 58 -66 123q-20 64 -20 119zM750 1679l98 -43q-16 -39 -34 -76q-21 -37 -50 -66q-53 -63 -149 -63q-72 2 -121 35 q-53 30 -115 32q-30 -2 -57 -24q-26 -23 -43 -49l-98 37q14 34 33 71q18 35 41 66q47 65 129 67q73 -2 139 -32q65 -35 117 -37q41 0 69 24q29 23 41 58z" unicode="õ"/>
<glyph glyph-name="odieresis" d="M432 987v-665v-10q0 -31 10 -60q15 -35 70 -37q59 2 72 37q8 33 8 70v665q0 37 -8 72q-7 16 -23 26q-18 9 -49 9q-55 -2 -70 -35q-10 -30 -10 -61v-11zM80 346v616q0 60 20 125q19 66 66 121q49 58 133 92q82 35 213 35t217 -35q86 -34 133 -92q25 -26 41 -57t25 -64 q16 -65 16 -125v-616q0 -55 -16 -119q-9 -30 -25 -61q-16 -33 -41 -62q-47 -57 -133 -92q-86 -37 -217 -39q-131 2 -213 39q-84 35 -133 92q-47 58 -66 123q-20 64 -20 119zM466 1421h-229v266h229v-266zM798 1421h-229v266h229v-266z" unicode="ö"/>
<glyph glyph-name="divide" horiz-adv-x="1229" unicode="÷" d="M815 242q-2 -84 -55 -142q-58 -59 -146 -59q-84 0 -141 59q-59 58 -59 142q0 88 59 145q57 53 141 55q88 -2 146 -55q53 -57 55 -145zM614 1290q88 -2 146 -55q53 -57 55 -146q-2 -84 -55 -141q-58 -59 -146 -59q-84 0 -141 59q-59 57 -59 141q0 89 59 146q57 53 141 55z M1132 520h-1036v291h1036v-291z"/>
<glyph glyph-name="oslash" d="M80 346v616q0 60 20 125q19 66 66 121q49 58 133 92q82 35 213 35q117 0 195 -26q79 -29 126 -76l82 119l88 -66l-98 -151q39 -89 39 -173v-616q0 -55 -16 -119q-9 -30 -25 -61q-16 -33 -41 -62q-47 -57 -133 -92q-86 -37 -217 -39q-215 2 -311 95l-86 -123l-88 69 l98 148q-45 92 -45 177v7zM588 659l-156 -241v-96v-10q0 -31 10 -60q15 -35 70 -37q59 2 72 37q8 33 8 70v337h-4zM436 627l156 241v119q0 37 -8 72q-7 16 -23 26q-18 9 -49 9q-55 -2 -70 -35q-10 -30 -10 -61v-11v-360h4z" unicode="ø"/>
<glyph glyph-name="ugrave" d="M944 1309v-1309h-340v145h-4q-43 -84 -106 -127q-62 -43 -162 -45q-125 2 -187 82q-65 80 -65 199v1055h352v-895q0 -15 2 -37q2 -23 8 -41q15 -45 70 -47q31 0 49 16q16 17 23 37q8 45 8 72v895h352zM239 1687h324l90 -279h-191z" unicode="ù"/>
<glyph glyph-name="uacute" d="M944 1309v-1309h-340v145h-4q-43 -84 -106 -127q-62 -43 -162 -45q-125 2 -187 82q-65 80 -65 199v1055h352v-895q0 -15 2 -37q2 -23 8 -41q15 -45 70 -47q31 0 49 16q16 17 23 37q8 45 8 72v895h352zM386 1408l97 279h317l-217 -279h-197z" unicode="ú"/>
<glyph glyph-name="ucircumflex" d="M944 1309v-1309h-340v145h-4q-43 -84 -106 -127q-62 -43 -162 -45q-125 2 -187 82q-65 80 -65 199v1055h352v-895q0 -15 2 -37q2 -23 8 -41q15 -45 70 -47q31 0 49 16q16 17 23 37q8 45 8 72v895h352zM413 1408h-200l170 279h288l148 -279h-213l-90 156z" unicode="û"/>
<glyph glyph-name="udieresis" d="M944 1309v-1309h-340v145h-4q-43 -84 -106 -127q-62 -43 -162 -45q-125 2 -187 82q-65 80 -65 199v1055h352v-895q0 -15 2 -37q2 -23 8 -41q15 -45 70 -47q31 0 49 16q16 17 23 37q8 45 8 72v895h352zM466 1421h-229v266h229v-266zM798 1421h-229v266h229v-266z" unicode="ü"/>
<glyph glyph-name="yacute" horiz-adv-x="909" unicode="ý" d="M109 -238v254h79q27 0 43 11q17 10 17 36q-2 52 -23 148l-215 1098h361l88 -920h4l90 920h346l-229 -1198q-31 -185 -109 -267q-39 -41 -106 -59q-70 -23 -183 -23h-163zM328 1408l97 279h317l-217 -279h-197z"/>
<glyph glyph-name="thorn" d="M432 856v-451v-11q0 -55 19 -99q18 -53 71 -55q37 -2 55 16q15 16 15 76v651q0 51 -21 70q-20 16 -49 16q-65 -2 -78 -72q-12 -60 -12 -123v-18zM80 -225v1861h352v-458h4q70 155 246 157q143 -2 205 -86q57 -88 57 -239v-758q0 -109 -61 -191q-62 -86 -183 -88 q-98 0 -153 37q-58 37 -111 109h-4v-344h-352z" unicode="þ"/>
<glyph glyph-name="OE" horiz-adv-x="1593" unicode="Œ" d="M461 1223v-809q0 -17 2 -39q4 -25 12 -51q19 -58 94 -60q43 0 66 19q22 16 31 41q12 48 12 81v9v809v12q0 41 -12 84q-9 24 -31 41q-23 12 -66 12q-75 -2 -94 -53q-14 -44 -14 -86v-10zM84 446v744q2 239 139 358q133 115 346 115q56 -2 109 -12q57 -15 98 -15h723v-315 h-457v-326h402v-315h-402v-365h467v-315h-661q-92 0 -141 -12q-48 -13 -138 -15q-477 11 -485 473z"/>
<glyph glyph-name="oe" horiz-adv-x="1479" unicode="œ" d="M422 987v-665v-10q0 -31 10 -60q14 -35 70 -37q59 2 71 37q9 33 9 70v665q0 37 -9 72q-6 16 -22 26q-19 9 -49 9q-56 -2 -70 -35q-10 -30 -10 -61v-11zM70 346v616q0 60 20 125q19 66 66 121q49 58 133 92q82 35 213 35q141 0 262 -94q67 53 133 74q63 20 149 20 q136 0 246 -74q111 -77 117 -243v-416h-487v-295q0 -57 28 -74q25 -18 56 -18h6q67 0 69 102v168h328v-200q-2 -170 -115 -242q-112 -70 -268 -70q-98 0 -164 23q-69 22 -129 67q-57 -53 -121 -71q-65 -19 -110 -19q-131 2 -213 39q-84 35 -133 92q-47 58 -66 123 q-20 64 -20 119zM922 987v-143h159v143q0 37 -8 72q-6 16 -22 26q-19 9 -50 9q-55 -2 -69 -35q-11 -28 -11 -58q0 -7 1 -14z"/>
<glyph glyph-name="Scaron" horiz-adv-x="1139" unicode="Š" d="M70 555h364v-121v-9q0 -61 25 -108q24 -53 102 -53q66 0 98 39q33 35 33 88q-2 107 -92 189q-88 81 -207 159q-55 47 -108 92q-56 43 -99 95q-43 51 -67 120q-29 68 -29 158q6 459 469 459h12q471 -8 471 -405v-7v-147h-352v88v12q0 58 -18 109q-23 57 -101 59 q-127 -2 -129 -123q0 -37 29 -74q29 -38 72 -81q94 -84 213 -170q53 -45 110 -86q53 -43 101 -101q47 -57 75 -139q27 -82 27 -207q0 -59 -23 -129q-26 -72 -84 -137q-57 -66 -157 -107q-101 -43 -248 -45q-137 2 -231 41q-95 39 -152 101q-55 61 -80 133q-24 69 -24 131 v176zM419 1734l-135 279h198l91 -150l98 150h198l-161 -279h-289z"/>
<glyph glyph-name="scaron" horiz-adv-x="909" unicode="š" d="M49 326v86h316v-80v-10q0 -34 18 -66q18 -41 72 -41q77 2 77 96q-2 78 -73 137q-72 58 -162 121q-88 66 -160 158q-74 90 -76 231q2 189 111 283t283 94h9q376 0 382 -344v-69h-316v69q0 29 -8 66q-14 35 -67 37q-78 0 -78 -89q0 -36 24 -67q23 -33 60 -64q37 -28 80 -59 q41 -31 77 -68q97 -65 168 -151q72 -90 74 -238q0 -41 -8 -104q-10 -64 -49 -127q-39 -64 -121 -107q-84 -45 -227 -47q-230 2 -318 97q-88 92 -88 249v7zM299 1408l-135 279h198l91 -150l98 150h198l-161 -279h-289z"/>
<glyph glyph-name="Ydieresis" d="M324 647l-308 989h389l105 -553h4l111 553h383l-308 -962v-674h-376v647zM467 1747h-229v266h229v-266zM799 1747h-229v266h229v-266z" unicode="Ÿ"/>
<glyph glyph-name="circumflex" horiz-adv-x="569" unicode="ˆ" d="M182 1425h-200l170 279h288l148 -279h-213l-90 156z"/>
<glyph glyph-name="tilde" horiz-adv-x="569" unicode="˜" d="M520 1696l98 -43q-16 -39 -34 -76q-21 -37 -50 -66q-53 -63 -149 -63q-72 2 -121 35q-53 30 -115 32q-30 -2 -57 -24q-26 -23 -43 -49l-98 37q14 34 33 71q18 35 41 66q47 65 129 67q73 -2 139 -32q65 -35 117 -37q41 0 69 24q29 23 41 58z"/>
<glyph glyph-name="endash" d="M0 553v254h1024v-254h-1024z" unicode="–"/>
<glyph glyph-name="emdash" horiz-adv-x="2048" unicode="—" d="M0 553v254h2048v-254h-2048z"/>
<glyph glyph-name="quoteleft" horiz-adv-x="569" unicode="‘" d="M127 1059v303q2 86 49 153q23 35 47 66q27 29 51 55h166q-47 -45 -90 -98q-45 -53 -61 -127h153v-352h-315z"/>
<glyph glyph-name="quotesinglbase" horiz-adv-x="569" unicode="‚" d="M442 352v-299q-2 -84 -47 -151q-45 -70 -100 -127h-166q49 49 94 102q43 53 58 123h-154v352h315z"/>
<glyph glyph-name="quotedblleft" d="M881 1059h-316v303q2 86 49 153q23 35 47 66q27 29 52 55h166q-48 -45 -91 -98q-45 -53 -61 -127h154v-352zM459 1059h-316v303q2 86 49 153q23 35 48 66q26 29 51 55h166q-47 -45 -90 -96q-45 -55 -62 -125h154v-356z" unicode="“"/>
<glyph glyph-name="quotedblright" d="M459 1636v-299q-2 -84 -47 -151q-45 -70 -101 -127h-166q50 49 95 102q43 53 57 123h-154v352h316zM881 1636v-299q-2 -84 -48 -151q-45 -70 -100 -127h-166q49 49 94 102q43 53 58 123h-154v352h316z" unicode="”"/>
<glyph glyph-name="dagger" d="M84 909v266h264v461h328v-461h264v-266h-264v-1114h-328v1114h-264z" unicode="†"/>
<glyph glyph-name="daggerdbl" d="M84 938v266h264v432h328v-432h264v-266h-264v-451h264v-266h-264v-426h-328v426h-264v266h264v451h-264z" unicode="‡"/>
<glyph glyph-name="ellipsis" horiz-adv-x="2048" unicode="…" d="M1876 0h-340v377h340v-377zM1194 0h-340v377h340v-377zM512 0h-340v377h340v-377z"/>
<glyph glyph-name="perthousand" horiz-adv-x="2048" unicode="‰" d="M29 1051v344q2 139 82 192q74 49 180 49h8h9q109 0 181 -49q78 -53 80 -192v-344q-2 -136 -80 -189q-72 -53 -182 -53h-8q-53 0 -100 14q-50 13 -88 39q-80 53 -82 189zM246 1395v-344q0 -27 10 -50q8 -24 43 -24q37 0 47 24q6 23 6 50v344q0 26 -6 49q-10 22 -47 24 q-35 -2 -43 -24q-10 -23 -10 -49zM301 -53l578 1716h196l-573 -1716h-201zM1696 559v-344q0 -27 10 -49q8 -25 43 -25q37 0 47 25q6 22 6 49v344q0 27 -6 49q-10 23 -47 25q-35 -2 -43 -25q-10 -22 -10 -49zM1479 215v344q2 139 81 193q75 49 181 49h8h9q109 0 181 -49 q78 -54 80 -193v-344q-2 -135 -80 -188q-75 -54 -190 -54q-53 0 -100 15q-50 12 -89 39q-79 53 -81 188zM829 215v344q2 139 82 193q75 49 181 49h8h9q108 0 181 -49q78 -54 80 -193v-344q-2 -135 -80 -188q-76 -54 -190 -54q-54 0 -101 15q-49 12 -88 39q-80 53 -82 188z M1046 559v-344q0 -27 11 -49q8 -25 43 -25q37 0 47 25q6 22 6 49v344q0 27 -6 49q-10 23 -47 25q-35 -2 -43 -25q-11 -22 -11 -49z"/>
<glyph glyph-name="guilsinglleft" horiz-adv-x="682" unicode="‹" d="M571 383h-266l-201 297l207 289h266l-212 -289z"/>
<glyph glyph-name="guilsinglright" horiz-adv-x="682" unicode="›" d="M109 383l206 297l-211 289h267l206 -289l-202 -297h-266z"/>
<glyph glyph-name="trademark" horiz-adv-x="2048" unicode="™" d="M913 793v843h324l182 -489l182 489h324v-843h-229v552h-4l-183 -552h-180l-182 552h-4v-552h-230zM350 793v651h-227v192h706v-192h-225v-651h-254z"/>
<glyph glyph-name="ring" d="M287 1642q-41 0 -84 -10q-49 -14 -51 -65q2 -52 49 -66q38 -14 76 -14h10q43 0 86 16q43 14 45 64q-2 53 -45 65q-43 10 -86 10zM287 1393h-12q-76 0 -146 36q-37 23 -59 56q-25 32 -25 82q0 49 25 82q22 32 59 51q76 37 158 37q84 0 159 -37q76 -39 78 -133 q-2 -95 -76 -134q-73 -40 -161 -40z" horiz-adv-x="569"/>
<glyph glyph-name="caron" d="M127 1425l-135 279h198l91 -150l98 150h198l-161 -279h-289z" horiz-adv-x="569"/>
<glyph glyph-name="dotlessi" d="M461 0h-352v1309h352v-1309z" horiz-adv-x="569"/>
</font>
</defs>
</svg>
