<?xml version="1.0" encoding="utf-8"?>
<!-- Generator: Adobe Illustrator 20.1.0, SVG Export Plug-In . SVG Version: 6.00 Build 0)  -->
<svg version="1.1" id="Layer_1" xmlns="http://www.w3.org/2000/svg" xmlns:xlink="http://www.w3.org/1999/xlink" x="0px" y="0px"
	 viewBox="0 0 1600 190.2" style="enable-background:new 0 0 1600 190.2;" xml:space="preserve">
<style type="text/css">
	.st0{fill:#0040CB;}
	.st1{fill:#0234A3;}
	.st2{display:none;}
	.st3{display:inline;}
	.st4{fill:#0034C4;}
</style>
<polygon class="st0" points="1600.5,190.2 1600,142.2 1554.9,141.5 1498.7,148.4 1425.3,142.1 1371.6,132.4 1330.6,147.8 
	1295.1,134.6 1232.3,134.1 1202.4,118.6 1138.6,121.5 1069.2,100.9 994.8,112.9 979.6,122.1 940.1,134.6 936.4,169.6 909.3,158.9 
	689.3,117.9 615.1,126.9 570.9,141.9 525.3,133.9 477.2,134.9 422.5,123.9 352.2,138.9 298.9,130.9 214.3,142.9 81.5,150.9 
	88.5,190.9 990.5,190.9 988.6,190.2 "/>
<path class="st1" d="M1448.3,97.5l-57.9-6.1l-218.4,57l-191.1-38l-202.2,51l-165.6,16l-25.6-2l-203.2-8l-64.1-15l-127.1-5L76,111.4
	l-77.1,10v69h616.6h168.2h816.7v-77L1474.2,100"/>
<g class="st2">
	<title>Layer 1</title>
	<g id="layer1" class="st3">
		<path id="path2453" class="st4" d="M1145.6,133.1c-0.4-0.1-1-0.3-1.4-0.5c-0.5-0.3-1.1-0.5-1.8-0.5c-1.7-0.2-1.8-0.3-1.9-1.2
			c-0.1-0.6-0.3-1-1-2.2c-0.5-0.8-1-1.6-1.1-1.8c-0.1-0.3,0-1.4,0.2-3.7l0.3-3.3l-0.6-3.2c-0.3-1.7-0.7-4.4-0.9-5.9
			c-0.2-1.5-0.4-3-0.5-3.2c-0.5-1.9-1-3.6-1.5-4.5c-0.3-0.6-1.1-2.6-1.8-4.5c-0.7-1.9-1.3-3.6-1.4-3.7c-0.1-0.2-0.4-0.3-1.3-0.3
			c-0.6,0-1.2,0.1-1.3,0.1c-0.2,0.1-0.2,0.6-0.5,5c-0.1,2.4-0.3,4.1-0.6,7c-0.1,0.8,0,1.4,0.1,2.1c0.1,0.6,0.3,2.1,0.4,3.3
			c0.1,1.2,0.2,2.9,0.3,3.7c0.2,1.4,0.1,3.3-0.1,3.9c-0.1,0.1,0.2,0.6,0.7,1.2s1.1,1.5,1.4,2.1c0.6,1.1,0.6,1.1,0.4,2
			c-0.2,1-0.4,1.4-1,2.3c-0.4,0.6-0.4,0.8-0.4,1.7c0,1.4-0.2,1.5-2,1.8c-0.8,0.1-1.7,0.3-2.2,0.5c-1.1,0.5-2.2,0.7-4,0.7
			s-2.6-0.2-2.7-0.8c-0.1-0.4,0.1-0.8,1.4-2.2c0.4-0.5,0.9-0.9,1-0.9s0.3-0.2,0.4-0.3c0.1-0.2,0.4-0.5,0.6-0.7
			c0.5-0.4,0.6-1,0.1-0.9c-0.1,0-0.3,0-0.4-0.2c-0.2-0.2-0.7-5.1-1-8.9c-0.1-1.2-0.2-3.5-0.2-5.2c0-3.7-0.2-5.6-0.7-8.1
			c-0.3-1.5-1.2-8.1-1.2-8.9c0-0.1-0.6-0.2-1.5-0.2s-1.5-0.1-1.6-0.2s0-1.2,0.2-2.4c0.1-1.2,0.2-2.3,0.2-2.3s-0.4-0.3-0.9-0.6
			c-0.7-0.4-1-0.7-1.5-1.7c-0.6-1-0.7-1.3-0.7-2.1c0-0.6-0.1-1-0.3-1.2c-0.2-0.2-0.3-0.8-0.5-1.9l-0.2-1.6l0.1,2.6l0.1,2.6l-0.9,1.3
			c-0.5,0.7-1.1,1.4-1.3,1.6l-0.4,0.3l-0.1,7.1l-0.1,7.1l-0.5,0.3c-0.5,0.3-0.5,0.4-0.5,1c0,0.4,0.1,1.1,0.2,1.6
			c0.5,1.8,0.2,4.9-1,12.2c-0.2,1-0.3,2.5-0.3,3.2c0,1.4,0.1,2,1.3,5.9c0.9,3.1,0.9,4.6-0.1,5.2c-0.9,0.5-1.6,0.3-2.8-0.8
			c-0.8-0.7-1-1.1-1.2-3.5c-0.2-1.9-0.3-2.3-1-4.3c-0.5-1.4-0.5-2.1,0.3-3.3l0.6-0.9l-0.2-1.1c-0.3-1.6-0.9-4.9-1.2-6.1
			c-0.3-1.2-0.3-3.3-0.1-5.3c0.1-1.1,0.1-1.5,0-2l-0.2-0.6h-1.4h-1.4l0.1,0.9c0.1,0.5,0.2,3,0.2,5.6c0.1,2.6,0.2,4.9,0.3,5.1
			c0.1,0.2,0.4,0.8,0.7,1.3l0.6,0.8l-0.1,1.8c-0.1,1.2,0,2.2,0.1,3.2c0.5,2.8,0.5,3.3,0,4.2c-0.8,1.5-2.1,1.7-3.2,0.6
			c-0.9-0.9-0.9-1.4-0.7-4.6c0.3-4.9,0.3-5.7-0.8-8.4c-1.7-4.4-3-8.5-3-9.8c0-0.5-0.1-1-0.1-1.1c-0.1-0.1-0.5-0.3-1.1-0.3
			c-1.9-0.4-2.2-0.6-2.5-1.7c0-0.2-0.2-2.7-0.3-5.5c-0.1-2.8-0.2-5.1-0.3-5.2c-0.1-0.1-0.3-0.2-0.5-0.3c-0.7-0.2-1.4-1-2-2.4
			c-0.4-1.1-0.5-1.6-0.7-3.7c-0.1-1.4-0.2-3.3-0.1-4.4c0.1-1.3,0-2.8-0.2-4.7c-0.3-3.2-0.3-7.3,0.1-8.6c0.3-1,0.3-1.8,0-3.5
			c-0.4-2.1-0.4-7.1,0-9.4c0.2-1.2,0.4-1.9,0.7-2.4c0.4-0.7,1.4-1.4,2.3-1.7c0.5-0.1,0.7-0.3,1.1-1c0.9-1.4,1-2.6,0.4-4.6
			c-0.4-1.4-0.5-2.6-0.3-5.4c0.2-3.3,0.5-4.3,2-5.8c1-1.1,3.1-2.3,3.8-2.3c0.5,0,1.3,0.3,1.9,0.6c0.2,0.2,0.7,0.3,1,0.3
			c0.5,0,0.7,0.2,1.7,1.1c1.7,1.6,2.5,3.1,3.1,5.9c0.4,1.9,0.4,5.7,0.1,7.6c-0.1,0.7-0.2,1.6-0.2,2c0,0.9,0.1,0.9,1.8,1.2
			c1.2,0.2,2.1,0.6,2.7,1.1c0.8,0.7,0.8,1.1,1,6.4c0.1,5.4,0.3,7.2,0.8,8.7c0.6,1.8,0.6,2.3,0.8,5.9c0.2,4.5,0.4,6.5,0.7,7.2
			c0.2,0.5,0.2,0.5,0.2-0.6c-0.2-2.7-0.3-11.5-0.1-13.1c0.2-2,1.2-8,1.5-9.5c0.9-4,1.4-5.8,1.7-6.1c0.7-0.7,1.7-1.2,3.2-1.8
			c2.2-0.9,2.4-1,3.6-2.1c1.5-1.5,1.7-1.8,1.8-3.7l0.1-1.6l-0.6-0.6c-0.7-0.7-1.1-1.7-0.9-2.5c0.1-0.4,0.2-0.5,0.5-0.6
			c0.3,0,0.3-0.1,0.3-1c0-2.1,0.7-3.3,2.3-4c1.4-0.7,2.7-0.8,3.9-0.2c1,0.4,2.2,1.4,2.6,2.1c0.3,0.6,0.3,2,0,3.1
			c-0.2,0.8-0.2,0.9,0.1,0.9c0.7,0,0.1,2.1-0.8,2.9c-0.5,0.4-0.6,0.5-0.6,1.6c0,0.6,0,1.2,0.1,1.2c0,0,1,0.7,2.1,1.5
			c1.9,1.3,2.2,1.5,3.4,1.8c1.6,0.4,3.1,1.1,3.8,1.8c0.6,0.6,0.8,1,3,8.9l1.5,5.4v2.6c0,3.2-0.4,5.3-2.2,11.9l-0.8,2.8l0.6,2.4
			c2.3,9.5,2.4,10.2,2.2,10.5c-0.2,0.4-1.1,0.7-2.1,0.7c-0.4,0-0.7,0.1-0.7,0.2c-0.1,0.1,0,0.6,0.1,1.1s0.2,1.9,0.3,3.1
			c0.1,1.3,0.3,2.5,0.5,3s0.3,1.4,0.4,2c0,0.7,0.3,2.9,0.5,5c0.4,3.6,0.5,4.1,1.8,9.3c1.5,5.9,2,8.4,2,9.4c0,0.6,0.4,1.3,1.3,2.1
			c0.2,0.2,0.4,0.5,0.4,0.6s0.1,0.3,0.2,0.3c0.3,0.1,1,1.4,1,1.9c0,0.2-0.1,0.5-0.2,0.6C1150.4,133.2,1146.6,133.3,1145.6,133.1z
			 M1117.3,87.5c0.1-0.3,0.1-0.8,0-1.2c-0.1-0.6-0.1-0.7-0.4-0.7c-0.4,0.1-0.5,0.7-0.2,1.6C1117,88.1,1117.1,88.2,1117.3,87.5z
			 M1111.2,86.5c0-0.5-0.1-0.8-0.2-0.7c0,0-0.1,0.4-0.2,0.9c-0.1,0.8-0.1,0.8,0.2,0.6C1111.1,87.2,1111.2,86.9,1111.2,86.5z
			 M1110.7,80.8c0-1-0.2-1.9-1.5-5.8c-1.3-4.1-1.8-5-0.8-1.6c0.4,1.5,1.1,5,1.7,8.5l0.1,0.5l0.2-0.4
			C1110.6,81.9,1110.7,81.3,1110.7,80.8z M1091.7,73.2c0.2-0.6,0.7-1.7,1-2.3c0.6-1.1,0.6-1.1,0.5-2.6c-0.1-1-0.2-1.7-0.4-2.1
			c-0.2-0.3-0.4-1-0.5-1.5l-0.3-0.9l-0.1,3.1c0,1.7-0.2,3.4-0.2,3.7c-0.1,0.3-0.2,1.3-0.3,2.2s-0.2,1.7-0.3,1.8
			C1090.8,75.3,1091.3,74.2,1091.7,73.2z M1163.9,133.2c-0.1,0-0.2-0.2-0.2-0.3c0-0.2-0.1-0.2-0.8-0.1c-0.5,0.1-2,0.1-3.5,0.1
			c-3.1,0-3.3-0.1-3.1-1.1l0.1-0.5l-0.6,0.3c-0.5,0.2-0.7,0.3-2.3,0.1c-1.5-0.2-1.8-0.3-2-0.6c-0.2-0.2-0.5-0.5-0.8-0.6
			c-0.2-0.1-0.4-0.3-0.4-0.5c0-0.1-0.2-0.3-0.4-0.4c-0.4-0.2-0.4-0.2-0.3-0.7c0.4-2.3,0.5-3.4,0.5-16.6s0-13.9,0.4-17.4
			c0.2-2,0.5-4.3,0.6-5c0.3-1.8,0.3-1.8-0.2-2c-0.2-0.1-0.7-0.5-1.2-0.9l-0.8-0.7l0.1-1.2c0.1-0.9,0.3-1.6,0.8-3
			c0.6-1.4,0.9-2.4,1.2-4.2c0.2-1.3,0.5-2.7,0.5-3c0.1-0.4,0.3-1.9,0.5-3.4s0.5-3.3,0.7-3.9s0.5-1.8,0.8-2.5c0.5-1.7,0.5-3,0.1-4.4
			c-0.5-1.6-0.5-2.4,0.2-3.7c0.6-1.1,0.6-1.1,0.7-3.4c0.1-2.8,0.2-3.3,0.9-3.9c0.7-0.6,1.3-0.9,2.8-1.3c2.5-0.6,3.1-1.1,3.4-2.9
			c0.1-0.7,0.1-0.9-0.1-1.1c-0.2-0.2-0.5-0.7-0.8-1.2s-0.5-0.9-0.6-1c-0.2-0.1-0.4,1.1-0.3,1.6c0.1,0.2,0.1,0.2-0.1,0.1
			c-0.1-0.1-0.2-0.6-0.3-1.1c-0.1-1-0.3-1.5-0.5-1.5c-0.1,0-0.2,0.3-0.2,0.6c0,0.4-0.1,0.8-0.1,0.9c-0.1,0.2-0.1-0.3-0.1-1.4
			c0-1.2,0-1.9-0.2-2.1c-0.4-0.7,0.3-2.8,1.6-4.6c1.1-1.5,1.8-2.1,2.9-2.3c1.2-0.2,3.5-0.1,4.4,0.3c0.7,0.3,1.4,1.2,1.8,2.2
			c0.1,0.3,0.4,1,0.7,1.6c0.5,1,0.5,1,0.3,2.2c-0.1,0.6-0.2,1.6-0.2,2.1c0,0.7-0.1,1.1-0.3,1.6c-0.2,0.3-0.3,0.7-0.3,0.9
			c0,0.5-0.8,1.1-1.6,1.2c-0.6,0.1-0.6,0.1-0.5,0.6c0.2,0.7,1,2.1,1.7,2.4c0.3,0.2,1.1,0.5,1.8,0.7c1.6,0.4,2.4,0.8,2.7,1.4
			c0.4,0.7,1.1,3.3,1.4,4.8c0.2,1.3,0.4,6.4,0.4,11.6c0,2.6,0,2.7-0.6,4.5c-0.5,1.8-1.1,3.5-2.4,6.8c-0.5,1.4-0.6,1.7-0.6,2.9
			c0,0.7,0,2.2-0.1,3.3c-0.2,1.9-0.1,2.1,0.2,4c0.6,2.7,0.5,2.6,2.4,22.7c0.9,9.9,1.8,18.2,1.9,18.5c0.4,0.9-0.1,1.1-2.2,1.3
			c-1.6,0.1-1.6,0.1-1.6,0.4c0,0.2-0.1,0.4-0.4,0.4s-0.4,0.1-0.4,0.8s0,0.8-0.6,1.1c-0.5,0.2-0.9,0.3-2.2,0.3c-1.3,0-1.6,0-1.6,0.3
			c0,0.1-0.2,0.3-0.4,0.3C1165.9,133.3,1164.2,133.3,1163.9,133.2z M1150.9,84.8c0-0.4,0-0.4-0.2-0.2c-0.2,0.2-0.3,0.8-0.1,1
			C1150.7,85.6,1150.9,85.3,1150.9,84.8z M1152.3,83.7C1152.3,83.5,1152.3,83.4,1152.3,83.7c-0.2,0-0.2,0.3-0.2,0.6
			c0,0.4,0,0.4,0.1,0.1C1152.2,84.2,1152.3,83.9,1152.3,83.7z M1153.1,79.5c0.2-0.9,0.3-1.6,0.2-1.6c0,0-0.2,0.2-0.3,0.5
			c-0.3,0.6-0.5,3-0.3,2.8C1152.8,81.1,1153,80.4,1153.1,79.5z M1170.3,71.5c0.3-1,0.6-2.1,0.8-2.6c0.4-1.2,0.4-3,0-4.9
			c-0.2-0.8-0.4-2.2-0.5-3.1c-0.3-2.2-0.5-2.8-0.8-2.5s-1.4,3.9-1.7,5.4c-0.4,2.1-0.3,3.2,0.2,4.4c0.6,1.3,0.9,2.6,0.9,3.5
			s0.3,2,0.5,1.8C1169.7,73.3,1170,72.5,1170.3,71.5z"/>
	</g>
</g>
<g class="st2">
	<title>Layer 1</title>
	<g id="layer1_1_" class="st3">
		<path id="path2453_1_" class="st1" d="M433.8,153.7c-0.6-0.2-0.8-0.5-0.9-1c-0.1-0.3,0-0.5,0.3-0.8c0.5-0.5,0.9-1.9,0.8-3.2
			c0-0.5,0-1.3,0.1-1.7c0.1-0.5,0.1-0.9-0.1-1.4c-0.1-0.4-0.3-1-0.3-1.3c-0.1-0.8-1.1-3.2-1.2-3.2c-0.2,0-0.8,1.7-1,3
			c-0.1,0.7-0.3,1.5-0.4,1.8c-0.2,0.8-0.5,2.5-0.6,4.3c-0.1,0.8-0.2,1.6-0.3,1.7c-0.3,0.4-1.2,0.7-2.9,0.7c-1.4,0-1.5,0-1.9-0.4
			c-0.6-0.5-0.6-1,0.2-2.4c0.4-0.8,0.8-1.7,1-2.5c0.2-0.7,0.4-1.4,0.5-1.6s0.2-0.7,0.3-1.2c0.1-0.5,0.4-1.2,0.7-1.8
			c1-1.6,1.3-2.9,1.5-6.8c0.1-1.8,0.1-1.9-0.4-3.2c-0.7-1.9-1.1-3.7-1.4-6.5c-0.3-3.1-0.6-4.2-1.4-6.2c-0.4-0.9-0.7-1.8-0.7-2.1
			c-0.1-0.3-0.2-0.5-0.3-0.6c-0.4-0.1-1.7-5.5-2.1-8.1c-0.2-1.7-0.4-2.1-1.4-2.5c-0.5-0.2-0.8-0.5-1.7-2.1l-1.1-1.8l0-1.5
			c0-0.8-0.1-2.3-0.3-3.2c-0.3-2-0.3-4.6-0.1-5.9c0.1-0.5,0.4-1.4,0.6-1.9c0.3-0.5,0.8-2.5,1.3-4.4c1-4.1,1.3-4.9,2-6.5
			c0.4-0.8,0.7-1.3,1.1-1.7c0.3-0.3,0.7-0.7,0.9-1c0.2-0.3,0.6-0.8,1-1.2c1.2-1.3,1.2-1.4,1.5-4.4c0.3-4.2,0.8-5.7,1.9-7
			c0.7-0.8,1.6-1.2,3.2-1.6c2.3-0.5,4.2-0.1,5.7,1.3c1,0.9,1.2,1.4,2.1,4.4c0.4,1.4,1,3.2,1.3,4c0.8,1.9,1.2,3.4,1.3,4.8
			c0.1,1.4,0.1,1.3,2.2,2.2c1.3,0.5,2,1,2.3,1.6c0.4,0.6,0.8,3.1,0.8,4.6c0,0.8-0.1,3-0.1,5c-0.1,2.7,0,3.8,0.1,4.6
			c0.5,2.2,0.3,4.2-0.7,7c-0.2,0.7-0.5,1.7-0.6,2.3c-0.2,1.2-0.3,1.5-2,3.2c-0.4,0.5-1,1.2-1.2,1.6c-0.2,0.4-0.6,0.9-0.8,1.1
			c-0.3,0.3-0.5,0.9-1.1,3.2c-0.4,1.6-0.8,3-0.9,3.1c-0.1,0.2-0.4,0.4-0.8,0.5l-0.7,0.2l-0.6,1.5c-1,2.4-1.3,3.8-1.4,7.1
			c-0.1,2.4-0.2,3.2-0.6,4.6c-0.2,0.9-0.5,1.7-0.5,1.8s0,1.2,0.1,2.7c0.1,2.8,0.8,6.9,1.3,8.2c0.3,0.8,1.7,2.6,2.1,2.6
			c0.1,0,0.3,0.1,0.4,0.3c0.1,0.2,0,0.5-0.7,1.8c-1,1.7-1.2,2.5-0.9,3.7c0.1,0.5,0.2,0.9,0.1,1.2c-0.1,0.5-0.2,0.5-1,0.8
			C436.1,153.8,434.4,153.9,433.8,153.7z M444,102.8c0-0.5-0.1-2.1-0.2-3.4c-0.1-1.4-0.1-2.7,0-3.1c0.3-1.3,0.1-3-0.6-6
			c-0.2-0.6-0.4-1.7-0.6-2.4c-0.4-1.8-0.8-2-1.2-0.4c-0.2,0.9-0.7,1.5-1.6,2.1c-0.5,0.3-0.7,0.5-0.8,1c-0.2,1.3,0.1,2.5,1.9,6.3
			c1.3,2.7,2.2,5.1,2.4,6.6c0.1,0.6,0.1,0.6,0.4,0.4C443.9,103.8,444,103.5,444,102.8z M423.4,98.3c0.1-0.4,0.4-1.2,0.8-1.8
			c0.6-1,0.6-1.1,0.6-2.4c0-1.5-0.3-4.6-0.5-5c-0.1-0.2-0.2-0.2-0.5,0.5c-0.6,1.1-0.7,1.6-0.8,3.2c-0.1,0.7-0.3,2.4-0.4,3.6
			c-0.4,2.6-0.3,3.7,0.2,4.7l0.4,0.7l0.1-1.4C423.2,99.7,423.3,98.7,423.4,98.3z M461.6,153.3c-0.4-0.6-0.6-1.7-0.5-3.2
			c0.1-1.3,0.1-1.4-0.2-1.3c-0.2,0-0.7,0.1-1.3,0.2c-0.9,0.1-1.1,0-1.4-0.2c-0.9-0.7-0.7-1.3,0.9-3.1c1.2-1.4,1.5-1.9,2.1-3.6
			c0.9-2.5,0.7-3.9-1.1-9.9c-0.6-2-0.9-3.5-1.1-4.8c-0.1-1.1-0.3-2.4-0.4-2.9c-0.2-1.3-3.6-8.5-4.2-9c-0.4-0.3-0.5-0.7-1-2.4
			c-0.3-1.3-0.6-2-0.7-2c-0.1,0-0.2,0.1-0.1,0.2c0,0.1,0.4,1.6,0.9,3.4c0.5,1.8,1,3.9,1.2,4.6s0.5,1.6,0.5,1.9
			c0.2,0.8,0.3,1,1.2,1.9c0.9,1,1.7,2.3,1.9,3.2c0.2,0.8,0.2,3.2,0,3.8c-0.3,0.8-0.8,1.1-1.8,1.1c-0.8,0-0.9,0-3.1-1.5
			c-1.7-1.1-2.4-1.4-2.6-1.4c-0.3,0.1-0.3,0-0.3-0.2c0-0.4-2-1.8-2.3-1.7c-0.3,0.2-0.7-0.2-0.5-0.5c0.1-0.2,0.1-0.6,0.1-1.1
			c-0.1-1,0.3-2.2,1.3-4l0.7-1.2l-0.3-3.7c-0.2-2.5-0.3-3.8-0.5-3.9c-0.1-0.1-0.3-0.5-0.3-0.9c-0.1-0.4-0.2-0.8-0.3-0.9
			c-0.1-0.1-0.2-0.9-0.3-1.7c-0.1-1.1-0.2-1.5-0.5-1.7c-0.3-0.2-0.3-0.4-0.3-1.5c0.1-1.2,0.3-2,0.5-2c0.1,0,0.2-0.4,0.3-0.9
			c0.1-0.5,0.2-1,0.2-1.1c0.1-0.1,0.2-0.9,0.4-1.9c0.1-0.9,0.4-2.2,0.7-2.8c0.2-0.6,0.5-1.6,0.6-2.3c0.1-0.7,0.4-1.6,0.6-2
			c0.2-0.4,0.3-0.9,0.2-0.9c-0.1-0.1,0-0.2,0.1-0.3c0.3-0.3,0.8-2.7,1-4.9c0.3-3.5,1.1-6.4,2.2-7.3c0.3-0.3,1.3-0.8,2.3-1.2
			c2.1-0.9,3.2-1.5,3.5-2c0.1-0.2,0.2-0.7,0.2-1.2c0-0.6-0.1-0.9-0.3-1c-0.2-0.1-0.3-0.2-0.3-0.1c0,0.1-0.1,0-0.3-0.2
			c-0.3-0.3-0.3-0.3-0.5-0.2c-0.1,0.1-0.2,0.1-0.3-0.1c-0.1-0.2-0.5-0.7-1-1.2c-1.2-1.3-1.5-1.8-1.5-3.8c0-1.5,0-1.6,0.5-2.5
			c0.7-1.2,2-2.3,3.4-2.9c1-0.4,1.3-0.5,2.4-0.5c1.2,0,1.4,0,2.5,0.5c1.6,0.6,3,1.9,3.5,3c0.5,1.1,0.6,2.7,0.2,4.3
			c-0.4,1.8-0.8,2.6-1.7,3.2l-0.7,0.6l0.4,0.3c0.2,0.2,1.2,0.5,2.2,0.8c2,0.6,5.1,1.8,6.5,2.6c1.3,0.7,2.3,1.7,3.1,3
			c0.4,0.6,1.6,2.2,2.8,3.6c1.9,2.3,3.7,5,3.7,5.5c0,0.1-0.3,0.6-0.7,1c-0.4,0.5-1,1.3-1.3,1.8c-0.3,0.5-1.2,1.4-1.9,2
			c-0.7,0.6-1.4,1.3-1.6,1.6c-0.4,0.7-0.7,0.9-1.5,1.1c-0.4,0.1-0.6,0.2-0.6,0.3c0.1,0.3-0.3,0.8-0.6,0.8c-0.2,0-0.3,0.1-0.3,0.4
			c0,0.3-0.1,0.4-0.7,0.8c-0.4,0.2-1.4,0.6-2.1,0.9c-0.7,0.2-1.4,0.5-1.6,0.5c-0.2,0.1-0.3,0.6-0.4,1.7c-0.4,3.5-1.5,7.3-3.1,10.8
			c-0.4,0.8-0.7,1.6-0.7,1.9c-0.1,0.2-0.3,0.7-0.6,0.9c-0.4,0.4-0.6,1-1.1,2.8c-0.4,1.3-0.7,2.8-0.8,3.4c-0.2,1.1-0.2,1.1,0.5,2.6
			c0.6,1.5,0.6,1.5,0.6,3.4c0,1.2-0.1,2.3-0.3,3c-0.3,1.3-0.6,3.5-0.6,4.8c0,0.8,0,0.9,0.6,1.2c0.3,0.2,0.8,0.5,1,0.8
			c0.4,0.5,0.4,0.6,0.3,1.4c-0.1,0.5-0.1,1.9-0.2,3.1c-0.1,2.1-0.1,2.2-0.4,2.3c-0.3,0.1-0.3,0.1-0.2,2.5c0.1,2.3,0.1,2.5-0.2,3.2
			c-0.4,0.9-1.5,1.9-2.7,2.4C462.4,153.7,462,153.7,461.6,153.3z M453.2,116.9c-0.4-1.6-0.7-2.9-0.8-2.9c-0.1-0.1-0.1,0.4,0.1,3
			c0.1,2.1,0.2,2.2,0.6,2.5c0.2,0.2,0.5,0.3,0.6,0.3C453.8,119.8,453.7,118.8,453.2,116.9z M451.7,118c0-0.7-1.3-5.5-1.5-5.5
			c-0.2,0-0.2,0,0,2.7c0.1,2.1,0.2,2.5,0.4,2.8c0.2,0.2,0.3,0.4,0.3,0.5c0,0.1,0.2,0.2,0.4,0.1C451.7,118.6,451.7,118.6,451.7,118z
			 M451.3,112.2c-0.2-0.2-0.3,0.1-0.2,0.5l0.1,0.5l0.1-0.5C451.4,112.5,451.3,112.2,451.3,112.2z M452.1,106.9
			c-0.1-0.4-0.2-1.6-0.2-2.6l-0.1-1.8l-0.3,0.7c-0.4,1.1-0.3,2.9,0.2,3.8c0.2,0.4,0.4,0.7,0.4,0.7
			C452.2,107.7,452.2,107.3,452.1,106.9z M472.4,97.2c0.7-0.3,1.4-0.8,1.4-1c0-0.1,0.2-0.2,0.4-0.3c0.2-0.1,0.5-0.3,0.5-0.4
			c0.1-0.1,0.3-0.3,0.5-0.3c0.2-0.1,0.5-0.3,0.6-0.6c0.1-0.2,0.5-0.6,0.8-0.9c0.7-0.5,0.8-0.7,1.1-1.2c0.1-0.2,0.5-0.9,0.9-1.4
			c0.8-1.3,1-1.8,0.6-2.1c-0.2-0.1-0.3-0.3-0.4-0.3c-0.1-0.2-4.7-4.5-4.8-4.5c-0.2,0-2.1,3.5-2.7,4.8c-0.6,1.3-1.5,4.3-1.7,5.5
			c-0.2,1-0.2,1,1.2,2.9C471.1,97.7,471.4,97.7,472.4,97.2z"/>
	</g>
</g>
</svg>
