<?xml version="1.0" standalone="no"?>
<!DOCTYPE svg PUBLIC "-//W3C//DTD SVG 1.1//EN" "http://www.w3.org/Graphics/SVG/1.1/DTD/svg11.dtd" >
<svg>
<metadata>
Created by FontForge 20090914 at Sat Feb 15 11:54:18 2014
 By www-data
Copyright (c) 2003 by Bitstream, Inc. All Rights Reserved.
Copyright (c) 2006 by Tavmjong Bah. All Rights Reserved.
DejaVu changes are in public domain

</metadata>
<defs>
<font id="DejaVuSansCondensed-BoldOblique" horiz-adv-x="1544" >
  <font-face 
    font-family="DejaVu Sans Condensed"
    font-weight="700"
    font-style="oblique"
    font-stretch="semi-condensed"
    units-per-em="2048"
    panose-1="2 11 8 6 3 3 4 11 2 4"
    ascent="1556"
    descent="-492"
    x-height="1120"
    cap-height="1493"
    bbox="-1966 -789 3694.81 2295"
    underline-thickness="90"
    underline-position="-85"
    slope="-11"
    unicode-range="U+0020-U+1D7E1"
  />
<missing-glyph horiz-adv-x="1106" 
d="M92 -362v1806h921v-1806h-921zM195 -248h716v1577h-716v-1577z" />
    <glyph glyph-name="uniFB00" unicode="ff" horiz-adv-x="1534" 
d="M996 1556l-41 -235h-178c-46 0 -79.333 -9 -100 -27c-22 -18.667 -36.667 -50.667 -44 -96l-14 -78h369l14 78c21.333 122 67.666 212 138.999 270c71.333 58.667 171.333 88 300 88h247l-42 -235h-178c-45.333 0 -78.666 -9 -99.999 -27
c-21.333 -18.667 -36 -50.667 -44 -96l-14 -78h276l-45 -256h-276l-151 -864h-322l151 864h-369l-151 -864h-322l151 864h-160l45 256h160l13 78c22 122 68.667 212 140 270c71.333 58.667 171.333 88 300 88h246z" />
    <glyph glyph-name="fi" unicode="fi" horiz-adv-x="1450" 
d="M1147 1556h324l-52 -292h-324zM995 1556l-41.999 -235h-177c-45.333 0 -78.333 -9.16699 -99 -27.5s-35 -49.833 -43 -94.5l-15 -79h776l-197 -1120h-322l150 864h-451l-151 -864h-324l151 864h-159l45 256h158l15 78c22 124 68.167 214.667 138.5 272
s170.166 86 299.499 86h247z" />
    <glyph glyph-name="fl" unicode="fl" horiz-adv-x="1450" 
d="M748 1556h723.001l-273 -1556h-322l228 1321h-328c-45.333 0 -78.333 -9.16699 -99 -27.5s-35 -49.833 -43 -94.5l-15 -79h273l-44 -256h-273l-151 -864h-324l151 864h-159l45 256h158l15 78c22 124 68.167 214.667 138.5 272s170.166 86 299.499 86z" />
    <glyph glyph-name="uniFB03" unicode="ffi" horiz-adv-x="2097" 
d="M996 1556l-41 -235h-178c-46 0 -79.333 -9 -100 -27c-22 -18.667 -36.667 -50.667 -44 -96l-14 -78h369l14 78c21.333 122 67.666 212 138.999 270c71.333 58.667 171.333 88 300 88h247l-42 -235h-178c-45.333 0 -78 -9 -98 -27
c-21.333 -18.667 -35.666 -50.667 -42.999 -96l-14 -78h689l-196 -1120h-325l152 864h-365l-151 -864h-325l151 864h-369l-151 -864h-322l151 864h-160l45 256h160l13 78c22 122 68.667 212 140 270c71.333 58.667 171.333 88 300 88h246zM1754 1556h325l-51 -292h-325z" />
    <glyph glyph-name="uniFB04" unicode="ffl" horiz-adv-x="2098" 
d="M996 1556l-41 -235h-178c-46 0 -79.333 -9 -100 -27c-22 -18.667 -36.667 -50.667 -44 -96l-14 -78h369l14 78c21.333 122 67.666 212 138.999 270c71.333 58.667 171.333 88 300 88h640l-273 -1556h-325l231 1321h-246c-45.333 0 -78.666 -9 -99.999 -27
c-21.333 -18.667 -36 -50.667 -44 -96l-14 -78h253l-45 -256h-253l-151 -864h-322l151 864h-369l-151 -864h-322l151 864h-160l45 256h160l13 78c22 122 68.667 212 140 270c71.333 58.667 171.333 88 300 88h246z" />
    <glyph glyph-name=".notdef" horiz-adv-x="1106" 
d="M92 -362v1806h921v-1806h-921zM195 -248h716v1577h-716v-1577z" />
    <glyph glyph-name="space" unicode=" " horiz-adv-x="641" 
 />
    <glyph glyph-name="exclam" unicode="!" horiz-adv-x="840" 
d="M389 1493h325l-102 -573l-118 -418h-232l25 418zM190 356h324l-62 -356h-325z" />
    <glyph glyph-name="quotedbl" unicode="&#x22;" horiz-adv-x="960" 
d="M785 1493v-555h-213v555h213zM389 1493v-555h-213v555h213z" />
    <glyph glyph-name="numbersign" unicode="#" horiz-adv-x="1282" 
d="M922 872h-238l-63 -274h238zM820 1470l-86 -385h237l87 385h199l-87 -385h267l-47 -213h-268l-62 -274h268l-49 -215h-266l-86 -383h-199l86 383h-237l-87 -383h-200l86 383h-256l47 215h253l63 274h-254l47 213h257l86 385h201z" />
    <glyph glyph-name="dollar" unicode="$" horiz-adv-x="1282" 
d="M536 -301l-145.002 -0.00195312l53 301c-76.667 3.33301 -147.667 12.166 -213 26.499s-125.666 34.166 -180.999 59.499l44 262c57.333 -36.667 118.5 -65.167 183.5 -85.5s133.5 -31.833 205.5 -34.5l55 311c-126 20.667 -217.667 57.834 -275 111.501
s-86 128.167 -86 223.5c0 132.667 44.833 239.834 134.5 321.501s211.167 125.5 364.5 131.5l40 229h144l-38 -227c60.667 -4 119.167 -11.667 175.5 -23s110.833 -26 163.5 -44l-44 -254c-38 24.667 -85.667 44.834 -143 60.501s-121.666 25.834 -192.999 30.501l-51 -288
c128 -24 222.667 -63 284 -117s92 -125.667 92 -215c0 -146.667 -45.167 -261.667 -135.5 -345s-217.5 -128 -381.5 -134zM589.998 835.998l45.001 262c-50 -5.33301 -90 -21.5 -120 -48.5s-45 -60.833 -45 -101.5c0 -32 9.66699 -57.167 29 -75.5
s49.666 -30.5 90.999 -36.5zM678.999 511.998l-49.999 -285c59.333 3.33301 105 19.333 137 48s48 68 48 118c0 34 -10.833 60.5 -32.5 79.5s-55.834 32.167 -102.501 39.5z" />
    <glyph glyph-name="percent" unicode="%" horiz-adv-x="1846" 
d="M1408 616c-51.333 0 -93.666 -28 -126.999 -84s-50 -128.333 -50 -217c0 -58 9.16699 -101.5 27.5 -130.5s46.166 -43.5 83.499 -43.5c52 0 94.5 28 127.5 84s49.5 129 49.5 219c0 56.667 -9.5 99.5 -28.5 128.5s-46.5 43.5 -82.5 43.5zM1434 784
c94 0 169.333 -28.5 226 -85.5s85 -132.167 85 -225.5c0 -149.333 -39.667 -270.333 -119 -363s-183.333 -139 -312 -139c-94 0 -169.333 28.833 -226 86.5s-85 133.5 -85 227.5c0 148 39.667 268.167 119 360.5s183.333 138.5 312 138.5zM479 -29h-221l1112 1549h220z
M535 1520c93.333 0 168.5 -28.667 225.5 -86s85.5 -132.666 85.5 -225.999c0 -148.667 -40 -269.334 -120 -362.001s-184.333 -139 -313 -139c-94 0 -169.333 28.333 -226 85s-85 132 -85 226c0 148 40 268.667 120 362s184.333 140 313 140zM507 1352
c-52 0 -94.5 -28.167 -127.5 -84.5s-49.5 -128.5 -49.5 -216.5c0 -58.667 9.16699 -102.834 27.5 -132.501s45.833 -44.5 82.5 -44.5c52 0 94.5 28.333 127.5 85s49.5 130.334 49.5 221.001c0 56 -9.33301 98.667 -28 128s-46 44 -82 44z" />
    <glyph glyph-name="ampersand" unicode="&#x26;" horiz-adv-x="1607" 
d="M789 915l268.001 -374.002c36.667 42 68.5 92.333 95.5 151s49.167 126.334 66.5 203.001h279c-25.333 -116.667 -61.833 -222.667 -109.5 -318s-107.5 -180.333 -179.5 -255l230 -322h-394l-76 106c-70.667 -45.333 -141.334 -79.166 -212.001 -101.499
s-143 -33.5 -217 -33.5c-146.667 0 -264.834 41 -354.501 123s-134.5 189.333 -134.5 322c0 100.667 28.667 193.167 86 277.5s146.333 164.5 267 240.5c-15.333 29.333 -27 59 -35 89s-12 61 -12 93c0 117.333 45.333 214 136 290s207.667 114 351 114
c54.667 0 110.667 -4.83301 168 -14.5s116.333 -24.167 177 -43.5l-48 -278c-52 32 -101.667 55.667 -149 71s-94.666 23 -141.999 23c-52 0 -93 -12 -123 -36s-45 -56.333 -45 -97c0 -25.333 9 -57.5 27 -96.5s44.667 -83.5 80 -133.5zM518.001 742.998
c-48 -34 -84.5 -73.167 -109.5 -117.5s-37.5 -91.833 -37.5 -142.5c0 -71.333 22.833 -131.5 68.5 -180.5s102.5 -73.5 170.5 -73.5c36 0 71.667 7 107 21s71 35 107 63z" />
    <glyph glyph-name="quotesingle" unicode="'" horiz-adv-x="564" 
d="M389 1493v-555h-213v555h213z" />
    <glyph glyph-name="parenleft" unicode="(" horiz-adv-x="842" 
d="M544 -270h-261.999c-46.667 110.667 -81.667 219.167 -105 325.5s-35 212.166 -35 317.499c0 196.667 38.167 393.167 114.5 589.5s191.166 393.5 344.499 591.5h261c-140 -206.667 -244.333 -411.167 -313 -613.5s-103 -405.166 -103 -608.499
c0 -100 8.16699 -199.833 24.5 -299.5s40.833 -200.5 73.5 -302.5z" />
    <glyph glyph-name="parenright" unicode=")" horiz-adv-x="842" 
d="M269 1554l264.001 -0.00195312c46 -109.333 80.333 -217.166 103 -323.499s34 -212.833 34 -319.5c0 -198.667 -37.833 -396.167 -113.5 -592.5s-189.834 -392.5 -342.501 -588.5h-264c140 206.667 244.5 411.334 313.5 614.001s103.5 406 103.5 610
c0 100 -8 199.5 -24 298.5s-40.667 199.5 -74 301.5z" />
    <glyph glyph-name="asterisk" unicode="*" horiz-adv-x="963" 
d="M927 1217l-297 -173l297 -174l-68 -141l-300 184v-344h-153v344l-301 -184l-68 141l301 174l-301 173l68 141l301 -182v344h153v-344l300 182z" />
    <glyph glyph-name="plus" unicode="+" 
d="M879 1284v-524h470v-236h-470v-524h-214v524h-470v236h470v524h214z" />
    <glyph glyph-name="comma" unicode="," horiz-adv-x="700" 
d="M148 387h324l-54 -305l-289 -373h-192l157 373z" />
    <glyph glyph-name="hyphen" unicode="-" horiz-adv-x="765" 
d="M98 735h565l-51 -291h-566z" />
    <glyph glyph-name="period" unicode="." horiz-adv-x="700" 
d="M153 387h324l-67 -387h-325z" />
    <glyph glyph-name="slash" unicode="/" horiz-adv-x="673" 
d="M591 1493h209l-768 -1683h-209z" />
    <glyph glyph-name="zero" unicode="0" horiz-adv-x="1282" 
d="M551 233c46 0 86.834 15.3311 122.501 45.998s65.5 75.667 89.5 135c16.667 42 32 89.833 46 143.5s27 117.167 39 190.5c10 59.333 17.667 114 23 164s8 92.667 8 128c0 74.667 -12 129.5 -36 164.5s-61 52.5 -111 52.5c-46.667 0 -87.834 -14.833 -123.501 -44.5
s-65.167 -74.834 -88.5 -135.501c-18 -43.333 -34.333 -92.666 -49 -147.999s-27.334 -115.666 -38.001 -180.999c-10 -60 -17.833 -115.667 -23.5 -167s-8.5 -94.666 -8.5 -129.999c0 -74 12.333 -128.833 37 -164.5s62.334 -53.5 113.001 -53.5zM1217 982.998
c0 -132.667 -16.501 -261.668 -49.501 -387.001s-79.167 -235.333 -138.5 -330c-60.667 -97.333 -134 -170.833 -220 -220.5s-181.667 -74.5 -287 -74.5c-146.667 0 -259.167 46.333 -337.5 139s-117.5 226 -117.5 400c0 130.667 16.333 258.834 49 384.501
s78.334 235.167 137.001 328.5c62 98 135.5 172 220.5 222s180.833 75 287.5 75c146 0 258.5 -46.5 337.5 -139.5s118.5 -225.5 118.5 -397.5z" />
    <glyph glyph-name="one" unicode="1" horiz-adv-x="1282" 
d="M127 266h306l168 965l-327 -72l46 262l325 72h330l-214 -1227h305l-46 -266h-941z" />
    <glyph glyph-name="two" unicode="2" horiz-adv-x="1282" 
d="M455 283l584.998 0.000976562l-50 -283h-976l51 285l571 479c62.667 53.333 110.334 107.333 143.001 162s49 107.667 49 159c0 54.667 -16.833 97 -50.5 127s-80.834 45 -141.501 45c-56.667 0 -120.167 -12.5 -190.5 -37.5s-149.5 -63.5 -237.5 -115.5l58 317
c81.333 33.333 161.333 58.166 240 74.499s156.334 24.5 233.001 24.5c136.667 0 244.334 -32.833 323.001 -98.5s118 -155.167 118 -268.5c0 -97.333 -24 -186 -72 -266s-153.667 -188 -317 -324z" />
    <glyph glyph-name="three" unicode="3" horiz-adv-x="1282" 
d="M870 805c68 -17.333 120.833 -52.333 158.5 -105s56.5 -117.334 56.5 -194.001c0 -165.333 -58.833 -295.833 -176.5 -391.5s-279.834 -143.5 -486.501 -143.5c-78 0 -152.167 6.16699 -222.5 18.5s-136.833 30.833 -199.5 55.5l51 297
c53.333 -34.667 111.5 -61.5 174.5 -80.5s126.167 -28.5 189.5 -28.5c101.333 0 181.5 21.167 240.5 63.5s88.5 99.166 88.5 170.499c0 59.333 -22.5 103.833 -67.5 133.5s-112.833 44.5 -203.5 44.5h-137l44 248h146c94 0 168.5 19 223.5 57s82.5 89.333 82.5 154
c0 50.667 -19.167 89.334 -57.5 116.001s-93.833 40 -166.5 40c-50.667 0 -106 -7.33301 -166 -22s-122.333 -36 -187 -64l49 282c70.667 21.333 140.334 37.333 209.001 48s136.667 16 204 16c152 0 266.167 -28 342.5 -84s114.5 -139.333 114.5 -250
c0 -99.333 -26.5 -182.166 -79.5 -248.499s-127.833 -110.5 -224.5 -132.5z" />
    <glyph glyph-name="four" unicode="4" horiz-adv-x="1282" 
d="M760 1165l-478 -614h369zM751 1493h394l-167 -942h192l-48 -279h-191l-48 -272h-329l49 272h-605l59 330z" />
    <glyph glyph-name="five" unicode="5" horiz-adv-x="1282" 
d="M326 1493l860.999 0.000976562l-49 -283h-585l-41 -231c26.667 8 54.167 14.167 82.5 18.5s56.833 6.5 85.5 6.5c137.333 0 244.833 -34.833 322.5 -104.5s116.5 -166.167 116.5 -289.5c0 -196 -59.833 -351.5 -179.5 -466.5s-281.5 -172.5 -485.5 -172.5
c-75.333 0 -148.333 8.16699 -219 24.5s-141 41.166 -211 74.499l53 303c66.667 -48 131.334 -83.333 194.001 -106s126.667 -34 192 -34c94.667 0 170.5 27.5 227.5 82.5s85.5 127.167 85.5 216.5c0 64 -21.667 114.833 -65 152.5s-102 56.5 -176 56.5
c-50.667 0 -105.167 -7.16699 -163.5 -21.5s-122.5 -36.5 -192.5 -66.5z" />
    <glyph glyph-name="six" unicode="6" horiz-adv-x="1282" 
d="M667 737c-68.667 0 -124.834 -31.332 -168.501 -93.999s-65.5 -143.334 -65.5 -242.001c0 -59.333 13.5 -105.5 40.5 -138.5s64.5 -49.5 112.5 -49.5c68 0 124 30.833 168 92.5s66 139.5 66 233.5c0 64 -13.167 113 -39.5 147s-64.166 51 -113.499 51zM1217 1454
l-49 -275.998c-51.333 29.333 -101.333 51.333 -150 66s-97.334 22 -146.001 22c-111.333 0 -201.5 -33.333 -270.5 -100s-111.167 -160.334 -126.5 -281.001c46.667 34 94.834 59.167 144.501 75.5s102.5 24.5 158.5 24.5c110 0 200.167 -36.333 270.5 -109
s105.5 -165.334 105.5 -278.001c0 -184 -54.167 -334.833 -162.5 -452.5s-247.833 -176.5 -418.5 -176.5c-152.667 0 -271 48.167 -355 144.5s-126 232.5 -126 408.5c0 136 18.5 265.833 55.5 389.5s89.167 230.167 156.5 319.5c72 95.333 157 167 255 215
s208.333 72 331 72c56.667 0 111.667 -5.33301 165 -16s107.333 -26.667 162 -48z" />
    <glyph glyph-name="seven" unicode="7" horiz-adv-x="1282" 
d="M266 1493h1013l-41 -219l-748 -1274h-346l711 1210h-637z" />
    <glyph glyph-name="eight" unicode="8" horiz-adv-x="1282" 
d="M619 668c-70 0 -128.499 -26.501 -175.499 -79.501s-70.5 -118.167 -70.5 -195.5c0 -55.333 15.167 -99.166 45.5 -131.499s72.166 -48.5 125.499 -48.5c71.333 0 130.333 26.167 177 78.5s70 117.5 70 195.5c0 55.333 -15.5 99.333 -46.5 132s-72.833 49 -125.5 49z
M398.001 794.999c-64.667 30 -113.167 69.002 -145.5 117.002s-48.5 105.667 -48.5 173c0 135.333 50 241.666 150 318.999s238.333 116 415 116c141.333 0 251 -29.333 329 -88s117 -141.334 117 -248.001c0 -94.667 -27.167 -175.667 -81.5 -243
s-131.833 -116 -232.5 -146c73.333 -31.333 127.333 -73.333 162 -126s52 -119.334 52 -200.001c0 -153.333 -53.833 -274.666 -161.5 -363.999s-255.5 -134 -443.5 -134c-148 0 -263.333 32.833 -346 98.5s-124 157.167 -124 274.5c0 106 31.667 198.833 95 278.5
s151 137.167 263 172.5zM737.001 1278c-61.333 0 -110.333 -19.833 -147 -59.5s-55 -92.167 -55 -157.5c0 -45.333 13.333 -82 40 -110s61.667 -42 105 -42c61.333 0 110.5 19.833 147.5 59.5s55.5 92.167 55.5 157.5c0 46 -13.333 82.833 -40 110.5s-62 41.5 -106 41.5z
" />
    <glyph glyph-name="nine" unicode="9" horiz-adv-x="1282" 
d="M76 33l46.999 275.998c52.667 -30 103.167 -52.167 151.5 -66.5s96.833 -21.5 145.5 -21.5c112 0 202.5 33.333 271.5 100s110.5 160.334 124.5 281.001c-46 -34 -93.667 -59.167 -143 -75.5s-101.666 -24.5 -156.999 -24.5c-110 0 -200.167 36.333 -270.5 109
s-105.5 165.334 -105.5 278.001c0 184 54.167 334.833 162.5 452.5s247.833 176.5 418.5 176.5c152.667 0 271 -48.167 355 -144.5s126 -232.5 126 -408.5c0 -135.333 -18.667 -264.833 -56 -388.5s-90 -230.5 -158 -320.5c-72 -95.333 -156.667 -167 -254 -215
s-207.333 -72 -330 -72c-56.667 0 -112 5.33301 -166 16s-108 26.667 -162 48zM624.999 749.998c68 0 124.001 31.332 168.001 93.999s66 143 66 241c0 60.667 -13.167 107.334 -39.5 140.001s-63.833 49 -112.5 49c-67.333 0 -123.333 -31 -168 -93s-67 -139.667 -67 -233
c0 -64 13.167 -113 39.5 -147s64.166 -51 113.499 -51z" />
    <glyph glyph-name="colon" unicode=":" horiz-adv-x="737" 
d="M271 1120h325l-67 -387h-325zM144 387h324l-68 -387h-324z" />
    <glyph glyph-name="semicolon" unicode=";" horiz-adv-x="737" 
d="M144 387h324l-53 -305l-288 -373h-192l155 373zM271 1120h325l-67 -387h-325z" />
    <glyph glyph-name="less" unicode="&#x3c;" 
d="M1349 973l-867 -332l867 -330v-250l-1154 463v236l1154 463v-250z" />
    <glyph glyph-name="equal" unicode="=" 
d="M195 987h1154v-235h-1154v235zM195 532h1154v-237h-1154v237z" />
    <glyph glyph-name="greater" unicode="&#x3e;" 
d="M195 973v250l1154 -463v-236l-1154 -463v250l869 330z" />
    <glyph glyph-name="question" unicode="?" horiz-adv-x="1069" 
d="M255 356h324l-63 -356h-324zM605 504l-325.002 0.000976562l7 49c10 53.333 28 100.833 54 142.5s78.333 96.5 157 164.5l66 58c47.333 40.667 81.833 78.667 103.5 114s32.5 71 32.5 107c0 38 -12.167 67.167 -36.5 87.5s-59.166 30.5 -104.499 30.5
c-48 0 -102.167 -11.167 -162.5 -33.5s-125.166 -55.5 -194.499 -99.5l56 314c76.667 28 146.5 48.667 209.5 62s123.5 20 181.5 20c116.667 0 208 -28.5 274 -85.5s99 -135.167 99 -234.5c0 -79.333 -16 -150.333 -48 -213s-86.333 -128 -163 -196l-69 -60
c-48 -41.333 -80.5 -74.833 -97.5 -100.5s-27.833 -52.834 -32.5 -81.501z" />
    <glyph glyph-name="at" unicode="@" horiz-adv-x="1843" 
d="M931 801c-64 0 -118.832 -34.999 -164.499 -104.999s-68.5 -153.333 -68.5 -250c0 -56 12.167 -98.667 36.5 -128s59.833 -44 106.5 -44c63.333 0 117.166 33.5 161.499 100.5s66.5 149.167 66.5 246.5c0 57.333 -12 101.666 -36 132.999s-58 47 -102 47zM1032 246.001
c-26.667 -50 -62.502 -88.8271 -107.502 -116.494s-94.5 -41.5 -148.5 -41.5c-86 0 -153.5 31.5 -202.5 94.5s-73.5 150.167 -73.5 261.5c0 147.333 42.5 274.666 127.5 381.999s186.5 161 304.5 161c50 0 93.833 -14 131.5 -42s62.5 -65 74.5 -111l21 133h183l-120 -693
c90.667 14.667 166.5 69.167 227.5 163.5s91.5 205.166 91.5 332.499c0 142 -49.333 258 -148 348s-227 135 -385 135c-117.333 0 -226.666 -25.333 -327.999 -76s-187.333 -123.667 -258 -219c-55.333 -73.333 -97.333 -154 -126 -242s-43 -179.333 -43 -274
c0 -179.333 49.667 -325.833 149 -439.5s227 -170.5 383 -170.5c70.667 0 140.667 14.5 210 43.5s135 71.167 197 126.5l99 -158c-88 -65.333 -174.833 -114.333 -260.5 -147s-171.167 -49 -256.5 -49c-81.333 0 -159.333 13.667 -234 41s-141.667 66.666 -201 117.999
c-84 72 -147.667 161 -191 267s-65 226 -65 360c0 117.333 18 230.666 54 339.999s88 209.666 156 300.999c88 117.333 193.667 207.5 317 270.5s256 94.5 398 94.5c99.333 0 191.333 -15.5 276 -46.5s160.334 -77.167 227.001 -138.5
c63.333 -59.333 112 -128.833 146 -208.5s51 -162.834 51 -249.501c0 -210 -61.333 -380.667 -184 -512s-283.667 -197 -483 -197c-2.66699 0 -6.66699 -0.333008 -12 -1s-9.33301 -1 -12 -1c-3.33301 0 -6 0.166992 -8 0.5s-3.66699 0.833008 -5 1.5z" />
    <glyph glyph-name="A" unicode="A" horiz-adv-x="1426" 
d="M905 272h-536l-133 -272h-356l760 1493h396l238 -1493h-330zM500 543h360l-81 575z" />
    <glyph glyph-name="B" unicode="B" horiz-adv-x="1404" 
d="M737 915c62 0 110.332 17.332 144.999 51.999s52 82.334 52 143.001c0 39.333 -12.167 69.333 -36.5 90s-59.166 31 -104.499 31h-194l-55 -316h193zM633.999 261.999c79.333 0 140.333 21 183 63s64 102.333 64 181c0 50 -14.667 87 -44 111s-74.333 36 -135 36h-204
l-69 -391h205zM1045 798.999c58.667 -18.667 104.001 -52.833 136.001 -102.5s48 -111.167 48 -184.5c0 -160.667 -53.833 -286.167 -161.5 -376.5s-258.834 -135.5 -453.501 -135.5h-575l262 1493h519c159.333 0 277.333 -26 354 -78s115 -132.333 115 -241
c0 -91.333 -22.5 -171.5 -67.5 -240.5s-103.833 -113.833 -176.5 -134.5z" />
    <glyph glyph-name="C" unicode="C" horiz-adv-x="1352" 
d="M1117 70c-82.667 -32.667 -162.166 -57.335 -238.499 -74.002s-148.5 -25 -216.5 -25c-180.667 0 -325 55 -433 165s-162 255.667 -162 437c0 119.333 17 231.833 51 337.5s84.333 202.167 151 289.5c78.667 102.667 173.334 181.667 284.001 237s230 83 358 83
c69.333 0 139.166 -9.16699 209.499 -27.5s141.833 -46.166 214.5 -83.499l-56 -309c-58 48.667 -116 84.334 -174 107.001s-120.333 34 -187 34c-138.667 0 -254.834 -59.333 -348.501 -178s-140.5 -267 -140.5 -445c0 -114.667 28.833 -204.667 86.5 -270
s137.167 -98 238.5 -98c60.667 0 125 12.167 193 36.5s144.333 62.5 229 114.5z" />
    <glyph glyph-name="D" unicode="D" horiz-adv-x="1530" 
d="M598 1202l-162.001 -911h125c161.333 0 289 50.333 383 151s141 236.667 141 408c0 116 -30.667 203.667 -92 263s-152.666 89 -273.999 89h-121zM300.999 1493l364 0.000976562c174 0 304.5 -11.5 391.5 -34.5s159.5 -61.5 217.5 -115.5s101.667 -119.5 131 -196.5
s44 -164.167 44 -261.5c0 -135.333 -25 -262.833 -75 -382.5s-120.333 -220.167 -211 -301.5c-79.333 -72.667 -171.333 -124.334 -276 -155.001s-265.667 -46 -483 -46h-365z" />
    <glyph glyph-name="E" unicode="E" horiz-adv-x="1259" 
d="M301 1493h934l-51 -291h-588l-49 -278h554l-53 -291h-552l-60 -342h607l-49 -291h-955z" />
    <glyph glyph-name="F" unicode="F" horiz-adv-x="1259" 
d="M301 1493h934l-51 -291h-588l-49 -278h554l-53 -291h-552l-111 -633h-346z" />
    <glyph glyph-name="G" unicode="G" horiz-adv-x="1512" 
d="M1256 111c-88 -47.333 -179.002 -82.5 -273.002 -105.5s-195 -34.5 -303 -34.5c-190.667 0 -340.5 53.833 -449.5 161.5s-163.5 254.5 -163.5 440.5c0 120.667 17 233.834 51 339.501s85 202.167 153 289.5c82.667 106.667 180.334 186.334 293.001 239.001
s241.334 79 386.001 79c80 0 160.833 -9.33301 242.5 -28s162.167 -46.334 241.5 -83.001l-53 -309c-73.333 47.333 -145 82.666 -215 105.999s-140.333 35 -211 35c-154.667 0 -280.667 -57.333 -378 -172s-146 -262 -146 -442c0 -119.333 28.333 -212 85 -278
s136.667 -99 240 -99c33.333 0 66.833 2.5 100.5 7.5s67.5 12.833 101.5 23.5l52 290h-212l44 258h539z" />
    <glyph glyph-name="H" unicode="H" horiz-adv-x="1542" 
d="M301 1493h346l-100 -569h511l99 569h347l-262 -1493h-346l110 633h-510l-111 -633h-346z" />
    <glyph glyph-name="I" unicode="I" horiz-adv-x="685" 
d="M301 1493h346l-262 -1493h-346z" />
    <glyph glyph-name="J" unicode="J" horiz-adv-x="685" 
d="M301 1493l346.003 0.000976562l-236 -1348c-34.667 -194.667 -102.834 -335.834 -204.501 -423.501s-249.167 -131.5 -442.5 -131.5h-70l51 291h54c71.333 0 129.666 22.5 174.999 67.5s75.666 110.5 90.999 196.5z" />
    <glyph glyph-name="K" unicode="K" horiz-adv-x="1428" 
d="M301 1493h346l-94 -537l571 537h419l-771 -725l581 -768h-407l-452 623l-109 -623h-346z" />
    <glyph glyph-name="L" unicode="L" horiz-adv-x="1174" 
d="M301 1493h346l-211 -1202h607l-49 -291h-955z" />
    <glyph glyph-name="M" unicode="M" horiz-adv-x="1834" 
d="M301 1493h425l173 -793l454 793h443l-262 -1493h-329l192 1102l-466 -815h-187l-185 815l-192 -1102h-328z" />
    <glyph glyph-name="N" unicode="N" horiz-adv-x="1542" 
d="M301 1493h387l307 -1034l181 1034h328l-262 -1493h-387l-308 1034l-180 -1034h-328z" />
    <glyph glyph-name="O" unicode="O" horiz-adv-x="1566" 
d="M1134 881c0 117.333 -23.832 206.668 -71.499 268.001s-116.834 92 -207.501 92c-120 0 -220.667 -59.833 -302 -179.5s-122 -269.5 -122 -449.5c0 -114.667 23.667 -203.667 71 -267s113.333 -95 198 -95c69.333 0 130.833 16.167 184.5 48.5s99.5 80.166 137.5 143.499
c36 60.667 63.667 129 83 205s29 154 29 234zM905.001 1520c179.333 0 323.331 -55.167 431.998 -165.5s163 -254.5 163 -432.5c0 -121.333 -16.667 -236 -50 -344s-81.666 -205 -144.999 -291c-78 -106 -170.333 -185.167 -277 -237.5s-229.334 -78.5 -368.001 -78.5
c-178.667 0 -322.167 55 -430.5 165s-162.5 254.333 -162.5 433c0 122 16.5 237 49.5 345s81.5 205.333 145.5 292c76.667 105.333 168.334 184 275.001 236s229.334 78 368.001 78z" />
    <glyph glyph-name="P" unicode="P" horiz-adv-x="1350" 
d="M301 1493l575 0.000976562c140.667 0 250.834 -35.833 330.501 -107.5s119.5 -171.167 119.5 -298.5c0 -78 -13.333 -152.167 -40 -222.5s-64.334 -131.833 -113.001 -184.5c-53.333 -56.667 -117 -97.834 -191 -123.501s-166.667 -38.5 -278 -38.5h-229l-90 -518h-346z
M599 1214l-72.999 -417h191c82 0 144.5 21.333 187.5 64s64.5 104.667 64.5 186c0 54 -15.333 95.333 -46 124s-75.334 43 -134.001 43h-190z" />
    <glyph glyph-name="Q" unicode="Q" horiz-adv-x="1566" 
d="M684 -27c-6.66699 -0.666992 -13.333 -1.16797 -20 -1.50098s-17.334 -0.5 -32.001 -0.5c-68 0 -132 10.333 -192 31s-114.667 51.334 -164 92.001c-66 54 -117.333 122.833 -154 206.5s-55 173.167 -55 268.5c0 122 16.5 237.167 49.5 345.5s81.5 205.5 145.5 291.5
c77.333 106 169 184.833 275 236.5s228.667 77.5 368 77.5c179.333 0 323.333 -55.167 432 -165.5s163 -254.5 163 -432.5c0 -209.333 -45.667 -392.833 -137 -550.5s-218.666 -272.5 -381.999 -344.5l206 -326h-330zM1134 880.999
c0 117.333 -23.832 206.668 -71.499 268.001s-116.834 92 -207.501 92c-120 0 -220.667 -59.833 -302 -179.5s-122 -269.5 -122 -449.5c0 -114.667 23.667 -203.667 71 -267s113.333 -95 198 -95c69.333 0 130.833 16.167 184.5 48.5s99.5 80.166 137.5 143.499
c36 60.667 63.667 129 83 205s29 154 29 234z" />
    <glyph glyph-name="R" unicode="R" horiz-adv-x="1419" 
d="M677 831c78.667 0 138.167 20.332 178.5 60.999s60.5 100.334 60.5 179.001c0 49.333 -14 85.5 -42 108.5s-72 34.5 -132 34.5h-143l-68 -383h146zM485 564.999l-99.998 -565.002h-346l262 1493h512c147.333 0 259.166 -30.667 335.499 -92
s114.5 -151.666 114.5 -270.999c0 -120.667 -30 -220 -90 -298s-141.333 -122.667 -244 -134c46.667 -10.667 85.667 -37.167 117 -79.5s58.666 -107.166 81.999 -194.499l114 -424h-345l-101 371c-20 74 -44.5 124.833 -73.5 152.5s-71.167 41.5 -126.5 41.5h-111z" />
    <glyph glyph-name="S" unicode="S" horiz-adv-x="1327" 
d="M1226 1446l-55.9951 -315.999c-68 37.333 -135 65.166 -201 83.499s-130.333 27.5 -193 27.5c-86.667 0 -154.167 -15 -202.5 -45s-72.5 -71.667 -72.5 -125c0 -34 10.667 -60.5 32 -79.5s65.333 -37.5 132 -55.5l142 -39c119.333 -33.333 206.666 -81.5 261.999 -144.5
s83 -144.5 83 -244.5c0 -162 -55.333 -292 -166 -390s-259.334 -147 -446.001 -147c-86.667 0 -173.167 9 -259.5 27s-170.5 44.667 -252.5 80l55 325c79.333 -51.333 156.666 -89.666 231.999 -114.999s149.666 -38 222.999 -38c79.333 0 143.833 18 193.5 54
s74.5 82 74.5 138c0 36.667 -11.167 65.167 -33.5 85.5s-71.166 41.166 -146.499 62.499l-141 39c-104.667 28.667 -182.334 74 -233.001 136s-76 142.333 -76 241c0 155.333 53.5 279.833 160.5 373.5s251.167 140.5 432.5 140.5c72.667 0 147.167 -6.16699 223.5 -18.5
s154.166 -30.833 233.499 -55.5z" />
    <glyph glyph-name="T" unicode="T" horiz-adv-x="1257" 
d="M140 1493h1239l-51 -291h-447l-211 -1202h-346l211 1202h-447z" />
    <glyph glyph-name="U" unicode="U" horiz-adv-x="1496" 
d="M301 1493h345.999l-157 -894c-5.33301 -32 -9.5 -60.333 -12.5 -85s-4.5 -46.334 -4.5 -65.001c0 -65.333 15.833 -114.166 47.5 -146.499s78.834 -48.5 141.501 -48.5c84 0 148.333 26.167 193 78.5s78 140.833 100 265.5l157 895h346l-157 -895
c-38.667 -220 -112.5 -379.5 -221.5 -478.5s-264.833 -148.5 -467.5 -148.5c-158.667 0 -279.5 37.833 -362.5 113.5s-124.5 185.5 -124.5 329.5c0 24 1.5 50.833 4.5 80.5s7.83301 64.167 14.5 103.5z" />
    <glyph glyph-name="V" unicode="V" horiz-adv-x="1426" 
d="M140 1493h330l164 -1116l557 1116h357l-759 -1493h-413z" />
    <glyph glyph-name="W" unicode="W" horiz-adv-x="2033" 
d="M197 1493h321l41 -1085l422 1085h329l44 -1085l408 1085h345l-579 -1493h-392l-45 1135l-435 -1135h-401z" />
    <glyph glyph-name="X" unicode="X" horiz-adv-x="1421" 
d="M914 756l330 -756h-352l-219 500l-393 -500h-374l604 766l-318 727h353l207 -469l368 469h377z" />
    <glyph glyph-name="Y" unicode="Y" horiz-adv-x="1334" 
d="M116 1493h347l228 -553l400 553h400l-663 -870l-109 -623h-346l109 623z" />
    <glyph glyph-name="Z" unicode="Z" horiz-adv-x="1336" 
d="M234 1493h1130l-43 -238l-871 -964h724l-52 -291h-1170l41 238l874 964h-684z" />
    <glyph glyph-name="bracketleft" unicode="[" horiz-adv-x="842" 
d="M301 1556h558l-41 -225h-250l-242 -1376h253l-41 -225h-556z" />
    <glyph glyph-name="backslash" unicode="\" horiz-adv-x="673" 
d="M310 -190l-180 1683h200l178 -1683h-198z" />
    <glyph glyph-name="bracketright" unicode="]" horiz-adv-x="842" 
d="M507 -270h-558l38 225h252l243 1376h-253l38 225h559z" />
    <glyph glyph-name="asciicircum" unicode="^" 
d="M883 1493l475 -557h-217l-369 301l-368 -301h-218l476 557h221z" />
    <glyph glyph-name="underscore" unicode="_" horiz-adv-x="921" 
d="M940 -293v-190h-958v190h958z" />
    <glyph glyph-name="grave" unicode="`" horiz-adv-x="921" 
d="M496 1638l188 -376h-177l-266 376h255z" />
    <glyph glyph-name="a" unicode="a" horiz-adv-x="1243" 
d="M607 504c-80.667 0 -141.501 -13.833 -182.501 -41.5s-61.5 -68.5 -61.5 -122.5c0 -40.667 12.167 -72.667 36.5 -96s57.833 -35 100.5 -35c65.333 0 120.333 22.167 165 66.5s74.334 106.833 89.001 187.5l7 41h-154zM1110 639l-112.999 -639.001h-322l27 166
c-52.667 -66.667 -108.5 -115.834 -167.5 -147.501s-122.833 -47.5 -191.5 -47.5c-95.333 0 -171 27.5 -227 82.5s-84 129.167 -84 222.5c0 142.667 49.5 251.834 148.5 327.501s242.167 113.5 429.5 113.5h190l4 28c1.33301 9.33301 2.16602 16 2.49902 20
s0.5 7.66699 0.5 11c0 44 -18.667 77.167 -56 99.5s-93 33.5 -167 33.5c-66.667 0 -131.167 -7.66699 -193.5 -23s-122.5 -38.333 -180.5 -69l48 273c67.333 18.667 136.333 32.834 207 42.501s143.667 14.5 219 14.5c149.333 0 260.333 -28.5 333 -85.5
s109 -143.833 109 -260.5c0 -22.667 -1.33301 -47.5 -4 -74.5s-6.66699 -56.167 -12 -87.5z" />
    <glyph glyph-name="b" unicode="b" horiz-adv-x="1319" 
d="M748 887c-82.667 0 -150.334 -42.501 -203.001 -127.501s-79 -195.5 -79 -331.5c0 -61.333 14.833 -109.5 44.5 -144.5s70.834 -52.5 123.501 -52.5c81.333 0 148.333 41.833 201 125.5s79 190.834 79 321.501c0 68 -14.167 119.833 -42.5 155.5s-69.5 53.5 -123.5 53.5z
M410 161.999l-29.998 -162h-323l271 1556h324l-105 -600c49.333 65.333 101 113.5 155 144.5s113 46.5 177 46.5c113.333 0 203 -40 269 -120s99 -189 99 -327c0 -86 -11.5 -169.667 -34.5 -251s-56.167 -155.333 -99.5 -222c-54.667 -84 -116.334 -147.667 -185.001 -191
s-142.334 -65 -221.001 -65c-68.667 0 -127.167 15.5 -175.5 46.5s-88.833 79.167 -121.5 144.5z" />
    <glyph glyph-name="c" unicode="c" horiz-adv-x="1092" 
d="M1071 1085l-51.002 -292.001c-43.333 32 -86 56.333 -128 73s-83 25 -123 25c-105.333 0 -191.333 -39.167 -258 -117.5s-100 -178.5 -100 -300.5c0 -78 20.833 -138.5 62.5 -181.5s100.167 -64.5 175.5 -64.5c50 0 99.333 8.33301 148 25s95 41.334 139 74.001l-50 -293
c-53.333 -20.667 -107 -36.167 -161 -46.5s-108.333 -15.5 -163 -15.5c-158 0 -279.833 39.5 -365.5 118.5s-128.5 191.167 -128.5 336.5c0 91.333 15.833 180 47.5 266s76.834 163.333 135.501 232c65.333 75.333 140.333 131.333 225 168s182.334 55 293.001 55
c50.667 0 101.167 -5.16699 151.5 -15.5s100.5 -25.833 150.5 -46.5z" />
    <glyph glyph-name="d" unicode="d" horiz-adv-x="1319" 
d="M566 231c82.667 0 150 42.333 202 127s78 195.334 78 332.001c0 62 -14.5 110.333 -43.5 145s-69.833 52 -122.5 52c-81.333 0 -148.333 -41.833 -201 -125.5s-79 -190.834 -79 -321.501c0 -68 14.167 -119.833 42.5 -155.5s69.5 -53.5 123.5 -53.5zM905 956l104.999 600
h325l-273 -1556h-325l30 162c-49.333 -65.333 -101 -113.5 -155 -144.5s-113 -46.5 -177 -46.5c-113.333 0 -203 40 -269 120s-99 189 -99 327c0 86 11.5 169.667 34.5 251s56.167 155.333 99.5 222c54.667 84 116.334 147.667 185.001 191s142.334 65 221.001 65
c68.667 0 127.167 -15.5 175.5 -46.5s89.166 -79.167 122.499 -144.5z" />
    <glyph glyph-name="e" unicode="e" horiz-adv-x="1250" 
d="M1159 518l-11.001 -56.998h-754c0 -4 -0.333008 -9.83301 -1 -17.5s-1 -13.5 -1 -17.5c0 -72.667 19.667 -127 59 -163s98.333 -54 177 -54c68 0 139.667 11.333 215 34s154.333 56.334 237 101.001l-50 -278c-78 -32 -155.833 -55.833 -233.5 -71.5
s-156.834 -23.5 -237.501 -23.5c-157.333 0 -278.666 40.333 -363.999 121s-128 194.667 -128 342c0 85.333 13.5 168.166 40.5 248.499s66.833 153.833 119.5 220.5c62 80 136 140.667 222 182s181.333 62 286 62c136.667 0 245 -40.333 325 -121
s120 -189.334 120 -326.001c0 -26.667 -1.66699 -54.834 -5 -84.501s-8.66602 -62.167 -15.999 -97.5zM854.999 682.002c2 8.66699 3.33203 17.501 3.99902 26.501s1 17.833 1 26.5c0 53.333 -14.333 95.666 -43 126.999s-67.667 47 -117 47
c-62.667 0 -116.167 -19.167 -160.5 -57.5s-78.166 -94.833 -101.499 -169.5h417z" />
    <glyph glyph-name="f" unicode="f" horiz-adv-x="801" 
d="M995 1556l-41.999 -235h-177c-45.333 0 -78.333 -9.16699 -99 -27.5s-35 -49.833 -43 -94.5l-15 -79h273l-44 -256h-273l-151 -864h-324l151 864h-159l45 256h158l15 78c22 124 68.167 214.667 138.5 272s170.166 86 299.499 86h247z" />
    <glyph glyph-name="g" unicode="g" horiz-adv-x="1319" 
d="M770 190c-51.333 -65.333 -103.665 -113.335 -156.998 -144.002s-111.666 -46 -174.999 -46c-114 0 -204.167 40.833 -270.5 122.5s-99.5 193.167 -99.5 334.5c0 75.333 11.667 150.833 35 226.5s56.333 146.834 99 213.501c53.333 80.667 114.166 142.167 182.499 184.5
s141.833 63.5 220.5 63.5c70.667 0 130.167 -15.333 178.5 -46s88.833 -79 121.5 -145l27 166h325l-170 -973c-34.667 -200.667 -109 -349 -223 -445s-272.333 -144 -475 -144c-62.667 0 -122.834 5.33301 -180.501 16s-114.834 27 -171.501 49l48 279
c50.667 -36 101.5 -62.833 152.5 -80.5s103.167 -26.5 156.5 -26.5c106.667 0 188.667 25.333 246 76s96 131.334 116 242.001zM680.001 886.998c-78.667 0 -144.334 -39.666 -197.001 -118.999s-79 -179 -79 -299c0 -68 14.167 -119.833 42.5 -155.5
s69.5 -53.5 123.5 -53.5c78.667 0 144.334 39.5 197.001 118.5s79 177.5 79 295.5c0 69.333 -14.167 122.166 -42.5 158.499s-69.5 54.5 -123.5 54.5z" />
    <glyph glyph-name="h" unicode="h" horiz-adv-x="1312" 
d="M1189 682l-119.997 -681.999h-323l102 584c7.33301 38 12.833 70.167 16.5 96.5s5.5 47.166 5.5 62.499c0 42.667 -10.667 75.667 -32 99s-51.333 35 -90 35c-66.667 0 -123.834 -28.833 -171.501 -86.5s-80.834 -137.5 -99.501 -239.5l-97 -551h-323l271 1556h324
l-105 -600c59.333 64.667 119 112.667 179 144s122.667 47 188 47c93.333 0 165.166 -27 215.499 -81s75.5 -130 75.5 -228c0 -21.333 -1.33301 -45 -4 -71s-6.66699 -54.333 -12 -85z" />
    <glyph glyph-name="i" unicode="i" horiz-adv-x="631" 
d="M253 1120h324l-197 -1120h-323zM328 1556h324l-51 -292h-325z" />
    <glyph glyph-name="j" unicode="j" horiz-adv-x="631" 
d="M253 1120l323.999 0.000976562l-194 -1100c-27.333 -156.667 -78.666 -272.834 -153.999 -348.501s-177 -113.5 -305 -113.5h-160l41 235h56c60.667 0 105 15.167 133 45.5s49.667 90.833 65 181.5zM327.999 1556h324l-51 -292h-325z" />
    <glyph glyph-name="k" unicode="k" horiz-adv-x="1225" 
d="M328 1556h324l-147 -843l435 407h379l-585 -518l425 -602h-368l-327 483l-84 -483h-323z" />
    <glyph glyph-name="l" unicode="l" horiz-adv-x="631" 
d="M328 1556h324l-272 -1556h-323z" />
    <glyph glyph-name="m" unicode="m" horiz-adv-x="1920" 
d="M1156 934c49.333 68.667 105.668 121.334 169.001 158.001s129.333 55 198 55c90 0 161 -27.5 213 -82.5s78 -130.5 78 -226.5c0 -20 -1.5 -42.833 -4.5 -68.5s-7.16699 -54.834 -12.5 -87.501l-119 -682h-325l101 584l3 15c15.333 82.667 23 135.667 23 159
c0 36.667 -9.33301 65.667 -28 87s-44.334 32 -77.001 32c-62 0 -114.333 -28.167 -157 -84.5s-73.334 -136.833 -92.001 -241.5l-97 -551h-325l103 584c9.33301 50 15.833 87.833 19.5 113.5s5.5 45.834 5.5 60.501c0 37.333 -9.33301 66.5 -28 87.5s-44.667 31.5 -78 31.5
c-59.333 0 -111.333 -29.167 -156 -87.5s-75.667 -137.833 -93 -238.5l-97 -551h-323l196 1120h324l-30 -164c50.667 63.333 104.5 111 161.5 143s116.167 48 177.5 48c70 0 129.833 -19.833 179.5 -59.5s79.834 -90.834 90.501 -153.501z" />
    <glyph glyph-name="n" unicode="n" horiz-adv-x="1312" 
d="M1189 682l-119.997 -681.999h-323l102 584c7.33301 38 12.833 70.167 16.5 96.5s5.5 47.166 5.5 62.499c0 42.667 -10.667 75.667 -32 99s-51.333 35 -90 35c-66.667 0 -123.834 -28.833 -171.501 -86.5s-80.834 -137.5 -99.501 -239.5l-97 -551h-323l196 1120h324
l-30 -164c59.333 64.667 119 112.667 179 144s122.667 47 188 47c93.333 0 165.166 -27 215.499 -81s75.5 -130 75.5 -228c0 -21.333 -1.33301 -45 -4 -71s-6.66699 -54.333 -12 -85z" />
    <glyph glyph-name="o" unicode="o" horiz-adv-x="1266" 
d="M691 891c-83.333 0 -152 -42 -206 -126s-81 -191 -81 -321c0 -70.667 14.5 -124.5 43.5 -161.5s71.5 -55.5 127.5 -55.5c83.333 0 152 42.167 206 126.5s81 191.833 81 322.5c0 70 -14.5 123.333 -43.5 160s-71.5 55 -127.5 55zM717 1147
c150 0 268.002 -42.332 354.002 -126.999s129 -200 129 -346c0 -84.667 -13.5 -166.834 -40.5 -246.501s-66.5 -152.5 -118.5 -218.5c-60.667 -78.667 -132.834 -138 -216.501 -178s-176.834 -60 -279.501 -60c-148 0 -264.667 42.333 -350 127s-128 200 -128 346
c0 84 13.667 166.167 41 246.5s67 153.833 119 220.5c60 77.333 131.5 136 214.5 176s174.833 60 275.5 60z" />
    <glyph glyph-name="p" unicode="p" horiz-adv-x="1319" 
d="M410 162l-103.998 -588h-324l271 1546h324l-30 -164c49.333 65.333 101 113.5 155 144.5s113 46.5 177 46.5c113.333 0 203 -40 269 -120s99 -189 99 -327c0 -86 -11.5 -169.667 -34.5 -251s-56.167 -155.333 -99.5 -222c-54.667 -84 -116.334 -147.667 -185.001 -191
s-142.334 -65 -221.001 -65c-68.667 0 -127.167 15.5 -175.5 46.5s-88.833 79.167 -121.5 144.5zM748.002 887c-82.667 0 -150.334 -42.501 -203.001 -127.501s-79 -195.5 -79 -331.5c0 -61.333 14.833 -109.5 44.5 -144.5s70.834 -52.5 123.501 -52.5
c81.333 0 148.333 41.833 201 125.5s79 190.834 79 321.501c0 68 -14.167 119.833 -42.5 155.5s-69.5 53.5 -123.5 53.5z" />
    <glyph glyph-name="q" unicode="q" horiz-adv-x="1319" 
d="M905 956l26.999 164h325l-271 -1546h-324l103 588c-48 -65.333 -99 -113.5 -153 -144.5s-113 -46.5 -177 -46.5c-113.333 0 -203 40 -269 120s-99 189 -99 327c0 86 11.5 169.667 34.5 251s56.167 155.333 99.5 222c54.667 84 116.334 147.667 185.001 191
s142.334 65 221.001 65c68.667 0 127.167 -15.5 175.5 -46.5s89.166 -79.167 122.499 -144.5zM565.999 231c82.667 0 150 42.333 202 127s78 195.334 78 332.001c0 62 -14.5 110.333 -43.5 145s-69.833 52 -122.5 52c-81.333 0 -148.333 -41.833 -201 -125.5
s-79 -190.834 -79 -321.501c0 -68 14.167 -119.833 42.5 -155.5s69.5 -53.5 123.5 -53.5z" />
    <glyph glyph-name="r" unicode="r" horiz-adv-x="909" 
d="M948 815c-22.667 14 -47.5 24.667 -74.5 32s-55.833 11 -86.5 11c-82.667 0 -151.167 -29.333 -205.5 -88s-90.833 -143.334 -109.5 -254.001l-92 -516h-323l196 1120h324l-35 -192c42.667 70.667 95.834 124.834 159.501 162.501s134.5 56.5 212.5 56.5
c12 0 25.167 -0.666992 39.5 -2s31.166 -3.33301 50.499 -6z" />
    <glyph glyph-name="s" unicode="s" horiz-adv-x="1097" 
d="M1032 1085l-47 -277.999c-63.333 33.333 -126.166 58.666 -188.499 75.999s-121.5 26 -177.5 26c-63.333 0 -112.333 -9.16699 -147 -27.5s-52 -44.5 -52 -78.5c0 -20 9.66699 -36 29 -48s57 -24.667 113 -38l59 -12c130 -30.667 221.167 -70.167 273.5 -118.5
s78.5 -115.5 78.5 -201.5c0 -130 -45.833 -231.5 -137.5 -304.5s-220.167 -109.5 -385.5 -109.5c-69.333 0 -140 6 -212 18s-145.333 30 -220 54l49 281c58 -38 120.167 -66.667 186.5 -86s134.166 -29 203.499 -29c68 0 119.167 9 153.5 27s51.5 44.333 51.5 79
c0 24 -9.66699 42.667 -29 56s-59 27 -119 41l-59 12c-114.667 26.667 -196.667 66 -246 118s-74 124 -74 216c0 124.667 42.5 220.667 127.5 288s206.167 101 363.5 101c69.333 0 137.5 -5.16699 204.5 -15.5s134.167 -25.833 201.5 -46.5z" />
    <glyph glyph-name="t" unicode="t" horiz-adv-x="881" 
d="M663 1438l-54.999 -317.999h330l-46 -256h-330l-82 -474c-2.66699 -10.667 -4.5 -19.667 -5.5 -27s-1.5 -14.333 -1.5 -21c0 -30.667 9.16699 -52.667 27.5 -66s49.166 -20 92.499 -20h167l-46 -256h-271c-97.333 0 -171.5 22.667 -222.5 68s-76.5 110.666 -76.5 195.999
c0 18.667 0.833008 38.667 2.5 60s4.5 43 8.5 65l83 475h-159l44 256h161l55 318h324z" />
    <glyph glyph-name="u" unicode="u" horiz-adv-x="1312" 
d="M125 436l118.002 684h323l-102 -583c-6.66699 -38 -11.834 -70.333 -15.501 -97s-5.5 -47.667 -5.5 -63c0 -42 10.5 -74.667 31.5 -98s50.833 -35 89.5 -35c66.667 0 124 28.667 172 86s81 137 99 239l97 551h324l-196 -1120h-325l30 164
c-55.333 -64.667 -113.333 -113 -174 -145s-124.334 -48 -191.001 -48c-92 0 -163.167 27 -213.5 81s-75.5 130.333 -75.5 229c0 23.333 1.16699 48 3.5 74s5.83301 53 10.5 81z" />
    <glyph glyph-name="v" unicode="v" horiz-adv-x="1201" 
d="M116 1120h297l131 -782l379 782h327l-592 -1120h-341z" />
    <glyph glyph-name="w" unicode="w" horiz-adv-x="1702" 
d="M160 1120h297l35 -770l304 770h256l37 -768l302 768h317l-461 -1120h-342l-33 770l-308 -770h-334z" />
    <glyph glyph-name="x" unicode="x" horiz-adv-x="1188" 
d="M408 573l-268 547h335l150 -332l261 332h351l-459 -545l280 -575h-335l-159 354l-290 -354h-350z" />
    <glyph glyph-name="y" unicode="y" horiz-adv-x="1201" 
d="M122 1120h304l138 -776l358 776h344l-638 -1226c-71.333 -138 -137.333 -228.5 -198 -271.5s-139 -64.5 -235 -64.5h-195l33 235h102c52.667 0 93.667 9.83301 123 29.5s55.333 54.167 78 103.5l29 60z" />
    <glyph glyph-name="z" unicode="z" horiz-adv-x="1072" 
d="M201 1120h879l-44 -250l-628 -614h521l-44 -256h-901l42 250l630 614h-499z" />
    <glyph glyph-name="braceleft" unicode="{" horiz-adv-x="1312" 
d="M942 -109l-38 -224.999h-197c-107.333 0 -188.166 20.5 -242.499 61.5s-81.5 102.5 -81.5 184.5c0 14.667 1.16699 32 3.5 52s5.5 43.333 9.5 70l33 193c4 20 6.83301 39.167 8.5 57.5s2.5 34.833 2.5 49.5c0 58.667 -13.667 100 -41 124s-76 36 -146 36h-58l41 223h56
c84 0 145.667 19.333 185 58s67.666 108 84.999 208l36 205c22 128.667 68 222.167 138 280.5s170.667 87.5 302 87.5h195l-39 -225h-63c-83.333 0 -140.333 -14.5 -171 -43.5s-54.667 -90.833 -72 -185.5l-29 -166c-18 -104 -44.833 -179.833 -80.5 -227.5
s-87.5 -79.834 -155.5 -96.501c48 -14 83 -36 105 -66s33 -70.667 33 -122c0 -20 -1.16699 -41.167 -3.5 -63.5s-6.16602 -46.833 -11.499 -73.5l-29 -166c-5.33301 -30.667 -8.83301 -54 -10.5 -70s-2.5 -29.667 -2.5 -41c0 -44.667 12.167 -75.667 36.5 -93
s71.166 -26 140.499 -26h61z" />
    <glyph glyph-name="bar" unicode="|" horiz-adv-x="673" 
d="M438 1565v-2048h-204v2048h204z" />
    <glyph glyph-name="braceright" unicode="}" horiz-adv-x="1312" 
d="M120 -109l62.9941 0.000976562c84 0 141.333 14.833 172 44.5s54.334 91.5 71.001 185.5l29 166c18 103.333 45 179 81 227s88.333 80.667 157 98c-48 12.667 -83.333 34 -106 64s-34 71 -34 123c0 16 1.33301 35.333 4 58s6.33398 49 11.001 79l30 166
c4.66699 28 7.83398 50.333 9.50098 67s2.5 31 2.5 43c0 45.333 -12.167 76.5 -36.5 93.5s-71.166 25.5 -140.499 25.5h-60l38 225h197c108 0 188.833 -20.333 242.5 -61s80.5 -102 80.5 -184c0 -18.667 -1.16699 -38.167 -3.5 -58.5s-5.5 -41.833 -9.5 -64.5l-35 -205
c-3.33301 -20 -6 -39 -8 -57s-3 -34.333 -3 -49c0 -58.667 14 -100 42 -124s76.667 -36 146 -36h57l-41 -223h-54c-84.667 0 -146.667 -19.5 -186 -58.5s-67.666 -108.5 -84.999 -208.5l-34 -192c-22 -128.667 -68.167 -222.334 -138.5 -281.001s-171.166 -88 -302.499 -88
h-195z" />
    <glyph glyph-name="asciitilde" unicode="~" 
d="M1349 850l-0.00195312 -244c-63.333 -53.333 -121.833 -91.5 -175.5 -114.5s-109.5 -34.5 -167.5 -34.5c-64 0 -139 19.333 -225 58c-8 4 -14.667 7 -20 9c-4 2 -10.333 5 -19 9c-93.333 40.667 -168 61 -224 61c-53.333 0 -105.666 -12.833 -156.999 -38.5
s-106.666 -66.167 -165.999 -121.5v244c64.667 53.333 123.667 91.5 177 114.5s108.666 34.5 165.999 34.5c64 0 139 -19.333 225 -58c9.33301 -4 16 -7 20 -9s10.667 -5 20 -9c92.667 -40.667 167.334 -61 224.001 -61c51.333 0 102.333 12.5 153 37.5
s107 65.833 169 122.5z" />
    <glyph glyph-name="nonbreakingspace" unicode="&#xa0;" horiz-adv-x="641" 
 />
    <glyph glyph-name="exclamdown" unicode="&#xa1;" horiz-adv-x="840" 
d="M651 1137h-325l63 356h325zM452 0h-325l102 573l117 418h233l-26 -418z" />
    <glyph glyph-name="cent" unicode="&#xa2;" horiz-adv-x="1282" 
d="M667 856c-61.333 -30.667 -110.5 -80.835 -147.5 -150.502s-55.5 -147.167 -55.5 -232.5c0 -49.333 8.66699 -92.166 26 -128.499s41.333 -63.166 72 -80.499zM1124 1085l-51.001 -292c-45.333 33.333 -88.166 58 -128.499 74s-79.833 24 -118.5 24h-8l-115 -664
c53.333 1.33301 103.833 10.166 151.5 26.499s92.834 40.5 135.501 72.5l-50 -293c-43.333 -16.667 -88.5 -30 -135.5 -40s-95.833 -16.667 -146.5 -20l-50 -286h-145l49 290c-120.667 14.667 -215.667 60.834 -285 138.501s-104 177.167 -104 298.5
c0 194 54.667 358 164 492s252.666 212.333 429.999 235l50 291h146l-50 -287c40.667 -1.33301 83 -7 127 -17s88.667 -24.333 134 -43z" />
    <glyph glyph-name="sterling" unicode="&#xa3;" horiz-adv-x="1282" 
d="M1274 1466l-50.002 -286c-35.333 24.667 -74 43.667 -116 57s-84.333 20 -127 20c-75.333 0 -134 -20.5 -176 -61.5s-70.667 -105.833 -86 -194.5l-30 -170h336l-40 -239h-338l-57 -326h486l-46 -266h-1017l46 266h203l57 326h-173l40 239h175l30 170
c30.667 180 91.334 311.5 182.001 394.5s218.667 124.5 384 124.5c55.333 0 109.333 -4.5 162 -13.5s104.334 -22.5 155.001 -40.5z" />
    <glyph glyph-name="currency" unicode="&#xa4;" horiz-adv-x="1172" 
d="M391 268l-186.995 -207l-137 154l186 207c-16.667 32.667 -29.334 66.834 -38.001 102.501s-13 74.5 -13 116.5s4.66699 81 14 117s22.666 69.333 39.999 100l-188 205l138 154l186 -207c29.333 20 60.166 34.833 92.499 44.5s66.833 14.5 103.5 14.5
c32 0 64.333 -4.5 97 -13.5s66 -22.833 100 -41.5l186 207l137 -154l-186 -207c17.333 -36.667 30.166 -73.334 38.499 -110.001s12.5 -73 12.5 -109c0 -42 -4.33301 -80.5 -13 -115.5s-22 -68.167 -40 -99.5l186 -207l-138 -153l-187 206
c-27.333 -20 -57 -34.833 -89 -44.5s-66.667 -14.5 -104 -14.5c-34.667 0 -68.334 4.5 -101.001 13.5s-64.667 22.833 -96 41.5zM588.005 422c54.667 0 101.167 21.168 139.5 63.501s57.5 94.166 57.5 155.499s-19.167 113.166 -57.5 155.499s-84.833 63.5 -139.5 63.5
s-101.167 -21.167 -139.5 -63.5s-57.5 -94.166 -57.5 -155.499c0 -62 18.833 -114 56.5 -156s84.5 -63 140.5 -63z" />
    <glyph glyph-name="yen" unicode="&#xa5;" horiz-adv-x="1282" 
d="M1165 416h-409l-74 -416h-343l74 416h-402l35 194h400l13 76l-26 76h-361l33 192h262l-193 539h331l175 -500l347 500h364l-396 -539h264l-33 -192h-367l-53 -76l-17 -76h409z" />
    <glyph glyph-name="brokenbar" unicode="&#xa6;" horiz-adv-x="673" 
d="M438 1432v-758h-204v758h204zM438 408v-758h-204v758h204z" />
    <glyph glyph-name="section" unicode="&#xa7;" horiz-adv-x="921" 
d="M911 1462l-39 -227.004c-54 26.667 -102.5 46.334 -145.5 59.001s-82.833 19 -119.5 19c-48 0 -86.167 -10.167 -114.5 -30.5s-42.5 -47.166 -42.5 -80.499c0 -20 7.33301 -38.333 22 -55s39 -33.667 73 -51l81 -41c105.333 -52 177.166 -103.167 215.499 -153.5
s57.5 -112.5 57.5 -186.5c0 -82 -23.167 -154.667 -69.5 -218s-113.5 -114.333 -201.5 -153c34.667 -24 60 -50.667 76 -80s24 -62 24 -98c0 -108 -42.333 -195.167 -127 -261.5s-197.667 -99.5 -339 -99.5c-50.667 0 -103 4.83301 -157 14.5s-109.333 24.167 -166 43.5
l43 237c61.333 -28.667 116 -50.167 164 -64.5s90.333 -21.5 127 -21.5c46 0 83.5 10.5 112.5 31.5s43.5 47.5 43.5 79.5c0 20.667 -7.16699 38.834 -21.5 54.501s-45.166 35.834 -92.499 60.501l-121 61c-72 36 -124.667 78.5 -158 127.5s-50 107.5 -50 175.5
c0 82 22 154.833 66 218.5s108.333 115.167 193 154.5c-31.333 27.333 -54.5 56.333 -69.5 87s-22.5 63.667 -22.5 99c0 104 41.5 189.5 124.5 256.5s190.833 100.5 323.5 100.5c50 0 100.833 -4.83301 152.5 -14.5s104.167 -24.167 157.5 -43.5zM400 853.996
c-48 -14 -84.833 -35.8301 -110.5 -65.4971s-38.5 -65.167 -38.5 -106.5c0 -40.667 14.5 -75.334 43.5 -104.001s92.5 -64.334 190.5 -107.001c48 18 85.167 42.167 111.5 72.5s39.5 64.166 39.5 101.499c0 40.667 -17 76.5 -51 107.5s-95.667 64.833 -185 101.5z" />
    <glyph glyph-name="dieresis" unicode="&#xa8;" horiz-adv-x="921" 
d="M322 1585h214l-44 -246h-212zM680 1585h212l-44 -246h-212z" />
    <glyph glyph-name="copyright" unicode="&#xa9;" horiz-adv-x="1843" 
d="M1191 1126l-0.00195312 -215c-34.667 24.667 -68.5 42.834 -101.5 54.501s-66.833 17.5 -101.5 17.5c-68 0 -121 -21.333 -159 -64s-57 -102 -57 -178c0 -76.667 19 -136 57 -178s91 -63 159 -63c38.667 0 75.167 6 109.5 18s65.5 29.667 93.5 53v-213
c-39.333 -14.667 -78.666 -25.834 -117.999 -33.501s-77.666 -11.5 -114.999 -11.5c-126 0 -227.167 39 -303.5 117s-114.5 181.667 -114.5 311c0 130 38.167 233.833 114.5 311.5s177.5 116.5 303.5 116.5c42 0 82.167 -3.5 120.5 -10.5s75.833 -17.833 112.5 -32.5z
M921.998 1331c-72.667 0 -140.168 -14.501 -202.501 -43.501s-119.833 -72.5 -172.5 -130.5c-52 -58 -91 -121.5 -117 -190.5s-39 -144.167 -39 -225.5c0 -80.667 13 -155.5 39 -224.5s65 -132.5 117 -190.5c52 -57.333 109.333 -100.333 172 -129s130.334 -43 203.001 -43
c73.333 0 141 14.167 203 42.5s119 71.5 171 129.5s91.167 121.5 117.5 190.5s39.5 143.833 39.5 224.5c0 81.333 -13.167 156.5 -39.5 225.5s-65.5 132.5 -117.5 190.5c-52.667 58.667 -110.167 102.334 -172.5 131.001s-129.5 43 -201.5 43zM921.997 1485
c90.667 0 175.5 -18.333 254.5 -55s151.167 -91.334 216.5 -164.001s114.166 -152.667 146.499 -240s48.5 -182.333 48.5 -285c0 -101.333 -16.167 -195.5 -48.5 -282.5s-81.166 -166.833 -146.499 -239.5s-137.5 -127.334 -216.5 -164.001s-163.833 -55 -254.5 -55
c-91.333 0 -176.5 18.333 -255.5 55s-151.167 91.334 -216.5 164.001s-114.166 152.5 -146.499 239.5s-48.5 181.167 -48.5 282.5c0 102.667 16.167 197.667 48.5 285s81.166 167.333 146.499 240s137.5 127.334 216.5 164.001s164.167 55 255.5 55z" />
    <glyph glyph-name="ordfeminine" unicode="&#xaa;" horiz-adv-x="1039" 
d="M114 573h734l-35 -200h-734zM623 1081c-88.667 0 -149.833 -9.50195 -183.5 -28.502s-50.5 -51.833 -50.5 -98.5c0 -29.333 9.33301 -52.666 28 -69.999s43.667 -26 75 -26c50.667 0 95.5 18.833 134.5 56.5s63.5 85.834 73.5 144.501l4 22h-81zM962.001 1165
l-77.0049 -447.997h-223l22 125c-39.333 -50.667 -81.666 -87.667 -126.999 -111s-98.333 -35 -159 -35c-75.333 0 -133.833 18.5 -175.5 55.5s-62.5 88.833 -62.5 155.5c0 103.333 37 181.166 111 233.499s184 78.5 330 78.5h127l4 20
c0.666992 2.66699 1.16699 5.66699 1.5 9s0.5 8.66602 0.5 15.999c0 29.333 -11.667 51.666 -35 66.999s-57.666 23 -102.999 23c-52.667 0 -105.167 -5.83301 -157.5 -17.5s-103.833 -29.167 -154.5 -52.5l31 180c58.667 18.667 114.334 32.667 167.001 42
s101.334 14 146.001 14c112 0 197.167 -21.333 255.5 -64s87.5 -104.667 87.5 -186c0 -20.667 -0.666992 -39.5 -2 -56.5s-3.66602 -33.167 -6.99902 -48.5z" />
    <glyph glyph-name="guillemotleft" unicode="&#xab;" horiz-adv-x="1197" 
d="M1095 1063l-45 -252l-311 -229l232 -222l-39 -223l-379 369l33 186zM654 1063l-44 -252l-311 -229l232 -222l-39 -223l-380 369l34 186z" />
    <glyph glyph-name="logicalnot" unicode="&#xac;" 
d="M195 909h1154v-622h-211v385h-943v237z" />
    <glyph glyph-name="sfthyphen" unicode="&#xad;" horiz-adv-x="765" 
d="M98 735h565l-51 -291h-566z" />
    <glyph glyph-name="registered" unicode="&#xae;" horiz-adv-x="1843" 
d="M922 1331c-72.667 0 -140.168 -14.501 -202.501 -43.501s-119.833 -72.5 -172.5 -130.5c-52 -58 -91 -121.5 -117 -190.5s-39 -144.167 -39 -225.5c0 -80.667 13 -155.5 39 -224.5s65 -132.5 117 -190.5c52 -57.333 109.333 -100.333 172 -129s130.334 -43 203.001 -43
c73.333 0 141 14.167 203 42.5s119 71.5 171 129.5s91.167 121.5 117.5 190.5s39.5 143.833 39.5 224.5c0 81.333 -13.167 156.5 -39.5 225.5s-65.5 132.5 -117.5 190.5c-52.667 58.667 -110.167 102.334 -172.5 131.001s-129.5 43 -201.5 43zM869.999 1036l-31 -0.00195312
v-207h31c46.667 0 82 8.83301 106 26.5s36 43.834 36 78.501s-11.667 60.334 -35 77.001s-59 25 -107 25zM903.999 1174c105.333 0 184.166 -19.832 236.499 -59.499s78.5 -99.834 78.5 -180.501c0 -57.333 -15.833 -104.666 -47.5 -141.999s-76.167 -61.666 -133.5 -72.999
c24.667 -14.667 47.5 -35.334 68.5 -62.001s40.5 -59.334 58.5 -98.001l99 -221h-206l-96 213c-22.667 52 -42.667 88.833 -60 110.5s-34.666 32.5 -51.999 32.5h-11v-356h-192v836h257zM921.999 1485c90.667 0 175.5 -18.333 254.5 -55s151.167 -91.334 216.5 -164.001
s114.166 -152.667 146.499 -240s48.5 -182.333 48.5 -285c0 -101.333 -16.167 -195.5 -48.5 -282.5s-81.166 -166.833 -146.499 -239.5s-137.5 -127.334 -216.5 -164.001s-163.833 -55 -254.5 -55c-91.333 0 -176.5 18.333 -255.5 55s-151.167 91.334 -216.5 164.001
s-114.166 152.5 -146.499 239.5s-48.5 181.167 -48.5 282.5c0 102.667 16.167 197.667 48.5 285s81.166 167.333 146.499 240s137.5 127.334 216.5 164.001s164.167 55 255.5 55z" />
    <glyph glyph-name="macron" unicode="&#xaf;" horiz-adv-x="921" 
d="M319 1556h567l-33 -188h-568z" />
    <glyph glyph-name="degree" unicode="&#xb0;" horiz-adv-x="921" 
d="M461 1372c-43.333 0 -80 -16.667 -110 -50s-45 -74 -45 -122s14.833 -88.333 44.5 -121s66.5 -49 110.5 -49c43.333 0 80 16.5 110 49.5s45 73.167 45 120.5c0 48 -15.167 88.667 -45.5 122s-66.833 50 -109.5 50zM461 1534c39.333 0 77.3311 -8.5 113.998 -25.5
s69.334 -41.167 98.001 -72.5c28.667 -32 50.334 -68 65.001 -108s22 -82.667 22 -128c0 -44.667 -7.33301 -87.167 -22 -127.5s-35.667 -75.5 -63 -105.5c-28.667 -32 -61.667 -56.5 -99 -73.5s-76.333 -25.5 -117 -25.5c-84.667 0 -155.667 31.833 -213 95.5
s-86 142.5 -86 236.5s29 173.167 87 237.5s129.333 96.5 214 96.5z" />
    <glyph glyph-name="plusminus" unicode="&#xb1;" 
d="M879 1284v-354h470v-236h-470v-354h-214v354h-470v236h470v354h214zM195 238h1154v-238h-1154v238z" />
    <glyph glyph-name="twosuperior" unicode="&#xb2;" horiz-adv-x="807" 
d="M382 836h339l-30 -168h-608l28 153l329 266c48 38.667 83.667 74.5 107 107.5s35 63.5 35 91.5c0 26.667 -9.66699 47.667 -29 63s-46.333 23 -81 23c-41.333 0 -84 -7.66699 -128 -23s-87.333 -37.666 -130 -66.999l33 186c49.333 17.333 96.333 30.333 141 39
s88 13 130 13c89.333 0 157.833 -18.167 205.5 -54.5s71.5 -87.833 71.5 -154.5c0 -52.667 -16.167 -103.834 -48.5 -153.501s-84.5 -102.5 -156.5 -158.5z" />
    <glyph glyph-name="threesuperior" unicode="&#xb3;" horiz-adv-x="807" 
d="M599 1120c45.333 -8.66699 79.666 -28.502 102.999 -59.502s35 -71.833 35 -122.5c0 -91.333 -35.167 -161.666 -105.5 -210.999s-170.166 -74 -299.499 -74c-48 0 -93.667 4 -137 12s-83.666 19.667 -120.999 35l30 172c34.667 -24 69.834 -42.167 105.501 -54.5
s71.5 -18.5 107.5 -18.5c65.333 0 116.5 12.667 153.5 38s55.5 60.333 55.5 105c0 36 -15 62.5 -45 79.5s-76 25.5 -138 25.5h-69l25 137h77c64 0 112.833 9.66699 146.5 29s50.5 47 50.5 83c0 25.333 -11.333 44.333 -34 57s-56.334 19 -101.001 19
c-32 0 -67.167 -4.33301 -105.5 -13s-80.5 -22 -126.5 -40l28 166c43.333 11.333 87.166 20 131.499 26s88.5 9 132.5 9c92.667 0 164 -16.667 214 -50s75 -81 75 -143c0 -54 -17 -99.667 -51 -137s-79.667 -60.666 -137 -69.999z" />
    <glyph glyph-name="acute" unicode="&#xb4;" horiz-adv-x="921" 
d="M730 1638h264l-395 -376h-181z" />
    <glyph glyph-name="mu" unicode="&#xb5;" horiz-adv-x="1356" 
d="M-50 -428l271.001 1548h324l-114 -651c-2 -14 -3.66699 -27.667 -5 -41s-2 -25.666 -2 -36.999c0 -48.667 12.833 -86 38.5 -112s63.167 -39 112.5 -39c61.333 0 110 18.667 146 56s61 95 75 173l115 651h324l-131 -749c-2 -14 -3.66699 -26.833 -5 -38.5
s-2 -22.167 -2 -31.5c0 -19.333 4 -33.666 12 -42.999s20.667 -14 38 -14c10 0 20.833 1.83301 32.5 5.5s23.5 9.16699 35.5 16.5l-45 -250c-34 -15.333 -65.833 -26.666 -95.5 -33.999s-57.834 -11 -84.501 -11c-52.667 0 -93.834 12.667 -123.501 38
s-50.5 65.333 -62.5 120c-37.333 -52.667 -78.666 -92.167 -123.999 -118.5s-94.333 -39.5 -147 -39.5c-44.667 0 -81 7.83301 -109 23.5s-48.333 39.5 -61 71.5l-87 -494h-326z" />
    <glyph glyph-name="paragraph" unicode="&#xb6;" horiz-adv-x="1172" 
d="M644 1493l468 0.00195312l-296 -1690h-171l269 1543h-170l-271 -1543h-169l148 846c-100.667 13.333 -178.334 50.666 -233.001 111.999s-82 141.333 -82 240c0 143.333 46.833 261.166 140.5 353.499s215.834 138.5 366.501 138.5z" />
    <glyph glyph-name="periodcentered" unicode="&#xb7;" horiz-adv-x="700" 
d="M223 905h324l-68 -387h-324z" />
    <glyph glyph-name="cedilla" unicode="&#xb8;" horiz-adv-x="921" 
d="M413 0c22 -34.667 38.166 -66.668 48.499 -96.001s15.5 -58 15.5 -86c0 -69.333 -22.667 -123.166 -68 -161.499s-109 -57.5 -191 -57.5c-29.333 0 -58.666 2.16699 -87.999 6.5s-59.333 10.833 -90 19.5l27 156c24 -11.333 48.167 -20 72.5 -26s47.833 -9 70.5 -9
c39.333 0 70.5 9.5 93.5 28.5s34.5 44.167 34.5 75.5c0 17.333 -4.16699 37.5 -12.5 60.5s-21.833 52.833 -40.5 89.5h128z" />
    <glyph glyph-name="onesuperior" unicode="&#xb9;" horiz-adv-x="807" 
d="M151 825h185l92 521l-210 -52l27 160l219 49h198l-120 -678h186l-28 -157h-577z" />
    <glyph glyph-name="ordmasculine" unicode="&#xba;" horiz-adv-x="1039" 
d="M647 1520c110 0 196.999 -30.167 260.999 -90.5s96 -141.5 96 -243.5c0 -146 -44.167 -263.833 -132.5 -353.5s-205.5 -134.5 -351.5 -134.5c-109.333 0 -196.666 30.5 -261.999 91.5s-98 141.833 -98 242.5c0 144.667 44.667 262.167 134 352.5s207 135.5 353 135.5z
M119.999 573h740l-34 -200h-741zM624.999 1350c-59.333 0 -108.668 -30.832 -148.001 -92.499s-59 -139.5 -59 -233.5c0 -50.667 10.667 -89.334 32 -116.001s52 -40 92 -40c59.333 0 108.5 30.667 147.5 92s58.5 139.333 58.5 234c0 50 -10.667 88.5 -32 115.5
s-51.666 40.5 -90.999 40.5z" />
    <glyph glyph-name="guillemotright" unicode="&#xbb;" horiz-adv-x="1197" 
d="M105 135l44 254l310 229l-230 222l38 223l378 -371l-31 -186zM545 135l45 254l309 229l-232 222l40 223l378 -371l-31 -186z" />
    <glyph glyph-name="onequarter" unicode="&#xbc;" horiz-adv-x="1908" 
d="M130 825h185l92 521l-210 -52l27 160l219 49h198l-120 -678h186l-28 -157h-577zM534 -29h-220l1111 1549h221zM1472 640l-271 -323h215zM1490 835h223l-90 -518h123l-27 -155h-123l-29 -162h-207l29 162h-352l29 168z" />
    <glyph glyph-name="onehalf" unicode="&#xbd;" horiz-adv-x="1908" 
d="M130 825h185l92 521l-210 -52l27 160l219 49h198l-120 -678h186l-28 -157h-577zM1497 168h339l-30 -168h-608l28 153l329 266c48 38.667 83.667 74.5 107 107.5s35 63.5 35 91.5c0 26.667 -9.66699 47.667 -29 63s-46.333 23 -81 23c-41.333 0 -84 -7.66699 -128 -23
s-87.333 -37.666 -130 -66.999l33 186c49.333 17.333 96.333 30.333 141 39s88 13 130 13c89.333 0 157.833 -18.167 205.5 -54.5s71.5 -87.833 71.5 -154.5c0 -52.667 -16.167 -103.834 -48.5 -153.501s-84.5 -102.5 -156.5 -158.5zM534 -29h-220l1111 1549h221z" />
    <glyph glyph-name="threequarters" unicode="&#xbe;" horiz-adv-x="1908" 
d="M612 1120c45.333 -8.66699 79.666 -28.502 102.999 -59.502s35 -71.833 35 -122.5c0 -91.333 -35.167 -161.666 -105.5 -210.999s-170.166 -74 -299.499 -74c-48 0 -93.667 4 -137 12s-83.666 19.667 -120.999 35l30 172c34.667 -24 69.834 -42.167 105.501 -54.5
s71.5 -18.5 107.5 -18.5c65.333 0 116.5 12.667 153.5 38s55.5 60.333 55.5 105c0 36 -15 62.5 -45 79.5s-76 25.5 -138 25.5h-69l25 137h77c64 0 112.833 9.66699 146.5 29s50.5 47 50.5 83c0 25.333 -11.333 44.333 -34 57s-56.334 19 -101.001 19
c-32 0 -67.167 -4.33301 -105.5 -13s-80.5 -22 -126.5 -40l28 166c43.333 11.333 87.166 20 131.499 26s88.5 9 132.5 9c92.667 0 164 -16.667 214 -50s75 -81 75 -143c0 -54 -17 -99.667 -51 -137s-79.667 -60.666 -137 -69.999zM534 -29.002h-220l1111 1549h221z
M1472 639.998l-271 -323h215zM1490 834.998h223l-90 -518h123l-27 -155h-123l-29 -162h-207l29 162h-352l29 168z" />
    <glyph glyph-name="questiondown" unicode="&#xbf;" horiz-adv-x="1069" 
d="M487 989l323.999 0.000976562l-9 -51c-9.33301 -53.333 -26.833 -100.5 -52.5 -141.5s-77.834 -95.5 -156.501 -163.5l-67 -60c-48 -40.667 -82.5 -78.334 -103.5 -113.001s-31.5 -70 -31.5 -106c0 -38 12 -67.167 36 -87.5s58.667 -30.5 104 -30.5
c48 0 102.5 11.333 163.5 34s125.5 55.667 193.5 99l-55 -314c-76 -28 -145.667 -48.667 -209 -62s-123.666 -20 -180.999 -20c-117.333 0 -209.166 28.5 -275.499 85.5s-99.5 135.167 -99.5 234.5c0 79.333 16 150.333 48 213s86 128 162 196l68 60
c50 43.333 83.5 77.5 100.5 102.5s27.833 51.5 32.5 79.5zM836.999 1137h-325l63 356h324z" />
    <glyph glyph-name="Agrave" unicode="&#xc0;" horiz-adv-x="1426" 
d="M905 272h-536l-133 -272h-356l760 1493h396l238 -1493h-330zM500 543h360l-81 575zM846 1899l129 -264h-160l-207 264h238z" />
    <glyph glyph-name="Aacute" unicode="&#xc1;" horiz-adv-x="1426" 
d="M905 272h-536l-133 -272h-356l760 1493h396l238 -1493h-330zM500 543h360l-81 575zM931 1899h252l-287 -264h-186z" />
    <glyph glyph-name="Acircumflex" unicode="&#xc2;" horiz-adv-x="1426" 
d="M905 272h-536l-133 -272h-356l760 1493h396l238 -1493h-330zM500 543h360l-81 575zM719 1899h313l137 -264h-153l-148 161l-208 -161h-161z" />
    <glyph glyph-name="Atilde" unicode="&#xc3;" horiz-adv-x="1426" 
d="M905 272h-536l-133 -272h-356l760 1493h396l238 -1493h-330zM500 543h360l-81 575zM848 1686l-44.998 37.001c-14 12.667 -26 21.167 -36 25.5s-20.333 6.5 -31 6.5c-21.333 0 -39.833 -10.667 -55.5 -32s-26.834 -50.666 -33.501 -87.999h-123
c15.333 85.333 42.666 151 81.999 197s87.333 69 144 69c22.667 0 43.667 -4 63 -12s39.666 -21 60.999 -39l47 -41c10 -8.66699 20.333 -15.334 31 -20.001s21 -7 31 -7c23.333 0 42.833 10.167 58.5 30.5s26.5 49.833 32.5 88.5h125c-16 -85.333 -43.667 -151 -83 -197
s-86.666 -69 -141.999 -69c-23.333 0 -44.5 3.66699 -63.5 11s-39.833 20.666 -62.5 39.999z" />
    <glyph glyph-name="Adieresis" unicode="&#xc4;" horiz-adv-x="1426" 
d="M905 272h-536l-133 -272h-356l760 1493h396l238 -1493h-330zM500 543h360l-81 575zM603 1899h212l-42 -246h-212zM958 1899h215l-45 -246h-212z" />
    <glyph glyph-name="Aring" unicode="&#xc5;" horiz-adv-x="1426" 
d="M716 1616c0 -36 11.5 -66.833 34.5 -92.5s50.5 -38.5 82.5 -38.5c32.667 0 60.5 12.833 83.5 38.5s34.5 56.5 34.5 92.5s-11.667 66.833 -35 92.5s-51 38.5 -83 38.5s-59.5 -12.833 -82.5 -38.5s-34.5 -56.5 -34.5 -92.5zM1040 1456l234 -1456h-330l-39 272h-536
l-133 -272h-356l743 1458c-16 24.667 -27.667 49.834 -35 75.501s-11 53.167 -11 82.5c0 78 25 145 75 201s110.333 84 181 84s131 -28 181 -84s75 -123 75 -201c0 -32 -3.83301 -60.833 -11.5 -86.5s-20.167 -50.167 -37.5 -73.5zM500 542.999h360l-81 575z" />
    <glyph glyph-name="AE" unicode="&#xc6;" horiz-adv-x="1999" 
d="M886 1237l-337 -610h339l107 610h-109zM697 1493h1279l-52 -291h-588l-47 -278h552l-51 -291h-553l-59 -342h606l-50 -291h-955l62 350h-443l-196 -350h-346z" />
    <glyph glyph-name="Ccedilla" unicode="&#xc7;" horiz-adv-x="1352" 
d="M1117 70c-82.667 -32.667 -162.166 -57.335 -238.499 -74.002s-148.5 -25 -216.5 -25c-180.667 0 -325 55 -433 165s-162 255.667 -162 437c0 119.333 17 231.833 51 337.5s84.333 202.167 151 289.5c78.667 102.667 173.334 181.667 284.001 237s230 83 358 83
c69.333 0 139.166 -9.16699 209.499 -27.5s141.833 -46.166 214.5 -83.499l-56 -309c-58 48.667 -116 84.334 -174 107.001s-120.333 34 -187 34c-138.667 0 -254.834 -59.333 -348.501 -178s-140.5 -267 -140.5 -445c0 -114.667 28.833 -204.667 86.5 -270
s137.167 -98 238.5 -98c60.667 0 125 12.167 193 36.5s144.333 62.5 229 114.5zM778.001 -0.000976562c22 -34.667 38.166 -66.668 48.499 -96.001s15.5 -58 15.5 -86c0 -69.333 -22.667 -123.166 -68 -161.499s-109 -57.5 -191 -57.5
c-29.333 0 -58.666 2.16699 -87.999 6.5s-59.333 10.833 -90 19.5l27 156c24 -11.333 48.167 -20 72.5 -26s47.833 -9 70.5 -9c39.333 0 70.5 9.5 93.5 28.5s34.5 44.167 34.5 75.5c0 17.333 -4.16699 37.5 -12.5 60.5s-21.833 52.833 -40.5 89.5h128z" />
    <glyph glyph-name="Egrave" unicode="&#xc8;" horiz-adv-x="1259" 
d="M301 1493h934l-51 -291h-588l-49 -278h554l-53 -291h-552l-60 -342h607l-49 -291h-955zM809 1899l129 -264h-160l-207 264h238z" />
    <glyph glyph-name="Eacute" unicode="&#xc9;" horiz-adv-x="1259" 
d="M301 1493h934l-51 -291h-588l-49 -278h554l-53 -291h-552l-60 -342h607l-49 -291h-955zM894 1899h252l-287 -264h-186z" />
    <glyph glyph-name="Ecircumflex" unicode="&#xca;" horiz-adv-x="1259" 
d="M301 1493h934l-51 -291h-588l-49 -278h554l-53 -291h-552l-60 -342h607l-49 -291h-955zM682 1899h313l137 -264h-153l-148 161l-208 -161h-161z" />
    <glyph glyph-name="Edieresis" unicode="&#xcb;" horiz-adv-x="1259" 
d="M301 1493h934l-51 -291h-588l-49 -278h554l-53 -291h-552l-60 -342h607l-49 -291h-955zM566 1899h212l-42 -246h-212zM921 1899h215l-45 -246h-212z" />
    <glyph glyph-name="Igrave" unicode="&#xcc;" horiz-adv-x="685" 
d="M301 1493h346l-262 -1493h-346zM488 1899l129 -264h-160l-207 264h238z" />
    <glyph glyph-name="Iacute" unicode="&#xcd;" horiz-adv-x="685" 
d="M301 1493h346l-262 -1493h-346zM573 1899h252l-287 -264h-186z" />
    <glyph glyph-name="Icircumflex" unicode="&#xce;" horiz-adv-x="685" 
d="M301 1493h346l-262 -1493h-346zM361 1899h313l137 -264h-153l-148 161l-208 -161h-161z" />
    <glyph glyph-name="Idieresis" unicode="&#xcf;" horiz-adv-x="685" 
d="M301 1493h346l-262 -1493h-346zM245 1899h212l-42 -246h-212zM600 1899h215l-45 -246h-212z" />
    <glyph glyph-name="Eth" unicode="&#xd0;" horiz-adv-x="1557" 
d="M626 1202l-51 -299h221l-45 -260h-222l-63 -352h124c162 0 290.333 50.5 385 151.5s142 236.833 142 407.5c0 116 -31 203.667 -93 263s-154 89 -276 89h-122zM330 1493l365.002 0.000976562c174 0 304.5 -11.5 391.5 -34.5s159.167 -61.5 216.5 -115.5
c58 -54 102 -119.667 132 -197s45 -164.333 45 -261c0 -134 -25.333 -261 -76 -381s-121.334 -221 -212.001 -303c-78.667 -72.667 -170.334 -124.334 -275.001 -155.001s-266 -46 -484 -46h-365l113 643h-185l46 260h185z" />
    <glyph glyph-name="Ntilde" unicode="&#xd1;" horiz-adv-x="1542" 
d="M301 1493h387l307 -1034l181 1034h328l-262 -1493h-387l-308 1034l-180 -1034h-328zM892 1686l-44.998 37.001c-14 12.667 -26 21.167 -36 25.5s-20.333 6.5 -31 6.5c-21.333 0 -39.833 -10.667 -55.5 -32s-26.834 -50.666 -33.501 -87.999h-123
c15.333 85.333 42.666 151 81.999 197s87.333 69 144 69c22.667 0 43.667 -4 63 -12s39.666 -21 60.999 -39l47 -41c10 -8.66699 20.333 -15.334 31 -20.001s21 -7 31 -7c23.333 0 42.833 10.167 58.5 30.5s26.5 49.833 32.5 88.5h125c-16 -85.333 -43.667 -151 -83 -197
s-86.666 -69 -141.999 -69c-23.333 0 -44.5 3.66699 -63.5 11s-39.833 20.666 -62.5 39.999z" />
    <glyph glyph-name="Ograve" unicode="&#xd2;" horiz-adv-x="1566" 
d="M1134 881c0 117.333 -23.832 206.668 -71.499 268.001s-116.834 92 -207.501 92c-120 0 -220.667 -59.833 -302 -179.5s-122 -269.5 -122 -449.5c0 -114.667 23.667 -203.667 71 -267s113.333 -95 198 -95c69.333 0 130.833 16.167 184.5 48.5s99.5 80.166 137.5 143.499
c36 60.667 63.667 129 83 205s29 154 29 234zM905.001 1520c179.333 0 323.331 -55.167 431.998 -165.5s163 -254.5 163 -432.5c0 -121.333 -16.667 -236 -50 -344s-81.666 -205 -144.999 -291c-78 -106 -170.333 -185.167 -277 -237.5s-229.334 -78.5 -368.001 -78.5
c-178.667 0 -322.167 55 -430.5 165s-162.5 254.333 -162.5 433c0 122 16.5 237 49.5 345s81.5 205.333 145.5 292c76.667 105.333 168.334 184 275.001 236s229.334 78 368.001 78zM953.999 1899l129 -264h-160l-207 264h238z" />
    <glyph glyph-name="Oacute" unicode="&#xd3;" horiz-adv-x="1566" 
d="M1134 881c0 117.333 -23.832 206.668 -71.499 268.001s-116.834 92 -207.501 92c-120 0 -220.667 -59.833 -302 -179.5s-122 -269.5 -122 -449.5c0 -114.667 23.667 -203.667 71 -267s113.333 -95 198 -95c69.333 0 130.833 16.167 184.5 48.5s99.5 80.166 137.5 143.499
c36 60.667 63.667 129 83 205s29 154 29 234zM905.001 1520c179.333 0 323.331 -55.167 431.998 -165.5s163 -254.5 163 -432.5c0 -121.333 -16.667 -236 -50 -344s-81.666 -205 -144.999 -291c-78 -106 -170.333 -185.167 -277 -237.5s-229.334 -78.5 -368.001 -78.5
c-178.667 0 -322.167 55 -430.5 165s-162.5 254.333 -162.5 433c0 122 16.5 237 49.5 345s81.5 205.333 145.5 292c76.667 105.333 168.334 184 275.001 236s229.334 78 368.001 78zM1039 1899h252l-287 -264h-186z" />
    <glyph glyph-name="Ocircumflex" unicode="&#xd4;" horiz-adv-x="1566" 
d="M1134 881c0 117.333 -23.832 206.668 -71.499 268.001s-116.834 92 -207.501 92c-120 0 -220.667 -59.833 -302 -179.5s-122 -269.5 -122 -449.5c0 -114.667 23.667 -203.667 71 -267s113.333 -95 198 -95c69.333 0 130.833 16.167 184.5 48.5s99.5 80.166 137.5 143.499
c36 60.667 63.667 129 83 205s29 154 29 234zM905.001 1520c179.333 0 323.331 -55.167 431.998 -165.5s163 -254.5 163 -432.5c0 -121.333 -16.667 -236 -50 -344s-81.666 -205 -144.999 -291c-78 -106 -170.333 -185.167 -277 -237.5s-229.334 -78.5 -368.001 -78.5
c-178.667 0 -322.167 55 -430.5 165s-162.5 254.333 -162.5 433c0 122 16.5 237 49.5 345s81.5 205.333 145.5 292c76.667 105.333 168.334 184 275.001 236s229.334 78 368.001 78zM826.999 1899h313l137 -264h-153l-148 161l-208 -161h-161z" />
    <glyph glyph-name="Otilde" unicode="&#xd5;" horiz-adv-x="1566" 
d="M1134 881c0 117.333 -23.832 206.668 -71.499 268.001s-116.834 92 -207.501 92c-120 0 -220.667 -59.833 -302 -179.5s-122 -269.5 -122 -449.5c0 -114.667 23.667 -203.667 71 -267s113.333 -95 198 -95c69.333 0 130.833 16.167 184.5 48.5s99.5 80.166 137.5 143.499
c36 60.667 63.667 129 83 205s29 154 29 234zM905.001 1520c179.333 0 323.331 -55.167 431.998 -165.5s163 -254.5 163 -432.5c0 -121.333 -16.667 -236 -50 -344s-81.666 -205 -144.999 -291c-78 -106 -170.333 -185.167 -277 -237.5s-229.334 -78.5 -368.001 -78.5
c-178.667 0 -322.167 55 -430.5 165s-162.5 254.333 -162.5 433c0 122 16.5 237 49.5 345s81.5 205.333 145.5 292c76.667 105.333 168.334 184 275.001 236s229.334 78 368.001 78zM955.999 1686l-44.998 37.001c-14 12.667 -26 21.167 -36 25.5s-20.333 6.5 -31 6.5
c-21.333 0 -39.833 -10.667 -55.5 -32s-26.834 -50.666 -33.501 -87.999h-123c15.333 85.333 42.666 151 81.999 197s87.333 69 144 69c22.667 0 43.667 -4 63 -12s39.666 -21 60.999 -39l47 -41c10 -8.66699 20.333 -15.334 31 -20.001s21 -7 31 -7
c23.333 0 42.833 10.167 58.5 30.5s26.5 49.833 32.5 88.5h125c-16 -85.333 -43.667 -151 -83 -197s-86.666 -69 -141.999 -69c-23.333 0 -44.5 3.66699 -63.5 11s-39.833 20.666 -62.5 39.999z" />
    <glyph glyph-name="Odieresis" unicode="&#xd6;" horiz-adv-x="1566" 
d="M1134 881c0 117.333 -23.832 206.668 -71.499 268.001s-116.834 92 -207.501 92c-120 0 -220.667 -59.833 -302 -179.5s-122 -269.5 -122 -449.5c0 -114.667 23.667 -203.667 71 -267s113.333 -95 198 -95c69.333 0 130.833 16.167 184.5 48.5s99.5 80.166 137.5 143.499
c36 60.667 63.667 129 83 205s29 154 29 234zM905.001 1520c179.333 0 323.331 -55.167 431.998 -165.5s163 -254.5 163 -432.5c0 -121.333 -16.667 -236 -50 -344s-81.666 -205 -144.999 -291c-78 -106 -170.333 -185.167 -277 -237.5s-229.334 -78.5 -368.001 -78.5
c-178.667 0 -322.167 55 -430.5 165s-162.5 254.333 -162.5 433c0 122 16.5 237 49.5 345s81.5 205.333 145.5 292c76.667 105.333 168.334 184 275.001 236s229.334 78 368.001 78zM710.999 1899h212l-42 -246h-212zM1066 1899h215l-45 -246h-212z" />
    <glyph glyph-name="multiply" unicode="&#xd7;" 
d="M1314 1075l-391 -434l391 -432l-151 -168l-391 432l-390 -432l-152 168l391 432l-391 434l152 168l390 -434l391 434z" />
    <glyph glyph-name="Oslash" unicode="&#xd8;" horiz-adv-x="1566" 
d="M1076 1128c-24 38 -54.168 66.334 -90.501 85.001s-79.166 28 -128.499 28c-121.333 0 -222.333 -59.5 -303 -178.5s-121 -269.167 -121 -450.5c0 -14.667 1 -39.334 3 -74.001v-6zM141.999 258.001c-25.333 49.333 -44.165 100.168 -56.498 152.501
s-18.5 105.166 -18.5 158.499c0 122 16.5 237 49.5 345s81.5 205.333 145.5 292c77.333 106 169 184.833 275 236.5s228.667 77.5 368 77.5c89.333 0 168.833 -13 238.5 -39s131.167 -65 184.5 -117l232 215l92 -123l-233 -213c27.333 -50.667 47.666 -103 60.999 -157
s20 -109.333 20 -166c0 -121.333 -16.667 -236 -50 -344s-81.666 -205 -144.999 -291c-78 -105.333 -170.333 -184 -277 -236s-229.334 -78 -368.001 -78c-88.667 0 -168.334 13.667 -239.001 41s-133.667 68.333 -189 123l-227 -213l-91 123zM485 371.003
c23.333 -39.333 53.333 -69.3301 90 -89.9971s78.334 -31 125.001 -31c69.333 0 130.833 16.167 184.5 48.5s99.5 80.166 137.5 143.499c36 61.333 64 130.166 84 206.499s30 153.166 30 230.499c0 16.667 -2 42.667 -6 78c-0.666992 5.33301 -1.33398 9.33301 -2.00098 12z
" />
    <glyph glyph-name="Ugrave" unicode="&#xd9;" horiz-adv-x="1496" 
d="M301 1493h345.999l-157 -894c-5.33301 -32 -9.5 -60.333 -12.5 -85s-4.5 -46.334 -4.5 -65.001c0 -65.333 15.833 -114.166 47.5 -146.499s78.834 -48.5 141.501 -48.5c84 0 148.333 26.167 193 78.5s78 140.833 100 265.5l157 895h346l-157 -895
c-38.667 -220 -112.5 -379.5 -221.5 -478.5s-264.833 -148.5 -467.5 -148.5c-158.667 0 -279.5 37.833 -362.5 113.5s-124.5 185.5 -124.5 329.5c0 24 1.5 50.833 4.5 80.5s7.83301 64.167 14.5 103.5zM882.999 1899l129 -264h-160l-207 264h238z" />
    <glyph glyph-name="Uacute" unicode="&#xda;" horiz-adv-x="1496" 
d="M301 1493h345.999l-157 -894c-5.33301 -32 -9.5 -60.333 -12.5 -85s-4.5 -46.334 -4.5 -65.001c0 -65.333 15.833 -114.166 47.5 -146.499s78.834 -48.5 141.501 -48.5c84 0 148.333 26.167 193 78.5s78 140.833 100 265.5l157 895h346l-157 -895
c-38.667 -220 -112.5 -379.5 -221.5 -478.5s-264.833 -148.5 -467.5 -148.5c-158.667 0 -279.5 37.833 -362.5 113.5s-124.5 185.5 -124.5 329.5c0 24 1.5 50.833 4.5 80.5s7.83301 64.167 14.5 103.5zM967.999 1899h252l-287 -264h-186z" />
    <glyph glyph-name="Ucircumflex" unicode="&#xdb;" horiz-adv-x="1496" 
d="M301 1493h345.999l-157 -894c-5.33301 -32 -9.5 -60.333 -12.5 -85s-4.5 -46.334 -4.5 -65.001c0 -65.333 15.833 -114.166 47.5 -146.499s78.834 -48.5 141.501 -48.5c84 0 148.333 26.167 193 78.5s78 140.833 100 265.5l157 895h346l-157 -895
c-38.667 -220 -112.5 -379.5 -221.5 -478.5s-264.833 -148.5 -467.5 -148.5c-158.667 0 -279.5 37.833 -362.5 113.5s-124.5 185.5 -124.5 329.5c0 24 1.5 50.833 4.5 80.5s7.83301 64.167 14.5 103.5zM755.999 1899h313l137 -264h-153l-148 161l-208 -161h-161z" />
    <glyph glyph-name="Udieresis" unicode="&#xdc;" horiz-adv-x="1496" 
d="M301 1493h345.999l-157 -894c-5.33301 -32 -9.5 -60.333 -12.5 -85s-4.5 -46.334 -4.5 -65.001c0 -65.333 15.833 -114.166 47.5 -146.499s78.834 -48.5 141.501 -48.5c84 0 148.333 26.167 193 78.5s78 140.833 100 265.5l157 895h346l-157 -895
c-38.667 -220 -112.5 -379.5 -221.5 -478.5s-264.833 -148.5 -467.5 -148.5c-158.667 0 -279.5 37.833 -362.5 113.5s-124.5 185.5 -124.5 329.5c0 24 1.5 50.833 4.5 80.5s7.83301 64.167 14.5 103.5zM639.999 1899h212l-42 -246h-212zM994.999 1899h215l-45 -246h-212z
" />
    <glyph glyph-name="Yacute" unicode="&#xdd;" horiz-adv-x="1334" 
d="M116 1493h347l228 -553l400 553h400l-663 -870l-109 -623h-346l109 623zM898 1899h252l-287 -264h-186z" />
    <glyph glyph-name="Thorn" unicode="&#xde;" horiz-adv-x="1368" 
d="M301 1493l346 0.000976562l-39 -223h222c140.667 0 251 -35.833 331 -107.5s120 -171.167 120 -298.5c0 -78 -13.167 -151.833 -39.5 -221.5s-64.166 -130.834 -113.499 -183.501c-53.333 -57.333 -117.333 -99 -192 -125s-167.334 -39 -278.001 -39h-222l-51 -295h-346z
M559 993.001l-72 -420h183c82 0 144.667 21.667 188 65s65 105.666 65 186.999c0 54.667 -15.167 96.334 -45.5 125.001s-74.833 43 -133.5 43h-185z" />
    <glyph glyph-name="germandbls" unicode="&#xdf;" horiz-adv-x="1325" 
d="M251 1114c25.333 149.333 84.3359 260.332 177.003 332.999s221 109 385 109c135.333 0 238.333 -29.333 309 -88s106 -144.667 106 -258c0 -13.333 -0.833008 -28 -2.5 -44s-3.83398 -33 -6.50098 -51l-14 -73c-90.667 -3.33301 -162.667 -20.5 -216 -51.5
s-80 -70.5 -80 -118.5c0 -36.667 30.667 -79 92 -127l13 -10l55 -43c50.667 -39.333 87.667 -82.166 111 -128.499s35 -99.833 35 -160.5c0 -128.667 -41.667 -232.834 -125 -312.501s-193.333 -119.5 -330 -119.5c-47.333 0 -93.5 4.16699 -138.5 12.5
s-89.833 20.5 -134.5 36.5l44 244c33.333 -18 66.666 -31.667 99.999 -41s65.666 -14 96.999 -14c49.333 0 89 12.667 119 38s45 58.333 45 99c0 26.667 -7 50.834 -21 72.501s-44 50.834 -90 87.501l-55 43c-40 31.333 -69 63.833 -87 97.5s-27 71.5 -27 113.5
c0 92 27.5 171 82.5 237s134.167 115.333 237.5 148c0.666992 4 1.16699 8.66699 1.5 14s0.5 13 0.5 23c0 44.667 -12.333 78.667 -37 102s-60.667 35 -108 35c-60.667 0 -108.667 -17.833 -144 -53.5s-59.333 -90.834 -72 -165.501l-193 -1100h-323z" />
    <glyph glyph-name="agrave" unicode="&#xe0;" horiz-adv-x="1243" 
d="M607 504c-80.667 0 -141.501 -13.833 -182.501 -41.5s-61.5 -68.5 -61.5 -122.5c0 -40.667 12.167 -72.667 36.5 -96s57.833 -35 100.5 -35c65.333 0 120.333 22.167 165 66.5s74.334 106.833 89.001 187.5l7 41h-154zM1110 639l-112.999 -639.001h-322l27 166
c-52.667 -66.667 -108.5 -115.834 -167.5 -147.501s-122.833 -47.5 -191.5 -47.5c-95.333 0 -171 27.5 -227 82.5s-84 129.167 -84 222.5c0 142.667 49.5 251.834 148.5 327.501s242.167 113.5 429.5 113.5h190l4 28c1.33301 9.33301 2.16602 16 2.49902 20
s0.5 7.66699 0.5 11c0 44 -18.667 77.167 -56 99.5s-93 33.5 -167 33.5c-66.667 0 -131.167 -7.66699 -193.5 -23s-122.5 -38.333 -180.5 -69l48 273c67.333 18.667 136.333 32.834 207 42.501s143.667 14.5 219 14.5c149.333 0 260.333 -28.5 333 -85.5
s109 -143.833 109 -260.5c0 -22.667 -1.33301 -47.5 -4 -74.5s-6.66699 -56.167 -12 -87.5zM658 1638l188 -376h-177l-266 376h255z" />
    <glyph glyph-name="aacute" unicode="&#xe1;" horiz-adv-x="1243" 
d="M607 504c-80.667 0 -141.501 -13.833 -182.501 -41.5s-61.5 -68.5 -61.5 -122.5c0 -40.667 12.167 -72.667 36.5 -96s57.833 -35 100.5 -35c65.333 0 120.333 22.167 165 66.5s74.334 106.833 89.001 187.5l7 41h-154zM1110 639l-112.999 -639.001h-322l27 166
c-52.667 -66.667 -108.5 -115.834 -167.5 -147.501s-122.833 -47.5 -191.5 -47.5c-95.333 0 -171 27.5 -227 82.5s-84 129.167 -84 222.5c0 142.667 49.5 251.834 148.5 327.501s242.167 113.5 429.5 113.5h190l4 28c1.33301 9.33301 2.16602 16 2.49902 20
s0.5 7.66699 0.5 11c0 44 -18.667 77.167 -56 99.5s-93 33.5 -167 33.5c-66.667 0 -131.167 -7.66699 -193.5 -23s-122.5 -38.333 -180.5 -69l48 273c67.333 18.667 136.333 32.834 207 42.501s143.667 14.5 219 14.5c149.333 0 260.333 -28.5 333 -85.5
s109 -143.833 109 -260.5c0 -22.667 -1.33301 -47.5 -4 -74.5s-6.66699 -56.167 -12 -87.5zM892 1638h264l-395 -376h-181z" />
    <glyph glyph-name="acircumflex" unicode="&#xe2;" horiz-adv-x="1243" 
d="M607 504c-80.667 0 -141.501 -13.833 -182.501 -41.5s-61.5 -68.5 -61.5 -122.5c0 -40.667 12.167 -72.667 36.5 -96s57.833 -35 100.5 -35c65.333 0 120.333 22.167 165 66.5s74.334 106.833 89.001 187.5l7 41h-154zM1110 639l-112.999 -639.001h-322l27 166
c-52.667 -66.667 -108.5 -115.834 -167.5 -147.501s-122.833 -47.5 -191.5 -47.5c-95.333 0 -171 27.5 -227 82.5s-84 129.167 -84 222.5c0 142.667 49.5 251.834 148.5 327.501s242.167 113.5 429.5 113.5h190l4 28c1.33301 9.33301 2.16602 16 2.49902 20
s0.5 7.66699 0.5 11c0 44 -18.667 77.167 -56 99.5s-93 33.5 -167 33.5c-66.667 0 -131.167 -7.66699 -193.5 -23s-122.5 -38.333 -180.5 -69l48 273c67.333 18.667 136.333 32.834 207 42.501s143.667 14.5 219 14.5c149.333 0 260.333 -28.5 333 -85.5
s109 -143.833 109 -260.5c0 -22.667 -1.33301 -47.5 -4 -74.5s-6.66699 -56.167 -12 -87.5zM652 1638h236l164 -376h-160l-140 225l-217 -225h-178z" />
    <glyph glyph-name="atilde" unicode="&#xe3;" horiz-adv-x="1243" 
d="M607 504c-80.667 0 -141.501 -13.833 -182.501 -41.5s-61.5 -68.5 -61.5 -122.5c0 -40.667 12.167 -72.667 36.5 -96s57.833 -35 100.5 -35c65.333 0 120.333 22.167 165 66.5s74.334 106.833 89.001 187.5l7 41h-154zM1110 639l-112.999 -639.001h-322l27 166
c-52.667 -66.667 -108.5 -115.834 -167.5 -147.501s-122.833 -47.5 -191.5 -47.5c-95.333 0 -171 27.5 -227 82.5s-84 129.167 -84 222.5c0 142.667 49.5 251.834 148.5 327.501s242.167 113.5 429.5 113.5h190l4 28c1.33301 9.33301 2.16602 16 2.49902 20
s0.5 7.66699 0.5 11c0 44 -18.667 77.167 -56 99.5s-93 33.5 -167 33.5c-66.667 0 -131.167 -7.66699 -193.5 -23s-122.5 -38.333 -180.5 -69l48 273c67.333 18.667 136.333 32.834 207 42.501s143.667 14.5 219 14.5c149.333 0 260.333 -28.5 333 -85.5
s109 -143.833 109 -260.5c0 -22.667 -1.33301 -47.5 -4 -74.5s-6.66699 -56.167 -12 -87.5zM734 1364l-45.001 37.001c-1.33301 1.33301 -4.33301 3.66602 -9 6.99902c-22.667 20 -43 30 -61 30c-20 0 -37.833 -11.5 -53.5 -34.5s-26.5 -54.5 -32.5 -94.5h-126
c16 91.333 43.667 161.5 83 210.5s87.333 73.5 144 73.5c21.333 0 42 -4.5 62 -13.5s41.333 -23.5 64 -43.5l47 -43c11.333 -10 22 -17.667 32 -23s19.667 -8 29 -8c22.667 0 41.834 11.167 57.501 33.5s26.5 54.166 32.5 95.499h126c-16 -90.667 -43.5 -160.667 -82.5 -210
s-86.5 -74 -142.5 -74c-20.667 0 -40 3.83301 -58 11.5s-40.333 22.834 -67 45.501z" />
    <glyph glyph-name="adieresis" unicode="&#xe4;" horiz-adv-x="1243" 
d="M607 504c-80.667 0 -141.501 -13.833 -182.501 -41.5s-61.5 -68.5 -61.5 -122.5c0 -40.667 12.167 -72.667 36.5 -96s57.833 -35 100.5 -35c65.333 0 120.333 22.167 165 66.5s74.334 106.833 89.001 187.5l7 41h-154zM1110 639l-112.999 -639.001h-322l27 166
c-52.667 -66.667 -108.5 -115.834 -167.5 -147.501s-122.833 -47.5 -191.5 -47.5c-95.333 0 -171 27.5 -227 82.5s-84 129.167 -84 222.5c0 142.667 49.5 251.834 148.5 327.501s242.167 113.5 429.5 113.5h190l4 28c1.33301 9.33301 2.16602 16 2.49902 20
s0.5 7.66699 0.5 11c0 44 -18.667 77.167 -56 99.5s-93 33.5 -167 33.5c-66.667 0 -131.167 -7.66699 -193.5 -23s-122.5 -38.333 -180.5 -69l48 273c67.333 18.667 136.333 32.834 207 42.501s143.667 14.5 219 14.5c149.333 0 260.333 -28.5 333 -85.5
s109 -143.833 109 -260.5c0 -22.667 -1.33301 -47.5 -4 -74.5s-6.66699 -56.167 -12 -87.5zM484 1585h214l-44 -246h-212zM842 1585h212l-44 -246h-212z" />
    <glyph glyph-name="aring" unicode="&#xe5;" horiz-adv-x="1243" 
d="M607 504c-80.667 0 -141.501 -13.833 -182.501 -41.5s-61.5 -68.5 -61.5 -122.5c0 -40.667 12.167 -72.667 36.5 -96s57.833 -35 100.5 -35c65.333 0 120.333 22.167 165 66.5s74.334 106.833 89.001 187.5l7 41h-154zM1110 639l-112.999 -639.001h-322l27 166
c-52.667 -66.667 -108.5 -115.834 -167.5 -147.501s-122.833 -47.5 -191.5 -47.5c-95.333 0 -171 27.5 -227 82.5s-84 129.167 -84 222.5c0 142.667 49.5 251.834 148.5 327.501s242.167 113.5 429.5 113.5h190l4 28c1.33301 9.33301 2.16602 16 2.49902 20
s0.5 7.66699 0.5 11c0 44 -18.667 77.167 -56 99.5s-93 33.5 -167 33.5c-66.667 0 -131.167 -7.66699 -193.5 -23s-122.5 -38.333 -180.5 -69l48 273c67.333 18.667 136.333 32.834 207 42.501s143.667 14.5 219 14.5c149.333 0 260.333 -28.5 333 -85.5
s109 -143.833 109 -260.5c0 -22.667 -1.33301 -47.5 -4 -74.5s-6.66699 -56.167 -12 -87.5zM1013 1524c0 -80 -24.667 -147.5 -74 -202.5s-109.666 -82.5 -180.999 -82.5c-72 0 -132.833 27.5 -182.5 82.5s-74.5 122.5 -74.5 202.5s24.833 147.333 74.5 202
s110.5 82 182.5 82c71.333 0 131.666 -27.333 180.999 -82s74 -122 74 -202zM892 1524c0 43.333 -12.666 78.999 -37.999 106.999s-57.333 42 -96 42c-40 0 -72.5 -14 -97.5 -42s-37.5 -63.667 -37.5 -107s12.667 -79.166 38 -107.499s57.666 -42.5 96.999 -42.5
c38.667 0 70.667 14 96 42s38 64 38 108z" />
    <glyph glyph-name="ae" unicode="&#xe6;" horiz-adv-x="1931" 
d="M607 504c-80.667 0 -141.501 -13.833 -182.501 -41.5s-61.5 -68.5 -61.5 -122.5c0 -40.667 12.167 -72.667 36.5 -96s57.833 -35 100.5 -35c65.333 0 120.333 22.167 165 66.5s74.334 106.833 89.001 187.5l7 41h-154zM261.999 1090c70 18.667 138.5 32.835 205.5 42.502
s131.833 14.5 194.5 14.5c89.333 0 163.333 -12.167 222 -36.5s105 -62.166 139 -113.499c57.333 51.333 117.833 89.166 181.5 113.499s134.834 36.5 213.501 36.5c133.333 0 240 -40.667 320 -122s120 -189 120 -323c0 -30 -1.5 -60.333 -4.5 -91s-7.5 -61.667 -13.5 -93
l-13 -57h-752c0 -4 -0.333008 -9.83301 -1 -17.5s-1 -13.5 -1 -17.5c0 -72.667 19.667 -127 59 -163s98.333 -54 177 -54c66.667 0 137.5 11.167 212.5 33.5s154.167 56.166 237.5 101.499l-48 -278c-78.667 -32 -157.167 -55.833 -235.5 -71.5s-157.833 -23.5 -238.5 -23.5
c-104 0 -191.5 17.167 -262.5 51.5s-126.167 86.166 -165.5 155.499c-70 -70 -142 -122 -216 -156s-152.667 -51 -236 -51c-102 0 -181.667 27 -239 81s-86 128 -86 222c0 144 49.5 253.833 148.5 329.5s243.5 113.5 433.5 113.5h184l6 29
c1.33301 8.66699 2.16602 15 2.49902 19s0.5 7.66699 0.5 11c0 44 -18.5 77.167 -55.5 99.5s-91.5 33.5 -163.5 33.5c-68.667 0 -134 -7.66699 -196 -23s-121.333 -38.333 -178 -69zM1535 682.001c2 8.66699 3.5 17.501 4.5 26.501s1.5 17.833 1.5 26.5
c0 53.333 -14.5 95.666 -43.5 126.999s-67.833 47 -116.5 47c-63.333 0 -117.333 -19.333 -162 -58s-78 -95 -100 -169h416z" />
    <glyph glyph-name="ccedilla" unicode="&#xe7;" horiz-adv-x="1092" 
d="M1071 1085l-51.002 -292.001c-43.333 32 -86 56.333 -128 73s-83 25 -123 25c-105.333 0 -191.333 -39.167 -258 -117.5s-100 -178.5 -100 -300.5c0 -78 20.833 -138.5 62.5 -181.5s100.167 -64.5 175.5 -64.5c50 0 99.333 8.33301 148 25s95 41.334 139 74.001l-50 -293
c-53.333 -20.667 -107 -36.167 -161 -46.5s-108.333 -15.5 -163 -15.5c-158 0 -279.833 39.5 -365.5 118.5s-128.5 191.167 -128.5 336.5c0 91.333 15.833 180 47.5 266s76.834 163.333 135.501 232c65.333 75.333 140.333 131.333 225 168s182.334 55 293.001 55
c50.667 0 101.167 -5.16699 151.5 -15.5s100.5 -25.833 150.5 -46.5zM620.998 -0.000976562c22 -34.667 38.166 -66.668 48.499 -96.001s15.5 -58 15.5 -86c0 -69.333 -22.667 -123.166 -68 -161.499s-109 -57.5 -191 -57.5c-29.333 0 -58.666 2.16699 -87.999 6.5
s-59.333 10.833 -90 19.5l27 156c24 -11.333 48.167 -20 72.5 -26s47.833 -9 70.5 -9c39.333 0 70.5 9.5 93.5 28.5s34.5 44.167 34.5 75.5c0 17.333 -4.16699 37.5 -12.5 60.5s-21.833 52.833 -40.5 89.5h128z" />
    <glyph glyph-name="egrave" unicode="&#xe8;" horiz-adv-x="1250" 
d="M1159 518l-11.001 -56.998h-754c0 -4 -0.333008 -9.83301 -1 -17.5s-1 -13.5 -1 -17.5c0 -72.667 19.667 -127 59 -163s98.333 -54 177 -54c68 0 139.667 11.333 215 34s154.333 56.334 237 101.001l-50 -278c-78 -32 -155.833 -55.833 -233.5 -71.5
s-156.834 -23.5 -237.501 -23.5c-157.333 0 -278.666 40.333 -363.999 121s-128 194.667 -128 342c0 85.333 13.5 168.166 40.5 248.499s66.833 153.833 119.5 220.5c62 80 136 140.667 222 182s181.333 62 286 62c136.667 0 245 -40.333 325 -121
s120 -189.334 120 -326.001c0 -26.667 -1.66699 -54.834 -5 -84.501s-8.66602 -62.167 -15.999 -97.5zM854.999 682.002c2 8.66699 3.33203 17.501 3.99902 26.501s1 17.833 1 26.5c0 53.333 -14.333 95.666 -43 126.999s-67.667 47 -117 47
c-62.667 0 -116.167 -19.167 -160.5 -57.5s-78.166 -94.833 -101.499 -169.5h417zM699.998 1638l188 -376h-177l-266 376h255z" />
    <glyph glyph-name="eacute" unicode="&#xe9;" horiz-adv-x="1250" 
d="M1159 518l-11.001 -56.998h-754c0 -4 -0.333008 -9.83301 -1 -17.5s-1 -13.5 -1 -17.5c0 -72.667 19.667 -127 59 -163s98.333 -54 177 -54c68 0 139.667 11.333 215 34s154.333 56.334 237 101.001l-50 -278c-78 -32 -155.833 -55.833 -233.5 -71.5
s-156.834 -23.5 -237.501 -23.5c-157.333 0 -278.666 40.333 -363.999 121s-128 194.667 -128 342c0 85.333 13.5 168.166 40.5 248.499s66.833 153.833 119.5 220.5c62 80 136 140.667 222 182s181.333 62 286 62c136.667 0 245 -40.333 325 -121
s120 -189.334 120 -326.001c0 -26.667 -1.66699 -54.834 -5 -84.501s-8.66602 -62.167 -15.999 -97.5zM854.999 682.002c2 8.66699 3.33203 17.501 3.99902 26.501s1 17.833 1 26.5c0 53.333 -14.333 95.666 -43 126.999s-67.667 47 -117 47
c-62.667 0 -116.167 -19.167 -160.5 -57.5s-78.166 -94.833 -101.499 -169.5h417zM933.998 1638h264l-395 -376h-181z" />
    <glyph glyph-name="ecircumflex" unicode="&#xea;" horiz-adv-x="1250" 
d="M1159 518l-11.001 -56.998h-754c0 -4 -0.333008 -9.83301 -1 -17.5s-1 -13.5 -1 -17.5c0 -72.667 19.667 -127 59 -163s98.333 -54 177 -54c68 0 139.667 11.333 215 34s154.333 56.334 237 101.001l-50 -278c-78 -32 -155.833 -55.833 -233.5 -71.5
s-156.834 -23.5 -237.501 -23.5c-157.333 0 -278.666 40.333 -363.999 121s-128 194.667 -128 342c0 85.333 13.5 168.166 40.5 248.499s66.833 153.833 119.5 220.5c62 80 136 140.667 222 182s181.333 62 286 62c136.667 0 245 -40.333 325 -121
s120 -189.334 120 -326.001c0 -26.667 -1.66699 -54.834 -5 -84.501s-8.66602 -62.167 -15.999 -97.5zM854.999 682.002c2 8.66699 3.33203 17.501 3.99902 26.501s1 17.833 1 26.5c0 53.333 -14.333 95.666 -43 126.999s-67.667 47 -117 47
c-62.667 0 -116.167 -19.167 -160.5 -57.5s-78.166 -94.833 -101.499 -169.5h417zM693.998 1638h236l164 -376h-160l-140 225l-217 -225h-178z" />
    <glyph glyph-name="edieresis" unicode="&#xeb;" horiz-adv-x="1250" 
d="M1159 518l-11.001 -56.998h-754c0 -4 -0.333008 -9.83301 -1 -17.5s-1 -13.5 -1 -17.5c0 -72.667 19.667 -127 59 -163s98.333 -54 177 -54c68 0 139.667 11.333 215 34s154.333 56.334 237 101.001l-50 -278c-78 -32 -155.833 -55.833 -233.5 -71.5
s-156.834 -23.5 -237.501 -23.5c-157.333 0 -278.666 40.333 -363.999 121s-128 194.667 -128 342c0 85.333 13.5 168.166 40.5 248.499s66.833 153.833 119.5 220.5c62 80 136 140.667 222 182s181.333 62 286 62c136.667 0 245 -40.333 325 -121
s120 -189.334 120 -326.001c0 -26.667 -1.66699 -54.834 -5 -84.501s-8.66602 -62.167 -15.999 -97.5zM854.999 682.002c2 8.66699 3.33203 17.501 3.99902 26.501s1 17.833 1 26.5c0 53.333 -14.333 95.666 -43 126.999s-67.667 47 -117 47
c-62.667 0 -116.167 -19.167 -160.5 -57.5s-78.166 -94.833 -101.499 -169.5h417zM525.998 1585h214l-44 -246h-212zM883.998 1585h212l-44 -246h-212z" />
    <glyph glyph-name="igrave" unicode="&#xec;" horiz-adv-x="631" 
d="M253 1120h324l-197 -1120h-323zM369 1638l188 -376h-177l-266 376h255z" />
    <glyph glyph-name="iacute" unicode="&#xed;" horiz-adv-x="631" 
d="M253 1120h324l-197 -1120h-323zM603 1638h264l-395 -376h-181z" />
    <glyph glyph-name="icircumflex" unicode="&#xee;" horiz-adv-x="631" 
d="M253 1120h324l-197 -1120h-323zM363 1638h236l164 -376h-160l-140 225l-217 -225h-178z" />
    <glyph glyph-name="idieresis" unicode="&#xef;" horiz-adv-x="631" 
d="M253 1120h324l-197 -1120h-323zM195 1585h214l-44 -246h-212zM553 1585h212l-44 -246h-212z" />
    <glyph glyph-name="eth" unicode="&#xf0;" horiz-adv-x="1266" 
d="M862 743c-31.333 18 -62.168 31.499 -92.501 40.499s-61.166 13.5 -92.499 13.5c-84 0 -150.5 -31.333 -199.5 -94s-73.5 -146.667 -73.5 -252c0 -72.667 15 -128.167 45 -166.5s73.333 -57.5 130 -57.5c84 0 153 42.167 207 126.5s81 192.5 81 324.5
c0 8.66699 -1.33301 26.334 -4 53.001c0 4.66699 -0.333008 8.66699 -1 12zM1084 1100c38 -61.333 66.8359 -127.332 86.5029 -197.999s29.5 -144.667 29.5 -222c0 -86.667 -13.667 -170.5 -41 -251.5s-67 -154.833 -119 -221.5
c-60.667 -77.333 -132.834 -136 -216.501 -176s-176.834 -60 -279.501 -60c-144.667 0 -260.334 41.667 -347.001 125s-130 193.333 -130 330c0 186.667 54.5 338.167 163.5 454.5s251.5 174.5 427.5 174.5c29.333 0 57 -2.33301 83 -7s50 -11.334 72 -20.001l-136 215
l-347 -108l-31 129l306 94l-123 198h316l74 -116l347 106l31 -127l-306 -94z" />
    <glyph glyph-name="ntilde" unicode="&#xf1;" horiz-adv-x="1312" 
d="M1189 682l-119.997 -681.999h-323l102 584c7.33301 38 12.833 70.167 16.5 96.5s5.5 47.166 5.5 62.499c0 42.667 -10.667 75.667 -32 99s-51.333 35 -90 35c-66.667 0 -123.834 -28.833 -171.501 -86.5s-80.834 -137.5 -99.501 -239.5l-97 -551h-323l196 1120h324
l-30 -164c59.333 64.667 119 112.667 179 144s122.667 47 188 47c93.333 0 165.166 -27 215.499 -81s75.5 -130 75.5 -228c0 -21.333 -1.33301 -45 -4 -71s-6.66699 -54.333 -12 -85zM767.003 1364l-45.001 37.001c-1.33301 1.33301 -4.33301 3.66602 -9 6.99902
c-22.667 20 -43 30 -61 30c-20 0 -37.833 -11.5 -53.5 -34.5s-26.5 -54.5 -32.5 -94.5h-126c16 91.333 43.667 161.5 83 210.5s87.333 73.5 144 73.5c21.333 0 42 -4.5 62 -13.5s41.333 -23.5 64 -43.5l47 -43c11.333 -10 22 -17.667 32 -23s19.667 -8 29 -8
c22.667 0 41.834 11.167 57.501 33.5s26.5 54.166 32.5 95.499h126c-16 -90.667 -43.5 -160.667 -82.5 -210s-86.5 -74 -142.5 -74c-20.667 0 -40 3.83301 -58 11.5s-40.333 22.834 -67 45.501z" />
    <glyph glyph-name="ograve" unicode="&#xf2;" horiz-adv-x="1266" 
d="M691 891c-83.333 0 -152 -42 -206 -126s-81 -191 -81 -321c0 -70.667 14.5 -124.5 43.5 -161.5s71.5 -55.5 127.5 -55.5c83.333 0 152 42.167 206 126.5s81 191.833 81 322.5c0 70 -14.5 123.333 -43.5 160s-71.5 55 -127.5 55zM717 1147
c150 0 268.002 -42.332 354.002 -126.999s129 -200 129 -346c0 -84.667 -13.5 -166.834 -40.5 -246.501s-66.5 -152.5 -118.5 -218.5c-60.667 -78.667 -132.834 -138 -216.501 -178s-176.834 -60 -279.501 -60c-148 0 -264.667 42.333 -350 127s-128 200 -128 346
c0 84 13.667 166.167 41 246.5s67 153.833 119 220.5c60 77.333 131.5 136 214.5 176s174.833 60 275.5 60zM670.002 1638l188 -376h-177l-266 376h255z" />
    <glyph glyph-name="oacute" unicode="&#xf3;" horiz-adv-x="1266" 
d="M691 891c-83.333 0 -152 -42 -206 -126s-81 -191 -81 -321c0 -70.667 14.5 -124.5 43.5 -161.5s71.5 -55.5 127.5 -55.5c83.333 0 152 42.167 206 126.5s81 191.833 81 322.5c0 70 -14.5 123.333 -43.5 160s-71.5 55 -127.5 55zM717 1147
c150 0 268.002 -42.332 354.002 -126.999s129 -200 129 -346c0 -84.667 -13.5 -166.834 -40.5 -246.501s-66.5 -152.5 -118.5 -218.5c-60.667 -78.667 -132.834 -138 -216.501 -178s-176.834 -60 -279.501 -60c-148 0 -264.667 42.333 -350 127s-128 200 -128 346
c0 84 13.667 166.167 41 246.5s67 153.833 119 220.5c60 77.333 131.5 136 214.5 176s174.833 60 275.5 60zM904.002 1638h264l-395 -376h-181z" />
    <glyph glyph-name="ocircumflex" unicode="&#xf4;" horiz-adv-x="1266" 
d="M691 891c-83.333 0 -152 -42 -206 -126s-81 -191 -81 -321c0 -70.667 14.5 -124.5 43.5 -161.5s71.5 -55.5 127.5 -55.5c83.333 0 152 42.167 206 126.5s81 191.833 81 322.5c0 70 -14.5 123.333 -43.5 160s-71.5 55 -127.5 55zM717 1147
c150 0 268.002 -42.332 354.002 -126.999s129 -200 129 -346c0 -84.667 -13.5 -166.834 -40.5 -246.501s-66.5 -152.5 -118.5 -218.5c-60.667 -78.667 -132.834 -138 -216.501 -178s-176.834 -60 -279.501 -60c-148 0 -264.667 42.333 -350 127s-128 200 -128 346
c0 84 13.667 166.167 41 246.5s67 153.833 119 220.5c60 77.333 131.5 136 214.5 176s174.833 60 275.5 60zM664.002 1638h236l164 -376h-160l-140 225l-217 -225h-178z" />
    <glyph glyph-name="otilde" unicode="&#xf5;" horiz-adv-x="1266" 
d="M691 891c-83.333 0 -152 -42 -206 -126s-81 -191 -81 -321c0 -70.667 14.5 -124.5 43.5 -161.5s71.5 -55.5 127.5 -55.5c83.333 0 152 42.167 206 126.5s81 191.833 81 322.5c0 70 -14.5 123.333 -43.5 160s-71.5 55 -127.5 55zM717 1147
c150 0 268.002 -42.332 354.002 -126.999s129 -200 129 -346c0 -84.667 -13.5 -166.834 -40.5 -246.501s-66.5 -152.5 -118.5 -218.5c-60.667 -78.667 -132.834 -138 -216.501 -178s-176.834 -60 -279.501 -60c-148 0 -264.667 42.333 -350 127s-128 200 -128 346
c0 84 13.667 166.167 41 246.5s67 153.833 119 220.5c60 77.333 131.5 136 214.5 176s174.833 60 275.5 60zM746.002 1364l-45.001 37.001c-1.33301 1.33301 -4.33301 3.66602 -9 6.99902c-22.667 20 -43 30 -61 30c-20 0 -37.833 -11.5 -53.5 -34.5
s-26.5 -54.5 -32.5 -94.5h-126c16 91.333 43.667 161.5 83 210.5s87.333 73.5 144 73.5c21.333 0 42 -4.5 62 -13.5s41.333 -23.5 64 -43.5l47 -43c11.333 -10 22 -17.667 32 -23s19.667 -8 29 -8c22.667 0 41.834 11.167 57.501 33.5s26.5 54.166 32.5 95.499h126
c-16 -90.667 -43.5 -160.667 -82.5 -210s-86.5 -74 -142.5 -74c-20.667 0 -40 3.83301 -58 11.5s-40.333 22.834 -67 45.501z" />
    <glyph glyph-name="odieresis" unicode="&#xf6;" horiz-adv-x="1266" 
d="M691 891c-83.333 0 -152 -42 -206 -126s-81 -191 -81 -321c0 -70.667 14.5 -124.5 43.5 -161.5s71.5 -55.5 127.5 -55.5c83.333 0 152 42.167 206 126.5s81 191.833 81 322.5c0 70 -14.5 123.333 -43.5 160s-71.5 55 -127.5 55zM717 1147
c150 0 268.002 -42.332 354.002 -126.999s129 -200 129 -346c0 -84.667 -13.5 -166.834 -40.5 -246.501s-66.5 -152.5 -118.5 -218.5c-60.667 -78.667 -132.834 -138 -216.501 -178s-176.834 -60 -279.501 -60c-148 0 -264.667 42.333 -350 127s-128 200 -128 346
c0 84 13.667 166.167 41 246.5s67 153.833 119 220.5c60 77.333 131.5 136 214.5 176s174.833 60 275.5 60zM496.002 1585h214l-44 -246h-212zM854.002 1585h212l-44 -246h-212z" />
    <glyph glyph-name="divide" unicode="&#xf7;" 
d="M634 395h277v-309h-277v309zM634 1198h277v-309h-277v309zM195 760h1154v-236h-1154v236z" />
    <glyph glyph-name="oslash" unicode="&#xf8;" horiz-adv-x="1266" 
d="M814 842c-13.333 16 -30.333 28.168 -51 36.501s-44.667 12.5 -72 12.5c-84 0 -151.333 -39.833 -202 -119.5s-79 -190.834 -85 -333.501zM137 174.001c-23.333 39.333 -40.835 81.833 -52.502 127.5s-17.5 93.834 -17.5 144.501c0 84 13.5 165.833 40.5 245.5
s66.833 152.834 119.5 219.501c60 78 131.5 136.833 214.5 176.5s176.167 59.5 279.5 59.5c62 0 118.833 -7.66699 170.5 -23s97.834 -38.333 138.501 -69l173 168l88 -111l-165 -162c24.667 -39.333 43.167 -82 55.5 -128s18.5 -95.333 18.5 -148
c0 -84.667 -13.5 -166.834 -40.5 -246.501s-66.5 -152.5 -118.5 -218.5c-60.667 -77.333 -133 -136.333 -217 -177s-177 -61 -279 -61c-65.333 0 -124.166 8.16699 -176.499 24.5s-98.833 41.166 -139.5 74.499l-174 -172l-87 112zM447.998 283.001
c15.333 -18.667 33.333 -32.668 54 -42.001s45 -14 73 -14c84.667 0 152.667 41.333 204 124s79 196.334 83 341.001z" />
    <glyph glyph-name="ugrave" unicode="&#xf9;" horiz-adv-x="1312" 
d="M125 436l118.002 684h323l-102 -583c-6.66699 -38 -11.834 -70.333 -15.501 -97s-5.5 -47.667 -5.5 -63c0 -42 10.5 -74.667 31.5 -98s50.833 -35 89.5 -35c66.667 0 124 28.667 172 86s81 137 99 239l97 551h324l-196 -1120h-325l30 164
c-55.333 -64.667 -113.333 -113 -174 -145s-124.334 -48 -191.001 -48c-92 0 -163.167 27 -213.5 81s-75.5 130.333 -75.5 229c0 23.333 1.16699 48 3.5 74s5.83301 53 10.5 81zM691.002 1638l188 -376h-177l-266 376h255z" />
    <glyph glyph-name="uacute" unicode="&#xfa;" horiz-adv-x="1312" 
d="M125 436l118.002 684h323l-102 -583c-6.66699 -38 -11.834 -70.333 -15.501 -97s-5.5 -47.667 -5.5 -63c0 -42 10.5 -74.667 31.5 -98s50.833 -35 89.5 -35c66.667 0 124 28.667 172 86s81 137 99 239l97 551h324l-196 -1120h-325l30 164
c-55.333 -64.667 -113.333 -113 -174 -145s-124.334 -48 -191.001 -48c-92 0 -163.167 27 -213.5 81s-75.5 130.333 -75.5 229c0 23.333 1.16699 48 3.5 74s5.83301 53 10.5 81zM925.002 1638h264l-395 -376h-181z" />
    <glyph glyph-name="ucircumflex" unicode="&#xfb;" horiz-adv-x="1312" 
d="M125 436l118.002 684h323l-102 -583c-6.66699 -38 -11.834 -70.333 -15.501 -97s-5.5 -47.667 -5.5 -63c0 -42 10.5 -74.667 31.5 -98s50.833 -35 89.5 -35c66.667 0 124 28.667 172 86s81 137 99 239l97 551h324l-196 -1120h-325l30 164
c-55.333 -64.667 -113.333 -113 -174 -145s-124.334 -48 -191.001 -48c-92 0 -163.167 27 -213.5 81s-75.5 130.333 -75.5 229c0 23.333 1.16699 48 3.5 74s5.83301 53 10.5 81zM685.002 1638h236l164 -376h-160l-140 225l-217 -225h-178z" />
    <glyph glyph-name="udieresis" unicode="&#xfc;" horiz-adv-x="1312" 
d="M125 436l118.002 684h323l-102 -583c-6.66699 -38 -11.834 -70.333 -15.501 -97s-5.5 -47.667 -5.5 -63c0 -42 10.5 -74.667 31.5 -98s50.833 -35 89.5 -35c66.667 0 124 28.667 172 86s81 137 99 239l97 551h324l-196 -1120h-325l30 164
c-55.333 -64.667 -113.333 -113 -174 -145s-124.334 -48 -191.001 -48c-92 0 -163.167 27 -213.5 81s-75.5 130.333 -75.5 229c0 23.333 1.16699 48 3.5 74s5.83301 53 10.5 81zM517.002 1585h214l-44 -246h-212zM875.002 1585h212l-44 -246h-212z" />
    <glyph glyph-name="yacute" unicode="&#xfd;" horiz-adv-x="1201" 
d="M122 1120h304l138 -776l358 776h344l-638 -1226c-71.333 -138 -137.333 -228.5 -198 -271.5s-139 -64.5 -235 -64.5h-195l33 235h102c52.667 0 93.667 9.83301 123 29.5s55.333 54.167 78 103.5l29 60zM870 1638h264l-395 -376h-181z" />
    <glyph glyph-name="thorn" unicode="&#xfe;" horiz-adv-x="1319" 
d="M410 162l-103.998 -588h-324l346 1982h324l-105 -600c49.333 65.333 101 113.5 155 144.5s113 46.5 177 46.5c113.333 0 203 -40 269 -120s99 -189 99 -327c0 -86 -11.5 -169.667 -34.5 -251s-56.167 -155.333 -99.5 -222c-54.667 -84 -116.334 -147.667 -185.001 -191
s-142.334 -65 -221.001 -65c-68.667 0 -127.167 15.5 -175.5 46.5s-88.833 79.167 -121.5 144.5zM748.002 887c-82.667 0 -150.334 -42.501 -203.001 -127.501s-79 -195.5 -79 -331.5c0 -61.333 14.833 -109.5 44.5 -144.5s70.834 -52.5 123.501 -52.5
c81.333 0 148.333 41.833 201 125.5s79 190.834 79 321.501c0 68 -14.167 119.833 -42.5 155.5s-69.5 53.5 -123.5 53.5z" />
    <glyph glyph-name="ydieresis" unicode="&#xff;" horiz-adv-x="1201" 
d="M122 1120h304l138 -776l358 776h344l-638 -1226c-71.333 -138 -137.333 -228.5 -198 -271.5s-139 -64.5 -235 -64.5h-195l33 235h102c52.667 0 93.667 9.83301 123 29.5s55.333 54.167 78 103.5l29 60zM462 1585h214l-44 -246h-212zM820 1585h212l-44 -246h-212z" />
    <glyph glyph-name="Amacron" unicode="&#x100;" horiz-adv-x="1426" 
d="M905 272h-536l-133 -272h-356l760 1493h396l238 -1493h-330zM500 543h360l-81 575zM571 1871h567l-33 -188h-568z" />
    <glyph glyph-name="amacron" unicode="&#x101;" horiz-adv-x="1243" 
d="M607 504c-80.667 0 -141.501 -13.833 -182.501 -41.5s-61.5 -68.5 -61.5 -122.5c0 -40.667 12.167 -72.667 36.5 -96s57.833 -35 100.5 -35c65.333 0 120.333 22.167 165 66.5s74.334 106.833 89.001 187.5l7 41h-154zM1110 639l-112.999 -639.001h-322l27 166
c-52.667 -66.667 -108.5 -115.834 -167.5 -147.501s-122.833 -47.5 -191.5 -47.5c-95.333 0 -171 27.5 -227 82.5s-84 129.167 -84 222.5c0 142.667 49.5 251.834 148.5 327.501s242.167 113.5 429.5 113.5h190l4 28c1.33301 9.33301 2.16602 16 2.49902 20
s0.5 7.66699 0.5 11c0 44 -18.667 77.167 -56 99.5s-93 33.5 -167 33.5c-66.667 0 -131.167 -7.66699 -193.5 -23s-122.5 -38.333 -180.5 -69l48 273c67.333 18.667 136.333 32.834 207 42.501s143.667 14.5 219 14.5c149.333 0 260.333 -28.5 333 -85.5
s109 -143.833 109 -260.5c0 -22.667 -1.33301 -47.5 -4 -74.5s-6.66699 -56.167 -12 -87.5zM442 1562h567l-33 -188h-568z" />
    <glyph glyph-name="Abreve" unicode="&#x102;" horiz-adv-x="1426" 
d="M607 1916l127.001 -0.00292969v-9c0 -43.333 13 -76.666 39 -99.999s63 -35 111 -35c48.667 0 88.5 11.833 119.5 35.5s55.167 59.834 72.5 108.501h136c-20 -95.333 -60.833 -168.666 -122.5 -219.999s-139.167 -77 -232.5 -77c-84 0 -147.167 20.667 -189.5 62
s-63.5 102.333 -63.5 183c0 14 0.166992 24.5 0.5 31.5s1.16602 13.833 2.49902 20.5zM905.001 271.997h-536l-133 -272h-356l760 1493h396l238 -1493h-330zM500.001 542.997h360l-81 575z" />
    <glyph glyph-name="abreve" unicode="&#x103;" horiz-adv-x="1243" 
d="M473 1581l127.001 -0.00292969v-9c0 -43.333 13 -76.666 39 -99.999s63 -35 111 -35c48.667 0 88.5 11.833 119.5 35.5s55.167 59.834 72.5 108.501h136c-20 -95.333 -60.833 -168.666 -122.5 -219.999s-139.167 -77 -232.5 -77c-84 0 -147.167 20.667 -189.5 62
s-63.5 102.333 -63.5 183c0 14 0.166992 24.5 0.5 31.5s1.16602 13.833 2.49902 20.5zM607.001 503.997c-80.667 0 -141.501 -13.833 -182.501 -41.5s-61.5 -68.5 -61.5 -122.5c0 -40.667 12.167 -72.667 36.5 -96s57.833 -35 100.5 -35c65.333 0 120.333 22.167 165 66.5
s74.334 106.833 89.001 187.5l7 41h-154zM1110 638.997l-112.999 -639.001h-322l27 166c-52.667 -66.667 -108.5 -115.834 -167.5 -147.501s-122.833 -47.5 -191.5 -47.5c-95.333 0 -171 27.5 -227 82.5s-84 129.167 -84 222.5c0 142.667 49.5 251.834 148.5 327.501
s242.167 113.5 429.5 113.5h190l4 28c1.33301 9.33301 2.16602 16 2.49902 20s0.5 7.66699 0.5 11c0 44 -18.667 77.167 -56 99.5s-93 33.5 -167 33.5c-66.667 0 -131.167 -7.66699 -193.5 -23s-122.5 -38.333 -180.5 -69l48 273c67.333 18.667 136.333 32.834 207 42.501
s143.667 14.5 219 14.5c149.333 0 260.333 -28.5 333 -85.5s109 -143.833 109 -260.5c0 -22.667 -1.33301 -47.5 -4 -74.5s-6.66699 -56.167 -12 -87.5z" />
    <glyph glyph-name="Aogonek" unicode="&#x104;" horiz-adv-x="1426" 
d="M951 0l128.001 0.00195312c-42.667 -49.333 -71.834 -87.333 -87.501 -114s-23.5 -49.334 -23.5 -68.001c0 -22.667 7.5 -40.334 22.5 -53.001s35.833 -19 62.5 -19c22 0 45.333 2.66699 70 8s50 13 76 23l-26 -152c-34.667 -8.66699 -65.5 -15.167 -92.5 -19.5
s-52.167 -6.5 -75.5 -6.5c-63.333 0 -111.666 11.5 -144.999 34.5s-50 56.5 -50 100.5c0 43.333 11.167 86 33.5 128s58.166 88 107.499 138zM905.001 272.002h-536l-133 -272h-356l760 1493h396l238 -1493h-330zM500.001 543.002h360l-81 575z" />
    <glyph glyph-name="aogonek" unicode="&#x105;" horiz-adv-x="1243" 
d="M676 0l128.001 0.00195312c-42.667 -49.333 -71.834 -87.333 -87.501 -114s-23.5 -49.334 -23.5 -68.001c0 -22.667 7.5 -40.334 22.5 -53.001s35.833 -19 62.5 -19c22 0 45.333 2.66699 70 8s50 13 76 23l-26 -152c-34.667 -8.66699 -65.5 -15.167 -92.5 -19.5
s-52.167 -6.5 -75.5 -6.5c-63.333 0 -111.666 11.5 -144.999 34.5s-50 56.5 -50 100.5c0 43.333 11.167 86 33.5 128s58.166 88 107.499 138zM607.001 504.002c-80.667 0 -141.501 -13.833 -182.501 -41.5s-61.5 -68.5 -61.5 -122.5c0 -40.667 12.167 -72.667 36.5 -96
s57.833 -35 100.5 -35c65.333 0 120.333 22.167 165 66.5s74.334 106.833 89.001 187.5l7 41h-154zM1110 639.002l-112.999 -639.001h-322l27 166c-52.667 -66.667 -108.5 -115.834 -167.5 -147.501s-122.833 -47.5 -191.5 -47.5c-95.333 0 -171 27.5 -227 82.5
s-84 129.167 -84 222.5c0 142.667 49.5 251.834 148.5 327.501s242.167 113.5 429.5 113.5h190l4 28c1.33301 9.33301 2.16602 16 2.49902 20s0.5 7.66699 0.5 11c0 44 -18.667 77.167 -56 99.5s-93 33.5 -167 33.5c-66.667 0 -131.167 -7.66699 -193.5 -23
s-122.5 -38.333 -180.5 -69l48 273c67.333 18.667 136.333 32.834 207 42.501s143.667 14.5 219 14.5c149.333 0 260.333 -28.5 333 -85.5s109 -143.833 109 -260.5c0 -22.667 -1.33301 -47.5 -4 -74.5s-6.66699 -56.167 -12 -87.5z" />
    <glyph glyph-name="Cacute" unicode="&#x106;" horiz-adv-x="1352" 
d="M1117 70c-82.667 -32.667 -162.166 -57.335 -238.499 -74.002s-148.5 -25 -216.5 -25c-180.667 0 -325 55 -433 165s-162 255.667 -162 437c0 119.333 17 231.833 51 337.5s84.333 202.167 151 289.5c78.667 102.667 173.334 181.667 284.001 237s230 83 358 83
c69.333 0 139.166 -9.16699 209.499 -27.5s141.833 -46.166 214.5 -83.499l-56 -309c-58 48.667 -116 84.334 -174 107.001s-120.333 34 -187 34c-138.667 0 -254.834 -59.333 -348.501 -178s-140.5 -267 -140.5 -445c0 -114.667 28.833 -204.667 86.5 -270
s137.167 -98 238.5 -98c60.667 0 125 12.167 193 36.5s144.333 62.5 229 114.5zM1056 1899h252l-287 -264h-186z" />
    <glyph glyph-name="cacute" unicode="&#x107;" horiz-adv-x="1092" 
d="M1071 1085l-51.002 -292.001c-43.333 32 -86 56.333 -128 73s-83 25 -123 25c-105.333 0 -191.333 -39.167 -258 -117.5s-100 -178.5 -100 -300.5c0 -78 20.833 -138.5 62.5 -181.5s100.167 -64.5 175.5 -64.5c50 0 99.333 8.33301 148 25s95 41.334 139 74.001l-50 -293
c-53.333 -20.667 -107 -36.167 -161 -46.5s-108.333 -15.5 -163 -15.5c-158 0 -279.833 39.5 -365.5 118.5s-128.5 191.167 -128.5 336.5c0 91.333 15.833 180 47.5 266s76.834 163.333 135.501 232c65.333 75.333 140.333 131.333 225 168s182.334 55 293.001 55
c50.667 0 101.167 -5.16699 151.5 -15.5s100.5 -25.833 150.5 -46.5zM924.998 1638h264l-395 -376h-181z" />
    <glyph glyph-name="Ccircumflex" unicode="&#x108;" horiz-adv-x="1352" 
d="M844 1899h313l137 -264h-153l-148 161l-208 -161h-161zM1117 70c-82.667 -32.667 -162.166 -57.335 -238.499 -74.002s-148.5 -25 -216.5 -25c-180.667 0 -325 55 -433 165s-162 255.667 -162 437c0 119.333 17 231.833 51 337.5s84.333 202.167 151 289.5
c78.667 102.667 173.334 181.667 284.001 237s230 83 358 83c69.333 0 139.166 -9.16699 209.499 -27.5s141.833 -46.166 214.5 -83.499l-56 -309c-58 48.667 -116 84.334 -174 107.001s-120.333 34 -187 34c-138.667 0 -254.834 -59.333 -348.501 -178
s-140.5 -267 -140.5 -445c0 -114.667 28.833 -204.667 86.5 -270s137.167 -98 238.5 -98c60.667 0 125 12.167 193 36.5s144.333 62.5 229 114.5z" />
    <glyph glyph-name="ccircumflex" unicode="&#x109;" horiz-adv-x="1092" 
d="M685 1638h236l164 -376h-160l-140 225l-217 -225h-178zM1071 1085l-51.002 -292.001c-43.333 32 -86 56.333 -128 73s-83 25 -123 25c-105.333 0 -191.333 -39.167 -258 -117.5s-100 -178.5 -100 -300.5c0 -78 20.833 -138.5 62.5 -181.5s100.167 -64.5 175.5 -64.5
c50 0 99.333 8.33301 148 25s95 41.334 139 74.001l-50 -293c-53.333 -20.667 -107 -36.167 -161 -46.5s-108.333 -15.5 -163 -15.5c-158 0 -279.833 39.5 -365.5 118.5s-128.5 191.167 -128.5 336.5c0 91.333 15.833 180 47.5 266s76.834 163.333 135.501 232
c65.333 75.333 140.333 131.333 225 168s182.334 55 293.001 55c50.667 0 101.167 -5.16699 151.5 -15.5s100.5 -25.833 150.5 -46.5z" />
    <glyph glyph-name="Cdotaccent" unicode="&#x10a;" horiz-adv-x="1352" 
d="M890 1899h247l-42 -246h-247zM1117 70c-82.667 -32.667 -162.166 -57.335 -238.499 -74.002s-148.5 -25 -216.5 -25c-180.667 0 -325 55 -433 165s-162 255.667 -162 437c0 119.333 17 231.833 51 337.5s84.333 202.167 151 289.5
c78.667 102.667 173.334 181.667 284.001 237s230 83 358 83c69.333 0 139.166 -9.16699 209.499 -27.5s141.833 -46.166 214.5 -83.499l-56 -309c-58 48.667 -116 84.334 -174 107.001s-120.333 34 -187 34c-138.667 0 -254.834 -59.333 -348.501 -178
s-140.5 -267 -140.5 -445c0 -114.667 28.833 -204.667 86.5 -270s137.167 -98 238.5 -98c60.667 0 125 12.167 193 36.5s144.333 62.5 229 114.5z" />
    <glyph glyph-name="cdotaccent" unicode="&#x10b;" horiz-adv-x="1092" 
d="M680 1585h247l-44 -246h-248zM1071 1085l-51.002 -292.001c-43.333 32 -86 56.333 -128 73s-83 25 -123 25c-105.333 0 -191.333 -39.167 -258 -117.5s-100 -178.5 -100 -300.5c0 -78 20.833 -138.5 62.5 -181.5s100.167 -64.5 175.5 -64.5c50 0 99.333 8.33301 148 25
s95 41.334 139 74.001l-50 -293c-53.333 -20.667 -107 -36.167 -161 -46.5s-108.333 -15.5 -163 -15.5c-158 0 -279.833 39.5 -365.5 118.5s-128.5 191.167 -128.5 336.5c0 91.333 15.833 180 47.5 266s76.834 163.333 135.501 232c65.333 75.333 140.333 131.333 225 168
s182.334 55 293.001 55c50.667 0 101.167 -5.16699 151.5 -15.5s100.5 -25.833 150.5 -46.5z" />
    <glyph glyph-name="Ccaron" unicode="&#x10c;" horiz-adv-x="1352" 
d="M1117 70c-82.667 -32.667 -162.166 -57.335 -238.499 -74.002s-148.5 -25 -216.5 -25c-180.667 0 -325 55 -433 165s-162 255.667 -162 437c0 119.333 17 231.833 51 337.5s84.333 202.167 151 289.5c78.667 102.667 173.334 181.667 284.001 237s230 83 358 83
c69.333 0 139.166 -9.16699 209.499 -27.5s141.833 -46.166 214.5 -83.499l-56 -309c-58 48.667 -116 84.334 -174 107.001s-120.333 34 -187 34c-138.667 0 -254.834 -59.333 -348.501 -178s-140.5 -267 -140.5 -445c0 -114.667 28.833 -204.667 86.5 -270
s137.167 -98 238.5 -98c60.667 0 125 12.167 193 36.5s144.333 62.5 229 114.5zM1130 1635h-314l-123 264h155l133 -162l208 162h160z" />
    <glyph glyph-name="ccaron" unicode="&#x10d;" horiz-adv-x="1092" 
d="M1071 1085l-51.002 -292.001c-43.333 32 -86 56.333 -128 73s-83 25 -123 25c-105.333 0 -191.333 -39.167 -258 -117.5s-100 -178.5 -100 -300.5c0 -78 20.833 -138.5 62.5 -181.5s100.167 -64.5 175.5 -64.5c50 0 99.333 8.33301 148 25s95 41.334 139 74.001l-50 -293
c-53.333 -20.667 -107 -36.167 -161 -46.5s-108.333 -15.5 -163 -15.5c-158 0 -279.833 39.5 -365.5 118.5s-128.5 191.167 -128.5 336.5c0 91.333 15.833 180 47.5 266s76.834 163.333 135.501 232c65.333 75.333 140.333 131.333 225 168s182.334 55 293.001 55
c50.667 0 101.167 -5.16699 151.5 -15.5s100.5 -25.833 150.5 -46.5zM871.998 1262h-234l-165 376h158l141 -227l219 227h177z" />
    <glyph glyph-name="Dcaron" unicode="&#x10e;" horiz-adv-x="1530" 
d="M598 1202l-162.001 -911h125c161.333 0 289 50.333 383 151s141 236.667 141 408c0 116 -30.667 203.667 -92 263s-152.666 89 -273.999 89h-121zM300.999 1493l364 0.000976562c174 0 304.5 -11.5 391.5 -34.5s159.5 -61.5 217.5 -115.5s101.667 -119.5 131 -196.5
s44 -164.167 44 -261.5c0 -135.333 -25 -262.833 -75 -382.5s-120.333 -220.167 -211 -301.5c-79.333 -72.667 -171.333 -124.334 -276 -155.001s-265.667 -46 -483 -46h-365zM1044 1635h-314l-123 264h155l133 -162l208 162h160z" />
    <glyph glyph-name="dcaron" unicode="&#x10f;" horiz-adv-x="1319" 
d="M566 231c82.667 0 150 42.333 202 127s78 195.334 78 332.001c0 62 -14.5 110.333 -43.5 145s-69.833 52 -122.5 52c-81.333 0 -148.333 -41.833 -201 -125.5s-79 -190.834 -79 -321.501c0 -68 14.167 -119.833 42.5 -155.5s69.5 -53.5 123.5 -53.5zM905 956l104.999 600
h325l-273 -1556h-325l30 162c-49.333 -65.333 -101 -113.5 -155 -144.5s-113 -46.5 -177 -46.5c-113.333 0 -203 40 -269 120s-99 189 -99 327c0 86 11.5 169.667 34.5 251s56.167 155.333 99.5 222c54.667 84 116.334 147.667 185.001 191s142.334 65 221.001 65
c68.667 0 127.167 -15.5 175.5 -46.5s89.166 -79.167 122.499 -144.5zM1483 1554h263l-193 -376h-181z" />
    <glyph glyph-name="Dcroat" unicode="&#x110;" horiz-adv-x="1557" 
d="M626 1202l-51 -299h221l-45 -260h-222l-63 -352h124c162 0 290.333 50.5 385 151.5s142 236.833 142 407.5c0 116 -31 203.667 -93 263s-154 89 -276 89h-122zM330 1493l365.002 0.000976562c174 0 304.5 -11.5 391.5 -34.5s159.167 -61.5 216.5 -115.5
c58 -54 102 -119.667 132 -197s45 -164.333 45 -261c0 -134 -25.333 -261 -76 -381s-121.334 -221 -212.001 -303c-78.667 -72.667 -170.334 -124.334 -275.001 -155.001s-266 -46 -484 -46h-365l113 643h-185l46 260h185z" />
    <glyph glyph-name="dcroat" unicode="&#x111;" horiz-adv-x="1319" 
d="M566 231c82.667 0 150 42.333 202 127s78 195.334 78 332.001c0 62 -14.5 110.333 -43.5 145s-69.833 52 -122.5 52c-81.333 0 -148.333 -41.833 -201 -125.5s-79 -190.834 -79 -321.501c0 -68 14.167 -119.833 42.5 -155.5s69.5 -53.5 123.5 -53.5zM905 956l51.999 295
h-356l33 189h356l20 116h325l-21 -116h192l-34 -189h-191l-219 -1251h-325l30 162c-49.333 -65.333 -101 -113.5 -155 -144.5s-113 -46.5 -177 -46.5c-113.333 0 -203 40 -269 120s-99 189 -99 327c0 86 11.5 169.667 34.5 251s56.167 155.333 99.5 222
c54.667 84 116.334 147.667 185.001 191s142.334 65 221.001 65c68.667 0 127.167 -15.5 175.5 -46.5s89.166 -79.167 122.499 -144.5z" />
    <glyph glyph-name="Emacron" unicode="&#x112;" horiz-adv-x="1259" 
d="M301 1493h934l-51 -291h-588l-49 -278h554l-53 -291h-552l-60 -342h607l-49 -291h-955zM495 1871h567l-33 -188h-568z" />
    <glyph glyph-name="emacron" unicode="&#x113;" horiz-adv-x="1250" 
d="M1159 518l-11.001 -56.998h-754c0 -4 -0.333008 -9.83301 -1 -17.5s-1 -13.5 -1 -17.5c0 -72.667 19.667 -127 59 -163s98.333 -54 177 -54c68 0 139.667 11.333 215 34s154.333 56.334 237 101.001l-50 -278c-78 -32 -155.833 -55.833 -233.5 -71.5
s-156.834 -23.5 -237.501 -23.5c-157.333 0 -278.666 40.333 -363.999 121s-128 194.667 -128 342c0 85.333 13.5 168.166 40.5 248.499s66.833 153.833 119.5 220.5c62 80 136 140.667 222 182s181.333 62 286 62c136.667 0 245 -40.333 325 -121
s120 -189.334 120 -326.001c0 -26.667 -1.66699 -54.834 -5 -84.501s-8.66602 -62.167 -15.999 -97.5zM854.999 682.002c2 8.66699 3.33203 17.501 3.99902 26.501s1 17.833 1 26.5c0 53.333 -14.333 95.666 -43 126.999s-67.667 47 -117 47
c-62.667 0 -116.167 -19.167 -160.5 -57.5s-78.166 -94.833 -101.499 -169.5h417zM495.998 1563h567l-33 -188h-568z" />
    <glyph glyph-name="Ebreve" unicode="&#x114;" horiz-adv-x="1259" 
d="M555 1899h129c6 -40 21.167 -69.167 45.5 -87.5s60.166 -27.5 107.499 -27.5c43.333 0 80.833 10.167 112.5 30.5s54.5 48.5 68.5 84.5h137c-23.333 -86 -64.666 -151.5 -123.999 -196.5s-133.333 -67.5 -222 -67.5c-82 0 -144.833 22.5 -188.5 67.5
s-65.5 109.167 -65.5 192.5v4zM301 1493h934l-51 -291h-588l-49 -278h554l-53 -291h-552l-60 -342h607l-49 -291h-955z" />
    <glyph glyph-name="ebreve" unicode="&#x115;" horiz-adv-x="1250" 
d="M513 1606l127.001 -0.00292969v-9c0 -43.333 13 -76.666 39 -99.999s63 -35 111 -35c48.667 0 88.5 11.833 119.5 35.5s55.167 59.834 72.5 108.501h136c-20 -95.333 -60.833 -168.666 -122.5 -219.999s-139.167 -77 -232.5 -77c-84 0 -147.167 20.667 -189.5 62
s-63.5 102.333 -63.5 183c0 14 0.166992 24.5 0.5 31.5s1.16602 13.833 2.49902 20.5zM1159 517.997l-11.001 -56.998h-754c0 -4 -0.333008 -9.83301 -1 -17.5s-1 -13.5 -1 -17.5c0 -72.667 19.667 -127 59 -163s98.333 -54 177 -54c68 0 139.667 11.333 215 34
s154.333 56.334 237 101.001l-50 -278c-78 -32 -155.833 -55.833 -233.5 -71.5s-156.834 -23.5 -237.501 -23.5c-157.333 0 -278.666 40.333 -363.999 121s-128 194.667 -128 342c0 85.333 13.5 168.166 40.5 248.499s66.833 153.833 119.5 220.5c62 80 136 140.667 222 182
s181.333 62 286 62c136.667 0 245 -40.333 325 -121s120 -189.334 120 -326.001c0 -26.667 -1.66699 -54.834 -5 -84.501s-8.66602 -62.167 -15.999 -97.5zM855 681.999c2 8.66699 3.33203 17.501 3.99902 26.501s1 17.833 1 26.5c0 53.333 -14.333 95.666 -43 126.999
s-67.667 47 -117 47c-62.667 0 -116.167 -19.167 -160.5 -57.5s-78.166 -94.833 -101.499 -169.5h417z" />
    <glyph glyph-name="Edotaccent" unicode="&#x116;" horiz-adv-x="1259" 
d="M728 1899h247l-42 -246h-247zM301 1493h934l-51 -291h-588l-49 -278h554l-53 -291h-552l-60 -342h607l-49 -291h-955z" />
    <glyph glyph-name="edotaccent" unicode="&#x117;" horiz-adv-x="1250" 
d="M689 1585h247l-44 -246h-248zM1159 518l-11.001 -56.998h-754c0 -4 -0.333008 -9.83301 -1 -17.5s-1 -13.5 -1 -17.5c0 -72.667 19.667 -127 59 -163s98.333 -54 177 -54c68 0 139.667 11.333 215 34s154.333 56.334 237 101.001l-50 -278
c-78 -32 -155.833 -55.833 -233.5 -71.5s-156.834 -23.5 -237.501 -23.5c-157.333 0 -278.666 40.333 -363.999 121s-128 194.667 -128 342c0 85.333 13.5 168.166 40.5 248.499s66.833 153.833 119.5 220.5c62 80 136 140.667 222 182s181.333 62 286 62
c136.667 0 245 -40.333 325 -121s120 -189.334 120 -326.001c0 -26.667 -1.66699 -54.834 -5 -84.501s-8.66602 -62.167 -15.999 -97.5zM854.999 682.002c2 8.66699 3.33203 17.501 3.99902 26.501s1 17.833 1 26.5c0 53.333 -14.333 95.666 -43 126.999s-67.667 47 -117 47
c-62.667 0 -116.167 -19.167 -160.5 -57.5s-78.166 -94.833 -101.499 -169.5h417z" />
    <glyph glyph-name="Eogonek" unicode="&#x118;" horiz-adv-x="1259" 
d="M748 0l128.001 0.00195312c-42.667 -49.333 -71.834 -87.333 -87.501 -114s-23.5 -49.334 -23.5 -68.001c0 -22.667 7.5 -40.334 22.5 -53.001s35.833 -19 62.5 -19c22 0 45.333 2.66699 70 8s50 13 76 23l-26 -152c-34.667 -8.66699 -65.5 -15.167 -92.5 -19.5
s-52.167 -6.5 -75.5 -6.5c-63.333 0 -111.666 11.5 -144.999 34.5s-50 56.5 -50 100.5c0 43.333 11.167 86 33.5 128s58.166 88 107.499 138zM301.001 1493h934l-51 -291h-588l-49 -278h554l-53 -291h-552l-60 -342h607l-49 -291h-955z" />
    <glyph glyph-name="eogonek" unicode="&#x119;" horiz-adv-x="1250" 
d="M676 0l128.001 0.00195312c-42.667 -49.333 -71.834 -87.333 -87.501 -114s-23.5 -49.334 -23.5 -68.001c0 -22.667 7.5 -40.334 22.5 -53.001s35.833 -19 62.5 -19c22 0 45.333 2.66699 70 8s50 13 76 23l-26 -152c-34.667 -8.66699 -65.5 -15.167 -92.5 -19.5
s-52.167 -6.5 -75.5 -6.5c-63.333 0 -111.666 11.5 -144.999 34.5s-50 56.5 -50 100.5c0 43.333 11.167 86 33.5 128s58.166 88 107.499 138zM1159 518.002l-11.001 -56.998h-754c0 -4 -0.333008 -9.83301 -1 -17.5s-1 -13.5 -1 -17.5c0 -72.667 19.667 -127 59 -163
s98.333 -54 177 -54c68 0 139.667 11.333 215 34s154.333 56.334 237 101.001l-50 -278c-78 -32 -155.833 -55.833 -233.5 -71.5s-156.834 -23.5 -237.501 -23.5c-157.333 0 -278.666 40.333 -363.999 121s-128 194.667 -128 342c0 85.333 13.5 168.166 40.5 248.499
s66.833 153.833 119.5 220.5c62 80 136 140.667 222 182s181.333 62 286 62c136.667 0 245 -40.333 325 -121s120 -189.334 120 -326.001c0 -26.667 -1.66699 -54.834 -5 -84.501s-8.66602 -62.167 -15.999 -97.5zM855 682.004c2 8.66699 3.33203 17.501 3.99902 26.501
s1 17.833 1 26.5c0 53.333 -14.333 95.666 -43 126.999s-67.667 47 -117 47c-62.667 0 -116.167 -19.167 -160.5 -57.5s-78.166 -94.833 -101.499 -169.5h417z" />
    <glyph glyph-name="Ecaron" unicode="&#x11a;" horiz-adv-x="1259" 
d="M301 1493h934l-51 -291h-588l-49 -278h554l-53 -291h-552l-60 -342h607l-49 -291h-955zM1001 1635h-314l-123 264h155l133 -162l208 162h160z" />
    <glyph glyph-name="ecaron" unicode="&#x11b;" horiz-adv-x="1250" 
d="M1159 518l-11.001 -56.998h-754c0 -4 -0.333008 -9.83301 -1 -17.5s-1 -13.5 -1 -17.5c0 -72.667 19.667 -127 59 -163s98.333 -54 177 -54c68 0 139.667 11.333 215 34s154.333 56.334 237 101.001l-50 -278c-78 -32 -155.833 -55.833 -233.5 -71.5
s-156.834 -23.5 -237.501 -23.5c-157.333 0 -278.666 40.333 -363.999 121s-128 194.667 -128 342c0 85.333 13.5 168.166 40.5 248.499s66.833 153.833 119.5 220.5c62 80 136 140.667 222 182s181.333 62 286 62c136.667 0 245 -40.333 325 -121
s120 -189.334 120 -326.001c0 -26.667 -1.66699 -54.834 -5 -84.501s-8.66602 -62.167 -15.999 -97.5zM854.999 682.002c2 8.66699 3.33203 17.501 3.99902 26.501s1 17.833 1 26.5c0 53.333 -14.333 95.666 -43 126.999s-67.667 47 -117 47
c-62.667 0 -116.167 -19.167 -160.5 -57.5s-78.166 -94.833 -101.499 -169.5h417zM871.998 1262h-234l-165 376h158l141 -227l219 227h177z" />
    <glyph glyph-name="Gcircumflex" unicode="&#x11c;" horiz-adv-x="1512" 
d="M856 1899h313l137 -264h-153l-148 161l-208 -161h-161zM1256 111c-88 -47.333 -179.002 -82.5 -273.002 -105.5s-195 -34.5 -303 -34.5c-190.667 0 -340.5 53.833 -449.5 161.5s-163.5 254.5 -163.5 440.5c0 120.667 17 233.834 51 339.501s85 202.167 153 289.5
c82.667 106.667 180.334 186.334 293.001 239.001s241.334 79 386.001 79c80 0 160.833 -9.33301 242.5 -28s162.167 -46.334 241.5 -83.001l-53 -309c-73.333 47.333 -145 82.666 -215 105.999s-140.333 35 -211 35c-154.667 0 -280.667 -57.333 -378 -172
s-146 -262 -146 -442c0 -119.333 28.333 -212 85 -278s136.667 -99 240 -99c33.333 0 66.833 2.5 100.5 7.5s67.5 12.833 101.5 23.5l52 290h-212l44 258h539z" />
    <glyph glyph-name="gcircumflex" unicode="&#x11d;" horiz-adv-x="1319" 
d="M689 1638h236l164 -376h-160l-140 225l-217 -225h-178zM770 190c-51.333 -65.333 -103.665 -113.335 -156.998 -144.002s-111.666 -46 -174.999 -46c-114 0 -204.167 40.833 -270.5 122.5s-99.5 193.167 -99.5 334.5c0 75.333 11.667 150.833 35 226.5
s56.333 146.834 99 213.501c53.333 80.667 114.166 142.167 182.499 184.5s141.833 63.5 220.5 63.5c70.667 0 130.167 -15.333 178.5 -46s88.833 -79 121.5 -145l27 166h325l-170 -973c-34.667 -200.667 -109 -349 -223 -445s-272.333 -144 -475 -144
c-62.667 0 -122.834 5.33301 -180.501 16s-114.834 27 -171.501 49l48 279c50.667 -36 101.5 -62.833 152.5 -80.5s103.167 -26.5 156.5 -26.5c106.667 0 188.667 25.333 246 76s96 131.334 116 242.001zM680.001 886.998c-78.667 0 -144.334 -39.666 -197.001 -118.999
s-79 -179 -79 -299c0 -68 14.167 -119.833 42.5 -155.5s69.5 -53.5 123.5 -53.5c78.667 0 144.334 39.5 197.001 118.5s79 177.5 79 295.5c0 69.333 -14.167 122.166 -42.5 158.499s-69.5 54.5 -123.5 54.5z" />
    <glyph glyph-name="Gbreve" unicode="&#x11e;" horiz-adv-x="1512" 
d="M1256 111c-88 -47.333 -179.002 -82.5 -273.002 -105.5s-195 -34.5 -303 -34.5c-190.667 0 -340.5 53.833 -449.5 161.5s-163.5 254.5 -163.5 440.5c0 120.667 17 233.834 51 339.501s85 202.167 153 289.5c82.667 106.667 180.334 186.334 293.001 239.001
s241.334 79 386.001 79c80 0 160.833 -9.33301 242.5 -28s162.167 -46.334 241.5 -83.001l-53 -309c-73.333 47.333 -145 82.666 -215 105.999s-140.333 35 -211 35c-154.667 0 -280.667 -57.333 -378 -172s-146 -262 -146 -442c0 -119.333 28.333 -212 85 -278
s136.667 -99 240 -99c33.333 0 66.833 2.5 100.5 7.5s67.5 12.833 101.5 23.5l52 290h-212l44 258h539zM648.998 1899h129c6 -40 21.167 -69.167 45.5 -87.5s60.166 -27.5 107.499 -27.5c43.333 0 80.833 10.167 112.5 30.5s54.5 48.5 68.5 84.5h137
c-23.333 -86 -64.666 -151.5 -123.999 -196.5s-133.333 -67.5 -222 -67.5c-82 0 -144.833 22.5 -188.5 67.5s-65.5 109.167 -65.5 192.5v4z" />
    <glyph glyph-name="gbreve" unicode="&#x11f;" horiz-adv-x="1319" 
d="M770 190c-51.333 -65.333 -103.665 -113.335 -156.998 -144.002s-111.666 -46 -174.999 -46c-114 0 -204.167 40.833 -270.5 122.5s-99.5 193.167 -99.5 334.5c0 75.333 11.667 150.833 35 226.5s56.333 146.834 99 213.501c53.333 80.667 114.166 142.167 182.499 184.5
s141.833 63.5 220.5 63.5c70.667 0 130.167 -15.333 178.5 -46s88.833 -79 121.5 -145l27 166h325l-170 -973c-34.667 -200.667 -109 -349 -223 -445s-272.333 -144 -475 -144c-62.667 0 -122.834 5.33301 -180.501 16s-114.834 27 -171.501 49l48 279
c50.667 -36 101.5 -62.833 152.5 -80.5s103.167 -26.5 156.5 -26.5c106.667 0 188.667 25.333 246 76s96 131.334 116 242.001zM680.001 886.998c-78.667 0 -144.334 -39.666 -197.001 -118.999s-79 -179 -79 -299c0 -68 14.167 -119.833 42.5 -155.5
s69.5 -53.5 123.5 -53.5c78.667 0 144.334 39.5 197.001 118.5s79 177.5 79 295.5c0 69.333 -14.167 122.166 -42.5 158.499s-69.5 54.5 -123.5 54.5zM508.001 1606l127.001 -0.00292969v-9c0 -43.333 13 -76.666 39 -99.999s63 -35 111 -35
c48.667 0 88.5 11.833 119.5 35.5s55.167 59.834 72.5 108.501h136c-20 -95.333 -60.833 -168.666 -122.5 -219.999s-139.167 -77 -232.5 -77c-84 0 -147.167 20.667 -189.5 62s-63.5 102.333 -63.5 183c0 14 0.166992 24.5 0.5 31.5s1.16602 13.833 2.49902 20.5z" />
    <glyph glyph-name="Gdotaccent" unicode="&#x120;" horiz-adv-x="1512" 
d="M890 1899h247l-42 -246h-247zM1256 111c-88 -47.333 -179.002 -82.5 -273.002 -105.5s-195 -34.5 -303 -34.5c-190.667 0 -340.5 53.833 -449.5 161.5s-163.5 254.5 -163.5 440.5c0 120.667 17 233.834 51 339.501s85 202.167 153 289.5
c82.667 106.667 180.334 186.334 293.001 239.001s241.334 79 386.001 79c80 0 160.833 -9.33301 242.5 -28s162.167 -46.334 241.5 -83.001l-53 -309c-73.333 47.333 -145 82.666 -215 105.999s-140.333 35 -211 35c-154.667 0 -280.667 -57.333 -378 -172
s-146 -262 -146 -442c0 -119.333 28.333 -212 85 -278s136.667 -99 240 -99c33.333 0 66.833 2.5 100.5 7.5s67.5 12.833 101.5 23.5l52 290h-212l44 258h539z" />
    <glyph glyph-name="gdotaccent" unicode="&#x121;" horiz-adv-x="1319" 
d="M684 1585h247l-44 -246h-248zM770 190c-51.333 -65.333 -103.665 -113.335 -156.998 -144.002s-111.666 -46 -174.999 -46c-114 0 -204.167 40.833 -270.5 122.5s-99.5 193.167 -99.5 334.5c0 75.333 11.667 150.833 35 226.5s56.333 146.834 99 213.501
c53.333 80.667 114.166 142.167 182.499 184.5s141.833 63.5 220.5 63.5c70.667 0 130.167 -15.333 178.5 -46s88.833 -79 121.5 -145l27 166h325l-170 -973c-34.667 -200.667 -109 -349 -223 -445s-272.333 -144 -475 -144c-62.667 0 -122.834 5.33301 -180.501 16
s-114.834 27 -171.501 49l48 279c50.667 -36 101.5 -62.833 152.5 -80.5s103.167 -26.5 156.5 -26.5c106.667 0 188.667 25.333 246 76s96 131.334 116 242.001zM680.001 886.998c-78.667 0 -144.334 -39.666 -197.001 -118.999s-79 -179 -79 -299
c0 -68 14.167 -119.833 42.5 -155.5s69.5 -53.5 123.5 -53.5c78.667 0 144.334 39.5 197.001 118.5s79 177.5 79 295.5c0 69.333 -14.167 122.166 -42.5 158.499s-69.5 54.5 -123.5 54.5z" />
    <glyph glyph-name="Gcommaaccent" unicode="&#x122;" horiz-adv-x="1512" 
d="M552 -160h292l-252 -298h-173zM1256 111c-88 -47.333 -179.002 -82.5 -273.002 -105.5s-195 -34.5 -303 -34.5c-190.667 0 -340.5 53.833 -449.5 161.5s-163.5 254.5 -163.5 440.5c0 120.667 17 233.834 51 339.501s85 202.167 153 289.5
c82.667 106.667 180.334 186.334 293.001 239.001s241.334 79 386.001 79c80 0 160.833 -9.33301 242.5 -28s162.167 -46.334 241.5 -83.001l-53 -309c-73.333 47.333 -145 82.666 -215 105.999s-140.333 35 -211 35c-154.667 0 -280.667 -57.333 -378 -172
s-146 -262 -146 -442c0 -119.333 28.333 -212 85 -278s136.667 -99 240 -99c33.333 0 66.833 2.5 100.5 7.5s67.5 12.833 101.5 23.5l52 290h-212l44 258h539z" />
    <glyph glyph-name="gcommaaccent" unicode="&#x123;" horiz-adv-x="1319" 
d="M898 1269h-292l252 298h173zM770 190c-51.333 -65.333 -103.665 -113.335 -156.998 -144.002s-111.666 -46 -174.999 -46c-114 0 -204.167 40.833 -270.5 122.5s-99.5 193.167 -99.5 334.5c0 75.333 11.667 150.833 35 226.5s56.333 146.834 99 213.501
c53.333 80.667 114.166 142.167 182.499 184.5s141.833 63.5 220.5 63.5c70.667 0 130.167 -15.333 178.5 -46s88.833 -79 121.5 -145l27 166h325l-170 -973c-34.667 -200.667 -109 -349 -223 -445s-272.333 -144 -475 -144c-62.667 0 -122.834 5.33301 -180.501 16
s-114.834 27 -171.501 49l48 279c50.667 -36 101.5 -62.833 152.5 -80.5s103.167 -26.5 156.5 -26.5c106.667 0 188.667 25.333 246 76s96 131.334 116 242.001zM680.001 886.998c-78.667 0 -144.334 -39.666 -197.001 -118.999s-79 -179 -79 -299
c0 -68 14.167 -119.833 42.5 -155.5s69.5 -53.5 123.5 -53.5c78.667 0 144.334 39.5 197.001 118.5s79 177.5 79 295.5c0 69.333 -14.167 122.166 -42.5 158.499s-69.5 54.5 -123.5 54.5z" />
    <glyph glyph-name="Hcircumflex" unicode="&#x124;" horiz-adv-x="1542" 
d="M814 1899h313l137 -264h-153l-148 161l-208 -161h-161zM301 1493h346l-100 -569h511l99 569h347l-262 -1493h-346l110 633h-510l-111 -633h-346z" />
    <glyph glyph-name="hcircumflex" unicode="&#x125;" horiz-adv-x="1312" 
d="M384 1899h313l137 -264h-153l-148 161l-208 -161h-161zM1189 682l-119.997 -681.999h-323l102 584c7.33301 38 12.833 70.167 16.5 96.5s5.5 47.166 5.5 62.499c0 42.667 -10.667 75.667 -32 99s-51.333 35 -90 35c-66.667 0 -123.834 -28.833 -171.501 -86.5
s-80.834 -137.5 -99.501 -239.5l-97 -551h-323l271 1556h324l-105 -600c59.333 64.667 119 112.667 179 144s122.667 47 188 47c93.333 0 165.166 -27 215.499 -81s75.5 -130 75.5 -228c0 -21.333 -1.33301 -45 -4 -71s-6.66699 -54.333 -12 -85z" />
    <glyph glyph-name="Hbar" unicode="&#x126;" horiz-adv-x="1794" 
d="M426 1493h346l-32 -187h511l32 187h347l-32 -187h126l-35 -194h-126l-194 -1112h-347l111 633h-511l-111 -633h-346l194 1112h-126l34 194h126zM706 1112l-33 -188h511l33 188h-511z" />
    <glyph glyph-name="hbar" unicode="&#x127;" horiz-adv-x="1456" 
d="M1290 682l-119.002 -682h-324l91 520c16.667 94.667 26.334 162 29.001 202c0.666992 10 1 19.333 1 28c0 22.667 -2.33301 40.334 -7 53.001c-8.66699 23.333 -22.667 41.666 -42 54.999c-18.667 12.667 -42 19 -70 19c-67.333 0 -125.166 -28.833 -173.499 -86.5
s-81.5 -137.5 -99.5 -239.5l-96 -551h-322l219 1255h-144l33 194h144l19 107h323l-19 -107h326l-33 -194h-327l-52 -299c60 65.333 120 113.333 180 144c60 31.333 123 47 189 47c116 0 197.333 -39.667 244 -119c30 -50.667 45 -116 45 -196c0 -45.333 -5 -95.333 -15 -150
z" />
    <glyph glyph-name="Itilde" unicode="&#x128;" horiz-adv-x="685" 
d="M490 1686l-44.998 37.001c-14 12.667 -26 21.167 -36 25.5s-20.333 6.5 -31 6.5c-21.333 0 -39.833 -10.667 -55.5 -32s-26.834 -50.666 -33.501 -87.999h-123c15.333 85.333 42.666 151 81.999 197s87.333 69 144 69c22.667 0 43.667 -4 63 -12s39.666 -21 60.999 -39
l47 -41c10 -8.66699 20.333 -15.334 31 -20.001s21 -7 31 -7c23.333 0 42.833 10.167 58.5 30.5s26.5 49.833 32.5 88.5h125c-16 -85.333 -43.667 -151 -83 -197s-86.666 -69 -141.999 -69c-23.333 0 -44.5 3.66699 -63.5 11s-39.833 20.666 -62.5 39.999zM301.002 1493h346
l-262 -1493h-346z" />
    <glyph glyph-name="itilde" unicode="&#x129;" horiz-adv-x="631" 
d="M445 1364l-45.001 37.001c-1.33301 1.33301 -4.33301 3.66602 -9 6.99902c-22.667 20 -43 30 -61 30c-20 0 -37.833 -11.5 -53.5 -34.5s-26.5 -54.5 -32.5 -94.5h-126c16 91.333 43.667 161.5 83 210.5s87.333 73.5 144 73.5c21.333 0 42 -4.5 62 -13.5
s41.333 -23.5 64 -43.5l47 -43c11.333 -10 22 -17.667 32 -23s19.667 -8 29 -8c22.667 0 41.834 11.167 57.501 33.5s26.5 54.166 32.5 95.499h126c-16 -90.667 -43.5 -160.667 -82.5 -210s-86.5 -74 -142.5 -74c-20.667 0 -40 3.83301 -58 11.5s-40.333 22.834 -67 45.501z
M252.999 1120h324l-197 -1120h-323z" />
    <glyph glyph-name="Imacron" unicode="&#x12a;" horiz-adv-x="685" 
d="M301 1493h346l-262 -1493h-346zM200 1871h567l-33 -188h-568z" />
    <glyph glyph-name="imacron" unicode="&#x12b;" horiz-adv-x="631" 
d="M253 1120h324l-197 -1120h-323zM174 1563h567l-33 -188h-568z" />
    <glyph glyph-name="Ibreve" unicode="&#x12c;" horiz-adv-x="685" 
d="M234 1899h129c6 -40 21.167 -69.167 45.5 -87.5s60.166 -27.5 107.499 -27.5c43.333 0 80.833 10.167 112.5 30.5s54.5 48.5 68.5 84.5h137c-23.333 -86 -64.666 -151.5 -123.999 -196.5s-133.333 -67.5 -222 -67.5c-82 0 -144.833 22.5 -188.5 67.5
s-65.5 109.167 -65.5 192.5v4zM301 1493h346l-262 -1493h-346z" />
    <glyph glyph-name="ibreve" unicode="&#x12d;" horiz-adv-x="631" 
d="M182 1606l127.001 -0.00292969v-9c0 -43.333 13 -76.666 39 -99.999s63 -35 111 -35c48.667 0 88.5 11.833 119.5 35.5s55.167 59.834 72.5 108.501h136c-20 -95.333 -60.833 -168.666 -122.5 -219.999s-139.167 -77 -232.5 -77c-84 0 -147.167 20.667 -189.5 62
s-63.5 102.333 -63.5 183c0 14 0.166992 24.5 0.5 31.5s1.16602 13.833 2.49902 20.5zM253.001 1120h324l-197 -1120h-323z" />
    <glyph glyph-name="Iogonek" unicode="&#x12e;" horiz-adv-x="685" 
d="M301 1493h346l-262 -1493h-346zM257 0l128.001 0.00195312c-42.667 -49.333 -71.834 -87.333 -87.501 -114s-23.5 -49.334 -23.5 -68.001c0 -22.667 7.5 -40.334 22.5 -53.001s35.833 -19 62.5 -19c22 0 45.333 2.66699 70 8s50 13 76 23l-26 -152
c-34.667 -8.66699 -65.5 -15.167 -92.5 -19.5s-52.167 -6.5 -75.5 -6.5c-63.333 0 -111.666 11.5 -144.999 34.5s-50 56.5 -50 100.5c0 43.333 11.167 86 33.5 128s58.166 88 107.499 138z" />
    <glyph glyph-name="iogonek" unicode="&#x12f;" horiz-adv-x="631" 
d="M252 0l128.001 0.00195312c-42.667 -49.333 -71.834 -87.333 -87.501 -114s-23.5 -49.334 -23.5 -68.001c0 -22.667 7.5 -40.334 22.5 -53.001s35.833 -19 62.5 -19c22 0 45.333 2.66699 70 8s50 13 76 23l-26 -152c-34.667 -8.66699 -65.5 -15.167 -92.5 -19.5
s-52.167 -6.5 -75.5 -6.5c-63.333 0 -111.666 11.5 -144.999 34.5s-50 56.5 -50 100.5c0 43.333 11.167 86 33.5 128s58.166 88 107.499 138zM253.001 1120h324l-197 -1120h-323zM328.001 1556h324l-51 -292h-325z" />
    <glyph glyph-name="Idotaccent" unicode="&#x130;" horiz-adv-x="685" 
d="M301 1493h346l-262 -1493h-346zM407 1899h247l-42 -246h-247z" />
    <glyph glyph-name="dotlessi" unicode="&#x131;" horiz-adv-x="631" 
d="M253 1120h324l-197 -1120h-323z" />
    <glyph glyph-name="IJ" unicode="&#x132;" horiz-adv-x="1371" 
d="M301 1493h346l-262 -1493h-346zM986 1493l346.003 0.000976562l-236 -1348c-34.667 -194.667 -102.834 -335.834 -204.501 -423.501s-249.167 -131.5 -442.5 -131.5h-70l51 291h54c71.333 0 129.666 22.5 174.999 67.5s75.666 110.5 90.999 196.5z" />
    <glyph glyph-name="ij" unicode="&#x133;" horiz-adv-x="1263" 
d="M253 1120h324l-197 -1120h-323zM328 1556h324l-51 -292h-325zM885 1120l323.999 0.000976562l-194 -1100c-27.333 -156.667 -78.666 -272.834 -153.999 -348.501s-177 -113.5 -305 -113.5h-160l41 235h56c60.667 0 105 15.167 133 45.5s49.667 90.833 65 181.5z
M959.999 1556h324l-51 -292h-325z" />
    <glyph glyph-name="Jcircumflex" unicode="&#x134;" horiz-adv-x="685" 
d="M385 1899h313l137 -264h-153l-148 161l-208 -161h-161zM301 1493l346.003 0.000976562l-236 -1348c-34.667 -194.667 -102.834 -335.834 -204.501 -423.501s-249.167 -131.5 -442.5 -131.5h-70l51 291h54c71.333 0 129.666 22.5 174.999 67.5s75.666 110.5 90.999 196.5z
" />
    <glyph glyph-name="jcircumflex" unicode="&#x135;" horiz-adv-x="631" 
d="M388 1638h236l164 -376h-160l-140 225l-217 -225h-178zM253 1120l323.999 0.000976562l-194 -1100c-27.333 -156.667 -78.666 -272.834 -153.999 -348.501s-177 -113.5 -305 -113.5h-160l41 235h56c60.667 0 105 15.167 133 45.5s49.667 90.833 65 181.5z" />
    <glyph glyph-name="Kcommaaccent" unicode="&#x136;" horiz-adv-x="1428" 
d="M567 -131h292l-252 -298h-173zM301 1493h346l-94 -537l571 537h419l-771 -725l581 -768h-407l-452 623l-109 -623h-346z" />
    <glyph glyph-name="kcommaaccent" unicode="&#x137;" horiz-adv-x="1225" 
d="M479 -131h292l-252 -298h-173zM328 1556h324l-147 -843l435 407h379l-585 -518l425 -602h-368l-327 483l-84 -483h-323z" />
    <glyph glyph-name="kgreenlandic" unicode="&#x138;" horiz-adv-x="1225" 
d="M253 1120h322l-72 -411l443 411h374l-582 -514l425 -606h-391l-311 467l-82 -467h-322z" />
    <glyph glyph-name="Lacute" unicode="&#x139;" horiz-adv-x="1174" 
d="M651 1900h252l-287 -264h-186zM301 1493h346l-211 -1202h607l-49 -291h-955z" />
    <glyph glyph-name="lacute" unicode="&#x13a;" horiz-adv-x="631" 
d="M629 1900h252l-287 -264h-186zM328 1556h324l-272 -1556h-323z" />
    <glyph glyph-name="Lcommaaccent" unicode="&#x13b;" horiz-adv-x="1174" 
d="M387 -131h292l-252 -298h-173zM301 1493h346l-211 -1202h607l-49 -291h-955z" />
    <glyph glyph-name="lcommaaccent" unicode="&#x13c;" horiz-adv-x="631" 
d="M90 -131h292l-252 -298h-173zM328 1556h324l-272 -1556h-323z" />
    <glyph glyph-name="Lcaron" unicode="&#x13d;" horiz-adv-x="1174" 
d="M885 1492h263l-193 -376h-181zM301 1493h346l-211 -1202h607l-49 -291h-955z" />
    <glyph glyph-name="lcaron" unicode="&#x13e;" horiz-adv-x="631" 
d="M809 1556h263l-193 -376h-181zM328 1556h324l-272 -1556h-323z" />
    <glyph glyph-name="Ldot" unicode="&#x13f;" horiz-adv-x="1174" 
d="M826 1091h324l-68 -387h-324zM301 1493h346l-211 -1202h607l-49 -291h-955z" />
    <glyph glyph-name="ldot" unicode="&#x140;" horiz-adv-x="631" 
d="M698 1097h324l-68 -387h-324zM328 1556h324l-272 -1556h-323z" />
    <glyph glyph-name="Lslash" unicode="&#x141;" horiz-adv-x="1216" 
d="M369 1493h347l-91 -516l306 151l94 -210l-450 -220l-70 -407h607l-50 -291h-955l88 502l-144 -74l-93 215l285 135z" />
    <glyph glyph-name="lslash" unicode="&#x142;" horiz-adv-x="691" 
d="M367 1556h324l-92 -516l152 78l90 -203l-288 -145l-135 -770h-324l105 598l-125 -68l-87 203l260 135z" />
    <glyph glyph-name="Nacute" unicode="&#x143;" horiz-adv-x="1542" 
d="M956 1900h252l-287 -264h-186zM301 1493h387l307 -1034l181 1034h328l-262 -1493h-387l-308 1034l-180 -1034h-328z" />
    <glyph glyph-name="nacute" unicode="&#x144;" horiz-adv-x="1312" 
d="M874 1645h264l-395 -376h-181zM1189 682l-119.997 -681.999h-323l102 584c7.33301 38 12.833 70.167 16.5 96.5s5.5 47.166 5.5 62.499c0 42.667 -10.667 75.667 -32 99s-51.333 35 -90 35c-66.667 0 -123.834 -28.833 -171.501 -86.5s-80.834 -137.5 -99.501 -239.5
l-97 -551h-323l196 1120h324l-30 -164c59.333 64.667 119 112.667 179 144s122.667 47 188 47c93.333 0 165.166 -27 215.499 -81s75.5 -130 75.5 -228c0 -21.333 -1.33301 -45 -4 -71s-6.66699 -54.333 -12 -85z" />
    <glyph glyph-name="Ncommaaccent" unicode="&#x145;" horiz-adv-x="1542" 
d="M512 -131h292l-252 -298h-173zM301 1493h387l307 -1034l181 1034h328l-262 -1493h-387l-308 1034l-180 -1034h-328z" />
    <glyph glyph-name="ncommaaccent" unicode="&#x146;" horiz-adv-x="1312" 
d="M434 -131h292l-252 -298h-173zM1189 682l-119.997 -681.999h-323l102 584c7.33301 38 12.833 70.167 16.5 96.5s5.5 47.166 5.5 62.499c0 42.667 -10.667 75.667 -32 99s-51.333 35 -90 35c-66.667 0 -123.834 -28.833 -171.501 -86.5s-80.834 -137.5 -99.501 -239.5
l-97 -551h-323l196 1120h324l-30 -164c59.333 64.667 119 112.667 179 144s122.667 47 188 47c93.333 0 165.166 -27 215.499 -81s75.5 -130 75.5 -228c0 -21.333 -1.33301 -45 -4 -71s-6.66699 -54.333 -12 -85z" />
    <glyph glyph-name="Ncaron" unicode="&#x147;" horiz-adv-x="1542" 
d="M301 1493h387l307 -1034l181 1034h328l-262 -1493h-387l-308 1034l-180 -1034h-328zM1130 1635h-314l-123 264h155l133 -162l208 162h160z" />
    <glyph glyph-name="ncaron" unicode="&#x148;" horiz-adv-x="1312" 
d="M1189 682l-119.997 -681.999h-323l102 584c7.33301 38 12.833 70.167 16.5 96.5s5.5 47.166 5.5 62.499c0 42.667 -10.667 75.667 -32 99s-51.333 35 -90 35c-66.667 0 -123.834 -28.833 -171.501 -86.5s-80.834 -137.5 -99.501 -239.5l-97 -551h-323l196 1120h324
l-30 -164c59.333 64.667 119 112.667 179 144s122.667 47 188 47c93.333 0 165.166 -27 215.499 -81s75.5 -130 75.5 -228c0 -21.333 -1.33301 -45 -4 -71s-6.66699 -54.333 -12 -85zM872.003 1262h-234l-165 376h158l141 -227l219 227h177z" />
    <glyph glyph-name="napostrophe" unicode="&#x149;" horiz-adv-x="1811" 
d="M314 1493h306l-50 -285l-266 -352h-192l152 352zM1663 682l-119.997 -681.999h-323l102 584c7.33301 38 12.833 70.167 16.5 96.5s5.5 47.166 5.5 62.499c0 42.667 -10.667 75.667 -32 99s-51.333 35 -90 35c-66.667 0 -123.834 -28.833 -171.501 -86.5
s-80.834 -137.5 -99.501 -239.5l-97 -551h-323l196 1120h324l-30 -164c59.333 64.667 119 112.667 179 144s122.667 47 188 47c93.333 0 165.166 -27 215.499 -81s75.5 -130 75.5 -228c0 -21.333 -1.33301 -45 -4 -71s-6.66699 -54.333 -12 -85z" />
    <glyph glyph-name="Eng" unicode="&#x14a;" horiz-adv-x="1542" 
d="M1275 145c-34.667 -198 -98.667 -336.998 -192 -416.998c-106.667 -92 -252 -138 -436 -138h-71l51 291h54c72 0 131.167 23 177.5 69s76.833 111 91.5 195l95 546c25.333 144.667 38 238.5 38 281.5s-5.66699 76.667 -17 101s-32.333 45.166 -63 62.499s-67 26 -109 26
c-94 0 -174.5 -38.333 -241.5 -115s-112.167 -182.334 -135.5 -317.001l-128 -730h-331l261 1493h334l-39 -227c82 90 161.333 154.833 238 194.5s158.667 59.5 246 59.5c136 0 230.333 -52.667 283 -158c31.333 -63.333 47 -135.5 47 -216.5s-7 -161.833 -21 -242.5z" />
    <glyph glyph-name="eng" unicode="&#x14b;" horiz-adv-x="1312" 
d="M1226 682l-116.001 -662c-26 -148.667 -79 -263.334 -159 -344.001c-78.667 -78.667 -179.334 -118 -302.001 -118h-253l40 235h150c61.333 0 106 15.333 134 46s50 91 66 181l88 502c16.667 96.667 26.667 163.334 30 200.001v26c0 24 -2.33301 42.333 -7 55
c-8.66699 23.333 -22.667 41.666 -42 54.999c-19.333 12.667 -42.666 19 -69.999 19c-67.333 0 -125.333 -29 -174 -87c-48.667 -57.333 -81.667 -137 -99 -239l-97 -551h-322l196 1120h322l-29 -164c60 65.333 120 113.333 180 144c60 31.333 123 47 189 47
c116.667 0 198.334 -39.667 245.001 -119c29.333 -50.667 44 -115.667 44 -195c0 -45.333 -4.66699 -95.666 -14 -150.999z" />
    <glyph glyph-name="Omacron" unicode="&#x14c;" horiz-adv-x="1566" 
d="M1134 881c0 117.333 -23.832 206.668 -71.499 268.001s-116.834 92 -207.501 92c-120 0 -220.667 -59.833 -302 -179.5s-122 -269.5 -122 -449.5c0 -114.667 23.667 -203.667 71 -267s113.333 -95 198 -95c69.333 0 130.833 16.167 184.5 48.5s99.5 80.166 137.5 143.499
c36 60.667 63.667 129 83 205s29 154 29 234zM905.001 1520c179.333 0 323.331 -55.167 431.998 -165.5s163 -254.5 163 -432.5c0 -121.333 -16.667 -236 -50 -344s-81.666 -205 -144.999 -291c-78 -106 -170.333 -185.167 -277 -237.5s-229.334 -78.5 -368.001 -78.5
c-178.667 0 -322.167 55 -430.5 165s-162.5 254.333 -162.5 433c0 122 16.5 237 49.5 345s81.5 205.333 145.5 292c76.667 105.333 168.334 184 275.001 236s229.334 78 368.001 78zM640.999 1871h567l-33 -188h-568z" />
    <glyph glyph-name="omacron" unicode="&#x14d;" horiz-adv-x="1266" 
d="M691 891c-83.333 0 -152 -42 -206 -126s-81 -191 -81 -321c0 -70.667 14.5 -124.5 43.5 -161.5s71.5 -55.5 127.5 -55.5c83.333 0 152 42.167 206 126.5s81 191.833 81 322.5c0 70 -14.5 123.333 -43.5 160s-71.5 55 -127.5 55zM717 1147
c150 0 268.002 -42.332 354.002 -126.999s129 -200 129 -346c0 -84.667 -13.5 -166.834 -40.5 -246.501s-66.5 -152.5 -118.5 -218.5c-60.667 -78.667 -132.834 -138 -216.501 -178s-176.834 -60 -279.501 -60c-148 0 -264.667 42.333 -350 127s-128 200 -128 346
c0 84 13.667 166.167 41 246.5s67 153.833 119 220.5c60 77.333 131.5 136 214.5 176s174.833 60 275.5 60zM493.002 1563h567l-33 -188h-568z" />
    <glyph glyph-name="Obreve" unicode="&#x14e;" horiz-adv-x="1566" 
d="M700 1899h129c6 -40 21.167 -69.167 45.5 -87.5s60.166 -27.5 107.499 -27.5c43.333 0 80.833 10.167 112.5 30.5s54.5 48.5 68.5 84.5h137c-23.333 -86 -64.666 -151.5 -123.999 -196.5s-133.333 -67.5 -222 -67.5c-82 0 -144.833 22.5 -188.5 67.5
s-65.5 109.167 -65.5 192.5v4zM1134 881c0 117.333 -23.832 206.668 -71.499 268.001s-116.834 92 -207.501 92c-120 0 -220.667 -59.833 -302 -179.5s-122 -269.5 -122 -449.5c0 -114.667 23.667 -203.667 71 -267s113.333 -95 198 -95c69.333 0 130.833 16.167 184.5 48.5
s99.5 80.166 137.5 143.499c36 60.667 63.667 129 83 205s29 154 29 234zM905.001 1520c179.333 0 323.331 -55.167 431.998 -165.5s163 -254.5 163 -432.5c0 -121.333 -16.667 -236 -50 -344s-81.666 -205 -144.999 -291c-78 -106 -170.333 -185.167 -277 -237.5
s-229.334 -78.5 -368.001 -78.5c-178.667 0 -322.167 55 -430.5 165s-162.5 254.333 -162.5 433c0 122 16.5 237 49.5 345s81.5 205.333 145.5 292c76.667 105.333 168.334 184 275.001 236s229.334 78 368.001 78z" />
    <glyph glyph-name="obreve" unicode="&#x14f;" horiz-adv-x="1266" 
d="M483 1606l127.001 -0.00292969v-9c0 -43.333 13 -76.666 39 -99.999s63 -35 111 -35c48.667 0 88.5 11.833 119.5 35.5s55.167 59.834 72.5 108.501h136c-20 -95.333 -60.833 -168.666 -122.5 -219.999s-139.167 -77 -232.5 -77c-84 0 -147.167 20.667 -189.5 62
s-63.5 102.333 -63.5 183c0 14 0.166992 24.5 0.5 31.5s1.16602 13.833 2.49902 20.5zM691.001 890.997c-83.333 0 -152 -42 -206 -126s-81 -191 -81 -321c0 -70.667 14.5 -124.5 43.5 -161.5s71.5 -55.5 127.5 -55.5c83.333 0 152 42.167 206 126.5s81 191.833 81 322.5
c0 70 -14.5 123.333 -43.5 160s-71.5 55 -127.5 55zM717.001 1147c150 0 268.002 -42.332 354.002 -126.999s129 -200 129 -346c0 -84.667 -13.5 -166.834 -40.5 -246.501s-66.5 -152.5 -118.5 -218.5c-60.667 -78.667 -132.834 -138 -216.501 -178
s-176.834 -60 -279.501 -60c-148 0 -264.667 42.333 -350 127s-128 200 -128 346c0 84 13.667 166.167 41 246.5s67 153.833 119 220.5c60 77.333 131.5 136 214.5 176s174.833 60 275.5 60z" />
    <glyph glyph-name="Ohungarumlaut" unicode="&#x150;" horiz-adv-x="1566" 
d="M1248 1899h252l-287 -264h-186zM830 1899h252l-287 -264h-187zM1134 881c0 117.333 -23.832 206.668 -71.499 268.001s-116.834 92 -207.501 92c-120 0 -220.667 -59.833 -302 -179.5s-122 -269.5 -122 -449.5c0 -114.667 23.667 -203.667 71 -267s113.333 -95 198 -95
c69.333 0 130.833 16.167 184.5 48.5s99.5 80.166 137.5 143.499c36 60.667 63.667 129 83 205s29 154 29 234zM905.001 1520c179.333 0 323.331 -55.167 431.998 -165.5s163 -254.5 163 -432.5c0 -121.333 -16.667 -236 -50 -344s-81.666 -205 -144.999 -291
c-78 -106 -170.333 -185.167 -277 -237.5s-229.334 -78.5 -368.001 -78.5c-178.667 0 -322.167 55 -430.5 165s-162.5 254.333 -162.5 433c0 122 16.5 237 49.5 345s81.5 205.333 145.5 292c76.667 105.333 168.334 184 275.001 236s229.334 78 368.001 78z" />
    <glyph glyph-name="ohungarumlaut" unicode="&#x151;" horiz-adv-x="1266" 
d="M649 1638h225l-280 -376h-156zM987 1638h225l-310 -376h-156zM691 891c-83.333 0 -152 -42 -206 -126s-81 -191 -81 -321c0 -70.667 14.5 -124.5 43.5 -161.5s71.5 -55.5 127.5 -55.5c83.333 0 152 42.167 206 126.5s81 191.833 81 322.5c0 70 -14.5 123.333 -43.5 160
s-71.5 55 -127.5 55zM717 1147c150 0 268.002 -42.332 354.002 -126.999s129 -200 129 -346c0 -84.667 -13.5 -166.834 -40.5 -246.501s-66.5 -152.5 -118.5 -218.5c-60.667 -78.667 -132.834 -138 -216.501 -178s-176.834 -60 -279.501 -60
c-148 0 -264.667 42.333 -350 127s-128 200 -128 346c0 84 13.667 166.167 41 246.5s67 153.833 119 220.5c60 77.333 131.5 136 214.5 176s174.833 60 275.5 60z" />
    <glyph glyph-name="OE" unicode="&#x152;" horiz-adv-x="2151" 
d="M1141 1202h-94c-84 0 -157.167 -7.83301 -219.5 -23.5s-116.5 -39.834 -162.5 -72.501c-68 -49.333 -122.5 -115.666 -163.5 -198.999s-61.5 -170 -61.5 -260c0 -122 36.167 -211.833 108.5 -269.5s184.833 -86.5 337.5 -86.5h97zM1112 1493h1015l-52 -291h-585l-51 -278
h554l-52 -291h-553l-59 -342h608l-51 -291h-1044h-49c-227.333 -0 -403.5 50.333 -528.5 151s-187.5 242 -187.5 424c0 161.333 35.5 310.5 106.5 447.5s168.833 246.167 293.5 327.5c76.667 48.667 162.334 84.667 257.001 108s203.334 35 326.001 35h52z" />
    <glyph glyph-name="oe" unicode="&#x153;" horiz-adv-x="2016" 
d="M1618 682c2 8.66699 3.5 17.501 4.5 26.501s1.5 17.833 1.5 26.5c0 53.333 -14.5 95.666 -43.5 126.999s-68.167 47 -117.5 47c-62.667 0 -116.667 -19.5 -162 -58.5s-79 -95.167 -101 -168.5h418zM1922 518.001l-10.001 -57.001h-755
c0 -4 -0.166992 -9.83301 -0.5 -17.5s-0.5 -13.5 -0.5 -17.5c0 -72.667 19.667 -127 59 -163s98 -54 176 -54c67.333 0 138.833 11.333 214.5 34s154.834 56.334 237.501 101.001l-49 -278c-78.667 -32 -157 -55.833 -235 -71.5s-158 -23.5 -240 -23.5
c-92.667 0 -169 13 -229 39s-107.333 66.333 -142 121c-54 -54.667 -113.167 -95 -177.5 -121s-137.5 -39 -219.5 -39c-150.667 0 -269 42.167 -355 126.5s-129 199.833 -129 346.5c0 84.667 13.5 167.167 40.5 247.5s66.167 153.5 117.5 219.5
c60.667 78 133 136.833 217 176.5s177.667 59.5 281 59.5c84 0 156.333 -13.5 217 -40.5s110.334 -67.5 149.001 -121.5c56.667 54 119.167 94.5 187.5 121.5s143.5 40.5 225.5 40.5c134 0 241 -40.667 321 -122s120 -189 120 -323c0 -26.667 -1.83301 -55.5 -5.5 -86.5
s-8.83398 -63.5 -15.501 -97.5zM690.999 891c-83.333 0 -152 -42 -206 -126s-81 -191 -81 -321c0 -70.667 14.5 -124.5 43.5 -161.5s71.5 -55.5 127.5 -55.5c83.333 0 152 42.167 206 126.5s81 191.833 81 322.5c0 70 -14.5 123.333 -43.5 160s-71.5 55 -127.5 55z" />
    <glyph glyph-name="Racute" unicode="&#x154;" horiz-adv-x="1419" 
d="M923 1900h252l-287 -264h-186zM677 831c78.667 0 138.167 20.332 178.5 60.999s60.5 100.334 60.5 179.001c0 49.333 -14 85.5 -42 108.5s-72 34.5 -132 34.5h-143l-68 -383h146zM485 564.999l-99.998 -565.002h-346l262 1493h512c147.333 0 259.166 -30.667 335.499 -92
s114.5 -151.666 114.5 -270.999c0 -120.667 -30 -220 -90 -298s-141.333 -122.667 -244 -134c46.667 -10.667 85.667 -37.167 117 -79.5s58.666 -107.166 81.999 -194.499l114 -424h-345l-101 371c-20 74 -44.5 124.833 -73.5 152.5s-71.167 41.5 -126.5 41.5h-111z" />
    <glyph glyph-name="racute" unicode="&#x155;" horiz-adv-x="909" 
d="M874 1645h264l-395 -376h-181zM948 815c-22.667 14 -47.5 24.667 -74.5 32s-55.833 11 -86.5 11c-82.667 0 -151.167 -29.333 -205.5 -88s-90.833 -143.334 -109.5 -254.001l-92 -516h-323l196 1120h324l-35 -192c42.667 70.667 95.834 124.834 159.501 162.501
s134.5 56.5 212.5 56.5c12 0 25.167 -0.666992 39.5 -2s31.166 -3.33301 50.499 -6z" />
    <glyph glyph-name="Rcommaaccent" unicode="&#x156;" horiz-adv-x="1419" 
d="M512 -131h292l-252 -298h-173zM677 831c78.667 0 138.167 20.332 178.5 60.999s60.5 100.334 60.5 179.001c0 49.333 -14 85.5 -42 108.5s-72 34.5 -132 34.5h-143l-68 -383h146zM485 564.999l-99.998 -565.002h-346l262 1493h512c147.333 0 259.166 -30.667 335.499 -92
s114.5 -151.666 114.5 -270.999c0 -120.667 -30 -220 -90 -298s-141.333 -122.667 -244 -134c46.667 -10.667 85.667 -37.167 117 -79.5s58.666 -107.166 81.999 -194.499l114 -424h-345l-101 371c-20 74 -44.5 124.833 -73.5 152.5s-71.167 41.5 -126.5 41.5h-111z" />
    <glyph glyph-name="rcommaaccent" unicode="&#x157;" horiz-adv-x="909" 
d="M90 -131h292l-252 -298h-173zM948 815c-22.667 14 -47.5 24.667 -74.5 32s-55.833 11 -86.5 11c-82.667 0 -151.167 -29.333 -205.5 -88s-90.833 -143.334 -109.5 -254.001l-92 -516h-323l196 1120h324l-35 -192c42.667 70.667 95.834 124.834 159.501 162.501
s134.5 56.5 212.5 56.5c12 0 25.167 -0.666992 39.5 -2s31.166 -3.33301 50.499 -6z" />
    <glyph glyph-name="Rcaron" unicode="&#x158;" horiz-adv-x="1419" 
d="M677 831c78.667 0 138.167 20.332 178.5 60.999s60.5 100.334 60.5 179.001c0 49.333 -14 85.5 -42 108.5s-72 34.5 -132 34.5h-143l-68 -383h146zM485 564.999l-99.998 -565.002h-346l262 1493h512c147.333 0 259.166 -30.667 335.499 -92
s114.5 -151.666 114.5 -270.999c0 -120.667 -30 -220 -90 -298s-141.333 -122.667 -244 -134c46.667 -10.667 85.667 -37.167 117 -79.5s58.666 -107.166 81.999 -194.499l114 -424h-345l-101 371c-20 74 -44.5 124.833 -73.5 152.5s-71.167 41.5 -126.5 41.5h-111z
M963.002 1635h-314l-123 264h155l133 -162l208 162h160z" />
    <glyph glyph-name="rcaron" unicode="&#x159;" horiz-adv-x="909" 
d="M948 815c-22.667 14 -47.5 24.667 -74.5 32s-55.833 11 -86.5 11c-82.667 0 -151.167 -29.333 -205.5 -88s-90.833 -143.334 -109.5 -254.001l-92 -516h-323l196 1120h324l-35 -192c42.667 70.667 95.834 124.834 159.501 162.501s134.5 56.5 212.5 56.5
c12 0 25.167 -0.666992 39.5 -2s31.166 -3.33301 50.499 -6zM813 1262h-234l-165 376h158l141 -227l219 227h177z" />
    <glyph glyph-name="Sacute" unicode="&#x15a;" horiz-adv-x="1327" 
d="M923 1900h252l-287 -264h-186zM1226 1446l-55.9951 -315.999c-68 37.333 -135 65.166 -201 83.499s-130.333 27.5 -193 27.5c-86.667 0 -154.167 -15 -202.5 -45s-72.5 -71.667 -72.5 -125c0 -34 10.667 -60.5 32 -79.5s65.333 -37.5 132 -55.5l142 -39
c119.333 -33.333 206.666 -81.5 261.999 -144.5s83 -144.5 83 -244.5c0 -162 -55.333 -292 -166 -390s-259.334 -147 -446.001 -147c-86.667 0 -173.167 9 -259.5 27s-170.5 44.667 -252.5 80l55 325c79.333 -51.333 156.666 -89.666 231.999 -114.999
s149.666 -38 222.999 -38c79.333 0 143.833 18 193.5 54s74.5 82 74.5 138c0 36.667 -11.167 65.167 -33.5 85.5s-71.166 41.166 -146.499 62.499l-141 39c-104.667 28.667 -182.334 74 -233.001 136s-76 142.333 -76 241c0 155.333 53.5 279.833 160.5 373.5
s251.167 140.5 432.5 140.5c72.667 0 147.167 -6.16699 223.5 -18.5s154.166 -30.833 233.499 -55.5z" />
    <glyph glyph-name="sacute" unicode="&#x15b;" horiz-adv-x="1097" 
d="M874 1645h264l-395 -376h-181zM1032 1085l-47 -277.999c-63.333 33.333 -126.166 58.666 -188.499 75.999s-121.5 26 -177.5 26c-63.333 0 -112.333 -9.16699 -147 -27.5s-52 -44.5 -52 -78.5c0 -20 9.66699 -36 29 -48s57 -24.667 113 -38l59 -12
c130 -30.667 221.167 -70.167 273.5 -118.5s78.5 -115.5 78.5 -201.5c0 -130 -45.833 -231.5 -137.5 -304.5s-220.167 -109.5 -385.5 -109.5c-69.333 0 -140 6 -212 18s-145.333 30 -220 54l49 281c58 -38 120.167 -66.667 186.5 -86s134.166 -29 203.499 -29
c68 0 119.167 9 153.5 27s51.5 44.333 51.5 79c0 24 -9.66699 42.667 -29 56s-59 27 -119 41l-59 12c-114.667 26.667 -196.667 66 -246 118s-74 124 -74 216c0 124.667 42.5 220.667 127.5 288s206.167 101 363.5 101c69.333 0 137.5 -5.16699 204.5 -15.5
s134.167 -25.833 201.5 -46.5z" />
    <glyph glyph-name="Scircumflex" unicode="&#x15c;" horiz-adv-x="1327" 
d="M675 1899h313l137 -264h-153l-148 161l-208 -161h-161zM1226 1446l-55.9951 -315.999c-68 37.333 -135 65.166 -201 83.499s-130.333 27.5 -193 27.5c-86.667 0 -154.167 -15 -202.5 -45s-72.5 -71.667 -72.5 -125c0 -34 10.667 -60.5 32 -79.5s65.333 -37.5 132 -55.5
l142 -39c119.333 -33.333 206.666 -81.5 261.999 -144.5s83 -144.5 83 -244.5c0 -162 -55.333 -292 -166 -390s-259.334 -147 -446.001 -147c-86.667 0 -173.167 9 -259.5 27s-170.5 44.667 -252.5 80l55 325c79.333 -51.333 156.666 -89.666 231.999 -114.999
s149.666 -38 222.999 -38c79.333 0 143.833 18 193.5 54s74.5 82 74.5 138c0 36.667 -11.167 65.167 -33.5 85.5s-71.166 41.166 -146.499 62.499l-141 39c-104.667 28.667 -182.334 74 -233.001 136s-76 142.333 -76 241c0 155.333 53.5 279.833 160.5 373.5
s251.167 140.5 432.5 140.5c72.667 0 147.167 -6.16699 223.5 -18.5s154.166 -30.833 233.499 -55.5z" />
    <glyph glyph-name="scircumflex" unicode="&#x15d;" horiz-adv-x="1097" 
d="M595 1638h236l164 -376h-160l-140 225l-217 -225h-178zM1032 1085l-47 -277.999c-63.333 33.333 -126.166 58.666 -188.499 75.999s-121.5 26 -177.5 26c-63.333 0 -112.333 -9.16699 -147 -27.5s-52 -44.5 -52 -78.5c0 -20 9.66699 -36 29 -48s57 -24.667 113 -38
l59 -12c130 -30.667 221.167 -70.167 273.5 -118.5s78.5 -115.5 78.5 -201.5c0 -130 -45.833 -231.5 -137.5 -304.5s-220.167 -109.5 -385.5 -109.5c-69.333 0 -140 6 -212 18s-145.333 30 -220 54l49 281c58 -38 120.167 -66.667 186.5 -86s134.166 -29 203.499 -29
c68 0 119.167 9 153.5 27s51.5 44.333 51.5 79c0 24 -9.66699 42.667 -29 56s-59 27 -119 41l-59 12c-114.667 26.667 -196.667 66 -246 118s-74 124 -74 216c0 124.667 42.5 220.667 127.5 288s206.167 101 363.5 101c69.333 0 137.5 -5.16699 204.5 -15.5
s134.167 -25.833 201.5 -46.5z" />
    <glyph glyph-name="Scedilla" unicode="&#x15e;" horiz-adv-x="1327" 
d="M1226 1446l-55.9951 -315.999c-68 37.333 -135 65.166 -201 83.499s-130.333 27.5 -193 27.5c-86.667 0 -154.167 -15 -202.5 -45s-72.5 -71.667 -72.5 -125c0 -34 10.667 -60.5 32 -79.5s65.333 -37.5 132 -55.5l142 -39c119.333 -33.333 206.666 -81.5 261.999 -144.5
s83 -144.5 83 -244.5c0 -162 -55.333 -292 -166 -390s-259.334 -147 -446.001 -147c-86.667 0 -173.167 9 -259.5 27s-170.5 44.667 -252.5 80l55 325c79.333 -51.333 156.666 -89.666 231.999 -114.999s149.666 -38 222.999 -38c79.333 0 143.833 18 193.5 54
s74.5 82 74.5 138c0 36.667 -11.167 65.167 -33.5 85.5s-71.166 41.166 -146.499 62.499l-141 39c-104.667 28.667 -182.334 74 -233.001 136s-76 142.333 -76 241c0 155.333 53.5 279.833 160.5 373.5s251.167 140.5 432.5 140.5c72.667 0 147.167 -6.16699 223.5 -18.5
s154.166 -30.833 233.499 -55.5zM615.005 0.000976562c22 -34.667 38.166 -66.668 48.499 -96.001s15.5 -58 15.5 -86c0 -69.333 -22.667 -123.166 -68 -161.499s-109 -57.5 -191 -57.5c-29.333 0 -58.666 2.16699 -87.999 6.5s-59.333 10.833 -90 19.5l27 156
c24 -11.333 48.167 -20 72.5 -26s47.833 -9 70.5 -9c39.333 0 70.5 9.5 93.5 28.5s34.5 44.167 34.5 75.5c0 17.333 -4.16699 37.5 -12.5 60.5s-21.833 52.833 -40.5 89.5h128z" />
    <glyph glyph-name="scedilla" unicode="&#x15f;" horiz-adv-x="1097" 
d="M1032 1085l-47 -277.999c-63.333 33.333 -126.166 58.666 -188.499 75.999s-121.5 26 -177.5 26c-63.333 0 -112.333 -9.16699 -147 -27.5s-52 -44.5 -52 -78.5c0 -20 9.66699 -36 29 -48s57 -24.667 113 -38l59 -12c130 -30.667 221.167 -70.167 273.5 -118.5
s78.5 -115.5 78.5 -201.5c0 -130 -45.833 -231.5 -137.5 -304.5s-220.167 -109.5 -385.5 -109.5c-69.333 0 -140 6 -212 18s-145.333 30 -220 54l49 281c58 -38 120.167 -66.667 186.5 -86s134.166 -29 203.499 -29c68 0 119.167 9 153.5 27s51.5 44.333 51.5 79
c0 24 -9.66699 42.667 -29 56s-59 27 -119 41l-59 12c-114.667 26.667 -196.667 66 -246 118s-74 124 -74 216c0 124.667 42.5 220.667 127.5 288s206.167 101 363.5 101c69.333 0 137.5 -5.16699 204.5 -15.5s134.167 -25.833 201.5 -46.5zM501 0.000976562
c22 -34.667 38.166 -66.668 48.499 -96.001s15.5 -58 15.5 -86c0 -69.333 -22.667 -123.166 -68 -161.499s-109 -57.5 -191 -57.5c-29.333 0 -58.666 2.16699 -87.999 6.5s-59.333 10.833 -90 19.5l27 156c24 -11.333 48.167 -20 72.5 -26s47.833 -9 70.5 -9
c39.333 0 70.5 9.5 93.5 28.5s34.5 44.167 34.5 75.5c0 17.333 -4.16699 37.5 -12.5 60.5s-21.833 52.833 -40.5 89.5h128z" />
    <glyph glyph-name="Scaron" unicode="&#x160;" horiz-adv-x="1327" 
d="M1226 1446l-55.9951 -315.999c-68 37.333 -135 65.166 -201 83.499s-130.333 27.5 -193 27.5c-86.667 0 -154.167 -15 -202.5 -45s-72.5 -71.667 -72.5 -125c0 -34 10.667 -60.5 32 -79.5s65.333 -37.5 132 -55.5l142 -39c119.333 -33.333 206.666 -81.5 261.999 -144.5
s83 -144.5 83 -244.5c0 -162 -55.333 -292 -166 -390s-259.334 -147 -446.001 -147c-86.667 0 -173.167 9 -259.5 27s-170.5 44.667 -252.5 80l55 325c79.333 -51.333 156.666 -89.666 231.999 -114.999s149.666 -38 222.999 -38c79.333 0 143.833 18 193.5 54
s74.5 82 74.5 138c0 36.667 -11.167 65.167 -33.5 85.5s-71.166 41.166 -146.499 62.499l-141 39c-104.667 28.667 -182.334 74 -233.001 136s-76 142.333 -76 241c0 155.333 53.5 279.833 160.5 373.5s251.167 140.5 432.5 140.5c72.667 0 147.167 -6.16699 223.5 -18.5
s154.166 -30.833 233.499 -55.5zM968.005 1635h-314l-123 264h155l133 -162l208 162h160z" />
    <glyph glyph-name="scaron" unicode="&#x161;" horiz-adv-x="1097" 
d="M1032 1085l-47 -277.999c-63.333 33.333 -126.166 58.666 -188.499 75.999s-121.5 26 -177.5 26c-63.333 0 -112.333 -9.16699 -147 -27.5s-52 -44.5 -52 -78.5c0 -20 9.66699 -36 29 -48s57 -24.667 113 -38l59 -12c130 -30.667 221.167 -70.167 273.5 -118.5
s78.5 -115.5 78.5 -201.5c0 -130 -45.833 -231.5 -137.5 -304.5s-220.167 -109.5 -385.5 -109.5c-69.333 0 -140 6 -212 18s-145.333 30 -220 54l49 281c58 -38 120.167 -66.667 186.5 -86s134.166 -29 203.499 -29c68 0 119.167 9 153.5 27s51.5 44.333 51.5 79
c0 24 -9.66699 42.667 -29 56s-59 27 -119 41l-59 12c-114.667 26.667 -196.667 66 -246 118s-74 124 -74 216c0 124.667 42.5 220.667 127.5 288s206.167 101 363.5 101c69.333 0 137.5 -5.16699 204.5 -15.5s134.167 -25.833 201.5 -46.5zM765 1262h-234l-165 376h158
l141 -227l219 227h177z" />
    <glyph glyph-name="Tcommaaccent" unicode="&#x162;" horiz-adv-x="1257" 
d="M567 0c22 -34.667 38.166 -66.668 48.499 -96.001s15.5 -58 15.5 -86c0 -69.333 -22.667 -123.166 -68 -161.499s-109 -57.5 -191 -57.5c-29.333 0 -58.666 2.16699 -87.999 6.5s-59.333 10.833 -90 19.5l27 156c24 -11.333 48.167 -20 72.5 -26s47.833 -9 70.5 -9
c39.333 0 70.5 9.5 93.5 28.5s34.5 44.167 34.5 75.5c0 17.333 -4.16699 37.5 -12.5 60.5s-21.833 52.833 -40.5 89.5h128zM139.999 1493h1239l-51 -291h-447l-211 -1202h-346l211 1202h-447z" />
    <glyph glyph-name="tcommaaccent" unicode="&#x163;" horiz-adv-x="881" 
d="M487 0c22 -34.667 38.166 -66.668 48.499 -96.001s15.5 -58 15.5 -86c0 -69.333 -22.667 -123.166 -68 -161.499s-109 -57.5 -191 -57.5c-29.333 0 -58.666 2.16699 -87.999 6.5s-59.333 10.833 -90 19.5l27 156c24 -11.333 48.167 -20 72.5 -26s47.833 -9 70.5 -9
c39.333 0 70.5 9.5 93.5 28.5s34.5 44.167 34.5 75.5c0 17.333 -4.16699 37.5 -12.5 60.5s-21.833 52.833 -40.5 89.5h128zM662.999 1438l-54.999 -317.999h330l-46 -256h-330l-82 -474c-2.66699 -10.667 -4.5 -19.667 -5.5 -27s-1.5 -14.333 -1.5 -21
c0 -30.667 9.16699 -52.667 27.5 -66s49.166 -20 92.499 -20h167l-46 -256h-271c-97.333 0 -171.5 22.667 -222.5 68s-76.5 110.666 -76.5 195.999c0 18.667 0.833008 38.667 2.5 60s4.5 43 8.5 65l83 475h-159l44 256h161l55 318h324z" />
    <glyph glyph-name="Tcaron" unicode="&#x164;" horiz-adv-x="1257" 
d="M140 1493h1239l-51 -291h-447l-211 -1202h-346l211 1202h-447zM947 1635h-314l-123 264h155l133 -162l208 162h160z" />
    <glyph glyph-name="tcaron" unicode="&#x165;" horiz-adv-x="881" 
d="M663 1438l-54.999 -317.999h330l-46 -256h-330l-82 -474c-2.66699 -10.667 -4.5 -19.667 -5.5 -27s-1.5 -14.333 -1.5 -21c0 -30.667 9.16699 -52.667 27.5 -66s49.166 -20 92.499 -20h167l-46 -256h-271c-97.333 0 -171.5 22.667 -222.5 68s-76.5 110.666 -76.5 195.999
c0 18.667 0.833008 38.667 2.5 60s4.5 43 8.5 65l83 475h-159l44 256h161l55 318h324zM870.001 1638h263l-193 -376h-181z" />
    <glyph glyph-name="Tbar" unicode="&#x166;" horiz-adv-x="1257" 
d="M140 1493h1238l-50 -291h-446l-89 -505h222l-33 -192h-222l-89 -505h-346l88 505h-222l33 192h222l90 505h-447z" />
    <glyph glyph-name="tbar" unicode="&#x167;" horiz-adv-x="881" 
d="M633 1438l-56 -318h332l-45 -256h-332l-24 -142h165l-34 -192h-166l-24 -141c-3.33301 -19.333 -5 -36.333 -5 -51c0 -24.667 4.66699 -42.667 14 -54c16 -18.667 51.333 -28 106 -28h166l-45 -256h-276c-127.333 -0 -212.333 29.333 -255 88c-27.333 38 -41 92 -41 162
c0 40.667 4.66699 87 14 139l24 141h-160l34 192h160l25 142h-160l44 256h161l55 318h323z" />
    <glyph glyph-name="Utilde" unicode="&#x168;" horiz-adv-x="1496" 
d="M885 1686l-44.998 37.001c-14 12.667 -26 21.167 -36 25.5s-20.333 6.5 -31 6.5c-21.333 0 -39.833 -10.667 -55.5 -32s-26.834 -50.666 -33.501 -87.999h-123c15.333 85.333 42.666 151 81.999 197s87.333 69 144 69c22.667 0 43.667 -4 63 -12s39.666 -21 60.999 -39
l47 -41c10 -8.66699 20.333 -15.334 31 -20.001s21 -7 31 -7c23.333 0 42.833 10.167 58.5 30.5s26.5 49.833 32.5 88.5h125c-16 -85.333 -43.667 -151 -83 -197s-86.666 -69 -141.999 -69c-23.333 0 -44.5 3.66699 -63.5 11s-39.833 20.666 -62.5 39.999zM301.002 1493
h345.999l-157 -894c-5.33301 -32 -9.5 -60.333 -12.5 -85s-4.5 -46.334 -4.5 -65.001c0 -65.333 15.833 -114.166 47.5 -146.499s78.834 -48.5 141.501 -48.5c84 0 148.333 26.167 193 78.5s78 140.833 100 265.5l157 895h346l-157 -895
c-38.667 -220 -112.5 -379.5 -221.5 -478.5s-264.833 -148.5 -467.5 -148.5c-158.667 0 -279.5 37.833 -362.5 113.5s-124.5 185.5 -124.5 329.5c0 24 1.5 50.833 4.5 80.5s7.83301 64.167 14.5 103.5z" />
    <glyph glyph-name="utilde" unicode="&#x169;" horiz-adv-x="1312" 
d="M767 1364l-45.001 37.001c-1.33301 1.33301 -4.33301 3.66602 -9 6.99902c-22.667 20 -43 30 -61 30c-20 0 -37.833 -11.5 -53.5 -34.5s-26.5 -54.5 -32.5 -94.5h-126c16 91.333 43.667 161.5 83 210.5s87.333 73.5 144 73.5c21.333 0 42 -4.5 62 -13.5
s41.333 -23.5 64 -43.5l47 -43c11.333 -10 22 -17.667 32 -23s19.667 -8 29 -8c22.667 0 41.834 11.167 57.501 33.5s26.5 54.166 32.5 95.499h126c-16 -90.667 -43.5 -160.667 -82.5 -210s-86.5 -74 -142.5 -74c-20.667 0 -40 3.83301 -58 11.5s-40.333 22.834 -67 45.501z
M124.999 436.001l118.002 684h323l-102 -583c-6.66699 -38 -11.834 -70.333 -15.501 -97s-5.5 -47.667 -5.5 -63c0 -42 10.5 -74.667 31.5 -98s50.833 -35 89.5 -35c66.667 0 124 28.667 172 86s81 137 99 239l97 551h324l-196 -1120h-325l30 164
c-55.333 -64.667 -113.333 -113 -174 -145s-124.334 -48 -191.001 -48c-92 0 -163.167 27 -213.5 81s-75.5 130.333 -75.5 229c0 23.333 1.16699 48 3.5 74s5.83301 53 10.5 81z" />
    <glyph glyph-name="Umacron" unicode="&#x16a;" horiz-adv-x="1496" 
d="M301 1493h345.999l-157 -894c-5.33301 -32 -9.5 -60.333 -12.5 -85s-4.5 -46.334 -4.5 -65.001c0 -65.333 15.833 -114.166 47.5 -146.499s78.834 -48.5 141.501 -48.5c84 0 148.333 26.167 193 78.5s78 140.833 100 265.5l157 895h346l-157 -895
c-38.667 -220 -112.5 -379.5 -221.5 -478.5s-264.833 -148.5 -467.5 -148.5c-158.667 0 -279.5 37.833 -362.5 113.5s-124.5 185.5 -124.5 329.5c0 24 1.5 50.833 4.5 80.5s7.83301 64.167 14.5 103.5zM606.999 1871h567l-33 -188h-568z" />
    <glyph glyph-name="umacron" unicode="&#x16b;" horiz-adv-x="1312" 
d="M125 436l118.002 684h323l-102 -583c-6.66699 -38 -11.834 -70.333 -15.501 -97s-5.5 -47.667 -5.5 -63c0 -42 10.5 -74.667 31.5 -98s50.833 -35 89.5 -35c66.667 0 124 28.667 172 86s81 137 99 239l97 551h324l-196 -1120h-325l30 164
c-55.333 -64.667 -113.333 -113 -174 -145s-124.334 -48 -191.001 -48c-92 0 -163.167 27 -213.5 81s-75.5 130.333 -75.5 229c0 23.333 1.16699 48 3.5 74s5.83301 53 10.5 81zM509.002 1562h567l-33 -188h-568z" />
    <glyph glyph-name="Ubreve" unicode="&#x16c;" horiz-adv-x="1496" 
d="M629 1899h129c6 -40 21.167 -69.167 45.5 -87.5s60.166 -27.5 107.499 -27.5c43.333 0 80.833 10.167 112.5 30.5s54.5 48.5 68.5 84.5h137c-23.333 -86 -64.666 -151.5 -123.999 -196.5s-133.333 -67.5 -222 -67.5c-82 0 -144.833 22.5 -188.5 67.5
s-65.5 109.167 -65.5 192.5v4zM301 1493h345.999l-157 -894c-5.33301 -32 -9.5 -60.333 -12.5 -85s-4.5 -46.334 -4.5 -65.001c0 -65.333 15.833 -114.166 47.5 -146.499s78.834 -48.5 141.501 -48.5c84 0 148.333 26.167 193 78.5s78 140.833 100 265.5l157 895h346
l-157 -895c-38.667 -220 -112.5 -379.5 -221.5 -478.5s-264.833 -148.5 -467.5 -148.5c-158.667 0 -279.5 37.833 -362.5 113.5s-124.5 185.5 -124.5 329.5c0 24 1.5 50.833 4.5 80.5s7.83301 64.167 14.5 103.5z" />
    <glyph glyph-name="ubreve" unicode="&#x16d;" horiz-adv-x="1312" 
d="M504 1606l127.001 -0.00292969v-9c0 -43.333 13 -76.666 39 -99.999s63 -35 111 -35c48.667 0 88.5 11.833 119.5 35.5s55.167 59.834 72.5 108.501h136c-20 -95.333 -60.833 -168.666 -122.5 -219.999s-139.167 -77 -232.5 -77c-84 0 -147.167 20.667 -189.5 62
s-63.5 102.333 -63.5 183c0 14 0.166992 24.5 0.5 31.5s1.16602 13.833 2.49902 20.5zM125.001 435.997l118.002 684h323l-102 -583c-6.66699 -38 -11.834 -70.333 -15.501 -97s-5.5 -47.667 -5.5 -63c0 -42 10.5 -74.667 31.5 -98s50.833 -35 89.5 -35
c66.667 0 124 28.667 172 86s81 137 99 239l97 551h324l-196 -1120h-325l30 164c-55.333 -64.667 -113.333 -113 -174 -145s-124.334 -48 -191.001 -48c-92 0 -163.167 27 -213.5 81s-75.5 130.333 -75.5 229c0 23.333 1.16699 48 3.5 74s5.83301 53 10.5 81z" />
    <glyph glyph-name="Uring" unicode="&#x16e;" horiz-adv-x="1496" 
d="M1143 1607c0 -80 -24.667 -147.5 -74 -202.5s-109.666 -82.5 -180.999 -82.5c-72 0 -132.833 27.5 -182.5 82.5s-74.5 122.5 -74.5 202.5s24.833 147.333 74.5 202s110.5 82 182.5 82c71.333 0 131.666 -27.333 180.999 -82s74 -122 74 -202zM1022 1607
c0 43.333 -12.666 78.999 -37.999 106.999s-57.333 42 -96 42c-40 0 -72.5 -14 -97.5 -42s-37.5 -63.667 -37.5 -107s12.667 -79.166 38 -107.499s57.666 -42.5 96.999 -42.5c38.667 0 70.667 14 96 42s38 64 38 108zM301.001 1493h345.999l-157 -894
c-5.33301 -32 -9.5 -60.333 -12.5 -85s-4.5 -46.334 -4.5 -65.001c0 -65.333 15.833 -114.166 47.5 -146.499s78.834 -48.5 141.501 -48.5c84 0 148.333 26.167 193 78.5s78 140.833 100 265.5l157 895h346l-157 -895c-38.667 -220 -112.5 -379.5 -221.5 -478.5
s-264.833 -148.5 -467.5 -148.5c-158.667 0 -279.5 37.833 -362.5 113.5s-124.5 185.5 -124.5 329.5c0 24 1.5 50.833 4.5 80.5s7.83301 64.167 14.5 103.5z" />
    <glyph glyph-name="uring" unicode="&#x16f;" horiz-adv-x="1312" 
d="M125 436l118.002 684h323l-102 -583c-6.66699 -38 -11.834 -70.333 -15.501 -97s-5.5 -47.667 -5.5 -63c0 -42 10.5 -74.667 31.5 -98s50.833 -35 89.5 -35c66.667 0 124 28.667 172 86s81 137 99 239l97 551h324l-196 -1120h-325l30 164
c-55.333 -64.667 -113.333 -113 -174 -145s-124.334 -48 -191.001 -48c-92 0 -163.167 27 -213.5 81s-75.5 130.333 -75.5 229c0 23.333 1.16699 48 3.5 74s5.83301 53 10.5 81zM1035 1504c0 -80 -24.667 -147.5 -74 -202.5s-109.666 -82.5 -180.999 -82.5
c-72 0 -132.833 27.5 -182.5 82.5s-74.5 122.5 -74.5 202.5s24.833 147.333 74.5 202s110.5 82 182.5 82c71.333 0 131.666 -27.333 180.999 -82s74 -122 74 -202zM914.002 1504c0 43.333 -12.666 78.999 -37.999 106.999s-57.333 42 -96 42c-40 0 -72.5 -14 -97.5 -42
s-37.5 -63.667 -37.5 -107s12.667 -79.166 38 -107.499s57.666 -42.5 96.999 -42.5c38.667 0 70.667 14 96 42s38 64 38 108z" />
    <glyph glyph-name="Uhungarumlaut" unicode="&#x170;" horiz-adv-x="1496" 
d="M1177 1899h252l-287 -264h-186zM759 1899h252l-287 -264h-187zM301 1493h345.999l-157 -894c-5.33301 -32 -9.5 -60.333 -12.5 -85s-4.5 -46.334 -4.5 -65.001c0 -65.333 15.833 -114.166 47.5 -146.499s78.834 -48.5 141.501 -48.5c84 0 148.333 26.167 193 78.5
s78 140.833 100 265.5l157 895h346l-157 -895c-38.667 -220 -112.5 -379.5 -221.5 -478.5s-264.833 -148.5 -467.5 -148.5c-158.667 0 -279.5 37.833 -362.5 113.5s-124.5 185.5 -124.5 329.5c0 24 1.5 50.833 4.5 80.5s7.83301 64.167 14.5 103.5z" />
    <glyph glyph-name="uhungarumlaut" unicode="&#x171;" horiz-adv-x="1312" 
d="M670 1638h225l-280 -376h-156zM1008 1638h225l-310 -376h-156zM125 436l118.002 684h323l-102 -583c-6.66699 -38 -11.834 -70.333 -15.501 -97s-5.5 -47.667 -5.5 -63c0 -42 10.5 -74.667 31.5 -98s50.833 -35 89.5 -35c66.667 0 124 28.667 172 86s81 137 99 239
l97 551h324l-196 -1120h-325l30 164c-55.333 -64.667 -113.333 -113 -174 -145s-124.334 -48 -191.001 -48c-92 0 -163.167 27 -213.5 81s-75.5 130.333 -75.5 229c0 23.333 1.16699 48 3.5 74s5.83301 53 10.5 81z" />
    <glyph glyph-name="Uogonek" unicode="&#x172;" horiz-adv-x="1496" 
d="M301 1493h345.999l-157 -894c-5.33301 -32 -9.5 -60.333 -12.5 -85s-4.5 -46.334 -4.5 -65.001c0 -65.333 15.833 -114.166 47.5 -146.499s78.834 -48.5 141.501 -48.5c84 0 148.333 26.167 193 78.5s78 140.833 100 265.5l157 895h346l-157 -895
c-38.667 -220 -112.5 -379.5 -221.5 -478.5s-264.833 -148.5 -467.5 -148.5c-158.667 0 -279.5 37.833 -362.5 113.5s-124.5 185.5 -124.5 329.5c0 24 1.5 50.833 4.5 80.5s7.83301 64.167 14.5 103.5zM482.999 -16l128.001 0.00195312
c-42.667 -49.333 -71.834 -87.333 -87.501 -114s-23.5 -49.334 -23.5 -68.001c0 -22.667 7.5 -40.334 22.5 -53.001s35.833 -19 62.5 -19c22 0 45.333 2.66699 70 8s50 13 76 23l-26 -152c-34.667 -8.66699 -65.5 -15.167 -92.5 -19.5s-52.167 -6.5 -75.5 -6.5
c-63.333 0 -111.666 11.5 -144.999 34.5s-50 56.5 -50 100.5c0 43.333 11.167 86 33.5 128s58.166 88 107.499 138z" />
    <glyph glyph-name="uogonek" unicode="&#x173;" horiz-adv-x="1312" 
d="M125 436l118.002 684h323l-102 -583c-6.66699 -38 -11.834 -70.333 -15.501 -97s-5.5 -47.667 -5.5 -63c0 -42 10.5 -74.667 31.5 -98s50.833 -35 89.5 -35c66.667 0 124 28.667 172 86s81 137 99 239l97 551h324l-196 -1120h-325l30 164
c-55.333 -64.667 -113.333 -113 -174 -145s-124.334 -48 -191.001 -48c-92 0 -163.167 27 -213.5 81s-75.5 130.333 -75.5 229c0 23.333 1.16699 48 3.5 74s5.83301 53 10.5 81zM929.002 0l128.001 0.00195312c-42.667 -49.333 -71.834 -87.333 -87.501 -114
s-23.5 -49.334 -23.5 -68.001c0 -22.667 7.5 -40.334 22.5 -53.001s35.833 -19 62.5 -19c22 0 45.333 2.66699 70 8s50 13 76 23l-26 -152c-34.667 -8.66699 -65.5 -15.167 -92.5 -19.5s-52.167 -6.5 -75.5 -6.5c-63.333 0 -111.666 11.5 -144.999 34.5s-50 56.5 -50 100.5
c0 43.333 11.167 86 33.5 128s58.166 88 107.499 138z" />
    <glyph glyph-name="Wcircumflex" unicode="&#x174;" horiz-adv-x="2033" 
d="M197 1493h321l41 -1085l422 1085h329l44 -1085l408 1085h345l-579 -1493h-392l-45 1135l-435 -1135h-401zM1063 1906h313l137 -264h-153l-148 161l-208 -161h-161z" />
    <glyph glyph-name="wcircumflex" unicode="&#x175;" horiz-adv-x="1702" 
d="M908 1638h236l164 -376h-160l-140 225l-217 -225h-178zM160 1120h297l35 -770l304 770h256l37 -768l302 768h317l-461 -1120h-342l-33 770l-308 -770h-334z" />
    <glyph glyph-name="Ycircumflex" unicode="&#x176;" horiz-adv-x="1334" 
d="M116 1493h347l228 -553l400 553h400l-663 -870l-109 -623h-346l109 623zM712 1906h313l137 -264h-153l-148 161l-208 -161h-161z" />
    <glyph glyph-name="ycircumflex" unicode="&#x177;" horiz-adv-x="1201" 
d="M667 1638h236l164 -376h-160l-140 225l-217 -225h-178zM122 1120h304l138 -776l358 776h344l-638 -1226c-71.333 -138 -137.333 -228.5 -198 -271.5s-139 -64.5 -235 -64.5h-195l33 235h102c52.667 0 93.667 9.83301 123 29.5s55.333 54.167 78 103.5l29 60z" />
    <glyph glyph-name="Ydieresis" unicode="&#x178;" horiz-adv-x="1334" 
d="M116 1493h347l228 -553l400 553h400l-663 -870l-109 -623h-346l109 623zM570 1899h212l-42 -246h-212zM925 1899h215l-45 -246h-212z" />
    <glyph glyph-name="Zacute" unicode="&#x179;" horiz-adv-x="1336" 
d="M923 1900h252l-287 -264h-186zM234 1493h1130l-43 -238l-871 -964h724l-52 -291h-1170l41 238l874 964h-684z" />
    <glyph glyph-name="zacute" unicode="&#x17a;" horiz-adv-x="1072" 
d="M874 1645h264l-395 -376h-181zM201 1120h879l-44 -250l-628 -614h521l-44 -256h-901l42 250l630 614h-499z" />
    <glyph glyph-name="Zdotaccent" unicode="&#x17b;" horiz-adv-x="1336" 
d="M234 1493h1130l-43 -238l-871 -964h724l-52 -291h-1170l41 238l874 964h-684zM754 1881h247l-42 -246h-247z" />
    <glyph glyph-name="zdotaccent" unicode="&#x17c;" horiz-adv-x="1072" 
d="M611 1555h247l-44 -246h-248zM201 1120h879l-44 -250l-628 -614h521l-44 -256h-901l42 250l630 614h-499z" />
    <glyph glyph-name="Zcaron" unicode="&#x17d;" horiz-adv-x="1336" 
d="M234 1493h1130l-43 -238l-871 -964h724l-52 -291h-1170l41 238l874 964h-684zM974 1635h-314l-123 264h155l133 -162l208 162h160z" />
    <glyph glyph-name="zcaron" unicode="&#x17e;" horiz-adv-x="1072" 
d="M201 1120h879l-44 -250l-628 -614h521l-44 -256h-901l42 250l630 614h-499zM753 1262h-234l-165 376h158l141 -227l219 227h177z" />
    <glyph glyph-name="longs" unicode="&#x17f;" horiz-adv-x="801" 
d="M424 0l-323.999 0.000976562l151 864h-159l45 256h158l15 78c22 124 68.167 214.667 138.5 272s170.166 86 299.499 86h247l-42 -235h-177c-45.333 0 -78.333 -9 -99 -27c-20.667 -18.667 -35 -50.334 -43 -95.001z" />
    <glyph glyph-name="uni0180" unicode="&#x180;" horiz-adv-x="1319" 
d="M510 956c56 65.333 114.001 113.333 174.001 144c59.333 31.333 124 47 194 47c124.667 0 217.334 -55 278.001 -165c60 -109.333 75 -250.333 45 -423s-94.667 -313.667 -194 -423c-98.667 -110 -210.334 -165 -335.001 -165c-70 0 -129.333 15.667 -178 47
c-48.667 30.667 -89.334 78.667 -122.001 144l-28 -162h-322l216 1237h-139l36 205h139l19 114h323l-20 -114h295l-36 -205h-295zM597.501 231c69 0 126.669 28 173.002 84s78.833 137.333 97.5 244s14.667 188 -12 244s-74.5 84 -143.5 84s-126.833 -28.333 -173.5 -85
c-46.667 -56 -79.334 -137 -98.001 -243s-14.334 -187 12.999 -243c26.667 -56.667 74.5 -85 143.5 -85z" />
    <glyph glyph-name="uni0181" unicode="&#x181;" horiz-adv-x="1494" 
d="M827 915c54.667 0 98.332 13.333 130.999 40s53.667 66 63 118c8.66699 51.333 1.33398 90.333 -21.999 117c-23.333 27.333 -62.333 41 -117 41h-192l-55 -316h192zM723.998 262c70 0 125.333 16.333 166 49s66.667 82 78 148c12 64.667 3 113 -27 145
c-28.667 32.667 -78 49 -148 49h-203l-69 -391h203zM1140 799c70.667 -24 120.665 -68.3311 149.998 -132.998s36 -144 20 -238c-25.333 -144 -88.333 -251.333 -189 -322c-99.333 -70.667 -238.333 -106 -417 -106h-575l215 1231c-44 0 -67.667 -0.333008 -71 -1
c-28 -2.66699 -47.333 -9.33398 -58 -20.001c-22 -22.667 -36.667 -50.667 -44 -84c-2.66699 -9.33301 -5.66699 -25 -9 -47h-230l14 77c15.333 92 41.333 159.667 78 203c14 16 32.333 33.667 55 53c52.667 42 121.334 67.333 206.001 76c30.667 3.33301 65.667 5 105 5
h520c186.667 0 316.334 -31.333 389.001 -94s97 -163 73 -301c-12.667 -72.667 -39 -134.667 -79 -186c-39.333 -50.667 -90.333 -88.334 -153 -113.001z" />
    <glyph glyph-name="uni0182" unicode="&#x182;" horiz-adv-x="1404" 
d="M431 262h203c140 0 221 62.333 243 187c2.66699 16 4 31.333 4 46c0 92 -60.667 138 -182 138h-203zM300 1493l1016 0.000976562l-51 -291h-669l-49 -278h229c169.333 0 295.666 -39 378.999 -117c54.667 -51.333 82 -127 82 -227
c0 -38.667 -3.66699 -78.334 -11 -119.001c-54.667 -307.333 -258.667 -461 -612 -461h-575z" />
    <glyph glyph-name="uni0183" unicode="&#x183;" horiz-adv-x="1319" 
d="M510 956c56 65.333 114.001 113.333 174.001 144c59.333 31.333 124 47 194 47c124.667 0 217.334 -55 278.001 -165c60 -109.333 75 -250.333 45 -423s-94.667 -313.667 -194 -423c-98.667 -110 -210.334 -165 -335.001 -165c-70 0 -129.333 15.667 -178 47
c-48.667 30.667 -89.334 78.667 -122.001 144l-28 -162h-322l271 1556h927l-52 -291h-604zM597.501 231c69 0 126.669 28 173.002 84s78.833 137.333 97.5 244s14.667 188 -12 244s-74.5 84 -143.5 84s-126.833 -28.333 -173.5 -85c-46.667 -56 -79.334 -137 -98.001 -243
s-14.334 -187 12.999 -243c26.667 -56.667 74.5 -85 143.5 -85z" />
    <glyph glyph-name="uni0184" unicode="&#x184;" horiz-adv-x="1404" 
d="M707 262c72.667 0 127.999 15 165.999 45c40 32.667 65.667 80 77 142c10.667 60.667 1.33398 107 -27.999 139c-26.667 30 -76.667 45 -150 45h-203l-65 -371h203zM686.999 0l-574.999 0.000976562l162 924l-139 180l584 389l-99 -569h229
c169.333 0 295.666 -39 378.999 -117c74.667 -70.667 98 -186 70 -346c-28 -158.667 -91.667 -273.334 -191 -344.001c-110.667 -78 -250.667 -117 -420 -117z" />
    <glyph glyph-name="uni0185" unicode="&#x185;" horiz-adv-x="1319" 
d="M557 956c56 65.333 114 113.333 174 144c59.333 31.333 124 47 194 47c124.667 0 217 -55 277 -165c60.667 -109.333 75.667 -250.333 45 -423c-30 -172.667 -94.333 -313.667 -193 -423c-99.333 -110 -211 -165 -335 -165c-70 0 -129.333 15.667 -178 47
c-48.667 30.667 -89.667 78.667 -123 144l-27 -162h-323l162 924l-124 180l556 452zM644.5 231c69 0 126.5 28 172.5 84s78.333 137.333 97 244s14.834 188 -11.499 244s-74 84 -143 84s-126.833 -28.333 -173.5 -85c-46.667 -56 -79.334 -137 -98.001 -243
s-14.667 -187 12 -243c27.333 -56.667 75.5 -85 144.5 -85z" />
    <glyph glyph-name="uni0186" unicode="&#x186;" horiz-adv-x="1352" 
d="M-24 82l56 309.001c57.333 -48.667 115 -84.334 173 -107.001s120.333 -34 187 -34c138.667 0 254.834 59.333 348.501 178s140.5 267 140.5 445c0 114.667 -28.833 204.667 -86.5 270s-137.167 98 -238.5 98c-60.667 0 -125 -12.167 -193 -36.5
s-144.333 -62.5 -229 -114.5l60 331c82.667 32.667 162 57.334 238 74.001s148.333 25 217 25c180.667 0 325 -55 433 -165s162 -255.667 162 -437c0 -119.333 -17.167 -231.833 -51.5 -337.5s-84.833 -202.167 -151.5 -289.5
c-78.667 -102.667 -173.334 -181.667 -284.001 -237s-229.667 -83 -357 -83c-70 0 -140 9.16699 -210 27.5s-141.333 46.166 -214 83.499z" />
    <glyph glyph-name="uni0187" unicode="&#x187;" horiz-adv-x="1352" 
d="M1086 82c-70 -36.667 -141 -64.333 -213 -83c-72.667 -18.667 -146.334 -28 -221.001 -28c-224 0 -389 69.667 -495 209c-107.333 138.667 -140 327 -98 565c42 238.667 140.667 427.667 296 567c154.667 138.667 343.667 208 567 208c30 0 58.333 -1.33301 85 -4
c38.667 99.333 92.334 178.666 161.001 237.999c107.333 92 253.333 138 438 138h70l-52 -291h-54c-72 0 -130 -22.333 -174 -67c-45.333 -44.667 -75.333 -110.334 -90 -197.001l-42 -237c-55.333 48.667 -112 84.334 -170 107.001c-59.333 22.667 -123.333 34 -192 34
c-124 0 -228.667 -44 -314 -132c-86.667 -88 -143.334 -209.333 -170.001 -364c-27.333 -154 -13.333 -275 42 -363c56 -88 145.667 -132 269 -132c68.667 0 136.334 11.333 203.001 34c66 22.667 135.333 58.334 208 107.001z" />
    <glyph glyph-name="uni0188" unicode="&#x188;" horiz-adv-x="1092" 
d="M1021 1021l-40.002 -227.999c-38 33.333 -77.667 58 -119 74s-85.666 24 -132.999 24c-90 0 -165.333 -29 -226 -87c-60 -58.667 -99.333 -140.334 -118 -245.001c-18 -104.667 -7 -186.334 33 -245.001c40 -58 105 -87 195 -87c50 0 99 8.33301 147 25
c48.667 16.667 95 41.334 139 74.001l-51 -293c-54 -20.667 -107.667 -36.334 -161 -47.001c-54 -10 -107.333 -15 -160 -15c-181.333 0 -314.333 51.667 -399 155c-84 104 -110 248.333 -78 433s108.333 329 229 433c120 102.667 270 154.334 450 155.001
c29.333 90 71.666 162.333 126.999 217c78.667 79.333 179.334 119 302.001 119h160l-42 -235h-56c-60.667 0 -105.167 -15.333 -133.5 -46s-50.166 -91 -65.499 -181z" />
    <glyph glyph-name="uni0189" unicode="&#x189;" horiz-adv-x="1557" 
d="M626 1202l-51 -299h221l-45 -260h-222l-63 -352h124c162 0 290.333 50.5 385 151.5s142 236.833 142 407.5c0 116 -31 203.667 -93 263s-154 89 -276 89h-122zM330 1493l365.002 0.000976562c174 0 304.5 -11.5 391.5 -34.5s159.167 -61.5 216.5 -115.5
c58 -54 102 -119.667 132 -197s45 -164.333 45 -261c0 -134 -25.333 -261 -76 -381s-121.334 -221 -212.001 -303c-78.667 -72.667 -170.334 -124.334 -275.001 -155.001s-266 -46 -484 -46h-365l113 643h-185l46 260h185z" />
    <glyph glyph-name="uni018A" unicode="&#x18a;" horiz-adv-x="1620" 
d="M686 1202l-160 -911h124c141.333 0 256.333 39 345 117s145.667 191.333 171 340c26 148 8.66699 260.667 -52 338s-162 116 -304 116h-124zM344 1231c-44 0 -67.667 -0.331055 -71 -0.998047c-28 -2.66699 -47.333 -9.33398 -58 -20.001
c-22 -22.667 -36.667 -50.667 -44 -84c-2.66699 -9.33301 -5.66699 -25 -9 -47h-230l14 77c15.333 92 41.333 159.667 78 203c14 16 32.333 33.667 55 53c52.667 42 121.334 67.333 206.001 76c30.667 3.33301 65.667 5 105 5h365c204 0 353 -16.333 447 -49
c94 -32 170.333 -86.667 229 -164c51.333 -68 84.333 -145.667 99 -233c15.333 -88 13.333 -187.667 -6 -299c-20 -112.667 -52.667 -213.334 -98 -302.001c-46.667 -88 -107.334 -165.667 -182.001 -233c-86 -77.333 -182 -132.333 -288 -165
c-106.667 -32 -260.667 -48 -462 -48h-365z" />
    <glyph glyph-name="uni018B" unicode="&#x18b;" horiz-adv-x="1404" 
d="M641 262h202.999l65 371h-203c-73.333 0 -128.666 -15 -165.999 -45c-40 -32 -65.333 -78.333 -76 -139c-11.333 -62 -2.33301 -109.333 27 -142c27.333 -30 77.333 -45 150 -45zM569.999 0c-170 0 -296.333 38.999 -379 116.999c-76 70.667 -99.667 185.334 -71 344.001
c27.333 160 91 275.333 191 346c110.667 78 251 117 421 117h227l50 278h-580l51 291h926l-261 -1493h-575z" />
    <glyph glyph-name="uni018C" unicode="&#x18c;" horiz-adv-x="1319" 
d="M874 956l53.999 309h-602l51 291h926l-272 -1556h-322l28 162c-56 -65.333 -113.667 -113.333 -173 -144c-59.333 -31.333 -124 -47 -194 -47c-124 0 -216.333 55 -277 165c-60.667 109.333 -76 250.333 -46 423c30.667 172.667 95.334 313.667 194.001 423
c99.333 110 211 165 335 165c70 0 129.333 -15.667 178 -47c46.667 -29.333 86.667 -77.333 120 -144zM534.999 231c68.667 0 126.169 28 172.502 84s78.666 137.333 96.999 244s14.333 188 -12 244s-73.833 84 -142.5 84s-126 -28 -172 -84s-78.333 -137.333 -97 -244
s-14.834 -188 11.499 -244s73.833 -84 142.5 -84z" />
    <glyph glyph-name="uni018D" unicode="&#x18d;" horiz-adv-x="1266" 
d="M146 -118c65.333 -46.667 183.666 -70.002 354.999 -70.002c122 0 187.333 24.333 196 73c7.33301 44 -52 77 -178 99c-144.667 24.667 -252.667 74.334 -324 149.001c-86 90 -113 227.333 -81 412c31.333 176.667 105.333 317 222 421
c116.667 104.667 261.334 157 434.001 157c171.333 0 297.333 -52.333 378 -157c80.667 -104 104.667 -247.667 72 -431c-24 -136.667 -94.333 -259.667 -211 -369c-36.667 -33.333 -76 -60.666 -118 -81.999c79.333 -52.667 109.666 -132 90.999 -238
c-32 -181.333 -206.333 -272 -523 -272c-159.333 0 -277.666 23.333 -354.999 70zM687 213.998c34 14.667 67 40.665 99 77.998c49.333 58 83 139.333 101 244c18.667 104.667 13.334 186.334 -15.999 245.001c-28.667 58.667 -77.667 88 -147 88
c-66.667 0 -125 -29.667 -175 -89c-50.667 -60 -84.334 -138.667 -101.001 -236c-18 -102 -10 -177.667 24 -227c34 -51.333 80 -80.666 138 -87.999c27.333 -3.33301 53 -8.33301 77 -15z" />
    <glyph glyph-name="uni018E" unicode="&#x18e;" horiz-adv-x="1259" 
d="M1255 1493l-261 -1493h-955l50 291h609l60 342h-554l52 291h553l49 278h-589l51 291h935z" />
    <glyph glyph-name="uni018F" unicode="&#x18f;" horiz-adv-x="1566" 
d="M1132 829c14 96 5.00098 175.998 -26.999 239.998c-56.667 114.667 -162.334 172 -317.001 172c-71.333 0 -146 -11.667 -224 -35s-162 -58.666 -252 -105.999l55 309c92.667 36.667 183 64.334 271 83.001s172.333 28 253 28c144.667 0 263.667 -26.333 357 -79
c94.667 -52.667 164.667 -132.334 210 -239.001c37.333 -87.333 54.333 -184 51 -290c-2.66699 -104.667 -22 -216 -58 -334c-34 -108 -82.667 -205 -146 -291c-78 -106 -170.333 -185 -277 -237c-106.667 -52.667 -229.334 -79 -368.001 -79c-178.667 0 -322 55 -430 165
c-115.333 116.667 -169.666 261 -162.999 433c3.33301 88.667 12.333 175.334 27 260.001h1038zM1082 570.998l-649.998 -0.000976562c5.33301 -95.333 28.666 -170.666 69.999 -225.999c47.333 -63.333 113.333 -95 198 -95c69.333 0 130.666 16 183.999 48
c54 32.667 100 80.667 138 144c23.333 40 43.333 83 60 129z" />
    <glyph glyph-name="uni0190" unicode="&#x190;" horiz-adv-x="1282" 
d="M411 805c-77.333 22.667 -131.669 61.666 -163.002 116.999c-31.333 56 -39.666 127.667 -24.999 215c22 128 82 223.667 180 287c98.667 64 235.334 96 410.001 96c64.667 0 129.334 -5.33301 194.001 -16c65.333 -10.667 130.333 -26.667 195 -48l-49 -282
c-51.333 27.333 -104.333 48 -159 62s-110 21 -166 21c-75.333 0 -136.5 -15.667 -183.5 -47s-75.5 -75.666 -85.5 -132.999c-10.667 -62 2.66602 -108.333 39.999 -139c37.333 -30 99.666 -45 186.999 -45h146l-45 -248h-138c-98 0 -175 -17.667 -231 -53
c-56 -34.667 -90 -86 -102 -154c-11.333 -66 4.16699 -116.667 46.5 -152s109.5 -53 201.5 -53c62 0 126.667 9 194 27c66.667 18.667 136 46 208 82l-53 -297c-72 -24.667 -143.667 -43 -215 -55c-72 -12.667 -142.333 -19 -211 -19c-196 0 -338 38.333 -426 115
c-88.667 77.333 -119.667 190 -93 338c16.667 99.333 54.334 181.333 113.001 246c58 64 134.667 109 230 135z" />
    <glyph glyph-name="uni0191" unicode="&#x191;" horiz-adv-x="1259" 
d="M100 145l236 1348h935l-51 -291h-589l-49 -278h554l-51 -291h-553l-86 -488c-32 -186 -101.667 -325 -209 -417s-253 -138 -437 -138h-70l51 291h54c72 0 130.333 22.333 175 67s74.667 110.334 90 197.001z" />
    <glyph glyph-name="florin" unicode="&#x192;" horiz-adv-x="801" 
d="M992 1556l-42.001 -235h-178c-45.333 0 -78.666 -9 -99.999 -27c-21.333 -18.667 -36 -50.667 -44 -96l-13 -78h275l-45 -256h-275l-163 -932c-22 -122 -68.667 -212 -140 -270c-71.333 -58.667 -171 -88 -299 -88h-247l41 235h179c45.333 0 78.333 9 99 27
c22 18.667 37 50.667 45 96l163 932h-161l45 256h160l14 78c21.333 122 68 212 140 270c71.333 58.667 171 88 299 88h247z" />
    <glyph glyph-name="uni0193" unicode="&#x193;" horiz-adv-x="1512" 
d="M1234 111c-94.667 -46.667 -190.666 -81.667 -287.999 -105s-195.333 -35 -294 -35c-224 0 -389 69.667 -495 209c-107.333 138.667 -140 327 -98 565c42 240.667 141.667 430 299 568s351.666 207 582.999 207c54 0 106.333 -3.33301 157 -10
c38 102 92.333 183.333 163 244c107.333 92 253 138 437 138h70l-51 -291h-54c-72 0 -130 -22.333 -174 -67c-45.333 -44.667 -75.333 -110.334 -90 -197.001l-42 -237c-66.667 47.333 -135 82.666 -205 105.999s-142.333 35 -217 35c-138 0 -251.667 -43 -341 -129
c-90 -85.333 -148.667 -207.666 -176 -366.999c-28 -158 -13.5 -280 43.5 -366s151.833 -129 284.5 -129c36 0 69.667 2.66699 101 8c32 4.66699 61.333 12.334 88 23.001l51 290h-212l45 258h540z" />
    <glyph glyph-name="uni0194" unicode="&#x194;" horiz-adv-x="1461" 
d="M781 818l491.999 675.001h352l-722 -996l34 -92c52 -138 82 -240 90 -306c8.66699 -66 13 -113.667 13 -143s-1.66699 -52.666 -5 -69.999c-16.667 -102 -58 -180.333 -124 -235c-66 -54 -182.333 -81 -349 -81c-165.333 0 -271.666 27 -318.999 81
c-33.333 38.667 -50 89.667 -50 153c0 25.333 3.16699 55.666 9.5 90.999s29 94.666 68 177.999s108.833 194 209.5 332l67 92l-374 996h353zM649.999 150.001c-74.667 -102.667 -116.334 -167.666 -125.001 -194.999c-14 -40.667 -21 -66.667 -21 -78
c0 -10.667 6.66699 -25.334 20 -44.001c12.667 -18.667 39.334 -28 80.001 -28c40 0 71.333 10.333 94 31c21.333 20.667 33 39 35 55c1.33301 15.333 2 37 2 65c0 27.333 -18.667 92 -56 194l-10 25z" />
    <glyph glyph-name="uni0195" unicode="&#x195;" horiz-adv-x="1926" 
d="M799 520c17.333 98 27.168 165.332 29.501 201.999s0.5 63.667 -5.5 81c-8.66699 23.333 -22.667 41.666 -42 54.999c-19.333 12.667 -43 19 -71 19c-67.333 0 -125 -29 -173 -87c-48.667 -57.333 -82 -137 -100 -239l-96 -551h-322l272 1556h322l-105 -600
c60 65.333 120 113.333 180 144c60 31.333 123.333 47 190 47c116 0 197 -39.667 243 -119c47.333 -79.333 57.666 -194.666 30.999 -345.999l-40 -222c-18.667 -112.667 -26 -173 -22 -181c18.667 -34.667 42 -50.667 70 -48l19 2c70.667 0 136.334 32.333 197.001 97
c56 58.667 92 135.334 108 230.001c12.667 71.333 8.66699 145.333 -12 222c-14.667 56 -43 108 -85 156l31 182c82.667 -2 149.667 -16.333 201 -43c23.333 -12 49.333 -28.667 78 -50c34 -24.667 59 -59.334 75 -104.001c1.33301 -3.33301 10.666 -32.666 27.999 -87.999
c22.667 -72 25 -160.667 7 -266c-30 -169.333 -99.667 -306.333 -209 -411c-111.333 -105.333 -240 -158 -386 -158l-123 -2c-121.333 -2 -208.333 37.333 -261 118c-52 80 -65.333 194.667 -40 344z" />
    <glyph glyph-name="uni0196" unicode="&#x196;" horiz-adv-x="802" 
d="M646 1493l-163.999 -937.999c-14.667 -86.667 -7.66699 -152.334 21 -197.001s79 -67 151 -67h54l-50 -291h-70c-184.667 0 -314.334 46 -389.001 138s-95.667 231 -63 417l164 938h346z" />
    <glyph glyph-name="uni0197" unicode="&#x197;" horiz-adv-x="717" 
d="M311 1493h347l-107 -612h181l-45 -260h-181l-109 -621h-347l109 621h-172l45 260h172z" />
    <glyph glyph-name="uni0198" unicode="&#x198;" horiz-adv-x="1428" 
d="M1174 1156l-399 -370l576 -786h-434l-431 588l-103 -588h-347l261 1493h347l-95 -545l519 479c67.333 62 140.333 93 219 93c80.667 0 143 -31 187 -93c32.667 -46.667 49 -100 49 -160c0 -20.667 -1.66699 -42 -5 -64l-38 -216h-216l20 113c3.33301 20 1 36 -7 48
c-13.333 20 -27.333 30 -42 30c-24.667 0 -45 -7.33301 -61 -22z" />
    <glyph glyph-name="uni0199" unicode="&#x199;" horiz-adv-x="1225" 
d="M465 709l441.999 410.999h375l-582 -514l425 -606h-391l-311 467l-82 -467h-322l191 1094c26 148.667 79 263.334 159 344.001c78.667 78.667 179.334 118 302.001 118h253l-40 -235h-150c-60 0 -104.667 -15.333 -134 -46s-52 -91 -68 -181z" />
    <glyph glyph-name="uni019A" unicode="&#x19a;" horiz-adv-x="664" 
d="M310 1556h322l-118 -675h159l-46 -260h-159l-108 -621h-322l108 621h-165l46 260h165z" />
    <glyph glyph-name="uni019B" unicode="&#x19b;" horiz-adv-x="1090" 
d="M-81 0l492 1020l-33 209l-303 -101l-11 129l295 97l-32 202h322l16 -101l313 99l9 -129l-301 -97l214 -1328h-322l-83 514l-254 -514h-322z" />
    <glyph glyph-name="uni019C" unicode="&#x19c;" horiz-adv-x="1920" 
d="M743 186c-53.333 -69.333 -110.996 -121.998 -172.996 -157.998c-62.667 -36.667 -127.667 -55 -195 -55c-108.667 0 -190 39.667 -244 119c-48 71.333 -57.667 186.666 -29 345.999l184 1055h324l-167 -957c-2.66699 -8.66699 -4.83398 -17.667 -6.50098 -27l-7.5 -40
c-13.333 -79.333 -13 -137 1 -173c15.333 -35.333 46.333 -53 93 -53c61.333 0 113.666 28 156.999 84c42 56 73 137 93 243l162 923h324l-167 -957c-22 -124 -26.667 -204 -14 -240c13.333 -35.333 44.666 -53 93.999 -53c61.333 0 113.666 28.333 156.999 85
c44 56.667 75 137 93 241l162 924h324l-261 -1493h-324l28 164c-50.667 -63.333 -104.5 -111 -161.5 -143s-116.167 -48 -177.5 -48c-70 0 -128.333 18.667 -175 56s-78 89.666 -94 156.999z" />
    <glyph glyph-name="uni019D" unicode="&#x19d;" horiz-adv-x="1542" 
d="M100 145l235.999 1348h387l309 -1024l179 1024h329l-261 -1493h-387l-310 1024l-154 -879c-28 -161.333 -73.333 -281.333 -136 -360c-17.333 -21.333 -35.666 -40.333 -54.999 -57c-107.333 -92 -253 -138 -437 -138h-70l51 291h54c72 0 130.333 22.333 175 67
s74.667 110.334 90 197.001z" />
    <glyph glyph-name="uni019E" unicode="&#x19e;" horiz-adv-x="1312" 
d="M1224 682l-193.999 -1108h-324l95 537l71 411c17.333 96.667 27.166 163.334 29.499 200.001s0.5 63.667 -5.5 81c-8.66699 23.333 -22.667 41.666 -42 54.999c-20 12.667 -43.667 19 -71 19c-67.333 0 -125 -29 -173 -87c-48.667 -57.333 -82 -137 -100 -239l-96 -551
h-322l196 1120h322l-29 -164c60 65.333 120 113.333 180 144c60 31.333 123 47 189 47c116.667 0 198 -39.667 244 -119c46.667 -79.333 56.667 -194.666 30 -345.999z" />
    <glyph glyph-name="uni019F" unicode="&#x19f;" horiz-adv-x="1566" 
d="M905 1520c179.333 0 323.331 -55.167 431.998 -165.5s163 -254.5 163 -432.5c0 -121.333 -16.667 -236 -50 -344s-81.666 -205 -144.999 -291c-78 -106 -170.333 -185.167 -277 -237.5s-229.334 -78.5 -368.001 -78.5c-178.667 0 -322.167 55 -430.5 165
s-162.5 254.333 -162.5 433c0 122 16.5 237 49.5 345s81.5 205.333 145.5 292c76.667 105.333 168.334 184 275.001 236s229.334 78 368.001 78zM696.998 250c105.333 0 194.667 43.333 268 130c60 70.667 104.333 164.667 133 282h-661
c-2.66699 -28.667 -4 -56.334 -4 -83.001c0 -79.333 13 -145.666 39 -198.999c43.333 -86.667 118.333 -130 225 -130zM1132 920c-0.666992 76 -13.667 139.667 -39 191c-43.333 86.667 -118 130 -224 130s-195.667 -43.333 -269 -130c-42.667 -51.333 -78 -115 -106 -191
h638z" />
    <glyph glyph-name="Ohorn" unicode="&#x1a0;" horiz-adv-x="1566" 
d="M1139 881c0 117.333 -23.832 206.668 -71.499 268.001s-116.834 92 -207.501 92c-120 0 -220.667 -59.833 -302 -179.5s-122 -269.5 -122 -449.5c0 -114.667 23.667 -203.667 71 -267s113.333 -95 198 -95c69.333 0 130.833 16.167 184.5 48.5s99.5 80.166 137.5 143.499
c36 60.667 63.667 129 83 205s29 154 29 234zM910.001 1520c179.333 0 323.331 -55.167 431.998 -165.5s163 -254.5 163 -432.5c0 -121.333 -16.667 -236 -50 -344s-81.666 -205 -144.999 -291c-78 -106 -170.333 -185.167 -277 -237.5s-229.334 -78.5 -368.001 -78.5
c-178.667 0 -322.167 55 -430.5 165s-162.5 254.333 -162.5 433c0 122 16.5 237 49.5 345s81.5 205.333 145.5 292c76.667 105.333 168.334 184 275.001 236s229.334 78 368.001 78zM1274 1240l24.001 140.997c34.667 -33.333 61.834 -56.333 81.501 -69
s37.167 -19 52.5 -19c23.333 0 44.166 9.83301 62.499 29.5s30.166 45.834 35.499 78.501c4.66699 26 7 51.833 7 77.5s-2.33301 51.834 -7 78.501h140c0 -36.667 -1 -70.667 -3 -102s-5.33301 -60.666 -10 -87.999c-13.333 -76.667 -37.5 -135.5 -72.5 -176.5
s-78.167 -61.5 -129.5 -61.5c-32 0 -62.833 9 -92.5 27s-59.167 46 -88.5 84z" />
    <glyph glyph-name="ohorn" unicode="&#x1a1;" horiz-adv-x="1266" 
d="M697 891c-83.333 0 -152 -42 -206 -126s-81 -191 -81 -321c0 -70.667 14.5 -124.5 43.5 -161.5s71.5 -55.5 127.5 -55.5c83.333 0 152 42.167 206 126.5s81 191.833 81 322.5c0 70 -14.5 123.333 -43.5 160s-71.5 55 -127.5 55zM723 1147
c150 0 268.002 -42.332 354.002 -126.999s129 -200 129 -346c0 -84.667 -13.5 -166.834 -40.5 -246.501s-66.5 -152.5 -118.5 -218.5c-60.667 -78.667 -132.834 -138 -216.501 -178s-176.834 -60 -279.501 -60c-148 0 -264.667 42.333 -350 127s-128 200 -128 346
c0 84 13.667 166.167 41 246.5s67 153.833 119 220.5c60 77.333 131.5 136 214.5 176s174.833 60 275.5 60zM1023 850.001l24.001 140.997c34.667 -33.333 61.834 -56.333 81.501 -69s37.167 -19 52.5 -19c23.333 0 44.166 9.83301 62.499 29.5s30.166 45.834 35.499 78.501
c4.66699 26 7 51.833 7 77.5s-2.33301 51.834 -7 78.501h140c0 -36.667 -1 -70.667 -3 -102s-5.33301 -60.666 -10 -87.999c-13.333 -76.667 -37.5 -135.5 -72.5 -176.5s-78.167 -61.5 -129.5 -61.5c-32 0 -62.833 9 -92.5 27s-59.167 46 -88.5 84z" />
    <glyph glyph-name="uni01A2" unicode="&#x1a2;" horiz-adv-x="2052" 
d="M869 1241c-105.333 0 -194.668 -43.332 -268.001 -129.999s-123.666 -208.667 -150.999 -366c-27.333 -156.667 -19.5 -278.334 23.5 -365.001s117.5 -130 223.5 -130s195.667 43.333 269 130l128 731c-43.333 86.667 -118.333 130 -225 130zM1436 0.000976562
l163.999 938c16 86.667 9.33301 152.334 -20 197.001s-80 67 -152 67h-57l-179 -1025c-147.333 -137.333 -329 -206 -545 -206c-215.333 0 -372.166 68.667 -470.499 206s-126.5 326.666 -84.5 567.999c42 242 136.5 431.667 283.5 569s328.167 206 543.5 206
c78 0 148.333 -9 211 -27h365c186 0 315.667 -46 389 -138c74 -93.333 95 -232.333 63 -417l-164 -938h-347z" />
    <glyph glyph-name="uni01A3" unicode="&#x1a3;" horiz-adv-x="1773" 
d="M729 891c-71.333 0 -130.666 -28.335 -177.999 -85.002c-48 -57.333 -81.333 -139.666 -100 -246.999s-14.334 -189.666 12.999 -246.999c28 -56.667 77.667 -85 149 -85c70 0 128.333 28.333 175 85l87 494c-27.333 56.667 -76 85 -146 85zM1128 -442.002l190.998 1100
c16.667 90 16.334 150.333 -0.999023 181s-56.666 46 -117.999 46h-66l-132 -758c-116 -104 -260.667 -156 -434 -156c-174 0 -301 52 -381 156s-103.833 248 -71.5 432s106.5 328 222.5 432s261 156 435 156c72.667 0 137 -9 193 -27h378
c122.667 0 209.667 -39.333 261 -118c50.667 -79.333 63 -194 37 -344l-192 -1100h-322z" />
    <glyph glyph-name="uni01A4" unicode="&#x1a4;" horiz-adv-x="1440" 
d="M688 1214l-72.999 -417h191c67.333 0 122.333 18.333 165 55c43.333 36 70.666 87.333 81.999 154c12 66.667 2.66699 118 -28 154c-30 36 -78.667 54 -146 54h-191zM344.001 1231c-44 0 -67.668 -0.331055 -71.001 -0.998047c-28 -2.66699 -47.333 -9.33398 -58 -20.001
c-22 -22.667 -36.667 -50.667 -44 -84c-2.66699 -9.33301 -5.66699 -25 -9 -47h-230l14 77c15.333 92 41.333 159.667 78 203c14 16 32.333 33.667 55 53c52.667 42 121.334 67.333 206.001 76c30.667 3.33301 65.667 5 105 5h575c170.667 0 294.334 -42.333 371.001 -127
c77.333 -84 102 -204 74 -360c-26.667 -156.667 -93.334 -277.334 -200.001 -362.001c-106 -84 -244.333 -126 -415 -126h-229l-91 -518h-346z" />
    <glyph glyph-name="uni01A5" unicode="&#x1a5;" horiz-adv-x="1319" 
d="M588 1198l-42.9961 -242c56 65.333 113.667 113.333 173 144c59.333 31.333 124.333 47 195 47c124 0 216.333 -55 277 -165c60.667 -109.333 76 -250.333 46 -423c-30.667 -172.667 -95.334 -313.667 -194.001 -423c-98.667 -110 -210.334 -165 -335.001 -165
c-70 0 -129.333 15.667 -178 47c-48.667 30.667 -89.334 78.667 -122.001 144l-104 -588h-322l285 1624c19.333 112 65.666 202 138.999 270c62.667 58.667 162.667 88 300 88h246l-41 -235h-178c-46 0 -79.333 -9 -100 -27c-22 -18.667 -36.667 -50.667 -44 -96z
M747.504 887c-69 0 -126.831 -28.333 -173.498 -85c-46.667 -56 -79.334 -137 -98.001 -243s-14.334 -187 12.999 -243c26.667 -56.667 74.5 -85 143.5 -85s126.667 28 173 84s78.833 137.333 97.5 244s14.667 188 -12 244s-74.5 84 -143.5 84z" />
    <glyph glyph-name="uni01A6" unicode="&#x1a6;" horiz-adv-x="1419" 
d="M657 573c72.667 0 127.333 15 164 45s61 79.333 73 148c4 21.333 6 46 6 74s-11.167 54.333 -33.5 79s-69.833 37 -142.5 37h-145l-67 -383h145zM464.999 307l-54 -306.999h-346l261 1493h346l-45 -258h183c177.333 0 301.333 -33 372 -99
c52.667 -48.667 79 -118.334 79 -209.001c0 -32 -3.33301 -66.667 -10 -104c-34 -195.333 -142.333 -323 -325 -383c45.333 -12 83 -39.167 113 -81.5s56.667 -106.5 80 -192.5l125 -465h-369l-110 412c-20 74.667 -44.5 125.667 -73.5 153s-71.833 41 -128.5 41h-98z" />
    <glyph glyph-name="uni01A7" unicode="&#x1a7;" horiz-adv-x="1327" 
d="M258 1446c88 24.667 172.001 43.335 252.001 56.002c80.667 12 158 18 232 18c162 0 279 -40 351 -120c72.667 -80 96 -194.333 70 -343c-21.333 -118.667 -69.166 -213 -143.499 -283s-181.5 -121 -321.5 -153l-140 -33c-84.667 -20 -142.834 -42.667 -174.501 -68
s-51.834 -61.333 -60.501 -108c-8.66699 -52 4.66602 -92 39.999 -120s90.666 -42 165.999 -42c74.667 0 154.334 12.667 239.001 38c84.667 26 174 64.333 268 115l-57 -325c-91.333 -35.333 -181.666 -62 -270.999 -80s-176.666 -27 -261.999 -27
c-180 0 -307 40.333 -381 121c-74 80 -96.667 202.333 -68 367c22.667 125.333 71.5 222 146.5 290s189.833 118.667 344.5 152l154 33c72.667 16 124 35.333 154 58c30.667 22 49.667 53 57 93c10 53.333 -2.83301 92.666 -38.5 117.999s-94.834 38 -177.501 38
c-62 0 -129.667 -9.33301 -203 -28c-74 -18.667 -151 -46.334 -231 -83.001z" />
    <glyph glyph-name="uni01A8" unicode="&#x1a8;" horiz-adv-x="1097" 
d="M187 1085c80.667 21.333 154.503 37.0029 221.503 47.0029s130.167 15 189.5 15c151.333 0 259 -28.667 323 -86c62.667 -57.333 83.667 -145.333 63 -264c-19.333 -110 -62.666 -192 -129.999 -246c-66.667 -54 -173.334 -91 -320.001 -111l-59 -8
c-66.667 -8.66699 -112.334 -20.667 -137.001 -36c-24 -16 -39.333 -40 -46 -72c-6 -38 5.33301 -66.667 34 -86c28 -19.333 73.667 -29 137 -29c69.333 0 139.333 8.66699 210 26c70 17.333 140.333 43.333 211 78l-48 -272c-78.667 -23.333 -154.667 -41 -228 -53
c-72.667 -11.333 -142.334 -17 -209.001 -17c-157.333 0 -270.666 30 -339.999 90c-68 60 -92 149.667 -72 269c20.667 114 64 197.667 130 251c66.667 53.333 184.667 91.666 354 114.999l57 9c60 7.33301 102.333 18.666 127 33.999
c25.333 15.333 40.666 37.333 45.999 66c6 35.333 -4.33301 61.666 -31 78.999c-26.667 16.667 -70.667 25 -132 25c-56.667 0 -118.667 -8 -186 -24c-66.667 -16 -137.334 -40 -212.001 -72z" />
    <glyph glyph-name="uni01A9" unicode="&#x1a9;" horiz-adv-x="1259" 
d="M405 291h639l-50 -291h-955l55 321l512 473l-360 391l54 308h935l-51 -291h-604l373 -404z" />
    <glyph glyph-name="uni01AA" unicode="&#x1aa;" horiz-adv-x="1017" 
d="M427 1554l101.001 -0.000976562c123.333 0 210.333 -39.333 261 -118c42.667 -66 59.334 -151.333 50.001 -256c69.333 -0.666992 120.666 -1 153.999 -1l-37 -211h-151l-185 -1054c-8 -45.333 -4.33301 -77.333 11 -96c14.667 -18 45 -27 91 -27h178l-41 -235h-247
c-128.667 0 -218.334 29.333 -269.001 88c-51.333 58 -66.333 148 -45 270l184 1054l-187 1c-184.667 0.666992 -262 92.667 -232 276c30.667 188.667 132.667 291.334 306 308.001v1h6h52zM515.001 1180c2 42.667 -2.33398 73.668 -13.001 93.001
c-17.333 30.667 -56.666 46 -117.999 46h-39c-57.333 -4.66699 -89 -26.334 -95 -65.001c-8 -50 19.333 -75 82 -75c38.667 0 99.667 0.333008 183 1z" />
    <glyph glyph-name="uni01AB" unicode="&#x1ab;" horiz-adv-x="881" 
d="M671 1438l-55 -317.999h332l-45 -256h-332l-83 -475c-9.33301 -52 -6.33301 -87 9 -105c15.333 -18.667 50.666 -28 105.999 -28h166l-45 -256c-28 -140 -79.333 -248 -154 -324c-78.667 -78.667 -179.667 -118 -303 -118h-159l41 235h56c61.333 0 106 15.333 134 46
c26.667 28.667 47.334 82.667 62.001 162c-102 6.66699 -171.333 35.667 -208 87c-42.667 59.333 -51.667 159.666 -27 300.999l82 475h-160l45 256h160l56 318h322z" />
    <glyph glyph-name="uni01AC" unicode="&#x1ac;" horiz-adv-x="1302" 
d="M710 1493l713.001 -0.000976562l-51 -291h-445l-211 -1202h-346l210 1202h-2c-92 0 -154.833 -12.667 -188.5 -38s-56.834 -73 -69.501 -143l-8 -49h-245l30 177c21.333 120.667 65.666 208.334 132.999 263.001c66.667 54 164.334 81 293.001 81h187z" />
    <glyph glyph-name="uni01AD" unicode="&#x1ad;" horiz-adv-x="881" 
d="M580 1198l-14 -77.999h332l-44 -256h-332l-84 -475c-8.66699 -52 -5.33398 -87 9.99902 -105c16 -18.667 51.333 -28 106 -28h166l-45 -256h-276c-127.333 0 -212.666 29.333 -255.999 88c-42.667 59.333 -51.667 159.666 -27 300.999l84 475h-160l44 256h160l14 78
c19.333 112 65.666 202 138.999 270c62.667 58.667 162.667 88 300 88h246l-40 -235h-179c-45.333 0 -78.666 -9 -99.999 -27c-21.333 -18.667 -36 -50.667 -44 -96z" />
    <glyph glyph-name="uni01AE" unicode="&#x1ae;" horiz-adv-x="1257" 
d="M571 1202l-447.001 0.000976562l52 291h1238l-51 -291h-446l-184 -1057c-15.333 -86.667 -8.66602 -152.334 20.001 -197.001c29.333 -44.667 80 -67 152 -67h54l-51 -291h-70c-184 0 -313.667 46 -389 138c-74 92 -95 231 -63 417z" />
    <glyph glyph-name="Uhorn" unicode="&#x1af;" horiz-adv-x="1496" 
d="M300 1493h345.999l-157 -894c-5.33301 -32 -9.5 -60.333 -12.5 -85s-4.5 -46.334 -4.5 -65.001c0 -65.333 15.833 -114.166 47.5 -146.499s78.834 -48.5 141.501 -48.5c84 0 148.333 26.167 193 78.5s78 140.833 100 265.5l157 895h346l-157 -895
c-38.667 -220 -112.5 -379.5 -221.5 -478.5s-264.833 -148.5 -467.5 -148.5c-158.667 0 -279.5 37.833 -362.5 113.5s-124.5 185.5 -124.5 329.5c0 24 1.5 50.833 4.5 80.5s7.83301 64.167 14.5 103.5zM1333 1242l24.001 140.997c34.667 -33.333 61.834 -56.333 81.501 -69
s37.167 -19 52.5 -19c23.333 0 44.166 9.83301 62.499 29.5s30.166 45.834 35.499 78.501c4.66699 26 7 51.833 7 77.5s-2.33301 51.834 -7 78.501h140c0 -36.667 -1 -70.667 -3 -102s-5.33301 -60.666 -10 -87.999c-13.333 -76.667 -37.5 -135.5 -72.5 -176.5
s-78.167 -61.5 -129.5 -61.5c-32 0 -62.833 9 -92.5 27s-59.167 46 -88.5 84z" />
    <glyph glyph-name="uhorn" unicode="&#x1b0;" horiz-adv-x="1312" 
d="M120 436l118.002 684h323l-102 -583c-6.66699 -38 -11.834 -70.333 -15.501 -97s-5.5 -47.667 -5.5 -63c0 -42 10.5 -74.667 31.5 -98s50.833 -35 89.5 -35c66.667 0 124 28.667 172 86s81 137 99 239l97 551h324l-196 -1120h-325l30 164
c-55.333 -64.667 -113.333 -113 -174 -145s-124.334 -48 -191.001 -48c-92 0 -163.167 27 -213.5 81s-75.5 130.333 -75.5 229c0 23.333 1.16699 48 3.5 74s5.83301 53 10.5 81zM1069 850l24.001 140.997c34.667 -33.333 61.834 -56.333 81.501 -69s37.167 -19 52.5 -19
c23.333 0 44.166 9.83301 62.499 29.5s30.166 45.834 35.499 78.501c4.66699 26 7 51.833 7 77.5s-2.33301 51.834 -7 78.501h140c0 -36.667 -1 -70.667 -3 -102s-5.33301 -60.666 -10 -87.999c-13.333 -76.667 -37.5 -135.5 -72.5 -176.5s-78.167 -61.5 -129.5 -61.5
c-32 0 -62.833 9 -92.5 27s-59.167 46 -88.5 84z" />
    <glyph glyph-name="uni01B1" unicode="&#x1b1;" horiz-adv-x="1417" 
d="M1192 1224c60.667 -80.667 101.33 -167.333 121.997 -260s21.334 -193.667 2.00098 -303c-36 -208.667 -121.667 -375.667 -257 -501c-134.667 -126 -296 -189 -484 -189c-187.333 0 -326.333 63 -417 189c-90.667 125.333 -118 292.333 -82 501
c19.333 109.333 55.5 210.333 108.5 303s124.5 179.334 214.5 260.001h-262l45 256h548l-51 -291c-85.333 -56.667 -155.666 -129 -210.999 -217c-55.333 -88.667 -92.666 -187.667 -111.999 -297c-23.333 -135.333 -11.333 -241.666 36 -318.999
c47.333 -78 124 -117 230 -117c106.667 0 197.667 39 273 117c74 77.333 122.667 183.666 146 318.999c19.333 110 17 209 -7 297c-24.667 87.333 -69.667 159.666 -135 216.999l51 291h548l-44 -256h-262z" />
    <glyph glyph-name="uni01B2" unicode="&#x1b2;" horiz-adv-x="1499" 
d="M658 0l-69.999 0.00195312c-184.667 0 -314.334 46 -389.001 138s-95.667 231 -63 417l164 938h346l-164 -938c-14.667 -86.667 -7.66699 -152.334 21 -197.001s79 -67 151 -67h54c106.667 0 197.667 39 273 117c86 89.333 136.667 178.333 152 267
c24 135.333 21.667 234.333 -7 297c-50.667 108 -120.667 193.667 -210 257l25 145h243c98.667 -91.333 172.667 -228 222 -410c22 -82 22.667 -183 2 -303c-29.333 -168.667 -116.666 -318.334 -261.999 -449.001c-156.667 -141.333 -319.334 -212 -488.001 -212z" />
    <glyph glyph-name="uni01B3" unicode="&#x1b3;" horiz-adv-x="1469" 
d="M1149 1061l-331 -432l-110 -629h-347l110 629l-361 864h379l213 -532l257 342c108.667 144.667 227 217 355 217c80.667 0 143 -31 187 -93c32.667 -46.667 49 -100 49 -160c0 -20.667 -2 -42 -6 -64l-37 -216h-216l12 69c3.33301 20 1 36 -7 48
c-13.333 19.333 -27.333 29 -42 29c-33.333 0 -68.333 -24 -105 -72z" />
    <glyph glyph-name="uni01B4" unicode="&#x1b4;" horiz-adv-x="1434" 
d="M1486 646l-219.003 -0.00390625l10 60c4 22 3.66699 42.5 -1 61.5s-13 34 -25 45s-26.167 16.5 -42.5 16.5s-32.5 -5.66699 -48.5 -17c-17.333 -12 -31 -27 -41 -45c-4.66699 -10 -10 -20 -16 -30l-439 -843c-65.333 -125.333 -130 -212.666 -194 -261.999
c-66 -49.333 -145.333 -74 -238 -74h-186l41 235h100c54.667 0 96.334 9.66699 125.001 29c27.333 18.667 52.666 53.334 75.999 104.001l14 31l-245 1163h322l138 -760l270 564c70.667 148.667 187.334 223 350.001 223c60.667 0 113.834 -16.667 159.501 -50
s78.834 -78.666 99.501 -135.999c12.667 -36 19 -74.333 19 -115c0 -23.333 -2.33301 -47.666 -7 -72.999z" />
    <glyph glyph-name="uni01B5" unicode="&#x1b5;" horiz-adv-x="1336" 
d="M234 1493h1130l-41 -233l-348 -379h174l-45 -260h-369l-303 -330h742l-51 -291h-1171l41 233l356 388h-160l45 260h355l295 321h-700z" />
    <glyph glyph-name="uni01B6" unicode="&#x1b6;" horiz-adv-x="1072" 
d="M203 1120h880l-44 -250l-196 -188h112l-39 -221h-302l-214 -205h532l-46 -256h-901l44 250l219 211h-105l39 221h296l189 182h-509z" />
    <glyph glyph-name="uni01B7" unicode="&#x1b7;" horiz-adv-x="1423" 
d="M616 195c94 0 168.5 17.665 223.5 52.998s88.5 86 100.5 152c12 68 -4 119.333 -48 154c-44.667 35.333 -115.667 53 -213 53h-169l44 245l335 350h-670l51 291h1100l-44 -250l-422 -434c78.667 -7.33301 141 -18 187 -32c72 -22 127 -70.333 165 -145
c35.333 -68.667 44.333 -150.667 27 -246c-25.333 -148 -95.666 -260.667 -210.999 -338c-116 -76.667 -282.667 -115 -500 -115c-92.667 0 -184 10 -274 30c-89.333 20.667 -176 51.334 -260 92.001l50 290c85.333 -49.333 172.166 -86.666 260.499 -111.999
s177.5 -38 267.5 -38z" />
    <glyph glyph-name="uni01B8" unicode="&#x1b8;" horiz-adv-x="1423" 
d="M620 195c89.333 0 182.664 12.6689 279.997 38.002s197.333 62.666 300 111.999l-52 -290c-97.333 -40.667 -194.666 -71.334 -291.999 -92.001c-96.667 -20 -191.334 -30 -284.001 -30c-218 0 -371.333 38.333 -460 115c-88.667 77.333 -120 190 -94 338
c16.667 95.333 54.667 177.333 114 246c64.667 74.667 136.334 123 215.001 145c52 14 118.667 24.667 200 32l-271 434l44 250h1100l-51 -291h-671l214 -350l-44 -245h-168c-97.333 0 -174 -17.667 -230 -53c-56.667 -34.667 -91 -86 -103 -154
c-11.333 -66 4.33398 -116.667 47.001 -152s111.334 -53 206.001 -53z" />
    <glyph glyph-name="uni01B9" unicode="&#x1b9;" horiz-adv-x="1180" 
d="M904 479l-43.001 -244.999h-168c-98 0 -174.667 -17.333 -230 -52c-56.667 -35.333 -91 -87 -103 -155c-11.333 -66 4.33398 -116.667 47.001 -152s109.667 -53 201 -53c62 0 126.667 9.33301 194 28c67.333 18 136.666 45 207.999 81l-52 -297
c-72 -24.667 -144 -43.334 -216 -56.001c-72 -12 -142.333 -18 -211 -18c-195.333 0 -337.333 38.667 -426 116c-88.667 76.667 -120 189 -94 337c16.667 95.333 54.667 177 114 245c64 75.333 135.667 124 215 146c54.667 15.333 131.334 26 230.001 32l-301 434l44 250
h879l-44 -256h-509z" />
    <glyph glyph-name="uni01BA" unicode="&#x1ba;" horiz-adv-x="1072" 
d="M698 546c64.667 -11.333 117.664 -33 158.997 -65c47.333 -37.333 71 -90.333 71 -159c0 -18.667 -2 -39 -6 -61c-16 -92 -55.333 -160.333 -118 -205c-60.667 -43.333 -161.667 -74 -303 -92l-55 -7c-64.667 -8 -107.667 -18 -129 -30
c-23.333 -12.667 -37.666 -32.334 -42.999 -59.001v-15c0 -24.667 11.333 -43.667 34 -57c27.333 -16 71 -24 131 -24c66 0 132.333 7.33301 199 22c66.667 14 132.667 35.333 198 64l-39 -226c-80 -20.667 -151.667 -35.334 -215 -44.001
c-69.333 -9.33301 -136 -14 -200 -14c-147.333 0 -255 25 -323 75c-53.333 39.333 -80 94.333 -80 165c0 18.667 2 38.334 6 59.001c16.667 94 56.334 163.333 119.001 208c52.667 38 163.334 69.333 332.001 94l55 8c61.333 8.66699 101 17.667 119 27
c23.333 12 37.333 30.667 42 56c0.666992 5.33301 1 10.333 1 15c0 22.667 -10.667 39.334 -32 50.001c-27.333 14 -115.333 21 -264 21h-227l532 512h-508l45 256h879l-44 -250z" />
    </font>
</defs>
</svg>
